<?xml version="1.0" encoding="UTF-8"?><svg xmlns="http://www.w3.org/2000/svg" xmlns:xlink="http://www.w3.org/1999/xlink" viewBox="0 0 619 730"><defs><style>.cls-1{stroke:#6d85b9;stroke-width:3px;}.cls-1,.cls-2,.cls-3,.cls-4,.cls-5,.cls-6,.cls-7,.cls-8{fill:none;}.cls-1,.cls-3,.cls-4,.cls-5,.cls-6,.cls-7,.cls-8{stroke-miterlimit:10;}.cls-9{clip-path:url(#clippath);}.cls-2,.cls-10,.cls-11,.cls-12,.cls-13,.cls-14,.cls-15,.cls-16,.cls-17{stroke-width:0px;}.cls-18{filter:url(#luminosity-invert);}.cls-19{clip-path:url(#clippath-1);}.cls-20{clip-path:url(#clippath-2);}.cls-21{clip-path:url(#clippath-7);}.cls-22{clip-path:url(#clippath-8);}.cls-23{clip-path:url(#clippath-6);}.cls-24{clip-path:url(#clippath-5);}.cls-25{clip-path:url(#clippath-9);}.cls-26{clip-path:url(#clippath-13);}.cls-27{clip-path:url(#clippath-12);}.cls-28{clip-path:url(#clippath-10);}.cls-29{clip-path:url(#clippath-15);}.cls-30{clip-path:url(#clippath-17);}.cls-31{clip-path:url(#clippath-16);}.cls-32{clip-path:url(#clippath-11);}.cls-3{stroke-width:4px;}.cls-3,.cls-4{stroke:#00267f;}.cls-4{stroke-width:1.21px;}.cls-33{isolation:isolate;}.cls-5{stroke:#ffe895;}.cls-5,.cls-6,.cls-7,.cls-8{stroke-linecap:round;stroke-width:5px;}.cls-6{stroke:#ffc426;}.cls-7{stroke:#ffd04c;}.cls-8{stroke:#ffdc72;}.cls-34{mask:url(#mask-2);}.cls-35{mask:url(#mask-1);}.cls-11{fill:#6d85b9;}.cls-12{fill:#d0daec;}.cls-13{fill:#e1e8f4;}.cls-14{fill:#a0b1d5;}.cls-15{fill:#fff;}.cls-16{fill:#ffc426;}.cls-17{fill:#00267f;}.cls-36{filter:url(#luminosity-invert-2);}.cls-37{filter:url(#luminosity-invert-3);}</style><clipPath id="clippath"><rect class="cls-2" x="0" y="18.73" width="618.87" height="710.59"/></clipPath><clipPath id="clippath-1"><rect class="cls-2" x="0" y="18.73" width="618.87" height="710.59"/></clipPath><clipPath id="clippath-2"><rect class="cls-2" x="0" y="18.73" width="618.87" height="710.59"/></clipPath><clipPath id="clippath-3"><rect class="cls-2" x="0" y="18.73" width="618.87" height="710.59"/></clipPath><filter id="luminosity-invert" x="91.8" y="2.47" width="651.31" height="651.61" color-interpolation-filters="sRGB" filterUnits="userSpaceOnUse"><feColorMatrix result="cm" values="-1 0 0 0 1 0 -1 0 0 1 0 0 -1 0 1 0 0 0 1 0"/></filter><mask id="mask" x="91.8" y="2.47" width="651.31" height="651.61" maskUnits="userSpaceOnUse"><g class="cls-18"><g class="cls-33"><path class="cls-10" d="m743.11,328.28c0,179.94-145.8,325.8-325.65,325.8S91.8,508.21,91.8,328.28,237.6,2.47,417.46,2.47s325.65,145.87,325.65,325.8"/></g></g></mask><clipPath id="clippath-5"><rect class="cls-2" x="0" y="18.73" width="618.87" height="710.59"/></clipPath><clipPath id="clippath-6"><rect class="cls-2" x="0" y="18.73" width="618.87" height="710.59"/></clipPath><clipPath id="clippath-7"><rect class="cls-2" x="0" y="18.73" width="618.87" height="710.59"/></clipPath><clipPath id="clippath-8"><rect class="cls-2" x="0" y="18.73" width="618.87" height="710.59"/></clipPath><filter id="luminosity-invert-2" x="69.52" y="79.7" width="500.79" height="539.04" color-interpolation-filters="sRGB" filterUnits="userSpaceOnUse"><feColorMatrix result="cm" values="-1 0 0 0 1 0 -1 0 0 1 0 0 -1 0 1 0 0 0 1 0"/></filter><mask id="mask-1" x="69.52" y="79.7" width="500.79" height="539.04" maskUnits="userSpaceOnUse"><g class="cls-36"><g class="cls-33"><path class="cls-10" d="m570.31,330.21c0,138.35-112.11,250.51-250.4,250.51s-250.39-112.16-250.39-250.51,112.11-250.51,250.39-250.51,250.4,112.16,250.4,250.51"/></g></g></mask><clipPath id="clippath-9"><rect class="cls-2" x="75.34" y="443.28" width="478.33" height="175.47"/></clipPath><clipPath id="clippath-10"><rect class="cls-2" x="0" y="18.73" width="618.87" height="710.59"/></clipPath><filter id="luminosity-invert-3" x="91.8" y="4.47" width="651.31" height="651.61" color-interpolation-filters="sRGB" filterUnits="userSpaceOnUse"><feColorMatrix result="cm" values="-1 0 0 0 1 0 -1 0 0 1 0 0 -1 0 1 0 0 0 1 0"/></filter><mask id="mask-2" x="91.8" y="4.47" width="651.31" height="651.61" maskUnits="userSpaceOnUse"><g class="cls-37"><g class="cls-33"><path class="cls-10" d="m743.11,330.28c0,179.94-145.8,325.8-325.65,325.8S91.8,510.21,91.8,330.28,237.6,4.47,417.46,4.47s325.65,145.87,325.65,325.8"/></g></g></mask><clipPath id="clippath-11"><rect class="cls-2" x="285.16" y="479.84" width="168.8" height="9.43"/></clipPath><clipPath id="clippath-12"><rect class="cls-2" x="0" y="18.73" width="618.87" height="710.59"/></clipPath><clipPath id="clippath-13"><path class="cls-2" d="m303.48,75.99c-139.07,9.86-243.82,130.6-233.96,269.67,4.44,62.56,31.32,118.17,72.2,159.53,1.58,1.3,3.07,2.71,4.27,4.22,49.73,47.99,118.84,75.49,193.2,70.21,139.07-9.86,243.82-130.6,233.96-269.67-9.43-133-120.26-234.6-251.56-234.6-6,0-12.04.21-18.11.64"/></clipPath><clipPath id="clippath-15"><rect class="cls-2" x="0" y="18.73" width="618.87" height="710.59"/></clipPath><clipPath id="clippath-16"><rect class="cls-2" x="0" y="18.73" width="618.87" height="710.59"/></clipPath><clipPath id="clippath-17"><rect class="cls-2" x="0" y="18.73" width="618.87" height="710.59"/></clipPath></defs><g id="Ebene_2"><rect class="cls-15" x="0" width="618.87" height="729.32"/></g><g id="Ebene_1"><g class="cls-9"><g class="cls-19"><g class="cls-20"><path class="cls-17" d="m198.09,686.38h-11.02c-1.64-4.11-2.46-8.03-3.19-14.97-.82-6.67-3.28-10.87-9.01-11.23-1.55-.09-3.1-.09-4.64-.09h-9.74v26.29h-10.02v-63h21.67c3.37,0,5.65,0,8.65.37,9.1,1.19,15.93,6.03,15.93,16.8,0,8.22-5.01,13.06-11.65,15.07,5.64,2.47,8.01,7.94,8.65,14.52.73,7.94,1.82,12.78,4.37,16.25m-27.13-34.06c2.55,0,4.1,0,5.64-.18,5.46-.55,9.56-3.65,9.56-10.32s-3.37-9.4-8.74-10.13c-1.64-.28-3.28-.37-5.83-.37h-11.11v21h10.47Z"/><path class="cls-17" d="m267.2,644.08l.09.88h-9.92l-.18-.88c-1.73-8.16-6.92-13.34-16.39-13.34-11.65,0-19.03,9.65-19.03,23.96,0,15,7.47,24.3,18.57,24.3,9.47,0,14.66-5.35,16.39-13.51l.18-.88h9.92l-.09.88c-1.27,11.85-10.47,20.88-26.86,20.88-17.94,0-28.95-12.81-28.95-31.24s12.38-31.76,30.05-31.76c16.39,0,24.95,8.78,26.22,20.71"/><polygon class="cls-17" points="329.83 686.38 286.4 686.38 286.4 623.38 328.92 623.38 328.92 631.32 296.42 631.32 296.42 650.86 326.37 650.86 326.37 658.8 296.42 658.8 296.42 678.34 329.83 678.34 329.83 686.38"/><path class="cls-17" d="m134.29,655.04c0-18.98-12.38-31.67-30.05-31.67-16.39,0-24.95,8.75-26.22,20.64l-.09.88h9.92l.18-.88c1.73-8.14,6.92-13.3,16.39-13.3,11.65,0,19.03,9.62,19.03,23.88,0,14.96-7.46,24.23-18.57,24.23l-66.2.02-10.07,7.52h76.43c17.76-.16,29.24-13.07,29.24-31.33"/><path class="cls-17" d="m390.01,641.8h-10.38c-.73-6.93-4.92-11.06-12.2-11.06-5.92,0-10.56,2.63-10.56,8.34s3.73,8.6,13.48,10.79c13.84,3.07,20.39,8.77,20.39,18.87,0,10.97-10.11,17.64-22.31,17.64-14.39,0-23.58-6.58-24.86-18.78h10.38c1.64,7.46,7.1,11.41,14.48,11.41,6.56,0,11.75-3.42,11.75-8.95,0-6.32-3.83-9.56-14.02-11.85-11.93-2.72-19.85-7.02-19.85-17.55s9.92-17.28,21.67-17.28c13.93,0,20.76,7.9,22.03,18.42"/><polygon class="cls-17" points="434.71 631.32 434.71 686.38 424.79 686.38 424.79 631.32 402.84 631.32 402.84 623.38 456.65 623.38 456.65 631.32 434.71 631.32"/><path class="cls-17" d="m519.47,686.38h-11.02c-1.64-4.11-2.46-8.03-3.19-14.97-.82-6.67-3.28-10.87-9.01-11.23-1.55-.09-3.1-.09-4.64-.09h-9.74v26.29h-10.02v-63h21.67c3.37,0,5.65,0,8.65.37,9.11,1.19,15.93,6.03,15.93,16.8,0,8.22-5.01,13.06-11.65,15.07,5.64,2.47,8.01,7.94,8.65,14.52.73,7.94,1.82,12.78,4.37,16.25m-27.13-34.06c2.55,0,4.1,0,5.64-.18,5.46-.55,9.56-3.65,9.56-10.32s-3.37-9.4-8.74-10.13c-1.64-.28-3.28-.37-5.83-.37h-11.11v21h10.47Z"/><path class="cls-17" d="m547.42,665.56l-6.83,20.82h-10.65l22.58-63h12.93l21.94,63h-10.83l-6.83-20.82h-22.31Zm19.67-7.94l-8.29-25.93-8.74,25.93h17.03Z"/></g><g class="cls-24"><path class="cls-15" d="m573.08,328.74c0,139.6-113.17,252.77-252.77,252.77s-252.77-113.17-252.77-252.77,113.17-252.77,252.77-252.77,252.77,113.17,252.77,252.77"/></g><g class="cls-23"><path class="cls-12" d="m362.44,348.9c1.98-3.29,2.95-7.24,2.5-11.36-1.09-10.02-10.09-17.26-20.1-16.18-1.63.18-3.19.57-4.65,1.13-.61.24-1.2.51-1.77.8-2.68,1.39-4.95,3.41-6.64,5.86,1.45-2.83,3.61-5.25,6.28-7-.36-1.1-.81-2.18-1.35-3.24-5.94-11.73-20.26-16.43-31.99-10.49-5.75,2.91-9.81,7.84-11.76,13.49.4.37.77.77,1.12,1.18-.38-.34-.78-.67-1.2-.97-.12-.09-.25-.18-.38-.26-2.16-1.49-4.73-2.45-7.54-2.68-8.56-.7-16.07,5.68-16.76,14.24-.38,4.69,1.37,9.07,4.43,12.18-.89-.69-1.69-1.48-2.4-2.33,3.69,5.5,9.64,8.81,9.64,8.81l78.46,1.09c.68,0,2.73-1.92,4.57-4.93-.16.22-.31.45-.48.67"/><path class="cls-15" d="m346.21,358.88c-.64-5.89-5.93-10.15-11.83-9.51-2.01.22-3.83.99-5.33,2.13-.01-1.92-.44-3.86-1.37-5.68-3.19-6.3-10.89-8.83-17.19-5.64-3.38,1.71-5.66,4.72-6.57,8.11-.04-.03-.08-.05-.12-.08.04.03.07.07.11.11.06.06.12.11.17.17,0-.02.02-.04.02-.06,1-2.98,3.12-5.58,6.14-7.11,6.11-3.09,13.56-.65,16.65,5.46.88,1.74,1.3,3.59,1.32,5.42-.92.86-1.68,1.86-2.25,2.98.62-.9,1.38-1.71,2.26-2.39.26-.2.53-.39.81-.57,1.34-.86,2.89-1.44,4.59-1.62,5.87-.64,11.14,3.61,11.77,9.47.26,2.44-.32,4.77-1.51,6.71,1.73-2.14,2.64-4.95,2.32-7.9"/><path class="cls-15" d="m293.6,346.65c-5.1,2.47-7.23,8.61-4.76,13.7,1.39,2.88,3.96,4.81,6.84,5.5-2.69-1.03-4.93-3.18-5.97-6.11-1.89-5.31.89-11.15,6.2-13.04,2.2-.78,4.48-.75,6.55-.09-2.71-1.28-5.96-1.38-8.86.03"/><path class="cls-15" d="m413.9,349.56c-4.68-2.75-10.3-2.55-14.85-.37-1.3-4.47-4.4-8.47-8.47-10.94-14.71-8.73-32.41.64-31.86,17.53-.07-4.76,1.65-9.53,4.89-12.92,6.55-6.58,17.86-7.82,26.06-3.15,3.91,2.22,6.79,5.9,8.23,10.09-3.35,1.94-5.97,5.01-6.94,8.8,3.69-8.2,13.69-11.21,21.86-7.15,8.3,3.92,11.12,14.88,5.69,22.07,6.65-7.19,4.16-19.1-4.62-23.96"/><path class="cls-12" d="m418.56,373.2c.49-.61.93-1.26,1.32-1.95,3.43-7.06.42-16.28-7.05-19.81-8.17-4.07-18.18-1.06-21.86,7.15.97-3.79,3.59-6.86,6.94-8.8-1.44-4.19-4.33-7.86-8.23-10.09-8.2-4.67-19.51-3.43-26.06,3.15-1.47,1.54-2.61,3.37-3.43,5.35-.1.23-.2.46-.29.7-.16.45-.31.91-.44,1.37-.02.08-.05.16-.08.25-.46,1.7-.68,3.48-.65,5.25-.03-.82,0-1.61.06-2.39-.07.51-.14,1.03-.18,1.55-4.53.54-8,4.42-7.97,9.19.02,3.04,1.46,5.75,3.66,7.51l39.82.91s.09-.08.13-.12c.03.04.07.09.1.13l5.68.13v.09s18.53.43,18.53.43Z"/><path class="cls-13" d="m343.27,367.39l-46.62-1.04c-2.55-.1-12.01-6.57-5.93-16.03,4.7-7.3,13.07-4.08,13.5-1.82,0,0,1.49-9.11,12.64-9.04,12.03.08,11.85,12.94,11.85,12.94,0,0,5.44-4.58,12.06-.76,9.3,5.36,3.39,15.75,2.49,15.75"/></g><g class="cls-21"><path class="cls-17" d="m296.76,387.34c2.38,0,4.31-1.77,4.31-3.96s-1.93-3.96-4.31-3.96-4.31,1.77-4.31,3.96,1.93,3.96,4.31,3.96m0-7.23c1.96,0,3.55,1.46,3.55,3.27s-1.59,3.27-3.55,3.27-3.55-1.46-3.55-3.27,1.59-3.27,3.55-3.27"/><path class="cls-17" d="m296.76,385.95c1.54,0,2.79-1.15,2.79-2.57s-1.25-2.57-2.79-2.57-2.79,1.15-2.79,2.57,1.25,2.57,2.79,2.57m0-3.56c.59,0,1.07.44,1.07.99s-.48.99-1.07.99-1.07-.44-1.07-.99.48-.99,1.07-.99"/><path class="cls-17" d="m297.46,365.72c1.91,0,3.46-1.43,3.46-3.19s-1.55-3.18-3.46-3.18-3.46,1.43-3.46,3.18,1.55,3.19,3.46,3.19m0-5.81c1.58,0,2.85,1.18,2.85,2.62s-1.28,2.62-2.85,2.62-2.85-1.18-2.85-2.62,1.28-2.62,2.85-2.62"/><path class="cls-17" d="m297.46,364.6c1.24,0,2.24-.92,2.24-2.06s-1.01-2.07-2.24-2.07-2.24.93-2.24,2.07,1,2.06,2.24,2.06m0-2.86c.48,0,.86.36.86.79s-.39.79-.86.79-.86-.36-.86-.79.39-.79.86-.79"/><path class="cls-17" d="m378.13,411.58l-.56-.13h-1.02v1.85h-3.41v2.93h-.47v1.84h1.31v3.95h-8.95s-.19-5.94-.19-5.94h0s-.02-.02-.02-.02l-1.11-.87h.02l-1.89-1.51h-.03l-5.28-4.19h-1.65l6.8,4.5-10.37-6.86-.43-.85-.54-1.06-4.97.07h.05s-.35-1-.35-1l-.34-1.04-.04-.32-1.6-16.53,2.01-.59-.68-9.54-1.93-.18v-3.53h-1.45v3.39l-1.47-.17v-3.24l-1.35-.03v3.18l-1.44-.13v-3.1h-1.18v2.99l-2.19-.21-.75,11.09,1.37.34-1.17,13.72h0s-2.92-.07-2.92-.07l.26-1.12h-.02.02l1.63-.71-.05-.7.09-.2-1.23-1.37-21.6.78-.11-13.3c1.38-.13,2.46-1.28,2.46-2.7,0-1.5-1.22-2.72-2.72-2.72s-2.72,1.22-2.72,2.72c0,1.42,1.09,2.57,2.47,2.7l-.09.02.14,13.31h-.15s.05,1.11.05,1.11l-.24-1.8-3.73-1.23.16-2.85h.24s.43-1.75.43-1.75l-3,.17v-16.41h.4v1.08h.54v-6.45h-.54v.71h-.4v-2.05h.4v.5h.54v-.43h.35v-1.24h-.35v-.56h-.54v.5h-.4v-8.75h.4v.97h.54v-4.03h-.54v.4h-.4v-2.91h-.94v-.93h-.74v-19.66c.27-.09.46-.32.46-.59,0-.35-.31-.63-.68-.63s-.68.28-.68.63c0,.24.15.45.37.56v19.7h-.88v.93h-1.35v6.48h-.34v.79h.34v.15c.1,0,.19-.01.29-.01.11,0,.21,0,.32.01v-.16h1.89v.87c.09.07.18.15.27.23v-2.29h1.07l-.96,2.4c.05.05.1.11.15.17l.81-2.05v2.44h-.52c.1.16.18.32.25.49h.21l-.11.31c.03.12.06.25.08.38l.1-.27v2.54h-.74c-.18.22-.38.42-.61.59v9.5h-1.89v-9.9c-.1,0-.21.01-.32.01-.1,0-.19,0-.29-.01v9.89h-.34v.79h.34v.92c.1-.01.19-.01.29-.01.11,0,.21,0,.32.02v-.93h1.89v3.17c.1.12.19.25.27.38v-.09h.98l-.98,2.59v-.1c-.08.14-.17.26-.27.38v9.05l-1.89.1v-6.91c-.1.01-.21.02-.32.02-.1,0-.19,0-.29-.01v6.94l-2.54.14-3.27.71-8.95-1.03-1.81,1.03,1.38.34-.18,1.97-4.13,1.86.04.03h-.04l-2.32,3.17h2.03s.99,4.83.99,4.83l-.03,2.05-5.97-.05-7.28,4.55h-.15s-.16,3.02-.16,3.02l.03-1.23-2.01.02s.07-.09.07-.15c0-.2-.18-.36-.39-.36h-1.91c-.22,0-.39.16-.39.36,0,.07.04.12.08.18l-4.93.06c.06-.06.11-.14.11-.24,0-.2-.18-.36-.39-.36h-1.91c-.21,0-.39.16-.39.36,0,.11.06.2.14.26l-3.86.05-9.97,5.66-1.07.68-.23,6.37c-.15,0-.54-3.83-1.1-3.84l-.18-3.44c1.95-.15,3.34-.52,3.34-.97,0-.35-.88-.66-2.22-.85l-.36-7.5-.71-.69.08-.98h0l.06-.61h-.01v-.05s-1.73,0-1.73,0v2.12l-5.9-.86s-5.05-.86-9.4-1.18c-.79-.06-1.62-.1-2.43-.15-1.17-.08-2.32-.15-3.45-.21-.35-.02-.68-.04-1.03-.06-2.56-.14-4.85-.22-6.45-.23,0,0-.02,0-.02,0,0,0,0,0,0,0-.03,0-.19-.15-.38-.34-.03-.04-.05-.07-.08-.1l-.42-11.81.84-.57-.04-2.07c-.07.04-.13.06-.2.09.08-.05.18-.09.23-.15-.24-.53-1.7-.58-2.01.06.08.07.17.11.26.15-.09-.04-.17-.07-.26-.12l.07,2.13.6.47.28,11.51c-.08-.02-.17-.04-.26-.05-.32-.08-.66-.12-.91-.06-.16.02-.24.05-.22.12-.02.02-.05.03-.06.05-.12.45-.41,1.36-.41,1.36,0,0-.02,0-.02,0v-.02s-1.29-.08-1.29-.08c-.6-.04-1.21-.08-1.4-.08h-.02c-.39,0-.13.86-.13.86l4.78.23.16,6.71c-.15-.25-.43-.4-.43-.54v-1.42c0-.39-.89-.5-.86,0,.03.51.06.9.14,1.24.07.28.23.57.52.8.3.24.35.43.3.57l-.46.14c-.36-.24-.56-.36-.49-.26.07.1.14.22.23.34l-17.96,5.33h0s0,0,0,0h0s0,0,0,0l.07.43.4.45v.02c-.06.08-.12.12-.2.22v1.03s-.01.29-.01.29c-.13.01-.27.03-.4.04l.02-.1-1.94.22v.1c-2.11.25-3.93.53-5.21.84-.77.19-.7.56-.2,1.2.05.07,2.9,3.3,2.9,3.3h.05c2.37,2.62,4.95,2.66,10.32,9.93,4.6,6.23,2.85,13.15,2.94,14.93-.05.1,44.17,2.12,90.26,2.6,21.24.22,45.86,1.37,60.27,1.14,10.1-.16,21.78-.57,28.49-.86,32.88-1.42,59.19-1.63,59.19-1.63,0,0,8.22-1.09,12.24-1.26,3.52-.15,16.87.03,20.65-2.29,2-1.23,2.09-15.54,2.09-15.54,0,0-.09,0-.22,0l-2.53-1.01s-.11-.85-.76-1.3c-.47-.33-1.9-.34-1.53-.27l-.11.27-.35-.05,3.72-2.94-.4-.52-2.68-1.74-1.37.96,1.18,1.2-3.82,2.56h0s0,0,0,0l-3.86-3.92,1.7-1.37h1.11l.87-.9-.28-.8-2.75-1.33-2.54,1.56-7.71-17.59-.93.41,1.8-.79v-.89l-9.95-4.14-2.07.87,9.58,4.15.06,1.04-.06-1.04-9.58-4.15.22.79,2,1.57,5.59,15.81h-2.73l-.26-.56-.35-.26-1.17-.05h0s-.98.87-.98.87l-25.42.6v-.31l-.38-.35h-3.65l-.41,2.48v1.74h-.29s-.28,1.73-.28,1.73l.27-1.73h-1.58s-7.32-3.84-7.32-3.84h-4.4s-.07-.71-.07-.71l.07-1.92c-.09-.49-.45-.7-1.03-.73-.74-.05-2.08.97-.7,1.12h.71s-.1,2.25-.1,2.25h-4.16s0-3.93,0-3.93h1.47v-1.84h-.44v-2.93h-3.55v-1.85h-1l-.49.03-6.85.1Zm-75.89-55.39h.4v.59h-.4v-.59Zm0,13.6h.4v1.08h-.4v-1.08Zm0,3.28h.4v.77h-.4v-.77Zm-1.95-14.63h-1.89v-5.92h1.89v5.92Zm-95.13,32.54c.38.13.82.11,1.17,0-.44.16-.78.15-1.17,0m-15.86,31.42l-.12-1.08c-.16-.27-.31-.46-.46-.6l11.94-3.48.04,4.38c-3.63.19-7.7.45-11.4.77m12-.8v-4.13s.45-.53.45-.53h0s0,.01,0,.01l.48-.15h0s3.75-1.1,3.75-1.1l.14,5.68c-1.42.06-3.06.13-4.82.22m32.47-.31c-2.39-.02-5.47-.04-8.73-.05v-.1s-1.6-.03-1.6-.03v.12c-6.36-.02-13.05,0-16.34.11-.04,0-.09,0-.14,0l-.21-5.87,5.7-1.66-.21-.58-.05.02-.73-.38-4.75,1.41-.26-7.35.23-.24s4.74.86,8.2,1.06c3.46.2,5.67.29,5.67.29l1.73,1.1,1.15-.2.4-.61,5.85.73.93.69,1.86.25-.38,4.28-.09,1.01-8.58-6.35-.38.07,7.65,5.99.95,1.18c-.96.19-1.56.45-1.56.74,0,.47,1.56.86,3.68.99v3.39Zm66.79-56.33h.98l-.98,2.58v-2.58Zm0,6.98l.02-.06h.92l-.94,2.7v-2.65Zm0,3.41h.98l-.98,2.66v-2.66Zm0,6.93h.96l-.96,2.65v-2.65Zm0,3.46h1.05l-1.05,2.56v-2.56Zm0,4.98v-1.52h.95l-.53,1.5-.42.02Zm1.08-.06l-.44.02.44-1.24v1.21Zm0-1.96h-1.03l1.03-2.51v2.51Zm0-3.46h-.98l.98-2.7v2.7Zm0-3.46h-1.01l1.01-2.66v2.66Zm0-3.46h-.98l.98-2.65v2.65Zm0-3.46h-.96l.96-2.75v2.75Zm0-3.46h-.86l.86-2.16v2.16Zm0-2.7l-1.07,2.7h0v-2.97h1.08v.26Zm0-.76h-1.01l1.01-2.66v2.66Zm-1.08-13.36h1.04l-1.04,2.61v-2.61Zm1.08,2.97h-1.01l1.01-2.54v2.54Zm0-3.46h-1.08v-1.55h1.08v1.55Zm42.17,22.99v1.54l-1.42-.13-.07-1.57,1.49.17Zm-7.12-.7l1.71.17.04,1.67-1.74-.17v-1.67Zm-2.76-.33l1.67.2-.07,1.7-1.6-.13v-1.77Zm0,4.61v-2.14l1.71.17.04,2.01-1.74-.03Zm2.76.1l-.04-2.04,1.74.17.07,1.91-1.78-.03Zm2.81.07l.03-1.88,1.38.14.09,1.73h-1.49Zm1.52-2.41l-1.56-.13-.05-1.64,1.68.17-.07,1.61Zm1.42.76l1.34.08.04,1.61h-1.51s.13-1.68.13-1.68Zm31.94,37.06h-1.1v-.5h1.1v.5Zm0-.61h-1.1v-.45h1.1v.45Zm0-.56h-1.1v-.5h1.1v.5Zm0-.61h-1.1v-.45h1.1v.45Zm0-.56h-1.1v-.47h1.1v.47Zm.33,2.35h-.19v-.5h.19v.5Zm0-.61h-.19v-.45h.19v.45Zm0-.56h-.19v-.5h.19v.5Zm0-.61h-.19v-.45h.19v.45Zm0-.56h-.19v-.47h.19v.47Zm1.42,2.35h-1.28v-.5h1.28v.5Zm0-.61h-1.28v-.45h1.28v.45Zm0-.56h-1.28v-.5h1.28v.5Zm0-.61h-1.28v-.45h1.28v.45Zm0-.56h-1.28v-.47h1.28v.47Zm.42,2.35h-.28v-.5h.28v.5Zm0-.61h-.28v-.45h.28v.45Zm0-.56h-.28v-.5h.28v.5Zm0-.61h-.28v-.45h.28v.45Zm0-.56h-.28v-.47h.28v.47Zm12.03-.47h1.31v.47h-1.31v-.47Zm0,.58h1.31v.45h-1.31v-.45Zm0,.56h1.31v.5h-1.31v-.5Zm0,.61h1.31v.45h-1.31v-.45Zm-1.84,1.06h-.26v-.5h.26v.5Zm0-.61h-.26v-.45h.26v.45Zm0-.56h-.26v-.5h.26v.5Zm0-.61h-.26v-.45h.26v.45Zm0-.56h-.26v-.47h.26v.47Zm1.42,2.35h-1.28v-.5h1.28v.5Zm0-.61h-1.28v-.45h1.28v.45Zm0-.56h-1.28v-.5h1.28v.5Zm0-.61h-1.28v-.45h1.28v.45Zm0-.56h-1.28v-.47h1.28v.47Zm.28,2.35h-.14v-.5h.14v.5Zm0-.61h-.14v-.45h.14v.45Zm0-.56h-.14v-.5h.14v.5Zm0-.61h-.14v-.45h.14v.45Zm0-.56h-.14v-.47h.14v.47Zm.14,1.85h1.31v.5h-1.31v-.5Zm51.24,7.26l-.52,2.74-29.4.08.18-2.77,31.19-.07h-1.46Zm3.6-.75l-2.65.03h0s2.65-.03,2.65-.03Zm.58,3.48l.08-1.61.57,1.61h-.65Zm4.44-.01l-6.83-18.03,1.51.64,1.93.36-1.13-.21-.5-.09,7.29,17.32h-2.27Z"/><rect class="cls-17" x="242.33" y="409.35" width="12.84" height="7.34"/><rect class="cls-17" x="242.33" y="409.35" width="12.84" height="7.34"/><path class="cls-17" d="m261.06,400.06c.4,6.52-4.57,12.13-11.09,12.53-6.52.4-12.13-4.57-12.53-11.09-.4-6.52,4.57-12.13,11.09-12.53,6.52-.4,12.13,4.57,12.53,11.09"/></g><g class="cls-22"><g class="cls-35"><g class="cls-25"><path class="cls-11" d="m523.45,444.83s-15.98,10.29-40.6.66c0,0-17.48,10.73-42.12-.38,0,0-8.14,4.09-19.33,4.26-1.03.03-2.11.02-3.26-.06-.21-.01-.42-.03-.63-.05-.17-.01-.33-.02-.5-.04-4.64-.37-9.65-1.49-14.73-3.85-1.1.68-16.8,9.9-40.53.61,0,0-5.16,3.16-13.83,4.27-5.48,2.13-14.32,2.95-27.57-2.74,0,0-16.25,10.04-40.61.02,0,0-17.75,10.45-42.1-1.04,0,0-8.25,3.96-19.44,3.95-1.03.02-2.11-.02-3.26-.11-.21-.01-.42-.04-.63-.06-.17-.02-.33-.03-.5-.05-4.63-.44-9.61-1.64-14.62-4.08-1.12.66-17.06,9.64-40.54-.02,0,0-17.75,10.45-42.1-1.04,0,0-20.83,9.99-41.2-1.82,11.96,37.58,32.6,72.11,60.61,100.52l.15.13c1.65,1.37,2.94,2.64,3.93,3.89l.17.19c25.14,24.31,54.41,42.81,87.01,54.98,28.06,10.48,57.32,15.76,87.2,15.76,6.05,0,12.12-.22,18.21-.65,66.99-4.76,128.12-35.38,172.13-86.23,22.15-25.59,38.62-54.78,48.92-86.01-4.99,2.95-14.43,5.42-30.22-1.03"/></g></g></g><g class="cls-28"><g class="cls-34"><g class="cls-32"><path class="cls-12" d="m453.96,486.6c-11.75,4.97-25.09,2.13-36.6-2.19-.03,0,1.56-.12,1.56-.12-.62.3-1.15.51-1.72.73-9.72,3.72-20.34,4.82-30.67,3.98-1.67-.21-3.47-.37-5.13-.61-1.16-.21-3.97-.71-5.09-.91-3.95-.89-7.82-2-11.7-3.16l1.39-.1c-10.05,4.25-21.06,5.51-31.84,4.55-2.04-.11-5.05-.67-7.09-.94-5.87-1.15-11.63-2.94-17.25-4.96h1.28c-4.23,1.63-8.45,2.61-12.86,3.29-4.33.65-8.71.86-13.06.66v-.31c8.72-.52,17.54-2.64,25.29-6.66,2.28,1.18,4.55,2.42,6.9,3.44,1.24.48,3.72,1.44,4.91,1.85,1.67.46,3.41.97,5.07,1.4,11.33,2.48,23.67,1.81,34.17-3.35,1.29-.6,2.44-1.32,3.53-2.08l.77.32c6.1,2.96,12.44,5.12,19.19,5.99,10.87,1.49,22.86.15,32.13-6.02l.6-.45.96.33c10.78,5.07,23.37,8.82,35.11,4.92l.15.4"/></g></g><path class="cls-12" d="m220.77,517.47c7.37-1.68,14.28-4.58,20.58-8.67l1.07-.71,1.08.67c14.17,8.46,31.74,10.7,47.72,6.73,5.63-1.45,11.45-3.45,15.84-7.33,6.89,5.13,15.29,8.31,23.81,9.45l-.02.86c-2.12.09-4.21,0-6.32-.17-6.47-.51-12.71-2.1-18.61-4.91l2.6-.05c-.81.41-1.45.67-2.17.95-18.06,6.73-38.2,6.39-56.64,1.31-2.77-.71-5.45-1.48-8.31-2.36l2.15-.04c-7.25,2.88-15.01,4.47-22.76,4.66l-.05-.39"/></g><g class="cls-27"><path class="cls-7" d="m199.77,410.85c-.59-1.53-1.11-3.1-1.54-4.72-6.45-24.14,7.9-48.94,32.04-55.39,5.16-1.38,10.35-1.81,15.39-1.39"/><path class="cls-6" d="m218.8,403.76c-.36-.91-.68-1.85-.94-2.82-3.57-13.39,4.38-27.14,17.77-30.71,2.91-.78,5.84-1.01,8.67-.76"/></g><g class="cls-26"><path class="cls-12" d="m531.59,132.16c-1.03,1.38-9.28,3.93-16.35,6.41-.53,0-1.06-.02-1.61-.01-46.83.5-93.71,2.3-140.57,3.88-21.4.72-42.79,2.28-64.19,3.49-2.3.13-4.59.5-6.93,1.59,58.64,5.12,117.7,6.17,176.71,7.61-.47,1.08-.86,2.22-1.17,3.41-59.35,1.8-118.71,3.73-178.06,4.99-32.85.7,144.84,8.4,112,8.53-22.22.09-44.48,1.09-66.72,1.72-1.78.05-3.56.38-5.34.58-.08.38-.15.76-.22,1.14,1.58.38,3.13.94,4.75,1.13,23.56,2.7,47.01,6.06,70.71,7.89,76.37,5.88-57.7,2.34,18.76,7.65,8.65.6,17.3.55,25.96.43,1.66,4.64,4.38,8.92,7.78,12.46-.92,1.66-1.56,3.52-1.91,5.52-.64,3.64-.3,7.75,1.24,12.02,1.78,4.95,4.9,9.36,8.72,12.86-8.56,5.71-12.71,16.91-9.8,30.08,2.35,10.62,8.8,20.3,17.11,27.07-5.52,6.12-14.92,19.19-13.4,29.72,1.66,11.54,6.24,20.86,14.89,28.88l-5.99,21.61,19.8.36c12.9.18,73.75,4.13,77.7-7.16,23.1-66.03,3.75-167.55-43.86-233.84"/><path class="cls-14" d="m489.59,296.64c-1.06-5.41-1.41-13.08.85-17.03,1.83-3.2,5.65-7.15,8.53-8.08,0,0-3.16-4.72-3.8-9.1-.52-3.55-.21-8.68,1.73-10.12-1.02-1.46-2.25-9.22,2.23-15.43,4.43-6.15,12.77-9.18,15.22-8.74-.26-8.49,8.25-19.46,21.48-20.34,13.02-.87,22.94,9.74,22.83,12.04,0,0,5.69.24,9.43,1.8,5.11,2.12,8.43,6.32,9.69,14,.12,0,5.56,1.52,7.67,3.36,3.4,2.97,4.74,6.35,5.01,11.36.18,3.34-1.43,8.02-3.08,9.29,1.04,1.15,1.91,5.15,1.46,9.27-.33,2.99-1.51,6.59-3.14,8.01,5.21,2.67,7.36,13.06,7.47,16.98.26,9.27-4.94,15.9-7,17.09,1.12.69,7.17,6.68,5.23,16.85-1.19,6.24-2.49,12.09-6.47,16.19-.47.48-.53,1.23-.16,1.79.48.72.89,1.48,1.23,2.27.52,1.2-2.64,2.46-3.5,3.75-.27.4-.68.69-1.16.69l-78.75-.08c-4.99-.39-8.57-8.01-8.76-10.56-.58-7.8,4.47-11.43,6.21-11.86-2.35-1.79-8.43-5.18-9.22-14.87-.4-4.86,2.16-9.41,2.16-9.41-.44.43-2.78-6.03-3.39-9.13"/><path class="cls-11" d="m473.96,377.27c.58-.02,1.14.1,1.69,0,24.36.89,82.22.62,89.12.44,4.55-.82,14.44-23.82-.98-38.47-6.75-6.41-15.4-2.72-15.4-3.27,0-9.12-8.59-15.93-16.51-19.17-2.62-1.3-5.68-2.06-8.96-2.06-6.61,0-12.34,3.05-15.3,7.54-3.12-1.74-6.7-2.73-10.51-2.73-11.99,0-22.15,9.26-22.15,21.3,0,1.56.62,3.57.93,5.04-6.65-.49-15.28,5.68-15.41,16.1-.14,10.64,9.94,15.43,13.5,15.3"/></g><line class="cls-1" x1="516.26" y1="363.79" x2="499.9" y2="421.03"/><line class="cls-1" x1="501.08" y1="416.9" x2="495.48" y2="436.5"/><line class="cls-1" x1="529.3" y1="351" x2="512.94" y2="408.24"/><line class="cls-1" x1="514.12" y1="404.11" x2="508.52" y2="423.71"/><line class="cls-1" x1="533.18" y1="370.26" x2="516.83" y2="427.49"/><line class="cls-1" x1="518.01" y1="423.37" x2="512.41" y2="442.96"/><line class="cls-1" x1="544.84" y1="362.29" x2="528.49" y2="419.52"/><line class="cls-1" x1="529.67" y1="415.4" x2="524.07" y2="434.99"/><line class="cls-1" x1="551.86" y1="370.6" x2="535.5" y2="427.83"/><line class="cls-1" x1="536.68" y1="423.7" x2="531.08" y2="443.3"/><line class="cls-1" x1="510.51" y1="351.07" x2="494.16" y2="408.3"/><line class="cls-1" x1="495.34" y1="404.17" x2="489.74" y2="423.77"/><g class="cls-29"><path class="cls-3" d="m573.15,309.95c-9.86-139.07-130.6-243.82-269.67-233.96-139.07,9.86-243.82,130.6-233.96,269.67,4.44,62.56,31.32,118.17,72.2,159.53,1.58,1.3,3.07,2.71,4.27,4.22,49.73,47.98,118.84,75.48,193.2,70.21,139.07-9.86,243.82-130.6,233.96-269.67Z"/></g><g class="cls-31"><path class="cls-13" d="m211.94,198c-23.77-.93-47.54-2.45-71.31-3.74-.38-.02-.76-.27-1.14-.42.01-.25.03-.49.04-.74,23.87-1.27,47.8-1.55,71.53-5.4-.81-.7-1.6-.94-2.4-1.02-7.41-.78-14.83-1.78-22.24-2.24-16.24-1.02-32.48-2.18-48.71-2.5-16.29-.32-32.56-.21-48.83-.03-.81,0-1.61.32-2.38,0-5.55-2.3-10.82-1.43-15.74,2.72-3.99,3.38-6.91,8.33-7.91,15.48-.65,4.68-.37,7.75-.42,8.93-.19.04-.42.13-.65.11-4.76-.27-8.58,2.12-11.1,8.48-.31.78-1.05,1.51-1.69,1.6-5.79.74-11.62,1.18-17.4,2.1-10.87,1.73-12.71,3.72-23.56,5.64-.72.13-1.4.59-2.11.9.04.27.08.55.12.82,12.64,1.22,16.26.93,28.9.92-3.38.94-7.5,2.23-12,3.7-12.41,1.52,8.44,3.02-3.97,4.41-8.99,1.01,1.61.66-7.39,1.63-.46.05-2.68.47-3.12.66,0,.24.9.42.91.66.66.25,4.87.4,5.53.51,7.92,1.35-6.44,4.52,1.49,5.31,21.25,2.1,9.24,3.7,30.5,5.52,2.12.18,4.17.31,6.2,1.83,1.23.93,2.59,1.6,3.97,1.44.05,0,.1,0,.15,0-3.26,4.74-5.12,10.18-5.12,15.95,0,5.18,1.49,10.08,4.15,14.46-3.19,4.7-5.01,10.07-5.01,15.78,0,7.52,3.14,14.45,8.44,20.04-14.37,7.98-20.55,42.67,7.33,54.82,4.41,1.92,42.82-.08,44.17.26h37.06c-.16-1.04,10.79,1.62,11.57-9.91.07-.98-1.06-2.82-.26-3.94.42-.58.79-1.2,1.12-1.86.46-.9.83-1.87,1.1-2.89.22-.82.38-1.67.46-2.55.29-3.25-.44-6.41-1.91-9.13-1.66-3.08-4.29-5.58-7.47-7.02,1.18-2.81,1.83-5.9,1.83-9.15,0-5.31-1.77-10.19-4.71-14.12,2.11-2.56,3.48-6.05,3.6-10.95.05-1.98-.13-3.75-.49-5.35-.04,0-.09,0-.13,0-.99-3.83-3.07-6.65-5.75-8.81-.49-.39-.98-1.79-.96-2.65.12-4.14-.88-7.42-2.86-10.18,2.83-3.89,4.53-8.67,4.53-13.88,0-1.58-.16-3.12-.45-4.61,4.28-1.02,7.23-6.59,6.68-12.91-.41-4.73-2.68-8.59-5.63-10.24.79-2.37,1.13-5.11.88-7.97-.34-3.89-1.71-7.29-3.67-9.72,6.6-.73,13.2-1.48,19.78-2.33,26.49-3.41-19.96-1.13,6.5-4.92,8.21-1.17,16.34-3.34,24.5-5.08.56-.12,1.1-.48,1.65-.72-.03-.24-.05-.49-.08-.73-.62-.13-1.23-.34-1.85-.38-7.71-.41-15.42-1.05-23.12-1.11-11.38-.08,50.19-5.04,38.81-5.49"/><path class="cls-12" d="m183.93,354.44c-.37-7.68-5.39-11.87-5.39-11.87,1.09-1.03,3.36-7.43,1.05-12.11,2.91-12.71-3.72-23.43-7.67-25.74,0,0,3-3.95,6.27-8.31,2.62-3.66,3.76-8.91,3.76-14.1,0-11.58-7.85-20.97-17.52-20.97-.44,0-.88.04-1.32.08-.76-.05-1.53-.03-2.32.1-.44.07-.88.17-1.29.29-2.14-11.48-13.06-19.19-24.4-17.42-6.6,1.03-11.81,1.82-16.53,8.17-.68,1.2-2,5.63-2,5.63-7.63.18-13.3,4.4-14.39,12.76-8.54,2.36-9.76,18.84-1.41,23.2-5.09,6.9-2.86,16.03,3.63,22.52,0,0-12.02,6.02-11.22,15.71,1.09,13.21,6.4,17.03,6.4,17.03-8.58,7.08-4.35,17.33.82,21.93.08.07,74.65.02,74.65.02.76-.03,9.4-6.02,8.88-16.91"/><path class="cls-5" d="m161.71,425.03c-1.05-2.76-1.98-5.6-2.76-8.52-12.19-45.65,14.93-92.55,60.59-104.74,9.66-2.58,19.38-3.4,28.81-2.66"/><path class="cls-8" d="m180.74,417.94c-.82-2.14-1.54-4.35-2.15-6.62-9.32-34.9,11.41-70.75,46.31-80.07,7.41-1.98,14.87-2.6,22.1-2.02"/><path class="cls-14" d="m137.16,378.06c3.02-.23,18.91,0,18.91,0,.18.03,13.13-.78,13.73-11.3.39-6.83-3.68-12.85-10.49-13.49-1.79-.17-4.84-.07-6.27.89.48-1.36,4.29-11.36-5.11-18.73-5.04-3.95-12.94-4.22-16.96-2.01-1.29-5.93-5.65-13.66-17.82-14.38-5.3-.32-11.78,2.37-14.8,6.27-1.54,1.4-2.51,3.45-3.46,4.92-2.67-1.51-5.75-2.38-9.02-2.38-10.29,0-18.62,8.49-18.62,18.96,0,1.36.15,2.68.41,3.95-.09.28-.25.47-.63.57-4.35,1.12-12.33,4.81-12.6,13.43-.28,9.25,8.53,13.42,11.58,13.31l71.15-.02Z"/></g><g class="cls-30"><path class="cls-16" d="m401.79,254.91c.12,15.3-12.75,27.76-28.75,27.82-15.99.06-29.06-12.29-29.17-27.59-.12-15.3,12.75-27.76,28.75-27.82,15.99-.06,29.05,12.29,29.17,27.59"/><path class="cls-4" d="m372.94,285.74h.86c.36,0,.65.29.65.65v1.3c0,.36-.29.65-.65.65h-.86c-.36,0-.65-.29-.65-.65v-1.31c0-.36.29-.65.65-.65Z" transform="translate(81.77 656.86) rotate(-89.3)"/><rect class="cls-4" x="355.59" y="347.1" width="34.27" height=".51" transform="translate(21.03 715.99) rotate(-89.33)"/><rect class="cls-4" x="372.99" y="278.58" width=".72" height="1.52" transform="translate(89.59 649.35) rotate(-89.32)"/><rect class="cls-4" x="369.7" y="282.79" width="6.99" height=".43" transform="translate(85.92 652.93) rotate(-89.34)"/><path class="cls-16" d="m373.8,368.2l-3.35-.04c-.51,0-.91-.42-.91-.93l.05-4.34c0-.51.42-.92.93-.91l3.35.04c.51,0,.92.42.91.93l-.05,4.34c0,.51-.42.92-.93.91"/><path class="cls-16" d="m374.27,331.42l-3.35-.04c-.51,0-.91-.42-.91-.93l.05-4.34c0-.51.42-.92.93-.91l3.35.04c.51,0,.92.42.91.93l-.05,4.34c0,.51-.42.92-.93.91"/><polygon class="cls-17" points="372.92 325.73 368.93 296.13 370.23 296.14 372.92 325.73"/><polygon class="cls-17" points="371.1 296.15 372.18 296.16 372.83 324.5 371.1 296.15"/><polygon class="cls-17" points="373.14 325.73 377.59 296.23 376.36 296.21 373.14 325.73"/><polygon class="cls-17" points="375.53 296.2 374.51 296.19 373.26 324.5 375.53 296.2"/><polygon class="cls-17" points="373.05 296.17 373.91 296.18 372.92 325.73 373.05 296.17"/><polygon class="cls-17" points="373.36 287.4 368.94 295.95 370.23 295.96 373.36 287.4"/><polygon class="cls-17" points="371.1 295.97 372.18 295.99 373.25 287.76 371.1 295.97"/><polygon class="cls-17" points="373.58 287.4 377.59 296.05 376.36 296.04 373.58 287.4"/><polygon class="cls-17" points="375.54 296.03 374.51 296.01 373.68 287.76 375.54 296.03"/><polygon class="cls-17" points="373.05 296 373.91 296.01 373.36 287.4 373.05 296"/></g><path class="cls-17" d="m220,167.7c5.55,7.18,2.95,14.64-1.67,19.38-1.72,1.78-3.03,2.79-5.02,4.33l-13.4,10.34-30.4-39.3,12.71-9.81c1.94-1.5,3.19-2.46,5.31-3.73,6.93-3.98,13.07-3.35,17.3,2.12,3.44,4.44,3.02,8.85.03,13.34,6.1-2.71,11.08-1.91,15.14,3.33Zm-31.4,6.49l6.84-5.28c.97-.75,1.89-1.55,2.79-2.52,3.04-3.25,2.98-6.39.51-9.58-2.69-3.47-6.19-3.41-9.59-1.33-1,.59-2.18,1.41-3.1,2.12l-6.44,4.97,8.99,11.62Zm25-1.1c-3.3-4.27-7.08-4.09-10.75-1.89-1.27.71-2.18,1.41-3.1,2.12l-7.41,5.72,9.96,12.87,7.75-5.98c.91-.7,1.94-1.5,2.63-2.12,3.03-2.79,3.86-6.89.91-10.71Z"/><path class="cls-17" d="m268.02,135.61c5.72,14.23,1.57,27.24-12.52,32.93-14.15,5.71-26.16-.78-31.88-15.01-5.75-14.3-1.57-27.25,12.59-32.96,14.09-5.69,26.06.74,31.82,15.03Zm-7.88,3.18c-4.62-11.49-12.73-16.21-21.68-12.6-9.01,3.64-11.59,12.68-6.97,24.17,4.59,11.42,12.73,16.21,21.75,12.58,8.95-3.61,11.49-12.72,6.9-24.14Z"/><path class="cls-17" d="m332.53,154.3l-10.43.51-12.04-41.8-8.31,42.8-10.5.51-15.29-48.99,8.7-.43,11.65,42.61,8.16-42.86,10.86-.53,12.13,42.08,7.9-43.79,8.2-.4-11.04,50.28Z"/><path class="cls-17" d="m381.49,120.43l-11.19,41.95-7.58-2.02,11.19-41.95-16.77-4.47,1.61-6.05,41.12,10.95-1.61,6.05-16.77-4.47Z"/><path class="cls-17" d="m393.33,171.06l21.5-44.79,7.14,3.42-21.5,44.79-7.14-3.42Z"/><path class="cls-17" d="m439.63,200.51l-27.73-20.27,29.33-40.1,27.15,19.85-3.7,5.06-20.75-15.17-9.1,12.44,19.12,13.98-3.7,5.06-19.12-13.98-9.1,12.44,21.33,15.6-3.74,5.12Z"/></g></g></g></svg>