<?xml version="1.0" encoding="UTF-8"?><svg xmlns="http://www.w3.org/2000/svg" xmlns:xlink="http://www.w3.org/1999/xlink" viewBox="0 0 619 730"><defs><style>.cls-1{clip-path:url(#clippath);}.cls-2,.cls-3,.cls-4{fill:none;}.cls-2,.cls-5,.cls-6,.cls-7,.cls-8,.cls-9,.cls-10,.cls-11,.cls-12{stroke-width:0px;}.cls-13{clip-path:url(#clippath-1);}.cls-14{clip-path:url(#clippath-4);}.cls-15{clip-path:url(#clippath-3);}.cls-16{clip-path:url(#clippath-2);}.cls-17{clip-path:url(#clippath-7);}.cls-18{clip-path:url(#clippath-6);}.cls-19{clip-path:url(#clippath-5);}.cls-3{stroke:#00267f;stroke-width:4px;}.cls-3,.cls-4{stroke-miterlimit:10;}.cls-4{stroke:#6d88bc;}.cls-20{opacity:.6;}.cls-21{opacity:.5;}.cls-5{fill:#6d88bc;}.cls-6{fill:#405c9f;}.cls-7{fill:#d3ddef;}.cls-8{fill:#a3b4d8;}.cls-9{fill:#fff;}.cls-10{fill:#e4ebf7;}.cls-11{fill:#ffc726;}.cls-12{fill:#00267f;}</style><clipPath id="clippath"><rect class="cls-2" x="-32.13" y="-13.98" width="679.41" height="780"/></clipPath><clipPath id="clippath-1"><rect class="cls-2" x="-32.13" y="-13.98" width="679.41" height="780"/></clipPath><clipPath id="clippath-2"><rect class="cls-2" x="-32.13" y="-13.98" width="679.41" height="780"/></clipPath><clipPath id="clippath-3"><rect class="cls-2" x="235.5" y="500.81" width="11.4" height="8.15"/></clipPath><clipPath id="clippath-4"><rect class="cls-2" x="293.78" y="484.29" width="14.98" height="11.85"/></clipPath><clipPath id="clippath-5"><rect class="cls-2" x="299.72" y="461.14" width="16.14" height="14.05"/></clipPath><clipPath id="clippath-6"><rect class="cls-2" x="263.66" y="470.92" width="16.14" height="14.05"/></clipPath><clipPath id="clippath-7"><rect class="cls-2" x="243.41" y="476.87" width="12.11" height="9.46"/></clipPath></defs><g id="Ebene_2"><rect class="cls-9" x="0" width="618.87" height="729.32"/></g><g id="Ebene_1"><g class="cls-1"><g class="cls-13"><g class="cls-16"><path class="cls-12" d="m197.67,687.38h-11.02c-1.64-4.11-2.46-8.03-3.19-14.97-.82-6.67-3.28-10.87-9.01-11.23-1.55-.09-3.1-.09-4.64-.09h-9.74v26.29h-10.02v-63h21.67c3.37,0,5.65,0,8.65.37,9.1,1.19,15.93,6.03,15.93,16.8,0,8.22-5.01,13.06-11.65,15.07,5.64,2.47,8.01,7.94,8.65,14.52.73,7.94,1.82,12.78,4.37,16.25m-27.13-34.06c2.55,0,4.1,0,5.64-.18,5.46-.55,9.56-3.65,9.56-10.32s-3.37-9.4-8.74-10.13c-1.64-.27-3.28-.37-5.83-.37h-11.11v21h10.47Z"/><path class="cls-12" d="m266.77,645.09l.09.88h-9.92l-.18-.88c-1.73-8.16-6.92-13.34-16.39-13.34-11.65,0-19.03,9.65-19.03,23.96,0,15,7.47,24.3,18.57,24.3,9.47,0,14.66-5.35,16.39-13.51l.18-.88h9.92l-.09.88c-1.27,11.85-10.47,20.88-26.86,20.88-17.94,0-28.95-12.81-28.95-31.24s12.38-31.76,30.05-31.76c16.39,0,24.95,8.77,26.22,20.71"/><polygon class="cls-12" points="329.4 687.38 285.97 687.38 285.97 624.38 328.49 624.38 328.49 632.32 295.99 632.32 295.99 651.86 325.94 651.86 325.94 659.81 295.99 659.81 295.99 679.34 329.4 679.34 329.4 687.38"/><path class="cls-12" d="m133.87,656.04c0-18.98-12.38-31.67-30.05-31.67-16.39,0-24.95,8.75-26.22,20.64l-.09.88h9.92l.18-.88c1.73-8.14,6.92-13.3,16.39-13.3,11.65,0,19.03,9.62,19.03,23.88,0,14.96-7.46,24.23-18.57,24.23l-66.2.02-10.07,7.52h76.43c17.76-.16,29.24-13.07,29.24-31.33"/><path class="cls-12" d="m389.58,642.8h-10.38c-.73-6.93-4.92-11.05-12.2-11.05-5.92,0-10.56,2.63-10.56,8.34s3.73,8.6,13.48,10.79c13.84,3.07,20.39,8.77,20.39,18.87,0,10.97-10.11,17.64-22.31,17.64-14.39,0-23.58-6.58-24.86-18.78h10.38c1.64,7.46,7.1,11.41,14.48,11.41,6.55,0,11.74-3.42,11.74-8.95,0-6.32-3.83-9.57-14.02-11.85-11.93-2.72-19.85-7.02-19.85-17.55s9.92-17.28,21.67-17.28c13.93,0,20.76,7.9,22.03,18.42"/><polygon class="cls-12" points="434.28 632.32 434.28 687.38 424.36 687.38 424.36 632.32 402.42 632.32 402.42 624.38 456.23 624.38 456.23 632.32 434.28 632.32"/><path class="cls-12" d="m519.04,687.38h-11.02c-1.64-4.11-2.46-8.03-3.19-14.97-.82-6.67-3.28-10.87-9.01-11.23-1.55-.09-3.1-.09-4.64-.09h-9.74v26.29h-10.02v-63h21.67c3.37,0,5.65,0,8.65.37,9.11,1.19,15.93,6.03,15.93,16.8,0,8.22-5.01,13.06-11.65,15.07,5.65,2.47,8.01,7.94,8.65,14.52.73,7.94,1.82,12.78,4.37,16.25m-27.13-34.06c2.55,0,4.1,0,5.64-.18,5.46-.55,9.56-3.65,9.56-10.32s-3.37-9.4-8.74-10.13c-1.64-.27-3.28-.37-5.83-.37h-11.11v21h10.47Z"/><path class="cls-12" d="m546.99,666.56l-6.83,20.82h-10.65l22.58-63h12.93l21.94,63h-10.83l-6.83-20.82h-22.31Zm19.67-7.94l-8.29-25.93-8.74,25.93h17.03Z"/><path class="cls-9" d="m559.39,310.17c-9.86-139.07-130.6-243.82-269.67-233.96C150.65,86.07,45.9,206.8,55.76,345.88c4.44,62.56,31.32,118.17,72.2,159.53,1.58,1.3,3.07,2.71,4.27,4.22,49.73,47.98,118.84,75.48,193.2,70.21,139.07-9.86,243.82-130.6,233.96-269.67"/><path class="cls-5" d="m325.43,579.84c56.09-3.98,106.6-26,146.26-59.98-.91-.31-1.83-.64-2.76-1,0,0-17.47,10.73-42.12-.38,0,0-8.15,4.08-19.33,4.26-1.03.03-2.11.02-3.26-.06-.21-.01-.42-.03-.63-.05-.17-.01-.33-.02-.5-.04-4.64-.37-9.65-1.49-14.73-3.85-1.1.68-16.8,9.9-40.53.61,0,0-5.16,3.16-13.82,4.27-5.48,2.13-14.32,2.95-27.57-2.74,0,0-16.25,10.04-40.61.02,0,0-17.75,10.45-42.1-1.04,0,0-8.25,3.96-19.44,3.95-1.03.02-2.11-.02-3.26-.11-.21-.01-.42-.04-.63-.06-.17-.02-.33-.03-.5-.05-4.63-.44-9.61-1.64-14.62-4.08-1.12.66-17.06,9.64-40.54-.02,0,0-.35.21-1,.52,48.62,41.5,112.91,64.69,181.71,59.82"/><path class="cls-3" d="m55.17,345.67c9.86,139.07,130.6,243.82,269.67,233.96,139.07-9.86,243.82-130.6,233.96-269.67-9.86-139.07-130.6-243.82-269.67-233.96C150.06,85.87,45.31,206.6,55.17,345.67Z"/><path class="cls-7" d="m339.6,254.58c-4.57-.28-9.16-.49-13.77-.64-8.77-.3-17.6-.4-26.47-.36-12.08.06-24.16.49-36.21,1.32-2.91.2-5.81.43-8.7.68-.02,3.58.92,6.97,2.6,9.91-.05.08-.09.17-.15.24-.74.85-1.39,1.76-1.93,2.73-1.61,2.86-2.29,6.02-2.12,9.12-.32,5.34,1.94,10.68,6.35,14.21-3.78,2.48-6.96,5.82-9.19,9.76-4.25,7.53-6.58,12.79-1.82,23.61.08.19.2.37.34.53,9.12,10.24,1.74,22.2,3.81,31.07,2.8,12.04,13.14,19.8,13.84,22.95.16.72-.18,1.43-.81,1.87-3.46,2.42-6.44,5.61-8.64,9.51l-2.02,3.59c-.71,1.26,4.3,9.77,5.82,9.73l123.23,12.34c.68-.02-2.59-2.31-2.23-2.85,1.16-1.73,5.41-23.87,4.63-25.42-.51-1.03-1.12-2.01-1.82-2.94-.54-.72-.49-1.71.15-2.36,5.46-5.54,8.75-13.16,8.52-21.5-.2-7.46-3.18-14.21-7.92-19.32-.71-.76-.65-1.92.13-2.61,5.21-4.62,8.65-11.18,9.08-18.64.53-9.35-3.8-17.86-10.81-23.17-.9-.68-1-1.9-.26-2.74,1.53-1.72,2.71-3.73,3.47-5.96h.55c.3-1.44.39-2.86.32-4.25.17-2.42-.19-4.8-1-7.01-.42-1.15-.96-2.26-1.6-3.31,0-.02-.01-.04-.02-.05.06-.1.1-.2.17-.3,2.45-3.02,4-6.79,4.23-10.95.03-.6.01-1.2-.01-1.79,0-.04,0-.08.01-.12.01-.22.01-.44.02-.67-3.76-.83-7.64-1.54-11.6-2.17-12.5-1.98-25.25-3.26-38.17-4.04"/><path class="cls-6" d="m348.05,416.28c-1.55-14.34-14.44-24.71-28.78-23.15-2.34.25-4.56.81-6.65,1.62-.87.34-1.72.72-2.54,1.15-3.84,1.99-7.09,4.88-9.5,8.38,2.07-4.05,5.17-7.52,8.99-10.02-.52-1.57-1.16-3.12-1.93-4.64-3.66-7.24-9.56-12.6-16.42-15.68-2.98-1.34-6.14-2.25-9.38-2.69-6.62-.91-13.58.11-20,3.36-8.23,4.17-14.04,11.23-16.83,19.31.57.53,1.1,1.1,1.61,1.68-.55-.49-1.12-.95-1.71-1.39-.18-.13-.36-.25-.54-.38-3.1-2.13-6.77-3.51-10.79-3.83-12.26-.99-23,8.13-23.99,20.39-.55,6.72,1.96,12.98,6.35,17.43-1.27-.99-2.41-2.11-3.44-3.34,5.28,7.88,13.8,12.61,13.8,12.61l112.31,1.56c.97,0,3.91-2.75,6.55-7.06-.23.32-.44.65-.69.95,2.84-4.72,4.22-10.36,3.58-16.26"/><path class="cls-10" d="m162.07,400.49c.41-.51.77-1.05,1.1-1.62,2.86-5.89.35-13.57-5.87-16.51-6.81-3.39-15.15-.88-18.22,5.95.8-3.15,2.99-5.71,5.78-7.33-1.2-3.49-3.6-6.55-6.86-8.41-6.84-3.89-16.26-2.86-21.72,2.63-1.22,1.28-2.17,2.81-2.86,4.46-.08.19-.17.38-.24.58-.14.37-.26.76-.37,1.14-.02.07-.04.14-.06.21-.38,1.42-.57,2.9-.55,4.38-.02-.68,0-1.34.05-1.99-.06.43-.12.86-.15,1.29-3.78.45-6.67,3.68-6.64,7.66.02,2.53,1.21,4.79,3.05,6.26l33.18.76s.07-.07.11-.1c.03.04.06.07.09.11l4.74.11v.08s15.44.35,15.44.35Z"/><path class="cls-10" d="m462.91,366.55c.41-.51.77-1.05,1.1-1.62,2.86-5.89.35-13.57-5.87-16.51-6.81-3.39-15.15-.88-18.22,5.95.8-3.15,2.99-5.71,5.78-7.33-1.2-3.49-3.6-6.55-6.86-8.41-6.84-3.89-16.26-2.86-21.72,2.63-1.23,1.28-2.17,2.81-2.86,4.46-.08.19-.17.38-.24.58-.14.37-.26.76-.37,1.14-.02.07-.04.14-.06.21-.38,1.42-.57,2.9-.55,4.38-.02-.68,0-1.34.05-1.99-.06.43-.12.86-.15,1.29-3.78.45-6.67,3.68-6.64,7.66.02,2.53,1.21,4.79,3.05,6.26l33.18.76s.07-.07.11-.1c.03.04.06.07.08.11l4.74.11v.08l15.44.35Z"/><path class="cls-11" d="m261.87,305.04c.05-.93.17-1.83.32-2.73-.8.05-1.61.08-2.41.13-3.2.2-6.4.41-9.6.65-3.95.3-7.89.63-11.82.99-15.78,1.44-31.35,3.42-46.49,6.44-8.76,1.75-17.21,3.83-24.85,6.72-4.07,1.54-7.76,3.27-10.57,5.44-4.94,3.8-5.32,7.63-1.21,11.44,3.34,3.09,8.48,5.32,14.15,7.25,11.21,3.81,23.76,6.23,36.73,8.19,15.34,2.32,31.05,3.88,47.01,4.86-1.05-.75-2-1.58-2.84-2.46-14.54-1.47-28.72-3.51-42.08-6.72-6.93-1.67-13.45-3.65-18.8-6.46-3.22-1.69-5.75-3.6-6.74-5.97-1.06-2.54.21-4.88,2.98-7.1,2.61-2.08,6.12-3.73,10.02-5.17,8.84-3.28,18.71-5.41,28.89-7.18,3.48-.6,6.99-1.15,10.51-1.65,6.7-.96,13.47-1.76,20.28-2.42,2.16-.21,4.33-.39,6.49-.58,0-.39,0-.78.02-1.18-.04-.82-.05-1.65,0-2.48"/><path class="cls-11" d="m372.15,434.25c-.44.05-.89.09-1.33.13-1.14,1.64-2.02,3.46-2.53,5.45.97-2.15,2.29-4.01,3.86-5.58"/><path class="cls-7" d="m300.91,249.47c3.03.03,6.07.1,9.1.17,4.29.11,8.58.25,12.87.42,1.8.07,3.6.15,5.39.23,2.96.13,5.9.3,8.84.48,12.57.78,24.94,2.03,37.02,3.86,5.12.78,10.15,1.65,15.01,2.7-.79-4.93-3.47-9.28-7.33-12.25-3.04-2.34-6.8-3.84-10.94-4.08-.17-.01-.34,0-.52,0-2.07-10.04-10.6-17.99-21.47-18.96-1.35-.12-2.68-.12-3.99-.01-.87.07-1.68-.39-2.1-1.11-5.3-8.96-14.75-15.36-26.01-16.36-18.06-1.61-33.99,11.22-36.17,28.82-.67-.14-1.36-.25-2.07-.31-2.83-.26-5.56.18-8.01,1.16-.03,0-.06.02-.08.02-8.01,1.71-14.35,8.09-15.72,16.27,11.74-.69,23.49-1.03,35.24-1.08,3.65-.02,7.3,0,10.95.03"/><path class="cls-7" d="m371.41,256.04c5.96.32,11.87.78,17.73,1.39,0-.03,0-.06-.01-.09-4.86-1.05-9.89-1.92-15.01-2.7-12.08-1.84-24.45-3.08-37.02-3.86-2.94-.18-5.88-.35-8.83-.48-1.79-.08-3.59-.15-5.39-.23-4.28-.17-8.57-.31-12.87-.42-3.03-.08-6.06-.14-9.1-.17-3.65-.04-7.3-.05-10.95-.03-11.75.05-23.5.39-35.24,1.08-.12.71-.21,1.43-.26,2.16-.04.66-.03,1.32,0,1.97-.02.31-.01.62-.02.94,2.89-.25,5.79-.48,8.7-.68,12.05-.83,24.13-1.27,36.21-1.32,8.88-.04,17.71.06,26.47.36,4.61.16,9.2.37,13.77.64,12.92.78,25.67,2.06,38.17,4.04,3.96.63,7.84,1.33,11.6,2.17,0-.27-.01-.54-.02-.81-5.2-.85-10.51-1.5-15.9-2.04-.61-.69-1.29-1.33-2.04-1.91"/><path class="cls-7" d="m389.35,259.98c-.02-.86-.08-1.72-.21-2.56-5.86-.6-11.77-1.06-17.73-1.39.75.58,1.43,1.22,2.04,1.91"/><path class="cls-11" d="m284.35,437.47c-6.05-.14-12.07-.35-18.07-.66-16.96-.86-33.7-2.43-50.15-4.98-11.75-1.82-23.06-4.18-33-8.01-3.83-1.48-7.27-3.17-9.89-5.31-5.04-4.13-4.79-8.52.91-12.76,1.69-1.26,3.76-2.38,5.66-3.56-13.36,5.14-19.35,12.73-10.79,19.6,3.79,3.04,8.91,5.3,14.57,7.23,11.51,3.92,24.28,6.37,37.45,8.33,15.9,2.36,32.15,3.88,48.65,4.76,3.85.2,7.72.38,11.59.52,2.35.08,4.71.15,7.07.22,5.62.16,11.24.29,16.88.36,3.97.05,7.95.09,11.93.08.03,0,.06,0,.1,0,.76-2.37,2.25-4.41,4.24-5.86-.81.02-1.62.05-2.43.07-11.64.22-23.21.23-34.71-.03"/><path class="cls-11" d="m481.23,404.07c-3.41-3.4-8.58-5.8-14.29-7.87-11.27-4.09-23.85-6.6-36.83-8.59-15.36-2.36-31.06-3.88-47.01-4.74,1.06.83,2.03,1.73,2.89,2.7,14.54,1.43,28.73,3.49,42.13,6.88,6.95,1.76,13.5,3.88,18.91,6.92,3.25,1.83,5.82,3.92,6.87,6.55,1.12,2.81-.09,5.44-2.81,7.94-2.56,2.35-6.02,4.24-9.87,5.9-8.73,3.77-18.53,6.29-28.64,8.4-3.46.72-6.94,1.38-10.44,1.99-1.79.31-3.58.61-5.38.9-4.9.78-9.83,1.47-14.79,2.08-3.27.4-6.55.76-9.83,1.11-1.56,1.57-2.89,3.43-3.86,5.58.51-1.99,1.39-3.81,2.53-5.45-2.07.21-4.14.42-6.21.61-14.34,1.31-28.72,2.11-43.12,2.44-1.9,1.45-3.34,3.49-4.06,5.86,4.55-.01,9.11-.07,13.66-.15,15.56-.29,31.12-1.02,46.64-2.32,3.19-.26,6.37-.55,9.56-.86,3.93-.39,7.85-.81,11.76-1.27,1.71-.2,3.41-.41,5.12-.62,13.95-1.75,27.71-4.02,41.1-7.21,8.69-2.07,17.07-4.51,24.62-7.83,4.02-1.77,7.66-3.76,10.41-6.2,4.84-4.3,5.13-8.57.93-12.76"/><path class="cls-8" d="m118.9,436.24c2.35-.18,14.72,0,14.72,0,.14.02,10.22-.61,10.68-8.79.3-5.31-2.86-10-8.16-10.49-1.39-.13-3.76-.05-4.88.69.37-1.06,3.34-8.84-3.98-14.58-3.92-3.07-10.07-3.29-13.2-1.56-1.01-4.61-4.4-10.63-13.87-11.19-4.12-.25-9.17,1.85-11.52,4.88-1.2,1.08-1.95,2.68-2.69,3.83-2.08-1.18-4.47-1.85-7.02-1.85-8.01,0-14.49,6.61-14.49,14.76,0,1.05.11,2.08.32,3.08-.07.22-.19.37-.49.45-3.38.87-9.6,3.74-9.8,10.45-.22,7.2,6.64,10.45,9.01,10.36h55.37Z"/><path class="cls-5" d="m390.62,442.66c2.35-.18,14.72,0,14.72,0,.14.02,10.22-.61,10.68-8.79.3-5.31-2.86-10-8.16-10.49-1.39-.13-3.76-.05-4.88.69.37-1.06,3.34-8.84-3.98-14.58-3.92-3.07-10.07-3.29-13.2-1.56-1.01-4.61-4.4-10.63-13.87-11.19-4.12-.25-9.17,1.85-11.52,4.88-1.2,1.08-1.95,2.68-2.69,3.83-2.08-1.18-4.47-1.85-7.02-1.85-8.01,0-14.49,6.61-14.49,14.76,0,1.05.11,2.08.32,3.08-.07.22-.19.37-.49.45-3.38.87-9.6,3.74-9.8,10.45-.22,7.2,6.64,10.45,9.01,10.36h55.37Z"/><polygon class="cls-12" points="393.91 64.72 396.17 48.53 411.94 54.67 410.21 71.02 393.91 64.72"/><polygon class="cls-12" points="413.54 55.29 411.84 71.79 427.47 77.97 429.21 61.62 413.54 55.29"/><polygon class="cls-12" points="430.81 62.25 446.35 68.14 445.09 84.51 429.36 78.51 430.81 62.25"/><polygon class="cls-12" points="446.83 85.09 447.91 68.62 463.91 75.01 462.75 91.19 446.83 85.09"/><polygon class="cls-12" points="465.32 75.53 480.68 81.33 480.35 98.2 464.3 91.67 465.32 75.53"/><path class="cls-12" d="m378.19,52.14c.4.09.75.27,1.12.46.53.27,1.04.56,1.5.93.29.23.57.47.83.73.16.16,6.39,7.85,6.75,8.4.11.17.27.34.5.43,1.06.4,2.12.82,3.19,1.23.02-.08,2.35-15.98,2.39-16.36-1.1-.43-2.18-.85-3.28-1.27-.14.12-8.04,2.35-8.35,2.42-.28.07-.57.13-.86.13-.73,0-2.62-.57-2.89-.58-.13,0-.26-.1-.4-.16l-.89,1.07.39,2.56Z"/><path class="cls-12" d="m375.49,49.74c.16-.4,2.35-4.25,2.4-4.37.08-.03.14-.06.2-.09.05.05.08.09.11.13.05-.02.09-.04.13-.06.11.17.23.34.53.27-.13-.21-.23-.38-.37-.61.21.06.35.1.49.14.02-.06.04-.11.07-.17-.11-.14-.21-.29-.35-.47-.11-.03-.27-.07-.42-.11.06-.2.11-.38.16-.56.13-.36.32-.71.38-1.09.1-.61.33-1.21.34-1.84,0-.29.01-.55-.16-.86-.19-.07-.41-.16-.61-.24.03-.06.11-.14.12-.23.02-.13.26-.05.2-.23.05-.02.1-.04.16-.07-.05-.12-.09-.21-.14-.3-.14-.02-.28-.05-.43-.08-.05-.12-.11-.24-.15-.35-.07,0-.12.01-.16.02.06-.39.05-.8.18-1.16.15-.38.12-.84.46-1.19-.05-.19-.12-.4-.18-.62.03-.1.12-.2.02-.32.05-.08.1-.16.17-.28.07.04.14.09.19.12.3-.11.37-.5.73-.43,0-.07-.01-.12-.02-.17.11.04.21.07.3.11-.01.04-.03.08-.04.12.07,0,.13,0,.19,0-.01.05-.02.08-.03.11.25.07.48.13.73.2.02-.06.04-.14.06-.23-.07-.05-.13-.09-.18-.14-.08-.09-.16-.19-.23-.29,0,0,.02-.05.05-.1.08.04.15.08.25.14.04-.07.07-.14.08-.17-.2-.43-.67-.41-.96-.68.06-.07.1-.12.14-.17-.11-.07-.24-.12-.36-.12-.08-.27-.24-.47-.53-.55-.03,0-.04-.08-.06-.12-.11-.22-.26-.38-.49-.51-.2-.12-.45-.11-.65-.26-.03-.31.17-.63-.08-.87-.3-.06-.57-.12-.85-.18-.07-.09-.15-.16-.21-.26-.06-.1-.1-.21-.14-.32-2.71-1.05-5.42-2.11-8.13-3.16-.21-.08-.44-.15-.65-.22-.07.27-.2.54-.15.83-.1.09-.18.17-.29.28-.15-.07-.3-.14-.45-.19-.14-.06-.29-.11-.46-.17,0,.08-.01.11-.01.15-.07.02-.15.11-.21-.03,0-.02-.07-.02-.11-.03-.19-.11-.37-.26-.57-.31-.32-.09-.63-.18-.94-.28-.38-.12-.77-.22-1.17-.33-.02-.4.12-.74.15-1.1-.21-.04-5.85-1.36-6.11-1.4-.05.22-.09.4-.14.62-.4-.14-1.74-.4-1.89-.5-.1-.12-.2-.24-.28-.34,0-.25.57-1.83.78-2.4.14-.41.31-.8.46-1.19-.07-.05-.13-.11-.2-.16-.06.03-.13.05-.19.08,0,.07-.51,1.44-.67,1.91l-.25.72c-.11-.02-1,.05-1.11-.09-.05-.08,0-.43,0-.5-.15-.04-2.92-1.08-3.1-1.16-.07.03-.13.06-.19.08-.05-.05-.66-.34-.67-.38-.36-.2-1.29-.86-1.43-.99,0,.01-.01.03-.02.04-.1-.04-.19-.08-.29-.12,0-.11-.61-.8-.71-.85,0-.03,0-.08,0-.14-.12-.02-.42-.39-.45-.55.07-.12.13-.25.2-.39.12-.05.26-.11.42-.18.05-.2.1-.42.14-.62-.04-.04-.05-.06-.06-.06-.56-.24-3.09-1.92-3.75-2.2-.06-.03,1.14,2.17,1.35,3.89.47,3.81-2.65,7.65-5.08,8.68-1.27.54-2.38.92-1.83,1.08.08.06,1.95.49,2.02.54,0,.06.05.27.07.32-.03.21-.17,1.33-.36,1.65.13.03,1.16.48,1.46.69.05.04.08.12.11.18.05.11.3.24.34.26.55.25,1.87,1.32,1.98,1.5-.08.14-.58,1.66-.59,1.78-.01.18-.15.35-.05.53,0,.19.02.38.01.58-.02.84.11,1.67.18,2.5.04.46.13.93.11,1.39,0,.25.09.41.25.49.33.17,2.5,1.81,2.67,1.9-.06.65-.2,1.29-.37,1.96-.4.03-.79.06-1.18.09-.05.12-.09.25-.13.35-.13.06-.22.1-.32.14-.13.1-.03.21.03.24.11.06.17.14.15.23-.05.19.1.29.11.39.24.12.44.22.61.32-.04.23-.08.43-.12.62.11.06.19.11.28.16.18.08.72.82.76.83.1.13.23.59.2.69-.03.01-.06.02-.08.04-.17.23-.34.47-.51.7-.29.4-.58.8-.87,1.21,0,.16,0,.34,0,.53.16-.07.28-.12.34-.15.07-.18.11-.33.19-.46.13-.23.32-.41.46-.63.11-.16.23-.32.34-.47.12-.17.3-.31.36-.49.08-.22.28-.27.4-.42.02-.02.04-.04.06-.06.11-.16-.01-.38.12-.54.08-.04.18-.08.27-.12.01-.04.03-.08.05-.12-.01.04-.03.08-.05.12.08.09.15.18.22.26.11,0,.2,0,.29,0,.19.18.45.12.67.19.38.22.75.13,1.14,0,.38.13.76.26,1.15.39.28.09.55.19.83.29-.01.07-.04.13-.04.2,0,.07.01.13.02.2-.02.03-.05.06-.09.12,2.13,1.19,4.24,2.37,6.35,3.54,0,0,.03-.01.06-.03,0-.03.21-.83.26-1.09.07.04.14.08.23.13.11-.17.62-.04.88.07,3.36,1.3,6.72,2.61,10.08,3.91.09.04.19.05.29.08.11.06.22.11.35.18.09-.16.16-.3.25-.42.15-.21.22-.49.48-.62.19.11.36.06.53-.05-.04-.27.46-.6.54-.61.14.02.92.03,1.08.01.13-.04.2-.13.17-.27-.09-.23-.6-.22-.65-.22-.19-.03-.38-.08-.57-.11-.06-.2-.03-.71-.04-.76.07-.24.58-1.1.76-1.36.11.24.85,1.56.99,1.76.07,0,1.9-1.31,1.85-1.5.01-.04.03-.08.05-.12m-30.69-22.19c-.07.03-1.24-.26-1.75-.43,0-.15,2.57-1.49,2.72-1.56.04.09-.88,1.78-.97,1.98m1.71-3.38c-.1.04-4.24,2.05-4.73,2.28-.15-.03-.22-.29-.12-.35.16-.28,3.4-4.77,3.72-5.43.01-.02.69-1.77.82-1.63l.19.21c0,.15-.01,4.71.11,4.91m.92-1.63c-.16-.09-.33-2.58-.2-2.7.49.4.5.7.92,1.18-.03.18-.66,1.41-.72,1.52"/><path class="cls-11" d="m365.91,44.31c-.07.26-.16.52-.21.78-.12.69-.51,1.2-1.01,1.66-.17.16-.32.35-.49.5-.17.14-.36.28-.56.38-.66.31-1.31.61-2.04.77-.65.14-1.29.2-1.95.15-1.46-.11-2.15-.27-3.29-.92-.32-.18-.55-.44-.79-.69-.48-.49-.77-1.13-1-1.77-.13-.36-.07-.78-.09-1.18.15-.49.36-.96.64-1.4.12-.19.23-.24.43-.3.33-.1.72-.12.98-.4.03-.03.04-.08.06-.11-.17-.06-.34-.13-.62-.23.44-.29.77-.56,1.14-.75.37-.19.77-.35,1.18-.43.68-.13,1.36-.29,2.06-.32.29-.01.56-.04.85,0,1.11.21,2.17.52,3.09,1.25.25.2.54.4.73.63.5.62.83,1.33.76,2.17,0,.06.08.12.12.19m-10.37-1.45c.37.62.92.82,1.39,1.12.16.11.41.13.29-.25-.03-.09.24-.25.25-.38.01-.34-.05-.68-.08-1.08-.64.2-1.21.38-1.84.58"/><path class="cls-12" d="m327.74,28.43c8.17,1.18,15.42-3,16.22-8.73.27-1.92-.2-3.35-1.29-5.08-2.15-3.42-6.6-6.16-12.03-6.94-6.73-.97-12.84,1.37-15.24,5.42-.52.87-.86,1.82-1,2.83-.8,5.73,5.17,11.33,13.34,12.5"/><polygon class="cls-11" points="304.03 263.78 360.86 44.17 312.21 265.74 304.03 263.78"/><path class="cls-12" d="m506.1,287.42c.15,2.79-6.5,5.42-14.86,5.87-8.36.46-15.26-1.43-15.41-4.22-.15-2.79,6.5-5.42,14.86-5.87,8.36-.46,15.26,1.43,15.41,4.22"/><path class="cls-12" d="m108.76,289.1c.15,2.78,7.03,4.67,15.36,4.21s14.96-3.08,14.81-5.86c-.15-2.78-7.03-4.67-15.36-4.21-8.33.46-14.96,3.08-14.81,5.86"/><rect class="cls-12" x="120.97" y="279.82" width="7.86" height="5.61"/><rect class="cls-12" x="488.16" y="279.82" width="7.86" height="5.61"/><path class="cls-12" d="m309.62,304.53c0,3.72-.29,8.06-1.12,10.11-.56,1.36-1.5,1.12-2.25,1.12s-1.69.26-2.24-1.12c-.83-2.05-1.12-6.4-1.12-10.11s.23-9.21,1.12-11.23c.54-1.21,1.55-1.12,2.24-1.12s1.71-.07,2.25,1.12c.9,2.01,1.12,7.33,1.12,11.23"/><path class="cls-6" d="m257.96,306.67c0,3.01-.29,6.53-1.12,8.18-.56,1.11-1.5.91-2.25.91s-1.69.21-2.24-.91c-.83-1.66-1.12-5.19-1.12-8.18s.23-7.46,1.12-9.09c.54-.98,1.55-.91,2.24-.91s1.71-.06,2.25.91c.9,1.63,1.12,5.94,1.12,9.09"/><path class="cls-6" d="m360.15,306.67c0,3.01-.29,6.53-1.12,8.18-.56,1.11-1.5.91-2.25.91s-1.69.21-2.24-.91c-.83-1.66-1.12-5.19-1.12-8.18s.23-7.46,1.12-9.09c.54-.98,1.55-.91,2.24-.91s1.71-.06,2.25.91c.9,1.63,1.12,5.94,1.12,9.09"/><path class="cls-6" d="m225.61,278s0-2.39,7.57-5.97c7.57-3.58,15.14,2.39,15.14,2.39l5.41,3.58,4.24,5.2,5.61,6.74-24.99-2.39s-15.14,2.39-12.97-9.55"/><path class="cls-12" d="m229.89,293.3l-1.12-4.49,33.69,1.12s-2.25-1.12-1.12,3.37c1.12,4.49,1.12,5.62,1.12,7.86s-6.74,5.61-6.74,5.61c0,0-23.58-1.12-25.83-3.37-2.25-2.25-3.37-6.74-3.37-6.74,0,0,0-2.25,3.37-3.37"/><path class="cls-6" d="m386.88,278s0-2.39-7.57-5.97c-7.57-3.58-15.14,2.39-15.14,2.39l-5.41,3.58-4.24,5.2-5.61,6.74,24.99-2.39s15.14,2.39,12.97-9.55"/><path class="cls-12" d="m382.6,293.3l1.12-4.49-33.69,1.12s2.25-1.12,1.12,3.37c-1.12,4.49-1.12,5.62-1.12,7.86s6.74,5.61,6.74,5.61c0,0,23.58-1.12,25.83-3.37,2.25-2.25,3.37-6.74,3.37-6.74,0,0,0-2.25-3.37-3.37"/><path class="cls-6" d="m511.74,277.58l-8.98-13.47s-1.12-1.12-2.25,1.12c-1.12,2.25,2.25,11.23,2.25,11.23l-168.43,14.6h-2.25v-3.37l19.09-3.37,2.25-2.25v-1.12h-21.33l-1.02-13.25c-.07-.89-.29-1.76-.65-2.58l-2.15-4.85c-1.16-2.61-3.33-4.63-6.02-5.6-5.31-1.9-13.74-2.92-13.74-2.92,0,0-8.42,1.02-13.74,2.92-2.69.96-4.86,2.99-6.02,5.6l-2.16,4.85c-.36.82-.58,1.69-.65,2.58l-1.02,13.25h-21.33v1.12l2.25,2.25,19.09,3.37v3.37h-2.25l-168.43-14.6s3.37-8.98,2.25-11.23c-1.12-2.25-2.25-1.12-2.25-1.12l-8.98,13.47,202.12,22.46,204.37-22.46Z"/><path class="cls-12" d="m292.75,305.71l15.75,1.07,15.75-1.07c.73-.04,1.46-.11,2.18-.23l185.32-27.9-204.37,22.46-202.12-22.46,185.32,27.9c.72.11,1.45.19,2.18.23"/><path class="cls-12" d="m249.5,296.97c-2.81-1.87-8.73-8.41-10.62-10.54,1.38-1.42,2.24-3.35,2.24-5.49,0-1.87-.66-3.58-1.75-4.93l9-7.94c1.09-1.09,2.26-2.1,3.49-3.02,4.04-3.02,13.49-10.4,11.71-12.18-2.25-2.25-12.35,8.98-14.6,12.35-1.92,2.88-8.72,8.19-10.68,9.69-1.36-1.14-3.12-1.83-5.04-1.83-1.52,0-2.93.44-4.13,1.18l-7.92-7.92c-1.09-1.09-2.1-2.26-3.02-3.49-3.02-4.04-10.4-13.48-12.18-11.71-2.25,2.25,8.98,12.35,12.35,14.6,2.79,1.86,7.86,7.54,9.54,9.46-1.54,1.43-2.5,3.47-2.5,5.74,0,1.58.47,3.04,1.27,4.27l-8.3,8.3c-1.09,1.09-2.26,2.1-3.49,3.02-4.04,3.02-13.49,10.4-11.71,12.18,2.25,2.25,12.35-8.98,14.6-12.35,2.04-3.05,8.67-8.86,9.89-9.92,1.43,1.45,3.41,2.36,5.61,2.36,1.65,0,3.18-.51,4.45-1.38l8.94,8.95c1.09,1.09,2.1,2.25,3.02,3.49,3.02,4.04,10.4,13.48,12.18,11.71,2.25-2.25-8.98-12.35-12.35-14.6"/><path class="cls-12" d="m362.16,294.68c2.93-1.67,9.29-7.78,11.33-9.77-1.28-1.51-2-3.5-1.85-5.63.13-1.86.9-3.53,2.09-4.8l-8.42-8.55c-1.01-1.17-2.1-2.25-3.27-3.26-3.82-3.3-12.73-11.32-10.83-12.97,2.4-2.08,11.69,9.82,13.7,13.34,1.71,3,8.13,8.78,9.98,10.41,1.44-1.04,3.24-1.61,5.15-1.47,1.51.11,2.89.64,4.04,1.47l8.45-7.34c1.17-1.01,2.25-2.1,3.26-3.27,3.3-3.82,11.32-12.72,12.97-10.83,2.08,2.4-9.83,11.69-13.34,13.7-2.91,1.66-8.37,6.97-10.18,8.77,1.43,1.54,2.25,3.64,2.09,5.9-.11,1.57-.68,3-1.56,4.17l7.7,8.86c1.01,1.17,2.1,2.25,3.27,3.26,3.82,3.29,12.73,11.32,10.83,12.97-2.4,2.08-11.69-9.82-13.7-13.34-1.82-3.19-8.03-9.45-9.18-10.59-1.53,1.35-3.57,2.11-5.76,1.96-1.65-.12-3.14-.73-4.34-1.69l-9.55,8.3c-1.17,1.01-2.25,2.1-3.26,3.27-3.29,3.82-11.32,12.73-12.97,10.83-2.08-2.4,9.82-11.69,13.34-13.7"/><line class="cls-5" x1="243.55" y1="497.4" x2="244.78" y2="487.49"/><line class="cls-4" x1="243.55" y1="497.4" x2="244.78" y2="487.49"/><line class="cls-5" x1="249.69" y1="502.62" x2="262.31" y2="498.5"/><line class="cls-4" x1="249.69" y1="502.62" x2="262.31" y2="498.5"/><line class="cls-5" x1="249.72" y1="509.97" x2="259.65" y2="518.28"/><line class="cls-4" x1="249.72" y1="509.97" x2="259.65" y2="518.28"/><line class="cls-5" x1="241.26" y1="512.23" x2="244.43" y2="523.99"/><line class="cls-4" x1="241.26" y1="512.23" x2="244.43" y2="523.99"/><line class="cls-5" x1="238.03" y1="498.11" x2="234.62" y2="486.78"/><line class="cls-4" x1="238.03" y1="498.11" x2="234.62" y2="486.78"/><line class="cls-5" x1="235.61" y1="511.11" x2="226.15" y2="522.07"/><line class="cls-4" x1="235.61" y1="511.11" x2="226.15" y2="522.07"/><line class="cls-5" x1="231.43" y1="503.26" x2="217.22" y2="503.59"/><line class="cls-4" x1="231.43" y1="503.26" x2="217.22" y2="503.59"/><line class="cls-5" x1="233.35" y1="500.22" x2="222.67" y2="491.78"/><line class="cls-4" x1="233.35" y1="500.22" x2="222.67" y2="491.78"/><g class="cls-21"><g class="cls-15"><path class="cls-5" d="m243.62,508.83c-.72-.18-1.93-.25-2.71-.35-.79-.1-2.05-.22-2.66-.28-.9-.08-2.98-.05-2.73-2.54.16-1.58.93-2.88,2.09-3.74,1.16-.86,2.64-1.24,4.19-1.08,1.55.16,2.91.86,3.85,1.95.93,1.09,1.39,2.52,1.23,4.1-.23,2.22-2.08,2.22-3.26,1.93"/></g></g><path class="cls-5" d="m321.95,417.53c-2.25.78-4.72.71-6.81-.12-2.1-.83-3.97-2.44-4.99-4.55-1.04-2.13-1.5-4.48-.51-6.99.91-2.31,2.68-4.22,5.07-5.26,2.38-1.04,4.97-1.02,7.24-.14,2.27.89,4.17,2.63,5.19,5.01,1.02,2.38.99,4.97.08,7.28-.96,2.46-2.96,3.98-5.24,4.77"/><line class="cls-5" x1="296.85" y1="500.13" x2="288.14" y2="516.01"/><line class="cls-4" x1="296.85" y1="500.13" x2="288.14" y2="516.01"/><line class="cls-5" x1="292.21" y1="493.79" x2="277.87" y2="498.92"/><line class="cls-4" x1="292.21" y1="493.79" x2="277.87" y2="498.92"/><line class="cls-5" x1="293.43" y1="483.77" x2="282.86" y2="474.6"/><line class="cls-4" x1="293.43" y1="483.77" x2="282.86" y2="474.6"/><line class="cls-5" x1="299.27" y1="481.95" x2="296.52" y2="469.75"/><line class="cls-4" x1="299.27" y1="481.95" x2="296.52" y2="469.75"/><line class="cls-5" x1="305.67" y1="499.85" x2="310.67" y2="514.14"/><line class="cls-4" x1="305.67" y1="499.85" x2="310.67" y2="514.14"/><line class="cls-5" x1="309.43" y1="482.54" x2="321.96" y2="468.17"/><line class="cls-4" x1="309.43" y1="482.54" x2="321.96" y2="468.17"/><line class="cls-5" x1="311.26" y1="490.04" x2="328.33" y2="483.61"/><line class="cls-4" x1="311.26" y1="490.04" x2="328.33" y2="483.61"/><line class="cls-5" x1="311.46" y1="496.43" x2="325.6" y2="506.61"/><line class="cls-4" x1="311.46" y1="496.43" x2="325.6" y2="506.61"/><g class="cls-21"><g class="cls-14"><path class="cls-5" d="m304.28,496.1c-1.18-.03-2.86-.1-4.1-.4-1.25-.31-2.84-.91-3.74-1.49-1.08-.68-3.19-1.4-2.54-4.27.45-2,1.66-3.63,3.35-4.62,1.68-.99,3.7-1.26,5.67-.81,1.97.45,3.65,1.58,4.71,3.22,1.06,1.63,1.39,3.61.94,5.62-.82,3.62-7.76,2.66-4.28,2.76"/></g></g><path class="cls-5" d="m265.55,431.28c-2.25.78-4.72.71-6.81-.12-2.1-.83-3.97-2.44-4.99-4.55-1.04-2.13-1.5-4.48-.51-6.99.91-2.31,2.68-4.22,5.07-5.26,2.38-1.04,4.97-1.02,7.24-.14,2.27.89,4.17,2.63,5.19,5.01,1.02,2.38.99,4.97.08,7.28-.96,2.46-2.96,3.98-5.24,4.77"/><path class="cls-5" d="m315.98,451.61c-1.91.44-4.09.33-5.88-.37-1.8-.7-3.53-2.04-4.51-3.67-1-1.68-2.01-3.58-1.02-6.17.83-2.19,2.48-3.95,4.67-4.91,2.18-.96,4.59-.96,6.73-.14,2.15.82,3.93,2.42,4.89,4.59.97,2.17.98,4.56.14,6.75-.94,2.48-3.01,3.46-5.02,3.93"/><g class="cls-21"><g class="cls-19"><path class="cls-5" d="m310.54,475.15c-1.55.12-3.46-.05-4.95-.63-1.5-.58-3.11-1.64-4.02-2.79-.98-1.24-2.51-2.67-1.52-5.36.76-2.06,2.28-3.68,4.26-4.55,1.99-.87,4.21-.89,6.23-.14,2.02.75,3.68,2.21,4.6,4.17.91,1.96.97,4.16.21,6.22-.92,2.5-3.03,2.95-4.8,3.09"/></g></g><path class="cls-5" d="m280.82,463.06c-1.91.44-4.09.33-5.88-.37-1.8-.7-3.53-2.04-4.51-3.67-1-1.68-2.01-3.58-1.02-6.17.83-2.19,2.48-3.95,4.67-4.91,2.18-.96,4.59-.96,6.73-.14,2.15.82,3.93,2.42,4.89,4.59.97,2.17.98,4.56.14,6.75-.94,2.48-3.01,3.46-5.02,3.93"/><g class="cls-20"><g class="cls-18"><path class="cls-5" d="m274.48,484.93c-1.55.12-3.46-.05-4.95-.63-1.5-.58-3.11-1.64-4.02-2.79-.98-1.24-2.51-2.67-1.52-5.36.76-2.06,2.28-3.68,4.26-4.55,1.99-.87,4.21-.89,6.23-.14,2.02.75,3.68,2.21,4.6,4.17.91,1.96.97,4.16.21,6.22-.92,2.5-3.03,2.95-4.8,3.09"/></g></g><path class="cls-5" d="m275.84,400.8c-2.58,1.35-5.57,1.7-8.24,1.07-2.68-.63-5.22-2.23-6.84-4.6-1.63-2.38-2.61-5.14-1.87-8.35.68-2.95,2.48-5.58,5.17-7.26,2.69-1.68,5.81-2.12,8.71-1.46,2.9.67,5.5,2.43,7.15,5.12,1.65,2.68,2.09,5.82,1.4,8.77-.72,3.13-2.85,5.33-5.47,6.7"/><path class="cls-5" d="m313.17,357.08c-1.21.63-2.6.8-3.86.5-1.25-.29-2.44-1.04-3.2-2.15-.76-1.12-1.22-2.4-.88-3.9.32-1.38,1.16-2.61,2.42-3.39,1.26-.79,2.72-.99,4.07-.68,1.36.31,2.57,1.14,3.35,2.39.77,1.26.98,2.72.65,4.1-.34,1.47-1.33,2.49-2.56,3.13"/><path class="cls-5" d="m336.74,328.89c-1.21.63-2.6.8-3.86.5-1.25-.29-2.44-1.04-3.2-2.15-.76-1.12-1.22-2.4-.88-3.9.32-1.38,1.16-2.61,2.42-3.39,1.26-.79,2.72-.99,4.07-.68,1.36.31,2.57,1.14,3.35,2.39.77,1.26.98,2.72.65,4.1-.34,1.47-1.33,2.49-2.56,3.13"/><path class="cls-5" d="m258.41,465.96c-1.52.34-3.43.46-4.99.11-1.57-.35-3.31-1.16-4.39-2.17-1.15-1.08-2.87-2.27-2.29-5.08.45-2.15,1.71-3.97,3.55-5.13,1.84-1.15,4.03-1.5,6.14-1.06,2.11.44,3.97,1.65,5.16,3.45,1.19,1.8,1.57,3.97,1.12,6.12-.54,2.61-2.57,3.37-4.29,3.76"/><g class="cls-21"><g class="cls-17"><path class="cls-5" d="m252.01,486.32c-.96,0-2.31,0-3.32-.22-1.01-.22-2.31-.67-3.05-1.11-.89-.53-2.61-1.05-2.16-3.38.32-1.63,1.25-2.97,2.59-3.81,1.34-.84,2.96-1.11,4.55-.8,1.6.32,2.99,1.19,3.88,2.48.89,1.29,1.21,2.88.9,4.51-.41,2.12-2.13,2.33-3.39,2.34"/></g></g><path class="cls-5" d="m288.31,365.89c-.11-.35-.34-.65-.56-.95-.09-.11-.17-.23-.26-.35-.07-.1-.14-.21-.15-.34,0-.1.03-.21.1-.29.07-.07.15-.12.24-.13.05,0,.1,0,.16,0,.05,0,.1,0,.15,0,.14-.01.26-.08.35-.19.13-.16.19-.41.14-.6-.08-.31-.33-.58-.66-.71-.84-.33-1.7-.77-2.56-1.29l2.11-5.27c.98.21,1.91.49,2.74.83.33.13.7.11.97-.06.17-.11.3-.32.32-.53.01-.15-.03-.28-.12-.38-.03-.04-.07-.07-.11-.1-.04-.04-.08-.07-.11-.11-.05-.07-.08-.16-.08-.26,0-.11.05-.21.12-.28.1-.08.23-.11.34-.14.14-.03.29-.06.43-.08.36-.06.73-.12,1.06-.3.43-.24.64-.66.57-1.14-.07-.48-.39-.82-.87-.93-.36-.08-.73-.04-1.1,0-.14.02-.29.04-.43.04-.12,0-.26.02-.37-.04-.09-.04-.16-.13-.2-.23-.03-.09-.03-.19,0-.27.02-.05.05-.09.08-.14.03-.04.05-.08.08-.13.06-.12.06-.27,0-.4-.07-.2-.26-.37-.45-.42-.31-.08-.67,0-.94.22-.7.56-1.52,1.09-2.4,1.57l-3.51-4.47c.68-.75,1.38-1.41,2.09-1.96.28-.21.44-.55.43-.86,0-.2-.13-.42-.3-.54-.12-.08-.26-.11-.4-.09-.05.01-.1.03-.14.04-.05.02-.1.04-.15.04-.09.01-.18,0-.26-.06-.1-.06-.16-.15-.18-.25-.03-.12.01-.26.05-.37.04-.14.09-.28.14-.41.13-.34.26-.7.27-1.07,0-.49-.25-.89-.7-1.06-.45-.18-.91-.07-1.24.29-.25.27-.4.62-.54.96-.06.13-.12.27-.18.4-.05.11-.11.23-.22.3-.08.06-.19.08-.3.05-.1-.02-.18-.07-.23-.14-.03-.04-.05-.09-.08-.14-.02-.04-.04-.09-.07-.13-.08-.11-.2-.19-.35-.21-.21-.04-.45.04-.59.18-.23.22-.34.58-.28.92.13.89.18,1.86.16,2.86l-5.62.81c-.31-.96-.53-1.9-.66-2.79-.05-.35-.25-.66-.53-.81-.18-.1-.43-.1-.62,0-.13.07-.23.17-.27.3-.02.05-.03.1-.03.14,0,.05-.02.11-.04.15-.03.08-.1.15-.18.2-.1.05-.21.06-.31.03-.12-.04-.21-.14-.29-.23-.1-.11-.19-.22-.28-.33-.23-.28-.48-.58-.79-.76-.42-.25-.89-.22-1.27.07-.38.3-.52.75-.37,1.22.11.35.34.65.56.95.09.12.17.23.26.35.07.1.14.21.15.34,0,.1-.03.21-.1.29-.07.07-.15.12-.24.13-.05,0-.1,0-.16,0-.05,0-.1,0-.15,0-.14.01-.26.08-.35.19-.13.16-.19.41-.14.6.08.31.33.58.66.71.84.33,1.7.77,2.56,1.29l-2.11,5.28c-.98-.21-1.91-.49-2.74-.83-.33-.13-.7-.11-.97.06-.17.11-.3.32-.32.53-.01.15.03.28.12.38.03.04.07.07.11.1.04.04.08.07.11.11.05.07.08.16.08.26,0,.11-.05.21-.12.28-.1.08-.23.11-.34.14-.14.03-.29.06-.43.08-.36.06-.73.12-1.06.3-.43.24-.64.66-.57,1.14.07.48.39.82.87.93.36.08.73.03,1.1,0,.14-.02.29-.04.43-.04.12,0,.26-.02.37.04.09.04.16.13.2.23.03.09.03.19,0,.27-.02.05-.05.09-.08.14-.03.04-.05.08-.08.13-.06.13-.06.26,0,.4.07.2.26.37.45.42.31.08.67,0,.94-.22.7-.56,1.51-1.09,2.4-1.57l3.51,4.46c-.67.75-1.38,1.41-2.09,1.96-.28.21-.44.55-.43.86,0,.2.13.42.3.54.12.08.26.11.39.09.05-.01.1-.03.14-.04.05-.02.1-.04.15-.04.09-.01.18,0,.26.06.1.06.16.15.18.25.03.12-.01.26-.05.37-.04.14-.09.28-.14.41-.13.34-.26.7-.27,1.07,0,.49.25.88.7,1.06.45.18.91.07,1.24-.29.25-.27.4-.62.54-.95.06-.13.12-.27.18-.4.05-.11.11-.23.22-.3.08-.06.19-.08.3-.05.1.02.18.07.23.14.03.04.05.09.08.14.02.04.04.09.07.13.08.11.2.19.35.21.21.04.45-.04.59-.18.23-.23.34-.58.28-.93-.13-.89-.18-1.86-.16-2.86l5.62-.81c.31.96.53,1.9.65,2.79.05.35.25.66.53.81.18.1.43.1.62,0,.13-.07.23-.17.27-.3.02-.05.03-.1.03-.14,0-.05.02-.11.04-.15.03-.08.1-.15.18-.2.1-.05.21-.07.31-.03.12.04.21.14.29.23.1.11.19.22.28.33.23.28.48.58.79.76.42.25.89.22,1.27-.07.38-.3.51-.75.37-1.22m-11.42-6.04s-.02,0-.02,0l-3-3.81,1.81-4.52,4.81-.69,2.99,3.81s0,.03,0,.04l-1.79,4.48s-.02.01-.02.02l-4.78.69Z"/><path class="cls-5" d="m319.98,330.23c-.16-.14-.36-.22-.55-.3-.08-.03-.16-.06-.23-.1-.06-.03-.13-.06-.17-.12-.03-.05-.05-.11-.04-.17.01-.05.04-.1.08-.13.02-.02.05-.03.08-.05.03-.01.05-.03.07-.04.06-.05.11-.12.12-.2.02-.12-.03-.26-.11-.34-.13-.13-.34-.19-.54-.15-.51.09-1.07.13-1.64.12l-.53-3.22c.55-.19,1.09-.33,1.6-.41.2-.03.37-.15.46-.32.05-.11.05-.25,0-.36-.04-.08-.1-.13-.17-.15-.03,0-.06-.01-.08-.02-.03,0-.06,0-.09-.02-.05-.02-.09-.05-.12-.1-.03-.06-.04-.12-.02-.17.02-.07.08-.12.13-.17.06-.06.12-.11.19-.17.16-.14.33-.28.43-.46.14-.24.12-.52-.06-.73-.17-.21-.44-.29-.7-.2-.2.07-.37.2-.54.33-.07.05-.13.1-.2.15-.06.04-.12.08-.19.09-.06,0-.12-.02-.17-.06-.04-.04-.07-.09-.08-.14,0-.03,0-.06,0-.09,0-.03,0-.06,0-.08,0-.08-.05-.15-.12-.2-.1-.08-.24-.11-.35-.07-.18.05-.33.2-.4.39-.18.49-.42.99-.72,1.49l-3.05-1.15c.11-.57.26-1.1.45-1.59.07-.19.06-.4-.04-.56-.06-.1-.19-.17-.31-.18-.09,0-.16.02-.22.08-.02.02-.04.04-.06.06-.02.02-.04.05-.06.07-.04.03-.09.05-.15.05-.06,0-.12-.03-.16-.07-.05-.05-.07-.13-.08-.2-.02-.08-.04-.16-.05-.24-.04-.21-.08-.42-.18-.6-.14-.24-.39-.36-.66-.32-.27.04-.47.24-.52.51-.04.21-.01.42.02.63.01.08.02.17.03.25,0,.07.01.15-.02.21-.02.05-.07.1-.13.12-.05.02-.11.02-.16,0-.03-.01-.05-.03-.08-.04-.02-.01-.05-.03-.07-.04-.07-.03-.15-.03-.23,0-.11.04-.21.15-.24.26-.05.18,0,.39.14.54.33.4.64.86.93,1.36l-2.53,2.07c-.44-.38-.83-.78-1.15-1.18-.13-.16-.32-.25-.5-.24-.12,0-.24.08-.31.18-.05.07-.06.15-.05.23,0,.03.02.05.03.08.01.03.02.06.03.09,0,.05,0,.1-.03.15-.03.05-.08.09-.14.11-.07.02-.15,0-.21-.02-.08-.02-.16-.05-.24-.08-.2-.07-.4-.14-.61-.14-.28,0-.51.15-.6.41s-.03.52.18.71c.16.14.36.22.55.3.08.03.16.06.23.1.06.03.13.06.18.12.03.05.05.11.03.17,0,.05-.04.1-.08.13-.02.02-.05.03-.08.05-.02.01-.05.03-.07.04-.06.05-.11.12-.12.2-.02.12.03.26.11.34.13.13.34.19.53.15.51-.09,1.06-.13,1.64-.12l.53,3.22c-.55.19-1.09.33-1.6.41-.2.03-.37.15-.46.32-.05.1-.05.25,0,.36.04.08.1.13.17.15.03,0,.06.01.08.02.03,0,.06.01.09.02.05.02.09.05.12.1.03.06.04.12.02.18-.02.07-.08.12-.13.17-.06.06-.12.11-.19.17-.16.14-.33.28-.43.46-.14.24-.12.52.06.73.17.21.44.29.7.2.2-.07.37-.2.54-.33.07-.05.13-.1.2-.15.06-.04.12-.08.19-.09.06,0,.12.01.17.06.04.04.07.08.08.13,0,.03,0,.06,0,.09,0,.03,0,.06,0,.09,0,.08.05.15.12.2.1.08.23.11.35.07.18-.05.33-.2.4-.39.18-.48.42-.98.71-1.48l3.06,1.15c-.11.57-.26,1.1-.45,1.58-.07.19-.06.4.04.55.06.1.19.17.31.18.08,0,.16-.02.22-.08.02-.02.04-.04.06-.06.02-.02.04-.05.06-.07.04-.03.09-.05.15-.05.06,0,.12.03.16.07.05.05.07.13.09.2.02.08.04.16.05.24.04.21.08.42.18.6.14.24.39.36.66.32.27-.05.47-.24.52-.51.04-.21.01-.42-.02-.63-.01-.08-.02-.17-.03-.25,0-.07-.01-.15.02-.21.02-.05.07-.1.13-.12.05-.02.11-.02.16,0,.03.01.05.03.08.04.02.01.05.03.07.04.07.03.15.03.23,0,.11-.05.21-.15.24-.27.05-.18,0-.39-.14-.54-.33-.4-.64-.86-.93-1.36l2.53-2.07c.44.38.83.78,1.15,1.18.13.16.32.25.5.24.12,0,.24-.08.31-.18.05-.07.06-.15.04-.23,0-.03-.02-.05-.03-.08-.01-.03-.02-.06-.03-.09,0-.05,0-.1.03-.15.03-.05.09-.09.14-.11.07-.02.15,0,.21.02.08.02.16.05.24.08.2.07.4.14.61.14.28,0,.51-.15.6-.41.1-.26.03-.52-.18-.71m-7.42.42s0,0-.01,0l-2.61-.98-.45-2.76,2.16-1.77,2.6.98s0,.01.01.02l.45,2.74s0,.01,0,.02l-2.15,1.76Z"/><path class="cls-5" d="m295.07,323.91c-.16-.14-.36-.22-.55-.3-.08-.03-.16-.06-.23-.1-.06-.03-.13-.06-.17-.12-.03-.05-.05-.11-.04-.17.01-.05.04-.1.08-.13.02-.02.05-.03.08-.05.03-.01.05-.03.07-.04.06-.05.11-.12.12-.2.02-.12-.03-.26-.11-.34-.13-.13-.34-.19-.54-.15-.51.09-1.07.13-1.64.12l-.53-3.22c.55-.19,1.09-.33,1.6-.41.2-.03.37-.15.46-.32.05-.11.05-.25,0-.36-.04-.08-.1-.13-.17-.15-.03,0-.06-.01-.08-.02-.03,0-.06,0-.09-.02-.05-.02-.09-.05-.12-.1-.03-.06-.04-.12-.02-.17.02-.07.08-.12.13-.17.06-.06.12-.11.19-.17.16-.14.33-.28.43-.46.14-.24.12-.52-.06-.73-.17-.21-.44-.29-.7-.2-.2.07-.37.2-.54.33-.07.05-.13.1-.2.15-.06.04-.12.08-.19.09-.06,0-.12-.02-.17-.06-.04-.04-.07-.09-.08-.14,0-.03,0-.06,0-.09,0-.03,0-.06,0-.08,0-.08-.05-.15-.12-.2-.1-.08-.24-.11-.35-.07-.18.05-.33.2-.4.39-.18.49-.42.99-.72,1.49l-3.05-1.15c.11-.57.26-1.1.45-1.59.07-.19.06-.4-.04-.56-.06-.1-.19-.17-.31-.18-.09,0-.16.02-.22.08-.02.02-.04.04-.06.06-.02.02-.04.05-.06.07-.04.03-.09.05-.15.05-.06,0-.12-.03-.16-.07-.05-.05-.07-.13-.08-.2-.02-.08-.04-.16-.05-.24-.04-.21-.08-.42-.18-.6-.14-.24-.39-.36-.66-.32-.27.04-.47.24-.52.51-.04.21-.01.42.02.63.01.08.02.17.03.25,0,.07.01.15-.02.21-.02.05-.07.1-.13.12-.05.02-.11.02-.16,0-.03-.01-.05-.03-.08-.04-.02-.01-.05-.03-.07-.04-.07-.03-.15-.03-.23,0-.11.04-.21.15-.24.26-.05.18,0,.39.14.54.33.4.64.86.93,1.36l-2.53,2.07c-.44-.38-.83-.78-1.15-1.18-.13-.16-.32-.25-.5-.24-.12,0-.24.08-.31.18-.05.07-.06.15-.05.23,0,.03.02.05.03.08.01.03.02.06.03.09,0,.05,0,.1-.03.15-.03.05-.08.09-.14.11-.07.02-.15,0-.21-.02-.08-.02-.16-.05-.24-.08-.2-.07-.4-.14-.61-.14-.28,0-.51.15-.6.41s-.03.52.18.71c.16.14.36.22.55.3.08.03.16.06.23.1.06.03.13.06.18.12.03.05.05.11.03.17,0,.05-.04.1-.08.13-.02.02-.05.03-.08.05-.02.01-.05.03-.07.04-.06.05-.11.12-.12.2-.02.12.03.26.11.34.13.13.34.19.53.15.51-.09,1.06-.13,1.64-.12l.53,3.22c-.55.19-1.09.33-1.6.41-.2.03-.37.15-.46.32-.05.1-.05.25,0,.36.04.08.1.13.17.15.03,0,.06.01.08.02.03,0,.06.01.09.02.05.02.09.05.12.1.03.06.04.12.02.18-.02.07-.08.12-.13.17-.06.06-.12.11-.19.17-.16.14-.33.28-.43.46-.14.24-.12.52.06.73.17.21.44.29.7.2.2-.07.37-.2.54-.33.07-.05.13-.1.2-.15.06-.04.12-.08.19-.09.06,0,.12.01.17.06.04.04.07.08.08.13,0,.03,0,.06,0,.09,0,.03,0,.06,0,.09,0,.08.05.15.12.2.1.08.23.11.35.07.18-.05.33-.2.4-.39.18-.48.42-.98.71-1.48l3.05,1.15c-.11.57-.26,1.1-.45,1.58-.07.19-.06.4.04.55.06.1.19.17.31.18.08,0,.16-.02.22-.08.02-.02.04-.04.06-.06.02-.02.04-.05.06-.07.04-.03.09-.05.15-.05.06,0,.12.03.16.07.05.05.07.13.09.2.02.08.04.16.05.24.04.21.08.42.18.6.14.24.39.36.66.32.27-.05.47-.24.52-.51.04-.21.01-.42-.02-.63-.01-.08-.02-.17-.03-.25,0-.07-.01-.15.02-.21.02-.05.07-.1.13-.12.05-.02.11-.02.16,0,.03.01.05.03.08.04.02.01.05.03.07.04.07.03.15.03.23,0,.11-.05.21-.15.24-.27.05-.18,0-.39-.14-.54-.33-.4-.64-.86-.93-1.36l2.53-2.07c.44.38.83.78,1.15,1.18.13.16.32.25.5.24.12,0,.24-.08.31-.18.05-.07.06-.15.04-.23,0-.03-.02-.05-.03-.08-.01-.03-.02-.06-.03-.09,0-.05,0-.1.03-.15.03-.05.09-.09.14-.11.07-.02.15,0,.21.02.08.02.16.05.24.08.2.07.4.14.61.14.28,0,.51-.15.6-.41.1-.26.03-.52-.18-.71m-7.42.42s0,0-.01,0l-2.61-.98-.45-2.76,2.16-1.77,2.6.98s0,.01.01.02l.45,2.74s0,.01,0,.02l-2.15,1.76Z"/><path class="cls-5" d="m337.87,371.54c-.37.02-.72.16-1.06.3-.13.05-.27.11-.41.16-.11.04-.24.08-.37.06-.1-.02-.19-.08-.25-.17-.05-.08-.08-.17-.07-.26,0-.05.02-.1.04-.15.02-.05.03-.09.04-.14.02-.14-.01-.27-.1-.39-.12-.17-.34-.29-.55-.29-.32,0-.65.17-.85.46-.53.72-1.18,1.44-1.91,2.14l-4.56-3.39c.46-.9.96-1.72,1.5-2.44.21-.28.29-.64.19-.95-.06-.2-.23-.37-.43-.44-.14-.05-.28-.04-.4.02-.04.02-.08.05-.12.08-.05.03-.09.06-.13.08-.08.03-.18.04-.27.01-.11-.03-.2-.1-.24-.19-.06-.11-.05-.25-.05-.37,0-.14.02-.29.03-.43.03-.36.07-.74-.02-1.1-.12-.47-.47-.79-.95-.84-.48-.06-.9.17-1.12.6-.17.33-.22.7-.27,1.06-.02.14-.04.29-.07.43-.02.12-.05.25-.13.35-.07.08-.17.13-.28.13-.1,0-.19-.02-.26-.07-.04-.03-.08-.07-.11-.11-.03-.04-.06-.07-.1-.11-.11-.09-.24-.13-.39-.11-.21.02-.42.15-.52.33-.16.28-.17.65-.03.97.36.82.66,1.74.9,2.72l-5.22,2.25c-.55-.85-1.01-1.7-1.36-2.52-.14-.32-.41-.57-.73-.64-.2-.05-.44.01-.6.15-.11.1-.18.22-.19.36,0,.05,0,.1,0,.15,0,.05,0,.11,0,.16-.01.09-.05.17-.13.24-.08.08-.19.12-.29.11-.13,0-.24-.08-.34-.14-.12-.08-.24-.16-.36-.24-.3-.21-.61-.43-.96-.53-.47-.13-.92.02-1.21.4-.29.39-.3.86-.04,1.27.2.31.5.54.78.77.11.09.23.18.34.27.09.08.19.17.23.29.04.1.03.21-.02.31-.04.09-.11.15-.19.19-.05.02-.1.03-.15.04-.05,0-.1.02-.14.04-.13.05-.23.14-.29.28-.09.19-.08.44.02.62.16.28.47.47.82.51.89.1,1.84.3,2.81.58l-.66,5.64c-1.01.05-1.97.03-2.87-.08-.35-.04-.7.07-.92.31-.14.15-.21.39-.17.6.03.15.1.26.22.34.04.03.09.05.13.07.05.02.1.04.14.08.07.05.12.13.14.23.02.11,0,.22-.05.3-.07.11-.19.17-.29.23-.13.07-.26.13-.39.19-.33.15-.68.31-.94.57-.35.34-.45.8-.26,1.25.19.44.59.69,1.08.67.37-.02.72-.16,1.06-.3.13-.05.27-.11.41-.15.11-.04.24-.08.37-.06.1.02.19.08.25.17.05.08.08.17.07.26,0,.05-.02.1-.04.15-.02.05-.03.09-.04.14-.02.14.01.27.1.39.12.17.34.29.55.29.32,0,.65-.17.85-.46.53-.72,1.18-1.45,1.91-2.14l4.56,3.39c-.46.9-.96,1.72-1.5,2.44-.21.28-.29.64-.19.95.06.2.23.37.43.44.14.05.28.04.4-.02.04-.02.09-.05.12-.08.04-.03.09-.06.13-.08.08-.04.18-.04.27-.01.11.03.19.1.24.19.06.11.05.25.05.37,0,.14-.02.29-.03.43-.03.36-.07.74.02,1.1.12.47.47.79.95.84.48.06.9-.17,1.12-.6.17-.32.22-.7.27-1.06.02-.14.04-.29.07-.43.02-.12.05-.25.13-.35.07-.08.17-.12.28-.13.1,0,.19.02.26.07.04.03.08.07.11.11.03.04.07.07.1.1.11.09.24.13.39.11.21-.02.42-.15.52-.33.16-.28.17-.65.03-.97-.36-.82-.66-1.74-.9-2.72l5.22-2.25c.55.84,1.01,1.69,1.36,2.52.14.32.41.57.73.64.2.05.44-.02.6-.15.11-.1.18-.22.18-.36,0-.05,0-.1,0-.15,0-.05,0-.11,0-.16.01-.09.05-.17.12-.24.08-.08.19-.12.29-.11.13,0,.24.08.34.14.12.08.24.16.36.25.3.21.61.43.96.53.47.13.92-.02,1.21-.4.29-.39.3-.86.04-1.27-.2-.31-.5-.54-.79-.77-.11-.09-.23-.18-.34-.27-.09-.08-.19-.17-.24-.29-.04-.1-.03-.21.02-.31.04-.09.11-.15.19-.19.05-.02.1-.03.15-.04.05-.01.1-.02.14-.04.13-.05.23-.14.29-.28.09-.19.08-.44-.02-.62-.16-.28-.47-.47-.82-.51-.89-.1-1.84-.3-2.81-.58l.66-5.64c1.01-.05,1.97-.03,2.86.08.35.04.7-.07.92-.31.14-.15.21-.39.17-.6-.03-.15-.1-.26-.22-.34-.04-.03-.09-.05-.13-.07-.05-.02-.1-.04-.14-.08-.07-.05-.12-.13-.14-.23-.03-.11,0-.22.05-.3.07-.11.19-.17.3-.23.13-.07.26-.13.39-.19.33-.15.68-.31.94-.57.35-.34.45-.8.26-1.25s-.6-.69-1.08-.67m-11.84,33.24c-.21,0-.41.09-.61.17-.08.03-.16.06-.23.09-.07.02-.14.05-.21.03-.06-.01-.11-.05-.15-.1-.03-.05-.05-.1-.04-.15,0-.03.01-.06.02-.09,0-.03.02-.05.02-.08.01-.08,0-.16-.05-.23-.07-.1-.2-.17-.32-.17-.18,0-.37.1-.49.26-.31.42-.68.83-1.1,1.23l-2.62-1.95c.26-.52.55-.99.86-1.4.12-.16.17-.37.11-.55-.03-.11-.13-.21-.25-.25-.08-.03-.16-.02-.23.01-.03.01-.05.03-.07.05-.03.02-.05.04-.08.05-.05.02-.1.02-.15,0-.06-.02-.11-.06-.14-.11-.03-.07-.03-.14-.03-.21,0-.08.01-.17.02-.25.02-.21.04-.43-.01-.63-.07-.27-.27-.45-.55-.49-.27-.03-.51.1-.64.35-.1.19-.13.4-.16.61-.01.08-.02.17-.04.25-.01.07-.03.14-.08.2-.04.04-.1.07-.16.08-.06,0-.11-.01-.15-.04-.02-.02-.04-.04-.06-.06-.02-.02-.04-.04-.06-.06-.06-.05-.14-.07-.22-.06-.12.01-.24.09-.3.19-.09.16-.1.37-.02.56.21.47.38,1,.52,1.57l-3,1.29c-.32-.48-.58-.97-.78-1.45-.08-.19-.24-.33-.42-.37-.11-.03-.25,0-.35.09-.07.06-.1.13-.11.21,0,.03,0,.06,0,.08,0,.03,0,.06,0,.09,0,.05-.03.1-.07.14-.05.04-.11.07-.17.06-.07,0-.14-.05-.2-.08-.07-.04-.14-.09-.21-.14-.17-.12-.35-.25-.55-.3-.27-.08-.53,0-.69.23-.16.22-.17.49-.02.73.11.18.28.31.45.44.07.05.13.1.19.16.05.04.11.1.14.17.02.05.01.12-.01.18-.02.05-.06.09-.11.11-.03.01-.06.02-.09.02-.03,0-.05.01-.08.02-.07.03-.13.08-.17.16-.05.11-.05.25.01.36.09.16.27.27.47.29.51.06,1.06.17,1.61.33l-.38,3.24c-.58.03-1.13.02-1.65-.05-.2-.02-.4.04-.53.18-.08.08-.12.22-.1.34.02.08.06.15.13.2.02.02.05.03.08.04.03.01.05.03.08.04.04.03.07.08.08.13.01.06,0,.13-.03.18-.04.06-.11.1-.17.13-.07.04-.15.07-.23.11-.19.09-.39.18-.54.33-.2.2-.26.46-.15.72.11.25.34.4.62.39.21,0,.41-.09.61-.17.08-.03.16-.06.23-.09.07-.02.14-.05.21-.03.06.01.11.05.15.1.03.05.05.1.04.15,0,.03-.01.06-.02.09,0,.03-.02.05-.02.08-.01.08,0,.16.05.23.07.1.2.17.32.17.18,0,.37-.1.49-.26.3-.42.68-.83,1.1-1.23l2.62,1.95c-.26.52-.55.99-.86,1.4-.12.16-.16.37-.11.54.03.11.13.21.25.26.08.03.16.02.23-.01.03-.01.05-.03.07-.05.02-.02.05-.04.08-.05.05-.02.1-.02.15,0,.06.02.11.06.14.11.03.07.03.14.03.21,0,.08-.01.17-.02.25-.02.21-.04.43.01.63.07.27.27.45.55.49.27.03.51-.1.64-.35.1-.19.13-.4.16-.61.01-.08.02-.17.04-.25.01-.07.03-.14.08-.2.04-.04.1-.07.16-.08.06,0,.11.01.15.04.02.02.04.04.06.06.02.02.04.04.06.06.06.05.14.07.22.07.12-.01.24-.09.3-.19.09-.16.1-.37.02-.56-.21-.47-.38-1-.52-1.56l3-1.29c.32.49.58.97.78,1.45.08.19.24.33.42.37.11.03.25-.01.35-.09.07-.05.1-.13.11-.21,0-.03,0-.06,0-.08,0-.03,0-.06,0-.09,0-.05.03-.1.07-.14.05-.04.11-.07.16-.06.07,0,.14.05.2.08.07.04.14.09.21.14.17.12.35.25.55.31.27.08.53-.01.69-.23.16-.22.17-.5.02-.73-.11-.18-.29-.31-.45-.44-.07-.05-.13-.1-.19-.16-.05-.05-.11-.1-.14-.17-.02-.06-.01-.12.01-.18.02-.05.07-.09.11-.11.03-.01.06-.02.09-.02.03,0,.05-.01.08-.02.07-.03.13-.08.17-.16.05-.11.05-.25-.01-.36-.09-.16-.27-.27-.47-.29-.51-.06-1.06-.17-1.61-.33l.38-3.24c.58-.03,1.13-.02,1.65.05.2.02.4-.04.53-.18.08-.09.12-.22.1-.34-.02-.08-.06-.15-.13-.2-.02-.02-.05-.03-.07-.04-.03-.01-.06-.03-.08-.04-.04-.03-.07-.08-.08-.13-.01-.06,0-.13.03-.18.04-.06.11-.1.17-.13.07-.04.15-.07.23-.11.19-.09.39-.18.54-.33.2-.19.26-.46.15-.72-.11-.25-.34-.4-.62-.38m3.06-23.75s-.01.01-.02.02l-4.45,1.92-3.9-2.9.57-4.83,4.45-1.92s.02,0,.04,0l3.87,2.88s0,.02.01.03l-.56,4.8Z"/><path class="cls-5" d="m303.62,416.8c-.37.02-.72.16-1.06.3-.13.05-.27.11-.41.16-.11.04-.24.08-.37.06-.1-.02-.19-.08-.25-.17-.05-.08-.08-.17-.07-.26,0-.05.02-.1.04-.15.02-.05.03-.09.04-.14.02-.14-.01-.27-.1-.39-.12-.17-.34-.29-.55-.29-.32,0-.65.17-.85.46-.53.72-1.18,1.44-1.91,2.14l-4.56-3.39c.46-.9.96-1.72,1.5-2.44.21-.28.29-.64.19-.95-.06-.2-.23-.37-.43-.44-.14-.05-.28-.04-.4.02-.04.02-.08.05-.12.08-.05.03-.09.06-.13.08-.08.03-.18.04-.27.01-.11-.03-.2-.1-.24-.19-.06-.11-.05-.25-.05-.37,0-.14.02-.29.03-.43.03-.36.07-.74-.02-1.1-.12-.47-.47-.79-.95-.84-.48-.06-.9.17-1.12.6-.17.33-.22.7-.27,1.06-.02.14-.04.29-.07.43-.02.12-.05.25-.13.35-.07.08-.17.13-.28.13-.1,0-.19-.02-.26-.07-.04-.03-.08-.07-.11-.11-.03-.04-.06-.07-.1-.11-.11-.09-.24-.13-.39-.11-.21.02-.42.15-.52.33-.16.28-.17.65-.03.97.36.82.66,1.74.9,2.72l-5.22,2.25c-.55-.85-1.01-1.7-1.36-2.52-.14-.32-.41-.57-.73-.64-.2-.05-.44.01-.6.15-.11.1-.18.22-.19.36,0,.05,0,.1,0,.15,0,.05,0,.11,0,.16-.01.09-.05.17-.13.24-.08.08-.19.12-.29.11-.13,0-.24-.08-.34-.14-.12-.08-.24-.16-.36-.24-.3-.21-.61-.43-.96-.53-.47-.13-.92.02-1.21.4-.29.39-.3.86-.04,1.27.2.31.5.54.78.77.11.09.23.18.34.27.09.08.19.17.23.29.04.1.03.21-.02.31-.04.09-.11.15-.19.19-.05.02-.1.03-.15.04-.05.01-.1.02-.14.04-.13.05-.23.14-.29.28-.09.19-.08.44.02.62.16.28.47.47.82.51.89.1,1.84.3,2.81.58l-.66,5.64c-1.01.05-1.97.03-2.87-.08-.35-.04-.7.07-.92.31-.14.15-.21.39-.17.6.03.15.1.26.22.34.04.03.09.05.13.07.05.02.1.04.14.08.07.05.12.13.14.23.02.11,0,.22-.05.3-.07.11-.19.17-.29.23-.13.07-.26.13-.39.19-.33.15-.68.31-.94.57-.35.34-.45.8-.26,1.25.19.44.59.69,1.08.67.37-.02.72-.16,1.06-.3.13-.05.27-.11.41-.15.11-.04.24-.08.37-.06.1.02.19.08.25.17.05.08.08.17.07.26,0,.05-.02.1-.04.15-.02.05-.03.09-.04.14-.02.14.01.27.1.39.12.17.34.29.55.29.32,0,.65-.17.85-.46.53-.72,1.18-1.45,1.91-2.14l4.56,3.39c-.46.9-.96,1.72-1.5,2.44-.21.28-.29.64-.19.95.06.2.23.37.43.44.14.05.28.04.4-.02.04-.02.09-.05.12-.08.04-.03.09-.06.13-.08.08-.04.18-.04.27-.01.11.03.19.1.24.19.06.11.05.25.05.37,0,.14-.02.29-.03.43-.03.36-.07.74.02,1.1.12.47.47.79.95.84.48.06.9-.17,1.12-.6.17-.32.22-.7.27-1.06.02-.14.04-.29.07-.43.02-.12.05-.25.13-.35.07-.08.17-.12.28-.13.1,0,.19.02.26.07.04.03.08.07.11.11.03.04.07.07.1.1.11.09.24.13.39.11.21-.02.42-.15.52-.33.16-.28.17-.65.03-.97-.36-.82-.66-1.74-.9-2.72l5.22-2.25c.55.84,1.01,1.69,1.36,2.52.14.32.41.57.73.64.2.05.44-.02.6-.15.11-.1.18-.22.18-.36,0-.05,0-.1,0-.15,0-.05,0-.11,0-.16.01-.09.05-.17.12-.24.08-.08.19-.12.29-.11.13,0,.24.08.34.14.12.08.24.16.36.25.3.21.61.43.96.53.47.13.92-.02,1.21-.4.29-.39.3-.86.04-1.27-.2-.31-.5-.54-.79-.77-.11-.09-.23-.18-.34-.27-.09-.08-.19-.17-.24-.29-.04-.1-.03-.21.02-.31.04-.09.11-.15.19-.19.05-.02.1-.03.15-.04.05-.01.1-.02.14-.04.13-.05.23-.14.29-.28.09-.19.08-.44-.02-.62-.16-.28-.47-.47-.82-.51-.89-.1-1.84-.3-2.81-.58l.66-5.64c1.01-.05,1.97-.03,2.86.08.35.04.7-.07.92-.31.14-.15.21-.39.17-.6-.03-.14-.1-.26-.22-.34-.04-.03-.09-.05-.13-.07-.05-.02-.1-.04-.14-.08-.07-.05-.12-.13-.14-.23-.03-.11,0-.22.05-.3.07-.11.19-.17.3-.23.13-.07.26-.13.39-.19.33-.15.68-.31.94-.57.35-.34.45-.8.26-1.25s-.6-.69-1.08-.67m-8.77,9.49s-.01.01-.02.02l-4.45,1.92-3.9-2.9.57-4.83,4.45-1.92s.02,0,.04,0l3.87,2.88s0,.02.01.03l-.56,4.8Z"/></g><path class="cls-12" d="m227.45,133.22l.41.6-6.88,3.77-.47-.56c-4.42-5.22-10.05-6.97-16.62-3.37-8.08,4.43-9.39,14.19-3.76,24.48,5.91,10.8,14.75,14.66,22.46,10.43,6.57-3.6,8.06-9.43,6.04-15.96l-.22-.7,6.88-3.77.28.67c3.78,9.01.97,19.02-10.4,25.25-12.44,6.82-25.12,1.79-32.38-11.48-7.5-13.71-3.93-27.58,8.32-34.29,11.36-6.23,20.75-3.17,26.34,4.93Z"/><path class="cls-12" d="m285.5,152.46l-33.37,8.12-11.8-48.26,32.67-7.95,1.49,6.08-24.98,6.08,3.66,14.97,23.02-5.6,1.49,6.08-23.02,5.6,3.66,14.97,25.68-6.25,1.5,6.16Z"/><path class="cls-12" d="m328.16,152.1l-34.35.02v-49.68s7.92,0,7.92,0v43.13s26.43-.02,26.43-.02v6.55Z"/><path class="cls-12" d="m368.9,161.67l-33.39-8.05,11.68-48.29,7.7,1.86-10.14,41.92,25.69,6.2-1.54,6.37Z"/><path class="cls-12" d="m423.98,162.31c-7.22,13.53-19.85,18.7-33.25,11.54-13.46-7.2-16.2-20.58-8.98-34.12,7.25-13.6,19.85-18.7,33.31-11.5,13.4,7.16,16.17,20.48,8.92,34.08Zm-7.49-4.01c5.83-10.93,4.24-20.19-4.27-24.74-8.57-4.58-17.14-.75-22.97,10.17-5.79,10.87-4.24,20.19,4.34,24.77,8.51,4.55,17.11.66,22.91-10.21Z"/></g></g></g></svg>