<?xml version="1.0" encoding="UTF-8"?><svg xmlns="http://www.w3.org/2000/svg" xmlns:xlink="http://www.w3.org/1999/xlink" viewBox="0 0 619 730"><defs><style>.cls-1{clip-path:url(#clippath);}.cls-2,.cls-3{fill:none;}.cls-2,.cls-4,.cls-5,.cls-6,.cls-7,.cls-8,.cls-9,.cls-10{stroke-width:0px;}.cls-11{clip-path:url(#clippath-1);}.cls-12{clip-path:url(#clippath-4);}.cls-13{clip-path:url(#clippath-3);}.cls-14{clip-path:url(#clippath-2);}.cls-15{clip-path:url(#clippath-6);}.cls-16{clip-path:url(#clippath-5);}.cls-3{stroke:#00267f;stroke-miterlimit:10;stroke-width:4px;}.cls-17{opacity:.2;}.cls-4{fill:#6d88bc;}.cls-5{fill:#d3ddef;}.cls-6{fill:#b2bdd8;}.cls-7{fill:#8b9cc5;}.cls-8{fill:#fff;}.cls-9{fill:#ffc726;}.cls-10{fill:#00267f;}</style><clipPath id="clippath"><rect class="cls-2" x="-31.27" y="-14.29" width="679.41" height="780"/></clipPath><clipPath id="clippath-1"><rect class="cls-2" x="-31.27" y="-14.29" width="679.41" height="780"/></clipPath><clipPath id="clippath-2"><rect class="cls-2" x="-31.27" y="-14.29" width="679.41" height="780"/></clipPath><clipPath id="clippath-3"><rect class="cls-2" x="-31.27" y="-14.29" width="679.41" height="780"/></clipPath><clipPath id="clippath-4"><rect class="cls-2" x="125.41" y="401.16" width="294.56" height="3"/></clipPath><clipPath id="clippath-5"><rect class="cls-2" x="100.23" y="353.4" width="279.84" height="23.86"/></clipPath><clipPath id="clippath-6"><rect class="cls-2" x="111.44" y="308.81" width="230.17" height="41.14"/></clipPath></defs><g id="Ebene_2"><rect class="cls-8" x="0" width="618.87" height="729.32"/></g><g id="Ebene_1"><g class="cls-1"><g class="cls-11"><g class="cls-14"><path class="cls-10" d="m198.52,687.06h-11.02c-1.64-4.11-2.46-8.03-3.19-14.97-.82-6.67-3.28-10.87-9.01-11.23-1.55-.09-3.1-.09-4.64-.09h-9.74v26.29h-10.02v-63h21.67c3.37,0,5.65,0,8.65.37,9.1,1.19,15.93,6.03,15.93,16.8,0,8.22-5.01,13.06-11.65,15.07,5.64,2.47,8.01,7.94,8.65,14.52.73,7.94,1.82,12.78,4.37,16.25m-27.13-34.06c2.55,0,4.1,0,5.64-.18,5.46-.55,9.56-3.65,9.56-10.32s-3.37-9.4-8.74-10.13c-1.64-.27-3.28-.37-5.83-.37h-11.11v21h10.47Z"/><path class="cls-10" d="m267.63,644.77l.09.88h-9.92l-.18-.88c-1.73-8.16-6.92-13.34-16.39-13.34-11.65,0-19.03,9.65-19.03,23.96,0,15,7.47,24.3,18.57,24.3,9.47,0,14.66-5.35,16.39-13.51l.18-.88h9.92l-.09.88c-1.27,11.85-10.47,20.88-26.86,20.88-17.94,0-28.95-12.81-28.95-31.24s12.38-31.76,30.05-31.76c16.39,0,24.95,8.77,26.22,20.71"/><polygon class="cls-10" points="330.26 687.06 286.83 687.06 286.83 624.06 329.35 624.06 329.35 632.01 296.85 632.01 296.85 651.54 326.8 651.54 326.8 659.49 296.85 659.49 296.85 679.03 330.26 679.03 330.26 687.06"/><path class="cls-10" d="m134.72,655.73c0-18.98-12.38-31.67-30.05-31.67-16.39,0-24.95,8.75-26.22,20.64l-.09.88h9.92l.18-.88c1.73-8.14,6.92-13.3,16.39-13.3,11.65,0,19.03,9.62,19.03,23.88,0,14.96-7.46,24.23-18.57,24.23l-66.2.02-10.07,7.52h76.43c17.76-.16,29.24-13.07,29.24-31.33"/><path class="cls-10" d="m390.44,642.49h-10.38c-.73-6.93-4.92-11.05-12.2-11.05-5.92,0-10.56,2.63-10.56,8.34s3.73,8.6,13.48,10.79c13.84,3.07,20.39,8.77,20.39,18.87,0,10.97-10.11,17.64-22.31,17.64-14.39,0-23.58-6.58-24.86-18.78h10.38c1.64,7.46,7.1,11.41,14.48,11.41,6.55,0,11.74-3.42,11.74-8.95,0-6.32-3.83-9.57-14.02-11.85-11.93-2.72-19.85-7.02-19.85-17.55s9.92-17.28,21.67-17.28c13.93,0,20.76,7.9,22.03,18.42"/><polygon class="cls-10" points="435.14 632.01 435.14 687.06 425.22 687.06 425.22 632.01 403.27 632.01 403.27 624.06 457.08 624.06 457.08 632.01 435.14 632.01"/><path class="cls-10" d="m519.9,687.06h-11.02c-1.64-4.11-2.46-8.03-3.19-14.97-.82-6.67-3.28-10.87-9.01-11.23-1.55-.09-3.1-.09-4.64-.09h-9.74v26.29h-10.02v-63h21.67c3.37,0,5.65,0,8.65.37,9.11,1.19,15.93,6.03,15.93,16.8,0,8.22-5.01,13.06-11.65,15.07,5.65,2.47,8.01,7.94,8.65,14.52.73,7.94,1.82,12.78,4.37,16.25m-27.13-34.06c2.55,0,4.1,0,5.64-.18,5.46-.55,9.56-3.65,9.56-10.32s-3.37-9.4-8.74-10.13c-1.64-.27-3.28-.37-5.83-.37h-11.11v21h10.47Z"/><path class="cls-10" d="m547.85,666.24l-6.83,20.82h-10.65l22.58-63h12.93l21.94,63h-10.83l-6.83-20.82h-22.31Zm19.67-7.94l-8.29-25.93-8.74,25.93h17.03Z"/><path class="cls-8" d="m560.25,309.85c-9.86-139.07-130.6-243.82-269.67-233.96C151.51,85.75,46.76,206.49,56.62,345.56c4.44,62.56,31.32,118.17,72.2,159.53,1.58,1.3,3.07,2.71,4.27,4.22,49.73,47.98,118.84,75.48,193.2,70.21,139.07-9.86,243.82-130.6,233.96-269.67"/><path class="cls-4" d="m133.09,509.31c49.73,47.99,118.84,75.49,193.2,70.21,64.92-4.6,122.35-33.37,164.14-76.87-5.85,0-12.81-1.04-20.65-4.11,0,0-17.47,10.73-42.12-.38,0,0-8.14,4.09-19.33,4.26-1.03.03-2.11.02-3.26-.06-.21-.01-.42-.03-.63-.05-.17-.01-.33-.02-.5-.04-4.64-.37-9.65-1.49-14.73-3.85-1.1.68-16.8,9.9-40.53.61,0,0-5.16,3.16-13.82,4.27-5.48,2.13-14.32,2.95-27.57-2.74,0,0-16.25,10.04-40.61.02,0,0-17.75,10.45-42.1-1.04,0,0-8.25,3.96-19.44,3.95-1.03.02-2.11-.02-3.26-.11-.21-.02-.42-.04-.63-.06-.17-.02-.33-.03-.5-.05-4.63-.44-9.61-1.64-14.62-4.08-1.12.66-17.06,9.63-40.54-.02,0,0-7.02,4.13-18.27,4.34.51.52,1,1.05,1.51,1.56,1.58,1.3,3.07,2.71,4.27,4.22"/><path class="cls-3" d="m560.25,309.85c-9.86-139.07-130.6-243.82-269.67-233.96C151.51,85.75,46.76,206.49,56.62,345.56c4.44,62.56,31.32,118.17,72.2,159.53,1.58,1.3,3.07,2.71,4.27,4.22,49.73,47.98,118.84,75.48,193.2,70.21,139.07-9.86,243.82-130.6,233.96-269.67Z"/></g><path class="cls-10" d="m205.8,183.14l-5.65,5.45-16.94-17.58c-3.95-4.1-8.69-9.02-12.24-12.91,2.61,4.79,5.85,11.16,8.4,16.5l11.23,23.18-6.58,6.35-22.84-12.09c-5.14-2.74-11.34-6.17-15.97-9.01,3.8,3.74,8.45,8.56,12.39,12.66l16.93,17.58-5.7,5.5-34.47-35.78,9.18-8.84,39.01,21.61-20.14-39.79,8.92-8.59,34.47,35.78Z"/><path class="cls-10" d="m216.25,159.36l2.42,17.12-7.55,3.73-5.97-52.47,9.17-4.53,37.54,36.87-7.68,3.8-12.1-12.33-15.81,7.82Zm11.17-12.51l-14.92-15.44,2.85,21.4,12.07-5.97Z"/><path class="cls-10" d="m292.62,152.02l-33.66,6.82-9.92-48.68,32.96-6.68,1.25,6.14-25.2,5.1,3.08,15.1,23.22-4.7,1.25,6.14-23.22,4.7,3.08,15.1,25.9-5.25,1.27,6.21Z"/><path class="cls-10" d="m336.67,117.87l-8.2-.36c-.32-5.71-3.48-9.23-9.23-9.49-4.68-.21-8.44,1.79-8.65,6.47-.22,4.82,2.63,7.18,10.25,9.31,10.82,3,15.79,7.9,15.42,16.17-.4,8.99-8.63,14.11-18.27,13.69-11.37-.5-18.39-6.21-18.95-16.26l8.2.36c1.02,6.17,5.19,9.6,11.02,9.85,5.18.23,9.41-2.4,9.61-6.93.23-5.18-2.67-7.97-10.64-10.2-9.32-2.64-15.42-6.44-15.04-15.08.39-8.78,8.48-13.83,17.76-13.42,11.01.48,16.11,7.19,16.73,15.87Z"/><path class="cls-10" d="m376.79,119.79l-12.58,41.56-7.51-2.27,12.58-41.56-16.61-5.02,1.81-6,40.74,12.31-1.81,6-16.61-5.02Z"/><path class="cls-10" d="m418.73,189.64l-7.42-4.57c.59-3.44,1.66-6.42,4.03-11.39,2.2-4.82,2.27-8.66-1.44-11.28-1.01-.7-2.05-1.34-3.09-1.99l-6.56-4.04-10.85,17.68-6.75-4.15,25.99-42.35,14.6,8.98c2.27,1.4,3.8,2.34,5.67,3.83,5.64,4.57,8.25,10.65,3.8,17.9-3.39,5.52-8.76,6.7-14.06,5.3,2.79,4,2.12,8.66-.16,13.34-2.79,5.64-4.05,9.35-3.76,12.74Zm-4.23-34.13c1.72,1.06,2.76,1.7,3.88,2.22,3.91,1.89,7.95,1.51,10.69-2.97,2.75-4.48,1.61-7.72-1.71-10.43-.99-.86-2.06-1.6-3.78-2.66l-7.48-4.6-8.66,14.12,7.05,4.34Z"/><path class="cls-10" d="m472.95,210.9c-11.33,10.34-24.97,10.99-35.22-.23-10.29-11.27-8.4-24.79,2.93-35.13,11.38-10.39,24.97-10.99,35.26.28,10.25,11.22,8.41,24.69-2.97,35.08Zm-5.73-6.27c9.15-8.35,10.74-17.6,4.24-24.73-6.55-7.18-15.92-6.43-25.07,1.92-9.1,8.3-10.74,17.6-4.19,24.78,6.51,7.12,15.92,6.33,25.02-1.97Z"/><g class="cls-13"><path class="cls-10" d="m240.69,448.1c-8.37,0-13.37,4.74-13.37,12.67,0,.91.78,1.65,1.75,1.65s1.74-.74,1.74-1.65c0-6.13,3.41-9.37,9.88-9.37s11.38,5.16,11.38,11.5-5.1,11.5-11.38,11.5c0,0-25.61.07-44.36.11v3.19c18.78,0,44.36,0,44.36,0,8.2,0,14.86-6.64,14.86-14.81s-6.67-14.81-14.86-14.81"/><path class="cls-10" d="m275.61,448.1c8.37,0,13.36,4.74,13.36,12.67,0,.91-.78,1.65-1.75,1.65s-1.74-.74-1.74-1.65c0-6.13-3.42-9.37-9.88-9.37s-11.38,5.16-11.38,11.5,5.1,11.5,11.38,11.5c0,0,160.24.07,179,.11l-.31,3.19c-18.78,0-178.69,0-178.69,0-8.2,0-14.87-6.64-14.87-14.81s6.67-14.81,14.87-14.81"/><path class="cls-10" d="m185.19,474.17c-10.38-.63-16.76-11.22-26.93-24.16h-3.55c8.62,11.29,11.67,15.41,17.68,21.51,6.01,6.1,13.18,6.17,13.18,6.17,0,0-.53,0,0,0,7.08,0,28.83,0,50.67,0v-3.16c-23.03.01-45.84-.06-51.05-.38"/><g class="cls-17"><g class="cls-12"><polygon class="cls-10" points="127.57 401.16 125.41 404.16 419.98 404.16 416.63 401.16 127.57 401.16"/></g></g><g class="cls-17"><g class="cls-16"><path class="cls-10" d="m301,365.44c-5.92-.32-11.81-.31-17.5-1.78-8.05-2.08-13.29-4.66-17.11-6.54-1.3-.64-2.42-1.19-3.46-1.63-13.14-5.57-26.11,1.02-39.83,8-13.34,6.79-27.14,13.81-41.59,9.36-3.66-1.12-6.59-2.74-9.68-4.45-5.14-2.84-10.96-6.06-21.3-7.53-6.63-.94-43.46-.94-50.3,0l.48,2.97c6.52-.9,43.03-.9,49.33,0,9.72,1.38,15.01,4.31,20.13,7.14,3.25,1.8,6.33,3.5,10.32,4.73,3.55,1.09,7.03,1.57,10.46,1.57,11.8,0,22.9-5.65,33.72-11.15,12.99-6.61,25.26-12.85,36.92-7.91.95.4,2.03.94,3.29,1.55,3.96,1.95,9.37,4.62,17.76,6.78,5.91,1.53,12.02,1.55,18.28,1.89h79.16l-3.35-3h-75.72Z"/></g></g><g class="cls-17"><g class="cls-15"><path class="cls-10" d="m325.72,331.01c-3.89-.09-7.83-.4-11.71-.9-17.99-2.35-27.89-8.09-36.62-13.15-6.59-3.82-12.27-7.12-19.9-7.95-16.35-1.78-27.62,9.27-38.53,19.96-10.43,10.23-20.29,19.89-33.71,17.65-5.5-.92-10.03-3.58-15.28-6.66-7.76-4.55-17.42-10.22-34.31-12.61-3.33-.47-20.72-1.79-24.08-1.93l-.15,3c3.24.14,20.52,1.45,23.74,1.9,16.22,2.3,25.17,7.55,33.07,12.18,5.54,3.25,10.32,6.06,16.44,7.08,1.53.25,3.01.37,4.45.37,12.9,0,22.69-9.6,32.2-18.92,10.35-10.15,21.06-20.65,35.79-19.04,6.9.75,12.3,3.88,18.56,7.51,8.56,4.97,19.21,11.15,37.89,13.58,4,.52,8.06.83,12.13.93h15.91l-3.35-3h-12.53Z"/></g></g><polygon class="cls-9" points="453.84 502.44 461.35 502.44 457.5 457.95 453.84 502.44"/><polygon class="cls-9" points="254.02 250.23 457.27 437.54 248.68 256.19 254.02 250.23"/><polygon class="cls-9" points="57.11 438.98 455.33 440.01 66.17 446.98 57.11 438.98"/><path class="cls-9" d="m458.11,438.9l1.04-223.81c-1.64.68-3.29,1.16-4.95,1.46l3.91,222.36Z"/><path class="cls-9" d="m453.44,173.22l.62,35.13c1.7-.65,3.42-1.57,5.14-2.78l.15-32.39c-1.89-.41-3.87-.4-5.9.04"/><path class="cls-9" d="m459.38,166.09l.4-78.23-8,.05,1.52,77.59c2.04-.11,4.07.08,6.07.58"/><path class="cls-10" d="m569.51,425.19c.15,0,.3-.01.45-.02.16,0,.32-.01.48-.02.29-.01.59-.03.88-.04.19,0,.37-.02.56-.02.28-.01.57-.02.85-.04.2,0,.39-.02.59-.03.31-.01.61-.03.92-.04.18,0,.35-.02.53-.02.32-.02.63-.03.95-.04.17,0,.34-.02.52-.02.32-.02.64-.03.96-.04.17,0,.35-.01.52-.02.31-.01.62-.03.93-.04.19,0,.37-.02.56-.02.35-.02.69-.03,1.04-.05.15,0,.3-.01.45-.02.3-.01.6-.03.9-.04.21,0,.42-.02.63-.03.32-.01.64-.03.96-.04.18,0,.36-.02.54-.03.39-.02.79-.04,1.19-.06.11,0,.23,0,.34-.02.41-.02.82-.04,1.23-.06.11,0,.21,0,.32-.01.33-.02.67-.03,1.01-.05.19,0,.38-.02.57-.03.26-.01.51-.02.77-.04.27-.01.53-.03.8-.04.25-.01.51-.02.76-.04.27-.01.54-.03.81-.04.29-.01.57-.03.86-.04.24-.01.48-.02.72-.04.29-.01.59-.03.88-.04.24-.01.48-.02.72-.04.36-.02.72-.04,1.08-.05.17,0,.35-.02.52-.03.45-.02.91-.04,1.37-.07.08,0,.16,0,.25-.01.37-.02.74-.04,1.11-.06.18,0,.35-.02.53-.03.28-.01.57-.03.85-.04.26-.01.53-.03.79-.04.33-.02.66-.03.99-.05.22-.01.44-.02.66-.03.27-.01.54-.03.81-.04.29-.02.58-.03.87-.04.11,0,.21-.01.32-.02.45-.02.91-.05,1.36-.07.95-.05,1.91-.1,2.88-.15.17,0,.33-.02.5-.02,1.07-.05,2.15-.11,3.24-.17.06,0,.13,0,.19-.01.58-.03,1.15-.06,1.73-.09.12,0,.24-.02.35-.05.34-.09.65-.28.88-.55.09-.11.16-.23.2-.35.01-.03.02-.07.03-.1.02-.1.02-.2,0-.31-.01-.05-.03-.11-.06-.17-.02-.04-.04-.07-.06-.11-.13-.21-.37-.43-.75-.65-.04-.02-.09-.04-.14-.03-.76.03-7.46.26-18.82.55-.15,0-.29,0-.44.01-1.91.05-3.95.1-6.12.15-.17,0-.33,0-.5.01-1.18.03-2.39.05-3.63.08-.36,0-.72.01-1.08.02s-.73.02-1.09.02c-.37,0-.74.02-1.11.02-1.3.03-2.64.05-4.02.08-.59.01-1.18.02-1.78.04-.4,0-.8.01-1.21.02-.2,0-.41,0-.61.01-.41,0-.82.01-1.23.02-.41,0-.83.01-1.25.02-.63.01-1.26.02-1.9.03-.64.01-1.28.02-1.93.03-1.08.02-2.18.04-3.3.05-.45,0-.89.01-1.34.02-1.13.02-2.27.04-3.43.05-1.62.02-3.27.05-4.95.07-.48,0-.96.01-1.45.02-.73,0-1.46.02-2.2.03-1.23.01-2.47.03-3.72.04-1.26.01-2.53.03-3.81.04-1.8.02-3.62.04-5.47.05-.26,0-.53,0-.79,0-1.59.01-3.2.03-4.83.04-1.36,0-2.72.02-4.1.03-.55,0-1.11,0-1.66.01-.83,0-1.67,0-2.51.01-.56,0-1.13,0-1.69,0-.57,0-1.13,0-1.7,0-1.71,0-3.43.02-5.17.02-.27,0-.54,0-.81,0l11.42-13.16c.51-.58.42-1.45-.2-1.88-.57-.4-1.38-.29-1.83.27l-12.02,14.78c-1.2,0-2.4,0-3.61,0-.55,0-1.11,0-1.67,0l-14.36-12.98c-.57-.52-1.44-.45-1.89.16-.42.56-.31,1.37.23,1.84l12.96,10.99h-2.5c-.61,0-1.22,0-1.83,0-12.52-.01-25.72-.08-39.4-.24h-.04c.01-.07.02-.14.02-.21v-35.87c0-.14.12-.26.26-.26,6.33,0,20.45.02,30.7.02,6.8,0,11.95,0,12.09-.03.24-.04.44-.29.56-.49.06-.09.08-.2.09-.3.01-.1.12-.31.64-.7.68-.52.37-1.06.18-1.55-.04-.1-.14-.16-.24-.16h-44.01c-.14,0-.26-.12-.26-.26v-7.53c0-.14-.12-.26-.26-.26h-4.28c-.14,0-.26.12-.26.26v7.53c0,.14-.12.26-.26.26h-44.01c-.11,0-.2.06-.24.16-.2.48-.5,1.03.18,1.55.51.39.62.6.64.7.01.11.04.21.09.3.12.19.31.45.56.49.13.02,5.28.03,12.09.03,10.25,0,24.37-.02,30.7-.02.14,0,.26.12.26.26v35.87c0,.07,0,.14.02.21h-.03c-13.68.16-26.88.23-39.4.24h-.37l11.88-6.09c.69-.35.92-1.19.52-1.82-.38-.59-1.17-.78-1.8-.43l-15.06,8.35c-1.41,0-2.82,0-4.21,0-1.23,0-2.45,0-3.67,0l-7.42-17.31c-.3-.71-1.12-1.01-1.78-.64-.61.34-.86,1.12-.55,1.77l7.56,16.19c-.4,0-.79,0-1.19,0-1.74,0-3.47-.01-5.17-.02-.57,0-1.14,0-1.7,0-.57,0-1.13,0-1.69,0-.84,0-1.68-.01-2.52-.01-.56,0-1.11,0-1.66-.01-1.38,0-2.75-.02-4.1-.03-1.63-.01-3.24-.03-4.83-.04-.27,0-.53,0-.79,0-1.85-.02-3.67-.03-5.47-.05-1.28-.01-2.55-.03-3.81-.04-1.26-.01-2.5-.03-3.72-.04-.74,0-1.47-.02-2.19-.03-.48,0-.97-.01-1.45-.02-1.68-.02-3.33-.05-4.95-.07-1.16-.02-2.3-.03-3.43-.05-.45,0-.9-.01-1.35-.02-1.11-.02-2.21-.04-3.3-.05-.65-.01-1.29-.02-1.93-.03-.64-.01-1.27-.02-1.9-.03-.42,0-.83-.01-1.25-.02-.41,0-.82-.02-1.23-.02-.2,0-.41,0-.61-.01-.4,0-.81-.02-1.21-.02-.6-.01-1.19-.02-1.78-.04-1.37-.03-2.71-.05-4.02-.08-.37,0-.74-.02-1.11-.02-.37,0-.73-.02-1.09-.02-.36,0-.72-.01-1.08-.02-1.25-.03-2.46-.05-3.63-.08-.17,0-.34,0-.5-.01-2.17-.05-4.21-.1-6.12-.15-.15,0-.29,0-.44-.01-11.36-.28-18.05-.52-18.82-.55-.05,0-.1.01-.14.03-.38.22-.62.44-.75.65-.08.13-.12.26-.13.38-.01.17.04.34.12.49.04.06.07.12.12.17.23.28.54.46.88.55.11.03.23.05.35.05.58.03,1.16.06,1.73.09.06,0,.13,0,.19.01,1.09.06,2.17.11,3.24.17.17,0,.33.02.5.02.96.05,1.92.1,2.88.15.46.02.91.05,1.36.07.1,0,.21.01.32.02.29.01.58.03.87.04.27.01.54.03.81.04.22.01.44.02.66.03.33.02.66.03.99.05.27.01.53.03.79.04.28.01.57.03.85.04.18,0,.35.02.53.03.37.02.74.04,1.11.06.08,0,.17,0,.25.01.46.02.91.05,1.37.07.17,0,.35.02.52.03.36.02.72.03,1.07.05.24.01.48.02.72.04.29.01.59.03.88.04.24.01.48.02.72.04.29.01.58.03.86.04.27.01.54.03.81.04.25.01.51.02.76.04.27.01.53.03.8.04.26.01.51.02.77.04.19,0,.38.02.57.03.33.02.67.03,1,.05.11,0,.22.01.33.02.41.02.81.04,1.21.06.12,0,.23.01.35.02.39.02.79.04,1.18.05.18,0,.36.02.54.03.32.01.64.03.95.04.21.01.42.02.63.03.3.01.6.03.9.04.15,0,.3.01.45.02.35.02.7.03,1.04.05.19,0,.37.02.56.02.31.01.62.03.93.04.17,0,.35.02.52.02.32.02.64.03.96.04.17,0,.34.01.52.02.32.01.63.03.95.04.18,0,.35.01.53.02.31.01.62.03.92.04.2,0,.4.02.59.03.28.01.57.03.85.04.19,0,.38.02.56.02.29.01.59.03.88.04.16,0,.32.01.48.02.23.01.46.02.7.03l1.63.07c.2,0,.4.02.6.03.27.01.54.02.81.04.17,0,.33.01.5.02.3.01.6.03.9.04.16,0,.32.01.48.02.06,0,.12,0,.18,0l2.07.09c.2,0,.4.02.6.03.25.01.51.02.76.03.19,0,.39.02.58.02.25.01.51.02.76.03.2,0,.39.02.59.02.25.01.5.02.75.03.19,0,.38.02.57.02.25.01.5.02.74.03.19,0,.38.02.57.02.25.01.5.02.75.03.18,0,.36.02.54.02.25.01.51.02.76.03.19,0,.39.01.58.02.24,0,.48.02.71.03.18,0,.37.01.55.02.25,0,.5.02.75.03.16,0,.32.01.48.02.26.01.53.02.79.03.16,0,.32.01.49.02.26,0,.52.02.78.03.15,0,.31.01.46.02.27.01.53.02.79.03.15,0,.3.01.45.02.27.01.54.02.8.03.15,0,.29.01.44.02.26.01.53.02.79.03.15,0,.3.01.45.02.26.01.52.02.78.03.14,0,.28.01.42.02.26,0,.53.02.79.03.14,0,.28,0,.42.01.26.01.52.02.78.03.14,0,.28.01.42.02.26,0,.51.02.77.03.13,0,.26.01.4.01.26,0,.53.02.79.03.06,0,.12,0,.19,0l.71.03c.09,0,.18,0,.27.01.14,0,.27.01.41.02.25,0,.5.02.75.03.14,0,.29.01.43.02.24,0,.48.02.72.02.14,0,.29.01.43.02.24,0,.47.02.7.02.15,0,.3.01.45.02.23,0,.46.02.69.02.14,0,.27,0,.41.01.24,0,.48.02.71.02.14,0,.28.01.42.01.23,0,.46.02.7.02.14,0,.28.01.43.02.22,0,.45.01.67.02.14,0,.28,0,.42.01.23,0,.45.02.68.02.13,0,.26,0,.39.01.23,0,.45.02.68.02.14,0,.29.01.43.02.22,0,.43.01.65.02.12,0,.25,0,.37.01.23,0,.47.02.7.02.12,0,.23,0,.35.01.23,0,.46.02.69.02.13,0,.25,0,.38.01.23,0,.45.01.67.02.11,0,.23,0,.34.01.23,0,.46.01.69.02.11,0,.23,0,.35.01.23,0,.46.01.68.02.11,0,.22,0,.33,0,.23,0,.46.01.69.02.11,0,.22,0,.32,0,.23,0,.46.02.68.02.11,0,.22,0,.33.01.22,0,.44.01.66.02.06,0,.11,0,.17,0v3.09s.03.07.07.07h.93l-16.1,8.26c-.69.35-.92,1.19-.52,1.82.38.59,1.17.78,1.8.43l15.94-8.83v3.09h-.06s2.05,2.51,2.05,2.51c0,0,0,.02,0,.03,0,.48.39,1.15.88,1.15h5.15c.27,0,.51-.21.68-.48l5.45,13.1c.3.71,1.11,1.02,1.77.66.62-.33.87-1.11.57-1.76l-6.37-14.05.91-1.13s.04-.03.06-.03c.04,0,.07-.03.07-.07v-4.64s.03-.07.07-.07h1.67s.07-.03.07-.07v-2.68c.07,0,.15,0,.22,0,.12,0,.23,0,.35,0,.16,0,.33,0,.49.01.11,0,.22,0,.32,0,.17,0,.33,0,.5.01.1,0,.21,0,.31,0,.17,0,.34,0,.5.01.11,0,.21,0,.32,0,.16,0,.32,0,.48.01.11,0,.22,0,.32,0,.16,0,.32,0,.47.01.11,0,.22,0,.34,0,.15,0,.29,0,.44,0,.12,0,.24,0,.36,0,.14,0,.29,0,.43,0,.11,0,.23,0,.34,0,.14,0,.28,0,.42,0,.12,0,.24,0,.36,0,.06,0,.11,0,.17,0l1.52.03c.07,0,.14,0,.2,0,.12,0,.23,0,.35,0,.13,0,.26,0,.39,0,.11,0,.21,0,.31,0,.14,0,.28,0,.42,0,.1,0,.21,0,.32,0,.13,0,.26,0,.39,0,.12,0,.23,0,.35,0,.12,0,.24,0,.36,0,.11,0,.22,0,.33,0,.12,0,.25,0,.38,0,.11,0,.22,0,.33,0,.11,0,.23,0,.35,0,.12,0,.24,0,.36,0,.11,0,.22,0,.33,0,.12,0,.23,0,.34,0,.11,0,.22,0,.34,0,.11,0,.22,0,.33,0,.11,0,.21,0,.32,0,.12,0,.24,0,.36,0,.1,0,.2,0,.3,0,.12,0,.23,0,.35,0,.1,0,.2,0,.3,0,.11,0,.22,0,.33,0,.11,0,.21,0,.32,0,.1,0,.2,0,.3,0,.11,0,.22,0,.33,0,.11,0,.22,0,.32,0,.1,0,.19,0,.29,0,.11,0,.23,0,.34,0,.1,0,.19,0,.28,0,.11,0,.21,0,.32,0,.1,0,.19,0,.29,0,.11,0,.22,0,.33,0,.09,0,.18,0,.27,0,.12,0,.23,0,.35,0,.08,0,.16,0,.24,0,.11,0,.22,0,.33,0,.09,0,.17,0,.26,0,.11,0,.23,0,.34,0,.07,0,.15,0,.22,0,.12,0,.23,0,.35,0,.08,0,.15,0,.23,0,.11,0,.23,0,.34,0,.07,0,.14,0,.21,0,.11,0,.22,0,.33,0,.08,0,.16,0,.24,0,.11,0,.21,0,.32,0,.07,0,.14,0,.21,0,.12,0,.23,0,.35,0,.06,0,.12,0,.19,0,.11,0,.22,0,.33,0,.07,0,.14,0,.22,0,.11,0,.21,0,.32,0,.07,0,.13,0,.2,0,.11,0,.22,0,.33,0,.06,0,.12,0,.18,0,.11,0,.22,0,.33,0,.04,0,.07,0,.11,0,.13,0,.24.1.26.23,0,.07.04.13.1.19l1.5,1.38c.08.07.11.19.06.29l-.25.59s-.02.07-.02.1v3.87s0,.04,0,.07l.16.64c.02.09,0,.18-.07.25l-.23.23c-.1.1-.1.27,0,.37l.64.64c.1.1.1.25.01.36l-1.37,1.58s-.07.06-.1.07c-.01,0-.02-.01-.04-.02l-.93-.54c-.08-.05-.17-.05-.24-.03-.1-.05-.22-.03-.3.04-.19.18-.13.44.05.54l1.21.65c.09.05.13.13.14.23-.78.9-1.3,2.48-1.3,4.28,0,1.15.21,2.22.57,3.07.02.05.03.1.06.14l.03.05c.09.19.19.37.29.54l.06.12c.06.11.03.26-.07.33l-1,.76s-.06.04-.09.04l-1.86.49-.52.12s-.05,0-.08-.02l-1.62-.6c-.07-.02-.14-.02-.2.01l-.91.44c-.18.09-.38-.05-.38-.24h0c0-.16-.12-.29-.28-.28-.54.03-1.29.39-1.29.39-.41.13-.63,1.47-.21,1.41,0,0,0,0,.01,0h.08s.03,0,.05,0l1.4.06h.12s.07,0,.07,0h.02l1.96-.06s.07-.01.11-.03l.28-.14s.03-.01.05-.02l.59.06c.17.02.27.19.22.34-1.83.74-3.03,1.83-3.29,3.2-.68,3.57,5.26,7.71,13.26,9.23,1.65.31,3.27.49,4.79.55,1.93.23,4.06.36,6.42.37,0,0,.01,0,.02,0,.05,0,.1,0,.16,0,0,0,.02,0,.03,0,.06,0,.12-.01.18-.01.06,0,.12,0,.18.01,0,0,.02,0,.03,0,.05,0,.1,0,.16,0,0,0,.01,0,.02,0,4.48-.02,8.13-.48,11.11-1.19,7.99-1.52,13.92-5.65,13.24-9.22-.25-1.33-1.39-2.4-3.14-3.14.04-.07.11-.12.2-.13l.59-.06s.03,0,.05.02l.28.14s.07.03.11.03l1.96.06h.09s.1,0,.1,0h.02l1.4-.06s.03,0,.05,0h.08s0,0,.01,0c.42.07.2-1.28-.21-1.41,0,0-.76-.36-1.29-.39-.15,0-.28.12-.28.27,0,0,0,0,0,.01,0,.2-.2.33-.38.24l-.91-.44c-.06-.03-.14-.03-.2-.01l-1.62.6s-.05.02-.08.02l-.52-.12-1.86-.49s-.06-.02-.09-.04l-1-.76c-.08-.06-.12-.15-.1-.25.66-.93,1.09-2.38,1.09-4.01,0-1.83-.54-3.43-1.34-4.33.01-.07.06-.14.13-.18l1.21-.65c.18-.1.24-.35.05-.54-.08-.08-.2-.09-.3-.04-.08-.02-.17-.02-.24.03l-.93.54s-.02.01-.04.02c-.04-.02-.08-.04-.1-.07l-1.37-1.58c-.09-.1-.08-.26.01-.36l.64-.64c.1-.1.1-.27,0-.37l-.23-.23c-.07-.07-.09-.16-.07-.25l.16-.64s0-.04,0-.07v-3.87s0-.07-.02-.1l-.25-.59c-.04-.1-.02-.22.06-.29l1.5-1.38c.06-.05.09-.12.1-.19.02-.13.13-.23.26-.23.04,0,.07,0,.11,0,.11,0,.22,0,.33,0,.06,0,.12,0,.18,0,.11,0,.22,0,.33,0,.07,0,.13,0,.2,0,.1,0,.21,0,.31,0,.07,0,.14,0,.22,0,.11,0,.22,0,.33,0,.06,0,.12,0,.19,0,.12,0,.23,0,.35,0,.07,0,.14,0,.21,0,.11,0,.21,0,.32,0,.08,0,.16,0,.24,0,.11,0,.22,0,.33,0,.07,0,.14,0,.21,0,.11,0,.23,0,.34,0,.07,0,.15,0,.23,0,.12,0,.23,0,.35,0,.07,0,.14,0,.22,0,.11,0,.23,0,.34,0,.09,0,.17,0,.26,0,.11,0,.22,0,.33,0,.08,0,.16,0,.24,0,.12,0,.23,0,.35,0,.09,0,.18,0,.27,0,.11,0,.22,0,.32,0,.1,0,.19,0,.29,0,.11,0,.21,0,.32,0,.09,0,.19,0,.28,0,.11,0,.23,0,.34,0,.09,0,.19,0,.29,0,.11,0,.22,0,.32,0,.11,0,.22,0,.33,0,.1,0,.2,0,.3,0,.11,0,.21,0,.32,0,.11,0,.22,0,.33,0,.1,0,.2,0,.3,0,.12,0,.23,0,.35,0,.1,0,.2,0,.3,0,.12,0,.24,0,.36,0,.11,0,.21,0,.32,0,.11,0,.22,0,.33,0,.11,0,.22,0,.34,0,.11,0,.23,0,.34,0,.11,0,.22,0,.33,0,.12,0,.24,0,.36,0,.11,0,.23,0,.35,0,.11,0,.22,0,.33,0,.12,0,.25,0,.38,0,.11,0,.22,0,.33,0,.12,0,.24,0,.36,0,.12,0,.23,0,.35,0,.13,0,.26,0,.39,0,.11,0,.21,0,.32,0,.14,0,.28,0,.42,0,.1,0,.21,0,.31,0,.13,0,.26,0,.39,0,.12,0,.23,0,.35,0,.13,0,.26,0,.39,0,.02,0,.04,0,.06,0l1.52-.03c.09,0,.19,0,.28,0,.14,0,.28,0,.42,0,.11,0,.23,0,.34,0,.14,0,.29,0,.43,0,.12,0,.24,0,.36,0,.14,0,.29,0,.44,0,.11,0,.22,0,.34,0,.16,0,.31,0,.47-.01.11,0,.22,0,.33,0,.16,0,.32,0,.48-.01.11,0,.21,0,.32,0,.17,0,.33,0,.5-.01.1,0,.21,0,.31,0,.17,0,.33,0,.5-.01.11,0,.21,0,.32,0,.16,0,.33,0,.49-.01.12,0,.23,0,.35,0,.14,0,.28,0,.42-.01v2.68s.03.07.07.07h1.98s.07.03.07.07v.47l-12.53,13.03c-.53.56-.49,1.42.1,1.89.55.43,1.36.36,1.84-.18l10.58-11.74v1.22h-.06s2.05,2.51,2.05,2.51c0,0,0,.02,0,.03,0,.48.39,1.15.88,1.15h5.15c.44,0,.81-.56.87-1.02h.01l1.91-2.34s.25-.32.27-.32c.04,0,.07-.03.07-.07v-1.33l11.92,11.02c.57.52,1.43.46,1.89-.14.42-.56.33-1.37-.21-1.84l-13.6-11.78v-.57s.03-.07.07-.07h1.67s.07-.03.07-.07v-3.1c.21,0,.42-.01.64-.02.11,0,.22,0,.32,0,.23,0,.46-.01.68-.02.11,0,.22,0,.32,0,.23,0,.46-.01.69-.02.11,0,.21,0,.32,0,.23,0,.46-.02.68-.02.11,0,.23,0,.34-.01.23,0,.46-.01.69-.02.11,0,.23,0,.34-.01.22,0,.45-.01.67-.02.13,0,.25,0,.38-.01.23,0,.46-.02.69-.02.12,0,.23,0,.35-.01.23,0,.47-.02.7-.02.12,0,.25,0,.37-.01.21,0,.43-.01.65-.02.15,0,.29-.01.43-.02.23,0,.45-.01.68-.02.13,0,.26,0,.39-.01.23,0,.45-.02.68-.02.14,0,.28,0,.42-.01.22,0,.45-.01.67-.02.14,0,.28-.01.42-.02.23,0,.46-.02.7-.02.14,0,.28,0,.42-.01.24,0,.47-.02.71-.02.14,0,.27,0,.41-.01.23,0,.46-.02.69-.02.15,0,.3-.01.45-.02.23,0,.47-.02.71-.02.14,0,.28-.01.42-.02.24,0,.48-.02.73-.03.14,0,.28-.01.43-.02.25,0,.5-.02.75-.03.13,0,.26,0,.39-.01l.71-.03s.06,0,.09,0c.13,0,.25-.01.38-.01.26-.01.53-.02.79-.03.13,0,.26,0,.4-.01.26-.01.51-.02.77-.03.14,0,.28-.01.42-.02.26-.01.52-.02.78-.03.14,0,.28-.01.42-.01.26-.01.53-.02.79-.03.14,0,.28-.01.42-.02.26,0,.52-.02.78-.03.15,0,.3-.01.45-.02.26,0,.53-.02.79-.03.15,0,.29-.01.44-.02.27-.01.53-.02.8-.03.15,0,.3-.01.45-.02.26,0,.53-.02.79-.03.15,0,.31-.01.46-.02.26-.01.52-.02.78-.03.16,0,.32-.01.48-.02.26,0,.53-.02.79-.03.16,0,.32-.01.48-.02.25-.01.5-.02.75-.03.18,0,.36-.02.55-.02.24-.01.48-.02.71-.03.19,0,.38-.02.58-.02.25-.01.51-.02.76-.03.18,0,.36-.01.54-.02.25,0,.5-.02.75-.03.19,0,.38-.01.57-.02.25-.01.5-.02.75-.03.19,0,.38-.02.57-.02.25-.01.5-.02.75-.03.2,0,.39-.02.59-.02.25,0,.51-.02.76-.03.19,0,.38-.02.58-.02.26-.01.51-.02.77-.03.2,0,.4-.02.59-.03,0,0,.01,0,.02,0l2.03-.09c.07,0,.13,0,.2,0,.16,0,.32-.01.48-.02.3-.01.6-.03.9-.04.17,0,.33-.01.5-.02.27-.01.54-.02.81-.04.2,0,.4-.02.6-.03.09,0,.19,0,.28-.01"/><path class="cls-10" d="m468.34,95.63c.27-.34,3.46-3.41,3.54-3.51.08-.01.15-.02.21-.03.03.06.05.11.07.16.06,0,.1-.01.14-.02.06.2.12.39.43.41-.06-.24-.11-.43-.18-.7.18.12.31.2.43.27.04-.04.07-.09.12-.14-.06-.17-.12-.34-.2-.55-.1-.06-.24-.15-.38-.23.11-.18.21-.33.31-.49.23-.31.51-.6.67-.94.27-.56.66-1.06.85-1.67.09-.27.17-.52.09-.87-.16-.12-.35-.27-.52-.4.05-.05.14-.1.18-.18.06-.12.26.02.26-.17.05,0,.11-.01.17-.02-.02-.13-.03-.23-.04-.33-.13-.06-.26-.13-.39-.19-.02-.13-.03-.26-.05-.38-.07-.01-.12-.02-.16-.03.17-.36.27-.76.51-1.06.25-.32.35-.77.78-1.01,0-.2,0-.42,0-.65.06-.09.17-.16.11-.3.07-.07.14-.13.24-.22.05.06.11.13.14.17.32-.02.5-.38.82-.21.01-.07.02-.12.03-.16.1.07.18.13.26.18-.03.04-.05.07-.07.11.06.02.12.04.18.06-.02.04-.04.08-.06.1.22.14.42.26.64.4.03-.05.07-.12.12-.2-.05-.07-.1-.12-.13-.18-.05-.11-.1-.23-.14-.34,0-.01.04-.04.08-.08.06.06.12.12.2.2.05-.06.11-.12.13-.14-.07-.47-.53-.59-.72-.93.07-.05.13-.09.18-.12-.08-.1-.19-.18-.31-.22,0-.28-.1-.52-.35-.68-.02-.02-.01-.08-.02-.13-.04-.24-.15-.44-.32-.62-.16-.17-.4-.24-.55-.44.06-.3.35-.56.17-.85-.27-.15-.51-.28-.76-.41-.04-.1-.1-.2-.12-.31-.03-.11-.03-.23-.05-.34-2.3-1.78-4.6-3.56-6.9-5.34-.18-.14-.38-.27-.56-.4-.15.24-.34.46-.38.75-.12.06-.22.12-.36.18-.13-.11-.25-.22-.37-.31-.12-.1-.25-.18-.4-.29-.03.07-.04.1-.05.14-.08,0-.18.06-.2-.09,0-.02-.06-.04-.09-.06-.15-.16-.28-.35-.46-.46-.28-.18-.55-.35-.82-.54-.33-.23-.68-.43-1.02-.64.09-.39.33-.68.45-1.02-.2-.1-5.22-2.96-5.46-3.08-.11.2-.2.36-.31.56-.35-.25-1.55-.88-1.67-1.02-.06-.15-.12-.28-.17-.41.08-.24,1.07-1.59,1.43-2.08.25-.35.52-.68.78-1.01-.05-.07-.1-.14-.14-.21-.07,0-.14.02-.2.03-.02.06-.9,1.23-1.18,1.64-.15.21-.29.41-.44.62-.1-.05-.98-.23-1.04-.41-.03-.09.12-.42.13-.48-.14-.08-2.49-1.86-2.65-2-.07,0-.14.02-.2.03-.03-.06-.53-.52-.54-.56-.28-.3-.99-1.19-1.09-1.35,0,.01-.02.02-.03.03-.08-.07-.16-.13-.24-.2.03-.1-.35-.94-.44-1.01,0-.03.03-.08.04-.13-.11-.05-.29-.49-.28-.66h0c.1-.1.2-.2.3-.31.13-.02.28-.04.45-.06.1-.18.21-.38.31-.55-.03-.05-.03-.07-.04-.07-.47-.39-2.42-2.72-2.97-3.17-.05-.04.48,2.4.19,4.11-.63,3.78-4.71,6.59-7.34,6.88-1.37.15-2.54.21-2.06.52.06.08,1.73,1.02,1.78,1.09-.02.05-.02.28-.02.33-.08.19-.54,1.23-.81,1.48.12.07.98.79,1.2,1.08.04.05.04.14.05.21.02.12.22.31.26.34.46.4,1.42,1.8,1.48,2-.11.11-1.03,1.43-1.07,1.54-.06.17-.24.29-.2.49-.05.18-.09.37-.15.55-.26.8-.37,1.63-.54,2.45-.1.46-.14.93-.29,1.37-.08.24-.03.42.1.54.27.26,1.88,2.44,2.02,2.58-.24.61-.55,1.18-.91,1.77-.39-.08-.78-.17-1.16-.25-.08.11-.16.21-.22.29-.14.02-.24.03-.34.04-.16.06-.09.19-.04.24.09.08.13.18.08.26-.1.16.01.3,0,.41.19.18.35.34.5.48-.11.21-.2.39-.29.56.09.09.15.16.22.23.15.13.46.99.49,1.02.06.15.05.63,0,.72-.03,0-.07,0-.09.01-.23.17-.46.35-.69.53-.39.3-.79.61-1.18.91-.04.16-.09.32-.15.51.17-.02.3-.04.37-.05.12-.16.2-.29.31-.39.19-.18.42-.31.62-.47.15-.12.31-.24.46-.36.16-.13.37-.21.49-.37.14-.18.34-.18.5-.29.02-.02.05-.03.07-.04.15-.13.09-.36.27-.48.09-.01.19-.02.29-.04.02-.03.05-.07.08-.1-.03.03-.05.07-.08.1.05.11.09.21.14.31.1.03.19.06.27.09.13.23.39.24.59.37.3.32.69.34,1.09.32.33.23.66.46.99.7.24.17.48.34.71.51-.03.06-.07.12-.1.18-.02.06-.02.13-.04.2-.03.02-.06.04-.13.09,1.71,1.74,3.39,3.47,5.08,5.2,0,0,.03,0,.06,0,.01-.03.44-.74.56-.97.06.06.11.12.18.19.15-.13.6.14.83.32,2.85,2.2,5.7,4.41,8.55,6.61.08.06.17.11.25.16.09.09.18.17.29.27.13-.13.24-.24.36-.33.2-.16.35-.4.63-.46.15.16.33.16.52.1.04-.27.61-.45.69-.44.13.05.87.29,1.03.32.14,0,.23-.07.24-.21-.02-.25-.52-.38-.56-.4-.17-.08-.34-.18-.51-.27,0-.21.17-.68.17-.74.13-.21.87-.88,1.12-1.09.03.26.37,1.74.45,1.97.07.01,2.19-.72,2.2-.92.02-.03.05-.07.08-.1m-23.12-30c-.07,0-1.11-.6-1.56-.91.04-.14,2.89-.7,3.05-.72.01.1-1.35,1.46-1.5,1.63m2.6-2.76c-.11.01-4.65.76-5.18.84-.14-.07-.13-.34-.02-.36.24-.23,4.62-3.6,5.11-4.14.02-.02,1.17-1.5,1.25-1.33.04.08.08.17.12.25-.04.15-1.35,4.52-1.29,4.74m1.35-1.31c-.13-.13.42-2.57.57-2.64.35.52.29.82.55,1.39-.08.17-1.03,1.16-1.12,1.25"/><path class="cls-9" d="m460.7,87.7c-.14.23-.3.45-.42.69-.31.62-.83,1.01-1.44,1.31-.21.1-.4.25-.61.34-.2.09-.42.16-.64.2-.72.11-1.43.22-2.17.16-.66-.05-1.29-.17-1.91-.41-1.36-.52-1.99-.87-2.89-1.82-.25-.26-.4-.58-.56-.88-.32-.61-.42-1.31-.46-1.98-.02-.38.16-.77.25-1.16.29-.43.62-.82,1.02-1.16.17-.14.29-.16.5-.16.35,0,.72.09,1.05-.11.04-.02.07-.07.09-.09-.14-.11-.29-.22-.53-.4.51-.16.9-.32,1.3-.39.41-.08.84-.11,1.26-.07.69.07,1.39.11,2.06.28.28.07.55.12.81.25,1.01.52,1.93,1.12,2.6,2.08.19.27.41.53.52.82.3.74.41,1.51.11,2.3-.02.05.04.14.06.21m-9.52-4.34c.18.71.65,1.05,1.01,1.47.13.15.36.24.35-.16,0-.09.3-.17.34-.29.11-.32.15-.67.23-1.06-.67.01-1.27.02-1.93.04"/><polygon class="cls-10" points="481.75 115.23 488.51 100.35 501.89 110.72 495.58 125.9 481.75 115.23"/><polygon class="cls-10" points="503.24 111.77 496.93 127.1 510.16 137.47 516.47 122.29 503.24 111.77"/><polygon class="cls-10" points="517.82 123.34 531.05 133.41 525.19 148.75 511.81 138.53 517.82 123.34"/><polygon class="cls-10" points="526.69 149.8 532.4 134.32 545.93 144.99 540.22 160.17 526.69 149.8"/><polygon class="cls-10" points="547.14 145.89 560.21 155.81 555.1 171.89 541.57 161.07 547.14 145.89"/><path class="cls-10" d="m470.25,98.7c.36.2.64.48.94.76.43.41.84.83,1.17,1.32.21.3.42.61.59.94.11.2,3.9,9.34,4.08,9.97.06.19.16.4.36.55.91.69,1.8,1.39,2.71,2.09.04-.08,6.79-14.66,6.94-15.01-.94-.72-1.85-1.43-2.78-2.15-.16.08-8.38-.04-8.69-.05-.29-.01-.59-.04-.86-.11-.7-.2-2.35-1.29-2.6-1.38-.12-.05-.22-.17-.34-.27l-1.16.78-.36,2.57Z"/><path class="cls-10" d="m428.62,61.63c7.5,3.45,15.64,1.51,18.03-3.76.81-1.77.76-3.27.21-5.24-1.08-3.89-4.58-7.78-9.56-10.07-6.17-2.84-12.7-2.34-16.15.86-.74.69-1.34,1.5-1.77,2.43-2.4,5.27,1.74,12.33,9.24,15.78"/><path class="cls-7" d="m354.66,437.49c.15-2.67-1.37-3.33-1.86-4.21-.23-.4-.11-.93.27-1.22,1.47-1.15,2.36-2.96,2.23-4.93-.21-3.21-3.04-5.63-6.33-5.41-.02,0-.04,0-.07,0-.23.02-.45.05-.67.09-.59,0-1.15,0-1.74-.01h-.02c-.47-.54-1.18-.86-1.96-.81-.47.03-.9.2-1.26.45-.01,0-.02.01-.03.02,0,0,0-.01,0-.02.11-.35.19-.72.22-1.1.01-.15,0-.3,0-.44-.03-1.38-.65-2.63-1.63-3.47-.69-.59-1.57-.98-2.53-1.06-.82-.07-1.61.1-2.31.44-.19.1-.38.2-.55.32-.3.21-.68.25-1,.08-.78-.42-1.69-.63-2.65-.57-1.65.11-3.06,1.01-3.85,2.31-.49.8-.75,1.75-.69,2.74,0,.04,0,.07,0,.1.07.76-.29,1.47-.93,1.84-2.36,1.35-4.08,3.68-4.5,6.52-.58,3.87,1.45,7.55,4.79,9.39.14.08.27.17.32.27-.6.72-.18.82.75.96h10.61c-.03.14,5.49.09,5.58.08,5.77-.28,9.58,1.25,9.78-2.37"/><path class="cls-7" d="m293.76,393.48c-1.3-1.99-3.15-3.66-5.35-4.84l-.43-.23.4-.27c3.68-2.51,4.69-7.08,2.36-10.64-.42-.64-.95-1.23-1.56-1.76,1.2-1.7,1.84-3.74,1.66-5.89-.38-4.46-4.08-7.98-8.79-8.81-.02,0-.03,0-.05,0-1.33-.46-2.8-.64-4.32-.5-.38.04-.75.09-1.11.17-1.36-8.51-10.07-14.6-19.77-13.68-6.32.6-11.52,4.04-14.18,8.74-.95-.1-1.91-.12-2.9-.02-5.84.55-10.34,4.47-11.35,9.35-.09,0-.18,0-.28,0-2.22.15-4.23.9-5.84,2.06-2.6,1.87-4.16,4.8-3.89,7.99.19,2.26,1.27,4.27,2.92,5.79-.53.68-.95,1.42-1.24,2.19-.54,1.42-.67,2.97-.26,4.53.47,1.81,1.58,3.35,3.07,4.51-4.27,2.57-6.92,7.03-6.5,11.92.47,5.51,4.68,9.96,10.25,11.57-.31,1.22-.43,2.49-.32,3.81.3,3.55,2.2,6.67,5.02,8.82-.07.15-.13.3-.2.46-.05,0-.1-.01-.15-.01-3.07,0-5.55,2.31-5.55,5.16,0,1.84,1.05,3.45,2.62,4.36.17.43.28.85.23,1.25l55.55.52c-.13-.38.01-.75.26-1.12,2.04-.35,3.58-2,3.58-3.99,0-1.29-.66-2.42-1.66-3.16,3.49-2.62,4.49-7.15,2.11-10.79-.6-.91-1.36-1.68-2.23-2.31.12-.82.11-1.66,0-2.49-.03-.19-.06-.39-.11-.58-.01-.07-.04-.13-.05-.2-.03-.13-.06-.26-.1-.38-.03-.12-.08-.23-.11-.35-.03-.08-.05-.16-.08-.24-.07-.2-.15-.39-.24-.58.54-.15,1.08-.33,1.62-.54,0,0,0,0,0,0-.04-.1-.08-.19-.12-.28.52-.2,1.02-.43,1.51-.68,7.37-3.8,9.88-12.23,5.6-18.79"/><path class="cls-5" d="m182.01,427.34c0-8.97-5.25-16.7-12.85-20.31,3.34-3.12,6.32-7.02,6.15-11.23-.37-9.04-6.97-16.21-15.12-16.9h0c1.14-1.83,1.81-3.98,1.81-6.29,0-4.02-1.99-7.56-5.04-9.72.74-.57,1.66-.86,2.79-.82.4.01.81-.28,1.2-.51,4.17-2.44,7.23-6.29,7.4-12.98.05-1.81-.14-3.43-.52-4.9-.05,0-.09,0-.14,0-1.04-3.5-3.19-6.07-5.97-8.03-.51-.36-1.02-1.63-1-2.42.12-3.83-.94-6.85-3.03-9.38-1.64-1.99-3.76-3.26-6-3.85.25-.29.48-.59.69-.92,1.31-2.06,1.85-4.94,1.24-7.83-.15-.71-.37-1.38-.64-2.01,0-.01,0-.02-.01-.03.02.01.04.02.05.03.59.38,1.26.57,1.95.49,1.45-.16,2.57-1.42,2.94-3.06,0,0,0,0,.01,0,1.01.38,2.09.54,3.19.43.03,0,.07,0,.1,0,4.83-.53,8.24-5.91,7.63-12-.28-2.75-1.33-5.16-2.84-6.95.98.39,2.04.61,3.16.61,4.69,0,8.48-3.8,8.48-8.48,0-1.29-.3-2.51-.81-3.6,4.97-2.4,8.32-5.78,9.01-9.6l149.96-11.28c5.96-1.22-.14-2.59-.14-2.59-7.99-.31-15.98-.85-23.96-.84-11.79,0-71.26-1.98-83.06-2.31-7.35-.2-8.52-.47-7.2-.78.72-.1,1.34-.19,1.8-.29,5.11-.66,15.93-1.44.89-2.05-.39-.02-1.87-.24-2.26-.37,0-.12-6.14-.23-11.72-.33,25.4-.94,59.37-1.85,79.16-4.83,0,0,0,0,0,0,2.78-.3,5.4-.64,7.8-1-.84-.64-1.66-.85-2.49-.92-7.68-.66-84.75-1.3-92.44-1.67-16.83-.81-33.66-1.75-50.48-1.93-16.88-.18-33.73.52-50.6.81-.83.01-1.66-.17-2.47-.45-3.9-1.4-7.65-1.44-11.26-.15-.38-.02-.76-.03-1.14-.03-.85,0-1.7.04-2.53.13-.71.05-1.41.17-2.1.31-11.22,2.16-19.69,12.03-19.69,23.88,0,.77.04,1.52.11,2.27-3.32.73-6.05,2.94-8.04,7.16-5.05,1.42-8.77,6.02-8.85,11.51-5.43,1.22-9.49,6.06-9.49,11.85s4,10.56,9.38,11.82c-.62,1.96-.97,3.99-.97,6.08,0,4.82,1.76,9.34,4.84,13.27-.67,1.87-.97,3.91-.79,6.02.29,3.45,1.78,6.51,4.02,8.81-.71,1.04-1.27,2.17-1.66,3.36-.72,2.17-.87,4.54-.3,6.92.66,2.75,2.18,5.09,4.22,6.85-5.76,3.96-9.3,10.8-8.68,18.27.5,6.02,3.61,11.18,8.11,14.51-3.93,3.98-6.36,9.44-6.36,15.47,0,6.6,2.91,12.52,7.52,16.56-.8.97-1.47,2.02-1.99,3.14-.63,1.37,3.98,2.83,3.81,4.32h80.3c0,.15.01.29.02.44.4,5.45,2.8,8.45,6.45,10.18l32.16.08c3.89-2.17,6.28-5.9,6.28-11.95"/><path class="cls-6" d="m55.81,428.59h92.71c-.49-1.6-1.16-3.16-2.05-4.67-1.89-3.2-4.49-5.73-7.47-7.5,2.05-1.6,3.5-3.73,4.3-6.07,9.35-1.88,16.37-9.8,16.37-19.29,0-6.5-3.3-12.24-8.37-15.83,1.98-5.65,1.56-12.1-1.72-17.64-1.79-3.02-4.31-5.55-7.31-7.34l-.59-.35.54-.42c4.96-3.87,6.28-10.86,3.08-16.27-.58-.98-1.3-1.87-2.14-2.67,1.61-2.61,2.45-5.73,2.18-9.02-.56-6.8-5.63-12.13-12.02-13.35-.02,0-.04-.01-.06-.01-1.8-.68-3.81-.95-5.86-.71-.51.06-1.01.15-1.5.27-1.95-12.98-13.82-22.18-26.96-20.67-8.57.99-15.58,6.3-19.13,13.5-1.28-.14-2.6-.16-3.93,0-7.91.91-13.97,6.94-15.28,14.4-.13,0-.25,0-.38,0-3.01.25-5.73,1.42-7.9,3.21-3.5,2.88-5.58,7.37-5.18,12.24.29,3.45,1.77,6.51,4.02,8.81-.71,1.04-1.27,2.17-1.66,3.36-.72,2.17-.87,4.54-.3,6.92.66,2.75,2.18,5.1,4.22,6.85-5.76,3.96-9.3,10.8-8.68,18.27.5,6.02,3.61,11.18,8.11,14.51-3.93,3.98-6.36,9.44-6.36,15.47,0,6.6,2.91,12.52,7.51,16.56-.8.97-1.47,2.02-1.98,3.14-.63,1.37,3.98,2.83,3.81,4.32"/><path class="cls-7" d="m172.92,431.29c0-6.97-6.03-12.62-13.46-12.62-1.04,0-2.04.12-3.01.33-.11-.13-.21-.26-.33-.39.88-.96,1.6-2.03,2.14-3.17.28-.59.51-1.21.69-1.83.25-.87.4-1.77.43-2.69.03-.74-.02-1.49-.14-2.24-.48-2.79-1.97-5.24-4.1-7.14-2.46-2.19-5.78-3.64-9.42-4.01-1.23-.12-2.5-.12-3.79.02-.08,0-.15.01-.23.02-1.28.16-2.49.46-3.63.85-.02,0-.04.01-.06.02.02-.03.04-.07.07-.1.32-.44.56-.92.77-1.41.29-.73.47-1.5.47-2.32,0-1.54-.58-2.94-1.53-4.08-.14-.16-.28-.33-.43-.48-.67-.67-1.47-1.23-2.38-1.63-.15-.07-.29-.14-.45-.2.85-1.92,1.34-4,1.37-6.18,0-.07.01-.13.01-.2,0-9.58-8.73-17.34-19.49-17.34-7.65,0-14.25,3.93-17.44,9.64-3.65-2.04-7.97-3.21-12.59-3.21-13.13,0-23.77,9.47-23.77,21.15,0,1.89.28,3.71.8,5.45.23.77.51,1.52.83,2.26.36.83.78,1.63,1.26,2.41-4.2.48-7.83,2.57-10.09,5.55-1.56,2.05-2.48,4.51-2.48,7.17,0,1.59.34,3.1.93,4.51-2.12,2.46-3.39,5.53-3.39,8.88,0,2.08.49,4.05,1.37,5.84,1.57,2.21,3.7,3.98,6.13,4.86l111.92.29c1.9-2.18,3.04-4.96,3.04-7.99"/></g></g></g></g></svg>