<?xml version="1.0" encoding="UTF-8"?><svg xmlns="http://www.w3.org/2000/svg" xmlns:xlink="http://www.w3.org/1999/xlink" viewBox="0 0 619 730"><defs><style>.cls-1{stroke:#6d85b9;stroke-width:3px;}.cls-1,.cls-2,.cls-3{fill:none;}.cls-1,.cls-3{stroke-miterlimit:10;}.cls-4{clip-path:url(#clippath);}.cls-2,.cls-5,.cls-6,.cls-7,.cls-8,.cls-9,.cls-10,.cls-11,.cls-12{stroke-width:0px;}.cls-13{mask:url(#mask);}.cls-14{filter:url(#luminosity-invert);}.cls-15{clip-path:url(#clippath-1);}.cls-16{clip-path:url(#clippath-4);}.cls-17{clip-path:url(#clippath-3);}.cls-18{clip-path:url(#clippath-2);}.cls-19{clip-path:url(#clippath-7);}.cls-20{clip-path:url(#clippath-6);}.cls-21{clip-path:url(#clippath-5);}.cls-3{stroke:#00267f;stroke-width:4px;}.cls-22{isolation:isolate;}.cls-6{fill:#6d85b9;}.cls-7{fill:#d0daec;}.cls-8{fill:#e1e8f4;}.cls-9{fill:#a0b1d5;}.cls-10{fill:#fff;}.cls-11{fill:#ffc426;}.cls-12{fill:#00267f;}</style><clipPath id="clippath"><rect class="cls-2" x="0" y="19.41" width="618.87" height="710.59"/></clipPath><clipPath id="clippath-1"><rect class="cls-2" x="0" y="19.41" width="618.87" height="710.59"/></clipPath><clipPath id="clippath-2"><rect class="cls-2" x="0" y="19.41" width="618.87" height="710.59"/></clipPath><clipPath id="clippath-3"><rect class="cls-2" x="0" y="19.41" width="618.87" height="710.59"/></clipPath><clipPath id="clippath-4"><rect class="cls-2" x="0" y="19.41" width="618.87" height="710.59"/></clipPath><filter id="luminosity-invert" x="63.58" y="78" width="500.79" height="586.79" color-interpolation-filters="sRGB" filterUnits="userSpaceOnUse"><feColorMatrix result="cm" values="-1 0 0 0 1 0 -1 0 0 1 0 0 -1 0 1 0 0 0 1 0"/></filter><mask id="mask" x="63.58" y="78" width="500.79" height="586.79" maskUnits="userSpaceOnUse"><g class="cls-14"><g class="cls-22"><path class="cls-5" d="m564.37,328.51c0,138.35-112.11,250.51-250.4,250.51S63.58,466.86,63.58,328.51s112.11-250.51,250.39-250.51,250.4,112.16,250.4,250.51"/></g></g></mask><clipPath id="clippath-5"><rect class="cls-2" x="67.65" y="489.32" width="478.33" height="175.47"/></clipPath><clipPath id="clippath-6"><path class="cls-2" d="m294.79,76.04C155.71,85.9,50.96,206.63,60.83,345.71c4.44,62.56,31.31,118.17,72.2,159.53,1.58,1.3,3.07,2.71,4.27,4.22,49.73,47.99,118.84,75.49,193.2,70.21,139.07-9.86,243.82-130.6,233.96-269.67-9.43-133-120.26-234.6-251.55-234.6-6,0-12.04.21-18.11.64"/></clipPath><clipPath id="clippath-7"><rect class="cls-2" x="0" y="19.41" width="618.87" height="710.59"/></clipPath></defs><g id="Ebene_2"><rect class="cls-10" x="0" width="618.87" height="729.32"/></g><g id="Ebene_1"><g class="cls-4"><g class="cls-15"><g class="cls-18"><path class="cls-12" d="m198.09,686.06h-11.02c-1.64-4.11-2.46-8.03-3.19-14.97-.82-6.67-3.28-10.87-9.01-11.23-1.55-.09-3.1-.09-4.64-.09h-9.74v26.29h-10.02v-63h21.67c3.37,0,5.65,0,8.65.37,9.1,1.19,15.93,6.03,15.93,16.8,0,8.22-5.01,13.06-11.65,15.07,5.64,2.47,8.01,7.94,8.65,14.52.73,7.94,1.82,12.78,4.37,16.25m-27.13-34.06c2.55,0,4.1,0,5.64-.18,5.46-.55,9.56-3.65,9.56-10.32s-3.37-9.4-8.74-10.13c-1.64-.28-3.28-.37-5.83-.37h-11.11v21h10.47Z"/><path class="cls-12" d="m267.2,643.77l.09.88h-9.92l-.18-.88c-1.73-8.16-6.92-13.34-16.39-13.34-11.65,0-19.03,9.65-19.03,23.96,0,15,7.47,24.3,18.57,24.3,9.47,0,14.66-5.35,16.39-13.51l.18-.88h9.92l-.09.88c-1.27,11.85-10.47,20.88-26.86,20.88-17.94,0-28.95-12.81-28.95-31.24s12.38-31.76,30.05-31.76c16.39,0,24.95,8.78,26.22,20.71"/><polygon class="cls-12" points="329.83 686.06 286.4 686.06 286.4 623.06 328.92 623.06 328.92 631.01 296.42 631.01 296.42 650.54 326.37 650.54 326.37 658.49 296.42 658.49 296.42 678.03 329.83 678.03 329.83 686.06"/><path class="cls-12" d="m134.29,654.73c0-18.98-12.38-31.67-30.05-31.67-16.39,0-24.95,8.75-26.22,20.64l-.09.88h9.92l.18-.88c1.73-8.14,6.92-13.3,16.39-13.3,11.65,0,19.03,9.62,19.03,23.88,0,14.96-7.46,24.23-18.57,24.23l-66.2.02-10.07,7.52h76.43c17.76-.16,29.24-13.07,29.24-31.33"/><path class="cls-12" d="m390.01,641.49h-10.38c-.73-6.93-4.92-11.06-12.2-11.06-5.92,0-10.56,2.63-10.56,8.34s3.73,8.6,13.48,10.79c13.84,3.07,20.39,8.77,20.39,18.87,0,10.97-10.11,17.64-22.31,17.64-14.39,0-23.58-6.58-24.86-18.78h10.38c1.64,7.46,7.1,11.41,14.48,11.41,6.56,0,11.75-3.42,11.75-8.95,0-6.32-3.83-9.56-14.02-11.85-11.93-2.72-19.85-7.02-19.85-17.55s9.92-17.28,21.67-17.28c13.93,0,20.76,7.9,22.03,18.42"/><polygon class="cls-12" points="434.71 631.01 434.71 686.06 424.79 686.06 424.79 631.01 402.84 631.01 402.84 623.06 456.65 623.06 456.65 631.01 434.71 631.01"/><path class="cls-12" d="m519.47,686.06h-11.02c-1.64-4.11-2.46-8.03-3.19-14.97-.82-6.67-3.28-10.87-9.01-11.23-1.55-.09-3.1-.09-4.64-.09h-9.74v26.29h-10.02v-63h21.67c3.37,0,5.65,0,8.65.37,9.11,1.19,15.93,6.03,15.93,16.8,0,8.22-5.01,13.06-11.65,15.07,5.64,2.47,8.01,7.94,8.65,14.52.73,7.94,1.82,12.78,4.37,16.25m-27.13-34.06c2.55,0,4.1,0,5.64-.18,5.46-.55,9.56-3.65,9.56-10.32s-3.37-9.4-8.74-10.13c-1.64-.28-3.28-.37-5.83-.37h-11.11v21h10.47Z"/><path class="cls-12" d="m547.42,665.24l-6.83,20.82h-10.65l22.58-63h12.93l21.94,63h-10.83l-6.83-20.82h-22.31Zm19.67-7.94l-8.29-25.93-8.74,25.93h17.03Z"/></g><g class="cls-17"><path class="cls-10" d="m567.34,327.9c0,139.6-113.17,252.77-252.77,252.77S61.8,467.5,61.8,327.9s113.17-252.77,252.77-252.77,252.77,113.17,252.77,252.77"/></g><g class="cls-16"><path class="cls-7" d="m335.38,414.51c1.98-3.29,2.95-7.24,2.5-11.36-1.09-10.02-10.09-17.26-20.1-16.18-1.63.18-3.19.57-4.65,1.13-.61.24-1.2.51-1.77.8-2.68,1.39-4.95,3.41-6.64,5.86,1.45-2.83,3.61-5.25,6.28-7-.36-1.1-.81-2.18-1.35-3.24-5.94-11.73-20.26-16.43-31.99-10.49-5.75,2.91-9.81,7.84-11.76,13.49.4.37.77.77,1.12,1.18-.38-.34-.78-.67-1.2-.97-.12-.09-.25-.18-.38-.26-2.16-1.49-4.73-2.45-7.54-2.68-8.56-.7-16.06,5.68-16.76,14.24-.38,4.69,1.37,9.07,4.43,12.18-.89-.69-1.69-1.48-2.4-2.33,3.69,5.5,9.64,8.81,9.64,8.81l78.46,1.09c.68,0,2.73-1.92,4.57-4.93-.16.22-.31.45-.48.67"/><path class="cls-10" d="m319.15,424.49c-.64-5.89-5.93-10.15-11.83-9.51-2.01.22-3.83.99-5.33,2.13-.01-1.92-.44-3.86-1.37-5.68-3.19-6.3-10.89-8.83-17.19-5.64-3.38,1.71-5.66,4.72-6.57,8.11-.04-.03-.08-.05-.12-.08.04.03.07.07.11.11.06.06.12.11.17.17,0-.02.02-.04.02-.06,1-2.98,3.12-5.58,6.14-7.11,6.11-3.09,13.56-.65,16.65,5.46.88,1.74,1.3,3.59,1.32,5.42-.92.86-1.68,1.86-2.25,2.98.62-.9,1.38-1.71,2.26-2.39.26-.2.53-.39.81-.57,1.34-.86,2.89-1.44,4.59-1.62,5.87-.64,11.14,3.61,11.77,9.47.26,2.44-.32,4.77-1.51,6.71,1.73-2.14,2.64-4.95,2.32-7.9"/><path class="cls-10" d="m266.54,412.26c-5.1,2.47-7.23,8.61-4.76,13.7,1.39,2.88,3.96,4.81,6.84,5.5-2.69-1.03-4.93-3.18-5.97-6.11-1.89-5.31.89-11.15,6.2-13.04,2.2-.78,4.48-.75,6.55-.09-2.71-1.28-5.96-1.38-8.86.03"/><path class="cls-10" d="m386.83,415.17c-4.68-2.75-10.3-2.55-14.85-.37-1.3-4.47-4.4-8.47-8.47-10.94-14.71-8.73-32.41.64-31.86,17.53-.07-4.76,1.65-9.53,4.89-12.92,6.55-6.58,17.86-7.82,26.06-3.15,3.91,2.22,6.79,5.9,8.23,10.09-3.35,1.94-5.97,5.01-6.94,8.8,3.69-8.2,13.69-11.21,21.86-7.15,8.3,3.92,11.12,14.88,5.69,22.07,6.65-7.19,4.16-19.1-4.62-23.96"/><path class="cls-7" d="m391.49,438.81c.49-.61.93-1.26,1.32-1.95,3.43-7.06.42-16.28-7.05-19.81-8.17-4.07-18.18-1.06-21.86,7.15.97-3.79,3.59-6.86,6.94-8.8-1.44-4.19-4.33-7.86-8.23-10.09-8.2-4.67-19.51-3.43-26.06,3.15-1.47,1.54-2.61,3.37-3.43,5.35-.1.23-.2.46-.29.7-.16.45-.31.91-.44,1.37-.02.08-.05.16-.08.25-.46,1.7-.68,3.48-.65,5.25-.03-.82,0-1.61.06-2.39-.07.51-.14,1.03-.18,1.55-4.53.54-8,4.42-7.97,9.19.02,3.04,1.46,5.75,3.66,7.51l39.82.91s.09-.08.13-.12c.03.04.07.09.1.13l5.68.13v.09s18.53.43,18.53.43Z"/><path class="cls-8" d="m316.2,433l-46.62-1.04c-2.55-.1-12.01-6.57-5.93-16.03,4.7-7.3,13.07-4.08,13.5-1.82,0,0,1.49-9.11,12.64-9.04,12.03.08,11.85,12.94,11.85,12.94,0,0,5.44-4.58,12.06-.76,9.3,5.36,3.39,15.75,2.49,15.75"/><polygon class="cls-12" points="456.52 97.26 462.07 81.89 476.24 91.15 471.16 106.79 456.52 97.26"/><polygon class="cls-12" points="477.67 92.09 472.61 107.88 486.62 117.16 491.7 101.52 477.67 92.09"/><polygon class="cls-12" points="493.13 102.46 507.13 111.44 502.51 127.19 488.36 118.08 493.13 102.46"/><polygon class="cls-12" points="504.09 128.12 508.55 112.23 522.89 121.78 518.41 137.38 504.09 128.12"/><polygon class="cls-12" points="524.16 122.59 537.99 131.43 534.18 147.87 519.83 138.17 524.16 122.59"/><path class="cls-12" d="m443.74,81.71c.37.17.68.42,1,.68.46.37.9.76,1.27,1.22.23.29.46.58.66.89.12.2,4.63,9,4.87,9.61.07.18.19.39.4.52.96.61,1.91,1.24,2.87,1.87.03-.08,5.59-15.16,5.72-15.51-.99-.65-1.96-1.28-2.95-1.92-.16.09-8.36.64-8.67.65-.29.01-.59.01-.87-.04-.72-.15-2.45-1.09-2.71-1.17-.13-.04-.24-.15-.36-.24l-1.09.87-.15,2.59Z"/><path class="cls-12" d="m441.59,78.81c.24-.36,3.18-3.67,3.25-3.78.08-.02.15-.03.21-.04.03.06.06.11.09.15.06-.01.1-.02.14-.03.07.19.15.38.46.38-.08-.23-.15-.42-.24-.68.19.1.32.17.45.24.03-.05.07-.1.1-.15-.07-.16-.15-.33-.24-.53-.1-.05-.25-.12-.39-.2.1-.19.19-.35.27-.51.2-.33.46-.64.59-.99.23-.58.57-1.11.71-1.73.06-.28.13-.54.02-.88-.17-.11-.37-.24-.55-.36.04-.05.13-.11.16-.2.05-.12.26,0,.24-.19.05-.01.11-.02.17-.03-.03-.13-.05-.23-.07-.33-.13-.05-.27-.11-.4-.16-.03-.13-.05-.26-.08-.38-.07,0-.12-.01-.16-.02.14-.37.21-.78.42-1.09.22-.34.29-.79.69-1.07-.01-.2-.03-.42-.05-.65.05-.09.16-.17.09-.31.07-.07.13-.14.22-.24.06.06.12.12.16.16.32-.04.47-.42.8-.27,0-.07.01-.12.02-.16.1.06.19.11.27.16-.02.04-.04.07-.07.11.06.02.12.03.18.05-.02.04-.04.08-.05.1.23.12.44.23.67.35.03-.06.07-.13.11-.21-.06-.07-.11-.11-.15-.17-.06-.11-.12-.22-.17-.33,0-.01.03-.04.07-.09.07.06.13.11.21.18.05-.07.1-.13.12-.15-.11-.46-.58-.54-.8-.87.07-.05.12-.09.17-.14-.09-.09-.21-.16-.32-.2-.02-.28-.14-.51-.4-.65-.02-.01-.02-.08-.03-.13-.06-.24-.18-.42-.37-.59-.18-.16-.42-.21-.58-.39.04-.3.3-.58.1-.87-.28-.12-.53-.24-.79-.35-.05-.1-.11-.19-.15-.29-.04-.11-.05-.23-.07-.34-2.44-1.59-4.87-3.18-7.3-4.77-.19-.13-.4-.23-.6-.35-.13.25-.31.48-.31.78-.11.07-.21.13-.34.21-.14-.1-.27-.19-.4-.28-.13-.09-.26-.16-.42-.26-.02.07-.03.11-.04.14-.08,0-.17.08-.2-.07,0-.02-.06-.03-.1-.05-.16-.14-.31-.33-.49-.42-.29-.15-.58-.31-.86-.47-.35-.2-.71-.37-1.07-.56.06-.39.27-.7.37-1.05-.2-.08-5.44-2.54-5.69-2.63-.1.21-.17.38-.27.58-.36-.22-1.62-.75-1.75-.88-.07-.14-.14-.27-.21-.39.06-.24.94-1.67,1.26-2.19.22-.37.47-.72.69-1.07-.05-.07-.11-.13-.16-.19-.07.01-.13.03-.2.04-.01.07-.79,1.3-1.05,1.73-.13.22-.26.44-.39.65-.1-.04-.99-.15-1.07-.32-.03-.09.08-.42.1-.49-.14-.07-2.63-1.65-2.8-1.78-.07.02-.14.03-.2.04-.04-.06-.57-.47-.58-.51-.31-.27-1.09-1.1-1.2-1.26,0,.01-.02.02-.02.03-.09-.06-.17-.12-.26-.18.02-.11-.43-.91-.52-.97,0-.03.02-.08.04-.13-.12-.05-.33-.47-.33-.63.09-.11.18-.22.28-.34.13-.03.28-.06.45-.09.09-.19.18-.39.26-.58-.03-.05-.03-.06-.04-.07-.5-.35-2.63-2.52-3.21-2.93-.05-.04.67,2.36.52,4.08-.33,3.82-4.17,6.94-6.76,7.45-1.35.26-2.52.41-2.02.68.07.07,1.81.88,1.87.95-.01.05,0,.28,0,.33-.07.2-.44,1.27-.69,1.54.12.06,1.04.71,1.29.98.04.05.05.13.07.2.03.12.24.29.28.32.49.36,1.56,1.68,1.63,1.87-.1.12-.91,1.51-.94,1.62-.05.17-.22.31-.16.51-.04.19-.06.38-.11.57-.19.82-.24,1.66-.34,2.48-.06.46-.07.94-.18,1.39-.06.24,0,.42.14.53.29.23,2.07,2.28,2.22,2.41-.19.63-.46,1.22-.77,1.84-.4-.05-.79-.11-1.17-.16-.07.11-.14.22-.2.31-.14.03-.24.05-.34.07-.15.07-.07.2-.02.24.09.08.14.17.1.26-.09.17.03.3.02.41.21.17.38.31.54.44-.09.22-.17.41-.25.58.09.08.17.15.24.21.16.12.53.96.57.97.07.15.1.63.06.72-.03,0-.07,0-.09.02-.22.19-.43.39-.64.58-.37.33-.73.67-1.1,1.01-.03.16-.07.33-.11.52.17-.04.3-.06.36-.08.11-.16.18-.3.28-.41.18-.19.4-.34.58-.52.14-.13.29-.26.43-.39.15-.14.35-.24.46-.41.12-.2.33-.21.47-.33.02-.02.05-.03.07-.05.14-.14.06-.37.23-.5.09-.02.19-.04.29-.06.02-.03.05-.07.07-.1-.02.03-.05.07-.07.1.06.1.11.21.16.3.1.03.19.05.28.07.15.22.41.21.62.33.32.29.71.28,1.11.23.34.2.69.41,1.04.62.25.15.5.3.75.45-.03.06-.07.12-.08.19-.02.06-.01.13-.02.2-.03.02-.06.05-.12.1,1.84,1.6,3.66,3.19,5.48,4.78,0,0,.03,0,.06-.01,0-.03.37-.77.48-1.01.06.05.12.11.2.17.14-.14.61.09.85.25,3.02,1.97,6.03,3.94,9.05,5.91.08.05.18.09.27.14.1.08.19.16.31.25.12-.14.22-.26.33-.36.19-.18.32-.43.59-.51.16.14.34.14.53.06.02-.28.58-.49.66-.49.13.04.89.22,1.05.23.14-.02.22-.09.22-.23-.04-.25-.55-.34-.59-.35-.18-.07-.35-.15-.53-.23-.01-.21.12-.7.11-.75.11-.22.8-.95,1.03-1.17.05.26.51,1.7.6,1.93.07,0,2.13-.89,2.12-1.09.02-.03.05-.07.07-.1m-25.45-28.05c-.07.02-1.15-.51-1.62-.78.03-.14,2.83-.93,2.99-.96.02.1-1.23,1.56-1.36,1.74m2.37-2.95c-.1.02-4.57,1.12-5.09,1.25-.14-.06-.16-.33-.05-.36.22-.24,4.32-3.96,4.76-4.54.02-.02,1.04-1.59,1.14-1.42l.14.24c-.03.15-.98,4.61-.91,4.83m1.24-1.41c-.14-.12.21-2.59.36-2.68.4.49.35.79.66,1.34-.07.17-.93,1.24-1.02,1.34"/><path class="cls-11" d="m433.34,71.51c-.12.24-.26.47-.36.72-.26.65-.75,1.07-1.33,1.42-.2.12-.38.28-.59.39-.2.11-.41.2-.62.25-.71.17-1.41.33-2.15.33-.66,0-1.3-.07-1.94-.25-1.4-.41-2.05-.71-3.03-1.58-.27-.24-.45-.55-.63-.83-.36-.58-.52-1.27-.62-1.94-.05-.38.1-.78.16-1.17.25-.45.55-.87.92-1.24.15-.16.27-.19.48-.2.35-.03.73.03,1.04-.19.04-.03.06-.07.08-.1-.15-.1-.3-.2-.56-.36.49-.2.87-.39,1.27-.5.4-.11.83-.18,1.25-.17.69.01,1.39,0,2.08.11.28.05.56.07.83.18,1.05.43,2.02.96,2.76,1.86.21.25.45.5.59.77.36.71.53,1.48.29,2.28-.02.06.05.14.08.21m-9.84-3.56c.23.69.73,1,1.13,1.39.14.14.38.22.34-.18,0-.09.29-.19.32-.32.08-.33.09-.67.14-1.07-.67.07-1.26.13-1.92.19"/><path class="cls-12" d="m399.27,48.1c7.75,2.84,15.71.25,17.67-5.19.66-1.83.49-3.32-.21-5.24-1.39-3.79-5.19-7.39-10.34-9.27-6.38-2.34-12.85-1.32-16.03,2.15-.68.74-1.22,1.6-1.57,2.56-1.97,5.44,2.72,12.15,10.47,14.99"/><g class="cls-13"><g class="cls-21"><path class="cls-6" d="m515.76,490.88s-15.98,10.29-40.6.66c0,0-17.48,10.73-42.12-.38,0,0-8.14,4.09-19.33,4.26-1.03.03-2.11.02-3.26-.06-.21-.01-.42-.03-.63-.05-.17-.01-.33-.02-.5-.04-4.64-.37-9.65-1.49-14.73-3.85-1.1.68-16.8,9.9-40.53.62,0,0-5.16,3.16-13.83,4.27-5.48,2.13-14.32,2.95-27.57-2.74,0,0-16.25,10.04-40.61.02,0,0-17.75,10.45-42.1-1.04,0,0-8.25,3.96-19.44,3.95-1.03.02-2.11-.02-3.26-.11-.21-.01-.42-.04-.63-.06-.17-.02-.33-.03-.5-.05-4.63-.44-9.61-1.64-14.62-4.08-1.12.66-17.06,9.63-40.54-.02,0,0-17.75,10.45-42.1-1.04,0,0-20.83,9.99-41.2-1.82,11.96,37.58,32.6,72.11,60.61,100.52l.15.13c1.65,1.37,2.94,2.64,3.93,3.89l.17.19c25.14,24.31,54.41,42.81,87.01,54.98,28.06,10.48,57.32,15.76,87.2,15.76,6.05,0,12.12-.22,18.21-.65,66.99-4.76,128.12-35.38,172.13-86.23,22.15-25.59,38.62-54.78,48.92-86.01-4.99,2.95-14.43,5.42-30.22-1.03"/></g></g><path class="cls-3" d="m566.46,310c-9.86-139.07-130.6-243.82-269.67-233.96C157.71,85.9,52.97,206.63,62.83,345.71c4.44,62.56,31.32,118.17,72.2,159.53,1.58,1.3,3.07,2.71,4.27,4.22,49.73,47.98,118.84,75.48,193.2,70.21,139.07-9.86,243.82-130.6,233.96-269.67Z"/></g><g class="cls-20"><path class="cls-7" d="m526.67,182.83c-1.19,1.61-10.08,4.63-17.71,7.56-.56,0-1.12-.01-1.7,0-49.23,1.08-98.38,3.64-147.28,5.94-22.25,1.05-44.49,3.04-66.66,4.64-2.38.17-4.76.61-7.2,1.88,60.49,5.23,121.8,5.84,183.3,6.89-.56,1.24-1.04,2.54-1.44,3.9-61.99,2.62-123.64,5.38-184.91,7.36-33.77,1.09,149.47,8.16,115.36,8.61-23.02.3-46.08,1.64-69.06,2.54-1.83.07-3.68.46-5.52.7-.09.43-.18.85-.27,1.28,1.62.42,3.19,1.03,4.86,1.23,24.18,2.84,48.25,6.42,72.66,8.27,78.87,5.99-59.65,3.11,19,8.44,8.92.6,17.89.47,26.86.27,1.45,5.19,4,9.97,7.3,13.91-1.06,1.87-1.83,3.95-2.31,6.18-.88,4.07-.78,8.64.55,13.38,1.54,5.49,4.48,10.36,8.2,14.2-9.15,6.36-14.08,18.71-11.88,33.14,1.77,11.58,7.77,22.08,15.83,29.38-5.99,6.63-16.32,20.74-15.4,32.04,1,12.32,5.07,22.23,13.31,30.73l-7.33,22.8,19.85.38c12.95.19,73.99,4.35,78.86-7.56,28.92-70.76,17.43-182.92-27.29-258.07"/><path class="cls-9" d="m471.59,371.99c-1.06-5.41-1.41-13.08.85-17.03,1.83-3.2,5.65-7.15,8.53-8.08,0,0-3.16-4.72-3.8-9.1-.52-3.55-.21-8.68,1.73-10.12-1.02-1.46-2.25-9.22,2.23-15.43,4.43-6.15,12.77-9.18,15.22-8.74-.26-8.49,8.25-19.46,21.48-20.34,13.02-.87,22.94,9.74,22.83,12.04,0,0,5.69.24,9.43,1.8,5.11,2.12,8.43,6.32,9.69,14,.12,0,5.56,1.52,7.67,3.36,3.4,2.97,4.74,6.35,5.01,11.36.18,3.34-1.43,8.02-3.08,9.29,1.04,1.15,1.91,5.15,1.46,9.27-.33,2.99-1.51,6.59-3.14,8.01,5.21,2.67,7.36,13.06,7.47,16.98.26,9.27-4.94,15.9-7,17.09,1.12.69,7.17,6.68,5.23,16.85-1.19,6.24-2.49,12.09-6.47,16.19-.47.48-.53,1.23-.16,1.79.48.72.89,1.48,1.23,2.27.52,1.2-2.64,2.46-3.5,3.75-.27.4-.68.69-1.16.69l-78.75-.08c-4.99-.39-8.57-8.01-8.76-10.56-.58-7.8,4.47-11.43,6.21-11.86-2.35-1.79-8.43-5.18-9.22-14.87-.4-4.86,2.16-9.41,2.16-9.41-.44.43-2.78-6.03-3.39-9.13"/><path class="cls-6" d="m444.66,448.61c.61-.02,1.2.1,1.78,0,25.61.89,86.43.62,93.69.44,4.79-.82,15.18-23.82-1.03-38.47-7.09-6.41-16.19-2.72-16.19-3.27,0-9.12-9.03-15.93-17.36-19.17-2.76-1.3-5.97-2.06-9.42-2.06-6.95,0-12.98,3.05-16.09,7.54-3.28-1.74-7.04-2.73-11.05-2.73-12.6,0-23.28,9.26-23.28,21.3,0,1.56.65,3.57.98,5.04-6.99-.49-16.06,5.68-16.21,16.1-.15,10.64,10.45,15.43,14.19,15.3"/><line class="cls-1" x1="484.04" y1="415.62" x2="467.89" y2="472.91"/><line class="cls-1" x1="469.06" y1="468.78" x2="463.53" y2="488.4"/><line class="cls-1" x1="496.9" y1="403.15" x2="480.75" y2="460.44"/><line class="cls-1" x1="481.91" y1="456.31" x2="476.38" y2="475.93"/><line class="cls-1" x1="502.35" y1="417.22" x2="486.2" y2="474.51"/><line class="cls-1" x1="487.36" y1="470.38" x2="481.83" y2="489.99"/><line class="cls-1" x1="513.98" y1="409.21" x2="497.83" y2="466.5"/><line class="cls-1" x1="498.99" y1="462.37" x2="493.46" y2="481.98"/><line class="cls-1" x1="521.02" y1="417.49" x2="504.87" y2="474.78"/><line class="cls-1" x1="506.04" y1="470.65" x2="500.51" y2="490.26"/><line class="cls-1" x1="477.43" y1="405.74" x2="461.28" y2="463.03"/><line class="cls-1" x1="462.44" y1="458.9" x2="456.91" y2="478.52"/></g><g class="cls-19"><path class="cls-11" d="m438.38,340.04c-2.31-2.58-5.89-4.48-9.84-6.15-7.81-3.29-16.57-5.45-25.63-7.24-10.72-2.12-21.69-3.63-32.85-4.66.73.63,1.38,1.32,1.96,2.06,10.16,1.42,20.06,3.29,29.39,6.11,4.83,1.47,9.38,3.19,13.1,5.57,2.24,1.43,3.99,3.03,4.67,4.99.72,2.09-.18,4-2.15,5.78-1.85,1.67-4.31,2.97-7.05,4.1-6.21,2.56-13.13,4.17-20.27,5.47-2.44.45-4.9.84-7.36,1.2-4.7.69-9.44,1.25-14.21,1.69-4.05.38-8.13.68-12.22.93-10.63.64-21.27.87-31.92.71-7.82-.12-15.6-.38-23.32-.85-4.06-.24-8.11-.55-12.13-.91-11.38-1.04-22.59-2.6-33.59-4.86-7.85-1.62-15.4-3.62-21.99-6.68-2.54-1.18-4.82-2.51-6.53-4.15-3.3-3.16-3.03-6.38.9-9.36,1.17-.89,2.58-1.66,3.88-2.49-9.09,3.47-13.29,8.91-7.69,14.17,2.48,2.33,5.87,4.11,9.63,5.67,7.65,3.16,16.17,5.27,24.97,7.02,10.63,2.11,21.51,3.62,32.58,4.66,2.58.24,5.18.47,7.78.66,1.58.12,3.16.22,4.75.33,3.77.26,7.55.48,11.33.67,2.67.13,5.34.25,8.01.34,3.22.11,6.43.18,9.65.23,10.92.18,21.84.02,32.75-.55,2.24-.12,4.48-.25,6.72-.4,2.77-.19,5.53-.4,8.28-.64,11.05-.95,21.96-2.35,32.58-4.61,6.14-1.31,12.07-2.89,17.44-5.15,2.86-1.2,5.45-2.57,7.44-4.31,3.49-3.04,3.79-6.18.94-9.37"/><polygon class="cls-11" points="308.58 321.61 428.04 67.87 315.87 324.92 308.58 321.61"/><path class="cls-12" d="m488.18,386.37l-17.05,10.49s-111.71-56.43-113.97-59.24l-2.26-2.81,5.58-3.98,8.12-1.24c.96,1.13,2.44,1.91,4.12,2.05,7.24.61,14.41-.19,21.15-2.36l3.34-1.07c1.79-.2,3.21-1.7,3.12-3.62-.02-.46-.18-.78-.51-.89l5-.97-1.5-3.75,19.2-20.22,41.02,19.58,3.42.76,3.08-.05-40.91-22.79s3.29-.69,2.22-1.21c-1.07-.52-4.82-2.26-10.01-4.2s-21.59-15.21-21.59-15.21h-4.53s15.73,16.94,15.73,16.94l-21.42,16.28-11.07.42-3.24-.31,4.26-.25s2.46-4.02.77-4.31c-1.69-.29-10.66-6.03-32.26-5.08,0,0-3.3.9-4.71,2.51-1.23,1.4-1.85,2.7-2.1,3.87l-22.16-2.04-30.97-37.39,8.59-12.23-1.63-.06-15.81,11.34,10.58,34.43-41.05-3.04s-5.43-.35-10.56,1.24c0,0-7.21,3.17-14.67,6.56l-37.73-1.32,32.37,5.12c-6.57,1.81-9.06,2.85-10.57,3.83,0,0-1.3.76-.77,1.42,0,0,9.55,6.92,23.45,8.53l15.55,1.35s1.5,3.91,4.19,4.64c2.69.74,5.2,1.63,10.97,2.47,5.77.84,33.86,1.34,33.86,1.34l14.19-1.43s98.98,47.31,152.47,67.97l3.78.93,4.36-.33,4.4-1.29,16.18-11.64-2,.25Z"/><path class="cls-11" d="m407.32,264.64c1.42-1.29,3.64-2.25,6.09-3.09,4.85-1.66,10.3-2.77,15.94-3.7,6.67-1.1,13.51-1.89,20.47-2.45-.45.32-.85.66-1.21,1.03-6.33.75-12.5,1.71-18.3,3.15-3.01.75-5.83,1.62-8.14,2.81-1.39.72-2.47,1.52-2.88,2.49-.43,1.04.14,1.98,1.38,2.85,1.16.82,2.71,1.45,4.43,2,3.89,1.24,8.23,2.01,12.69,2.62,1.53.21,3.06.4,4.6.57,2.94.32,5.9.58,8.88.78,2.53.17,5.08.3,7.63.41,6.64.27,13.29.34,19.93.22,4.88-.09,9.74-.26,14.55-.52,2.53-.14,5.06-.3,7.56-.5,7.09-.56,14.08-1.38,20.93-2.55,4.89-.84,9.58-1.86,13.67-3.4,1.58-.59,2.99-1.26,4.04-2.08,2.03-1.58,1.84-3.17-.63-4.63-.73-.43-1.62-.81-2.44-1.21,5.7,1.68,8.36,4.36,4.91,6.98-1.53,1.16-3.63,2.06-5.97,2.85-4.75,1.6-10.05,2.68-15.53,3.58-6.62,1.09-13.4,1.89-20.3,2.45-1.61.13-3.23.25-4.85.36-.99.07-1.97.12-2.96.18-2.35.14-4.71.27-7.07.38-1.67.08-3.33.15-5,.2-2.01.07-4.01.12-6.02.16-6.81.13-13.63.1-20.45-.13-1.4-.05-2.8-.1-4.2-.17-1.73-.08-3.45-.18-5.17-.28-6.91-.42-13.73-1.07-20.37-2.14-3.84-.62-7.56-1.38-10.92-2.48-1.79-.58-3.42-1.25-4.67-2.1-2.2-1.49-2.41-3.04-.66-4.63"/><path class="cls-8" d="m211.94,260.38c-23.77-1.01-47.54-2.64-71.31-4.04-.38-.02-.76-.29-1.14-.45.01-.27.03-.53.04-.8,23.87-1.37,47.8-1.67,71.53-5.82-.81-.76-1.6-1.01-2.4-1.1-7.41-.84-14.83-1.92-22.24-2.42-16.24-1.1-32.48-2.35-48.71-2.69-16.29-.35-32.56-.23-48.83-.03-.81.01-1.61.35-2.38,0-5.55-2.48-10.82-1.55-15.74,2.94-3.99,3.64-6.91,8.99-7.91,16.7-.65,5.05-.37,8.36-.42,9.63-.19.04-.42.14-.65.12-4.76-.29-8.58,2.28-11.1,9.15-.31.84-1.05,1.63-1.69,1.72-5.79.8-11.62,1.27-17.4,2.27-10.87,1.87-12.71,4.01-23.56,6.08-.72.14-1.4.64-2.11.97.04.29.08.59.12.88,12.64,1.32,16.26,1,28.9.99-3.38,1.01-7.5,2.41-12,3.99-12.41,1.64,8.44,3.26-3.97,4.76-8.99,1.09,1.61.71-7.39,1.76-.46.05-2.68.51-3.12.71,0,.26.9.45.91.71.66.27,4.87.43,5.53.55,7.92,1.46-6.44,4.88,1.49,5.72,21.25,2.26,9.24,3.99,30.5,5.95,2.12.2,4.17.33,6.2,1.98,1.23,1,2.59,1.73,3.97,1.55.05,0,.1,0,.15,0-3.26,5.12-5.12,10.97-5.12,17.2,0,5.59,1.49,10.87,4.15,15.6-3.19,5.07-5.01,10.87-5.01,17.02,0,8.1,3.14,15.59,8.44,21.62-14.37,8.6-20.55,46.01,7.33,59.12,4.41,2.08,42.82-.08,44.17.28h37.06c-.16-1.12,10.79,1.74,11.57-10.68.07-1.06-1.06-3.04-.26-4.25.42-.63.79-1.3,1.12-2,.46-.98.83-2.02,1.1-3.12.22-.88.38-1.8.46-2.75.29-3.51-.44-6.91-1.91-9.85-1.66-3.32-4.29-6.02-7.47-7.57,1.18-3.03,1.83-6.36,1.83-9.86,0-5.73-1.77-10.99-4.71-15.23,2.11-2.76,3.48-6.53,3.6-11.81.05-2.13-.13-4.04-.49-5.77-.04,0-.09,0-.13,0-.99-4.13-3.07-7.18-5.75-9.5-.49-.43-.98-1.93-.96-2.86.12-4.46-.88-8-2.86-10.98,2.83-4.19,4.53-9.36,4.53-14.96,0-1.7-.16-3.36-.45-4.97,4.28-1.1,7.23-7.11,6.68-13.92-.41-5.1-2.68-9.27-5.63-11.05.79-2.56,1.13-5.51.88-8.6-.34-4.2-1.71-7.87-3.67-10.49,6.6-.79,13.2-1.59,19.78-2.51,26.49-3.68-19.96-1.22,6.5-5.31,8.21-1.27,16.34-3.6,24.5-5.48.56-.13,1.1-.52,1.65-.78-.03-.26-.05-.53-.08-.79-.62-.14-1.23-.37-1.85-.4-7.71-.44-15.42-1.14-23.12-1.2-11.38-.09,50.19-5.44,38.81-5.92"/><path class="cls-7" d="m178.93,430.88c-.37-7.68-5.39-11.87-5.39-11.87,1.09-1.03,3.36-7.43,1.05-12.11,2.91-12.71-3.72-23.43-7.67-25.74,0,0,3-3.95,6.27-8.31,2.62-3.66,3.76-8.91,3.76-14.1,0-11.58-7.85-20.97-17.52-20.97-.44,0-.88.04-1.32.08-.76-.05-1.53-.03-2.32.1-.44.07-.88.17-1.29.29-2.14-11.48-13.06-19.19-24.4-17.42-6.6,1.03-11.81,1.82-16.53,8.17-.68,1.2-2,5.63-2,5.63-7.63.18-13.3,4.4-14.39,12.76-8.54,2.36-9.76,18.84-1.41,23.2-5.09,6.9-2.86,16.03,3.63,22.52,0,0-12.02,6.02-11.22,15.71,1.09,13.21,6.4,17.03,6.4,17.03-8.58,7.08-4.35,17.33.82,21.93.08.07,74.65.02,74.65.02.76-.03,9.4-6.02,8.88-16.91"/><path class="cls-9" d="m137.16,454.49c3.02-.23,18.91,0,18.91,0,.18.03,13.13-.78,13.73-11.3.39-6.83-3.68-12.85-10.49-13.49-1.79-.17-4.84-.07-6.27.89.48-1.36,4.29-11.36-5.11-18.73-5.04-3.95-12.94-4.22-16.96-2.01-1.29-5.93-5.65-13.66-17.82-14.38-5.3-.32-11.78,2.37-14.8,6.27-1.54,1.4-2.51,3.45-3.46,4.92-2.67-1.51-5.75-2.38-9.02-2.38-10.29,0-18.62,8.49-18.62,18.96,0,1.36.15,2.68.41,3.95-.09.28-.25.47-.63.57-4.35,1.12-12.33,4.81-12.6,13.43-.28,9.25,8.53,13.42,11.58,13.31l71.15-.02Z"/><path class="cls-11" d="m185.31,294.03c-1.4-1.6-3.56-2.78-5.95-3.82-4.72-2.05-10.02-3.4-15.5-4.52-6.48-1.33-13.12-2.28-19.88-2.94.44.39.84.82,1.19,1.28,6.15.89,12.14,2.07,17.78,3.83,2.92.92,5.67,1.99,7.92,3.47,1.35.89,2.41,1.88,2.82,3.1.43,1.3-.12,2.48-1.31,3.57-1.12,1.03-2.61,1.83-4.27,2.52-3.76,1.57-7.95,2.55-12.27,3.35-1.48.27-2.96.51-4.46.73-2.84.42-5.71.76-8.6,1.02-2.45.23-4.92.41-7.4.55-6.43.38-12.88.5-19.32.39-4.74-.09-9.44-.27-14.11-.57-2.46-.16-4.9-.35-7.34-.59-6.88-.66-13.67-1.65-20.32-3.07-4.75-1.02-9.31-2.27-13.3-4.17-1.54-.73-2.91-1.56-3.94-2.58-1.99-1.96-1.82-3.95.55-5.79.71-.55,1.56-1.02,2.35-1.53-5.51,2.13-8.05,5.49-4.67,8.75,1.5,1.44,3.55,2.56,5.82,3.52,4.62,1.97,9.78,3.29,15.11,4.39,6.43,1.33,13.02,2.28,19.71,2.94,1.56.15,3.13.3,4.71.42.96.07,1.91.14,2.87.21,2.28.17,4.57.31,6.86.43,1.62.09,3.23.16,4.85.22,1.94.07,3.89.12,5.84.16,6.61.13,13.22.05,19.82-.28,1.35-.07,2.71-.14,4.07-.23,1.68-.11,3.35-.24,5.01-.38,6.69-.57,13.29-1.42,19.72-2.8,3.72-.8,7.31-1.77,10.56-3.16,1.73-.74,3.3-1.58,4.51-2.65,2.11-1.88,2.3-3.82.58-5.79"/></g><path class="cls-12" d="m146.51,200.38c7.48,4.61,8.68,12.28,5.71,18.91-.96,2.11-1.91,3.65-3.3,5.92l-4.38,7.12,16.68,10.27-4.15,6.75-42.3-26.06,8.52-13.86c1.4-2.27,2.34-3.8,3.79-5.62,4.93-6.1,11.95-8.03,19.43-3.42Zm-4.38,7.12c-4.48-2.76-8.03-1.65-10.39.96-.86.99-1.83,2.42-2.89,4.14l-4.49,7.3,14.71,9.06,4.49-7.3c1.06-1.72,1.9-3.23,2.39-4.44,1.26-3.28.65-6.96-3.83-9.72Z"/><path class="cls-12" d="m205.62,189.44l-24.56,24.01-34.77-35.49,24.05-23.5,4.38,4.47-18.38,17.97,10.78,11.01,16.94-16.56,4.38,4.47-16.94,16.56,10.79,11.01,18.9-18.47,4.43,4.53Z"/><path class="cls-12" d="m244.88,165.93l-7.53,4.39c-2.75-2.15-4.87-4.5-8.12-8.94-3.2-4.22-6.55-6.1-10.61-4.06-1.09.55-2.15,1.17-3.21,1.79l-6.66,3.88,10.43,17.92-6.84,3.99-24.99-42.94,14.8-8.63c2.3-1.34,3.86-2.25,6.05-3.2,6.69-2.82,13.28-2.24,17.55,5.1,3.26,5.6,1.76,10.9-1.99,14.91,4.83-.57,8.62,2.22,11.67,6.45,3.65,5.12,6.31,7.99,9.43,9.34Zm-32.05-12.4c1.74-1.02,2.8-1.63,3.78-2.37,3.52-2.55,5.08-6.3,2.44-10.84-2.64-4.54-6.03-5.07-9.99-3.42-1.23.47-2.38,1.06-4.13,2.07l-7.59,4.43,8.33,14.31,7.15-4.17Z"/><path class="cls-12" d="m282.51,120.48l.25.68-7.58,2.02-.32-.66c-3.04-6.12-8.1-9.17-15.34-7.25-8.91,2.37-12.51,11.52-9.5,22.87,3.16,11.9,10.83,17.76,19.32,15.5,7.24-1.92,10.08-7.22,9.68-14.05l-.05-.73,7.58-2.02.12.71c1.52,9.65-3.6,18.69-16.13,22.02-13.71,3.65-24.83-4.27-28.71-18.89-4.01-15.1,2.77-27.71,16.27-31.3,12.53-3.33,20.92,1.89,24.41,11.09Z"/><path class="cls-12" d="m338.33,134.18c-.03,1.8-.06,3.24-.23,5.11-.87,8.27-6.67,15-19.63,14.76s-18.53-7.19-19.03-15.48c-.11-1.87-.09-3.31-.05-5.11l.54-30.45,7.85.15-.54,30.6c-.03,1.51-.05,2.88.07,4.03.4,5.99,4.14,10.09,11.27,10.22,7.2.13,11.09-3.83,11.7-9.79.17-1.15.19-2.52.22-4.03l.54-30.6,7.85.15-.54,30.45Z"/><path class="cls-12" d="m389.82,130.44l-7.9-2.22c.99-5.63-1.28-9.79-6.83-11.35-4.51-1.27-8.63-.18-9.9,4.32-1.31,4.64.93,7.59,7.85,11.41,9.85,5.39,13.57,11.3,11.33,19.27-2.44,8.66-11.62,11.77-20.91,9.15-10.95-3.08-16.49-10.25-14.74-20.16l7.9,2.22c-.41,6.24,2.87,10.53,8.48,12.11,4.99,1.4,9.7-.19,10.93-4.55,1.41-4.99-.78-8.37-8.04-12.36-8.47-4.7-13.55-9.8-11.2-18.11,2.38-8.46,11.4-11.53,20.35-9.01,10.6,2.98,14.04,10.68,12.67,19.27Z"/><path class="cls-12" d="m389.26,169.68l21.96-44.57,7.11,3.49-21.96,44.57-7.11-3.49Z"/><path class="cls-12" d="m457.87,186.39c-9.51,12.04-22.86,14.88-34.78,5.47-11.98-9.46-12.3-23.12-2.79-35.15,9.55-12.09,22.86-14.88,34.84-5.42,11.92,9.42,12.29,23.01,2.73,35.1Zm-6.67-5.27c7.68-9.72,7.75-19.11.18-25.09-7.63-6.03-16.75-3.78-24.42,5.94-7.63,9.66-7.75,19.11-.13,25.14,7.57,5.98,16.73,3.68,24.36-5.99Z"/><path class="cls-12" d="m464.14,236.31l21.01-41.52c-4.54,3.43-9.76,7.16-13.95,10.08l-19.49,13.59-4.53-6.5,40.75-28.42,6.38,9.16-21.13,41.86c4.52-3.33,9.92-7.18,14.11-10.1l19.61-13.67,4.44,6.38-40.71,28.48-6.5-9.34Z"/></g></g></g></svg>