<?xml version="1.0" encoding="UTF-8"?><svg xmlns="http://www.w3.org/2000/svg" xmlns:xlink="http://www.w3.org/1999/xlink" viewBox="0 0 619 730"><defs><style>.cls-1,.cls-2,.cls-3,.cls-4,.cls-5,.cls-6,.cls-7{fill:none;}.cls-1,.cls-3,.cls-4,.cls-5,.cls-6,.cls-7{stroke-miterlimit:10;}.cls-1,.cls-3,.cls-4,.cls-6,.cls-7{stroke:#6d88bc;}.cls-1,.cls-4,.cls-6{stroke-width:3.59px;}.cls-8{clip-path:url(#clippath);}.cls-2,.cls-9,.cls-10,.cls-11,.cls-12,.cls-13,.cls-14,.cls-15,.cls-16,.cls-17,.cls-18,.cls-19{stroke-width:0px;}.cls-3{stroke-width:1.33px;}.cls-4{stroke-dasharray:0 0 0 0 0 0 4.7 3.13 6.27 6.27 3.13 4.7;}.cls-20{clip-path:url(#clippath-1);}.cls-5{stroke:#00267f;stroke-width:3.99px;}.cls-6{stroke-dasharray:0 0 0 0 0 0 4.69 3.12 6.25 6.25 3.12 4.69;}.cls-9{fill:#ffc726;}.cls-9,.cls-10,.cls-11{fill-rule:evenodd;}.cls-10{fill:#f6cb4e;}.cls-11{fill:#ffe9a8;}.cls-7{stroke-width:1.34px;}.cls-12{fill:#6d88bc;}.cls-13{fill:#d3ddef;}.cls-14{fill:#a3b4d8;}.cls-15{fill:#fff;}.cls-16{fill:#ffeebd;}.cls-17{fill:#e4ebf7;}.cls-18{fill:#ffdd7d;}.cls-19{fill:#00267f;}</style><clipPath id="clippath"><rect class="cls-2" x="-30" y="-10.43" width="677.18" height="777.45"/></clipPath><clipPath id="clippath-1"><rect class="cls-2" x="-30" y="-10.43" width="677.18" height="777.45"/></clipPath></defs><g id="Ebene_2"><rect class="cls-15" x="0" width="618.87" height="729.32"/></g><g id="Ebene_1"><g class="cls-8"><g class="cls-20"><path class="cls-19" d="m199.04,688.64h-10.98c-1.63-4.1-2.45-8.01-3.18-14.92-.82-6.64-3.27-10.83-8.98-11.19-1.54-.09-3.09-.09-4.63-.09h-9.71v26.21h-9.98v-62.79h21.6c3.36,0,5.63,0,8.62.36,9.08,1.18,15.88,6.01,15.88,16.75,0,8.19-4.99,13.01-11.62,15.02,5.63,2.46,7.99,7.92,8.62,14.47.73,7.92,1.82,12.74,4.36,16.2m-27.04-33.94c2.54,0,4.08,0,5.63-.18,5.45-.55,9.53-3.64,9.53-10.28s-3.36-9.37-8.71-10.1c-1.63-.27-3.27-.36-5.81-.36h-11.07v20.93h10.44Z"/><path class="cls-19" d="m267.91,646.48l.09.87h-9.89l-.18-.87c-1.72-8.13-6.9-13.29-16.34-13.29-11.62,0-18.97,9.62-18.97,23.88,0,14.95,7.44,24.22,18.51,24.22,9.44,0,14.61-5.33,16.34-13.47l.18-.87h9.89l-.09.87c-1.27,11.81-10.44,20.81-26.77,20.81-17.88,0-28.86-12.77-28.86-31.13s12.34-31.66,29.95-31.66c16.34,0,24.87,8.75,26.14,20.64"/><polygon class="cls-19" points="330.34 688.64 287.06 688.64 287.06 625.84 329.44 625.84 329.44 633.76 297.04 633.76 297.04 653.24 326.9 653.24 326.9 661.15 297.04 661.15 297.04 680.63 330.34 680.63 330.34 688.64"/><path class="cls-19" d="m135.44,657.4c0-18.92-12.34-31.56-29.95-31.56-16.34,0-24.87,8.72-26.14,20.58l-.09.87h9.89l.18-.87c1.73-8.11,6.9-13.25,16.34-13.25,11.62,0,18.97,9.59,18.97,23.8,0,14.91-7.44,24.15-18.51,24.15l-65.98.02-10.04,7.5h76.18c17.7-.16,29.15-13.03,29.15-31.23"/><path class="cls-19" d="m390.33,644.21h-10.35c-.73-6.91-4.9-11.02-12.16-11.02-5.9,0-10.53,2.62-10.53,8.31s3.72,8.57,13.43,10.76c13.79,3.06,20.33,8.75,20.33,18.8,0,10.93-10.07,17.58-22.23,17.58-14.34,0-23.5-6.56-24.78-18.72h10.35c1.63,7.43,7.08,11.37,14.43,11.37,6.53,0,11.71-3.41,11.71-8.92,0-6.3-3.81-9.53-13.98-11.81-11.89-2.71-19.78-7-19.78-17.49s9.89-17.23,21.6-17.23c13.89,0,20.69,7.87,21.96,18.36"/><polygon class="cls-19" points="434.88 633.76 434.88 688.64 424.99 688.64 424.99 633.76 403.12 633.76 403.12 625.84 456.75 625.84 456.75 633.76 434.88 633.76"/><path class="cls-19" d="m519.36,688.64h-10.98c-1.63-4.1-2.45-8.01-3.18-14.92-.82-6.64-3.27-10.83-8.98-11.19-1.54-.09-3.09-.09-4.63-.09h-9.71v26.21h-9.98v-62.79h21.6c3.36,0,5.63,0,8.62.36,9.08,1.18,15.88,6.01,15.88,16.75,0,8.19-4.99,13.01-11.62,15.02,5.63,2.46,7.99,7.92,8.62,14.47.73,7.92,1.82,12.74,4.36,16.2m-27.04-33.94c2.54,0,4.08,0,5.63-.18,5.45-.55,9.53-3.64,9.53-10.28s-3.36-9.37-8.71-10.1c-1.63-.27-3.27-.36-5.81-.36h-11.07v20.93h10.44Z"/><path class="cls-19" d="m547.22,667.89l-6.81,20.75h-10.62l22.51-62.79h12.89l21.87,62.79h-10.8l-6.81-20.75h-22.23Zm19.6-7.92l-8.26-25.85-8.71,25.85h16.97Z"/><path class="cls-15" d="m559.58,312.66c-9.83-138.62-130.17-243.02-268.79-233.2C152.17,89.29,47.77,209.63,57.6,348.25c4.42,62.36,31.21,117.78,71.96,159.01,1.57,1.3,3.06,2.71,4.26,4.21,49.57,47.83,118.45,75.24,192.56,69.98,138.62-9.83,243.03-130.17,233.2-268.79"/><path class="cls-19" d="m455.63,374.12c5.73,0,10.37-3.97,10.37-8.88s-4.65-8.88-10.37-8.88-10.38,3.97-10.38,8.88,4.65,8.88,10.38,8.88m0-16.2c4.72,0,8.55,3.28,8.55,7.32s-3.83,7.32-8.55,7.32-8.55-3.28-8.55-7.32,3.83-7.32,8.55-7.32"/><path class="cls-19" d="m455.63,370.99c3.71,0,6.72-2.58,6.72-5.76s-3.01-5.75-6.72-5.75-6.72,2.58-6.72,5.75,3.01,5.76,6.72,5.76m0-7.97c1.43,0,2.59.99,2.59,2.21s-1.16,2.21-2.59,2.21-2.59-.99-2.59-2.21,1.16-2.21,2.59-2.21"/><path class="cls-19" d="m455.92,330.83c4.6,0,8.34-3.19,8.34-7.13s-3.73-7.14-8.34-7.14-8.34,3.2-8.34,7.14,3.73,7.13,8.34,7.13m0-13.01c3.79,0,6.87,2.63,6.87,5.88s-3.08,5.88-6.87,5.88-6.87-2.63-6.87-5.88,3.08-5.88,6.87-5.88"/><path class="cls-19" d="m455.92,328.32c2.98,0,5.4-2.07,5.4-4.62s-2.42-4.62-5.4-4.62-5.4,2.07-5.4,4.62,2.42,4.62,5.4,4.62m0-6.4c1.15,0,2.08.8,2.08,1.78s-.93,1.78-2.08,1.78-2.08-.8-2.08-1.78.93-1.78,2.08-1.78"/><path class="cls-19" d="m556.98,366.24h-1.46l.06-4.21,1.93.19c.06-.5.12-1,.18-1.5l-2.28-.18-.12-3.68,2.81.27c.07-.64.12-1.28.18-1.92l-2.61-.29v-7.26l-3.24-.07v7.11l-3.46-.3v-6.96h-2.85v6.7l-5.28-.47-1.8,24.84,3.3.75-2.81,30.73h0s-7.04-.15-7.04-.15l.64-2.5h-.04s.04,0,.04,0l3.94-1.6-.13-1.58.21-.44-2.96-3.07-52.01,1.75-.28-29.8c3.32-.29,5.93-2.87,5.93-6.04,0-3.37-2.93-6.1-6.54-6.1s-6.54,2.73-6.54,6.1c0,3.18,2.61,5.76,5.94,6.04l-.21.04.34,29.81h-.36s.13,2.49.13,2.49l-.56-4.04-8.99-2.76.4-6.39h.57s1.04-3.92,1.04-3.92l-7.21.37v-36.76h.97v2.43h1.3v-14.44h-1.3v1.6h-.97v-4.58h.97v1.11h1.3v-.97h.85v-2.78h-.85v-1.25h-1.3v1.11h-.97v-19.59h.97v2.17h1.3v-9.02h-1.3v.9h-.97v-6.52h-2.27v-2.08h-1.78v-44.05c.64-.19,1.1-.71,1.1-1.32,0-.78-.74-1.41-1.64-1.41s-1.64.63-1.64,1.41c0,.54.36,1.02.89,1.25v44.12h-2.11v2.08h-3.24v14.51h-.81v1.77h.81v.35c.23-.02.47-.03.7-.03.26,0,.51.01.76.03v-.35h4.54v1.94c.23.16.44.33.65.51v-5.14h2.58l-2.3,5.39c.13.12.24.24.36.37l1.96-4.58v5.47h-1.26c.23.35.43.72.6,1.11h.52l-.27.7c.08.28.14.57.18.86l.23-.61v5.69h-1.78c-.42.49-.91.94-1.46,1.32v21.29h-4.54v-22.17c-.25.02-.5.03-.76.03-.24,0-.47,0-.7-.03v22.16h-.81v1.77h.81v2.07c.23-.02.46-.03.7-.03.26,0,.51.01.76.04v-2.08h4.54v7.11c.24.27.46.55.65.85v-.21h2.36l-2.36,5.81v-.22c-.19.3-.4.59-.65.85v20.27l-4.54.23v-15.47c-.25.02-.5.04-.76.04-.24,0-.47-.01-.7-.03v15.54l-6.12.32-7.87,1.6-21.55-2.31-4.35,2.31,3.33.76-.44,4.4-9.94,4.16.08.07h-.08l-5.59,7.09h4.88s2.37,10.82,2.37,10.82l-.07,4.59-14.38-.1-17.53,10.18-.36.02-.39,6.75.07-2.75-4.83.05c.06-.11.16-.2.16-.33,0-.44-.43-.81-.94-.81h-4.61c-.52,0-.94.36-.94.81,0,.15-4.05,1.56-3.96,1.69v-6.32h-24.07v6.45l-22.84,11.56-2.58,1.52-.55,6.53c-.36,0-1.29-.84-2.66-.86l-.44-7.7c4.69-.33,8.04-1.17,8.04-2.16,0-.79-2.12-1.48-5.34-1.9l-.86-16.8-1.71-1.55.19-2.19.14-1.36h-.03v-.1s-4.15,0-4.15,0v4.75l-14.2-1.92s-12.17-1.92-22.63-2.65c-1.91-.13-3.91-.22-5.85-.34-2.81-.18-5.59-.33-8.3-.48-.84-.04-1.65-.09-2.49-.13-6.16-.3-11.68-.5-15.54-.52-.02,0-.04,0-.06,0,0,0,0,0,0,0-.08,0-.45-.33-.93-.76-.07-.08-.13-.15-.18-.21l-1.01-26.45,2.02-1.27-.11-4.64c-.18.09-.32.13-.49.2.21-.11.44-.21.55-.34-.57-1.2-4.09-1.29-4.85.12.19.15.41.24.63.34-.21-.08-.41-.16-.63-.27l.16,4.78,1.44,1.05.68,25.79c-.2-.04-.4-.09-.62-.12-.78-.18-1.6-.27-2.19-.12-.38.04-.59.12-.52.27-.04.04-.11.06-.15.11-.29,1.01-.99,3.04-.99,3.04,0,0-.05,0-.06,0v-.04s-3.11-.17-3.11-.17c-1.44-.09-2.91-.18-3.37-.18h-.05s0,0,0,0h0c-.93,0-.32,1.92-.32,1.92l11.51.51.4,15.03c-.37-.55-1.02-.89-1.02-1.2v-3.19c0-.87-2.14-1.11-2.08.02.06,1.14.14,2.01.33,2.77.16.62.54,1.27,1.26,1.79.73.53.83.97.72,1.28l-1.11.31c-.88-.54-1.34-.8-1.18-.59.17.22.35.5.55.76l-43.24,11.95h0s0,0,0,0h0s0,0,0,0l.18.95.97,1,.02.05c-.17.17-.3.27-.51.49v2.31s-.03.64-.03.64c-.32.03-.64.06-.96.09l.05-.24-4.66.5v.22c-5.08.56-9.45,1.18-12.53,1.88-1.86.42-1.68,1.25-.47,2.68.12.14,6.98,7.39,6.98,7.39l.11.02c5.72,5.84,11.92,5.93,24.85,22.23,11.07,13.96,6.86,29.45,7.07,33.45-.13.22,106.36,4.75,217.34,5.81,9.58.09,19.45.26,29.38.46,54.04-39.44,91.39-99.71,101.01-168.08m-8.22-9.97l4.11.37.09,3.74-4.2-.38v-3.74Zm4.11,5.62l.17,4.27-4.29-.08-.09-4.57,4.2.37Zm-10.76-6.36l4.02.45-.17,3.82-3.85-.3v-3.97Zm0,10.33v-4.79l4.11.37.09,4.49-4.2-.07Zm-76.29-54.8h.97v1.32h-.97v-1.32Zm0,30.47h.97v2.43h-.97v-2.43Zm0,7.36h.97v1.74h-.97v-1.74Zm-4.7-32.76h-4.54v-13.26h4.54v13.26Zm-229.06,72.88c.9.28,1.98.24,2.81,0-1.05.36-1.88.33-2.81,0m-38.19,70.38l-.29-2.42c-.38-.6-.74-1.04-1.1-1.33l28.75-7.78.09,9.8c-8.74.42-18.53,1-27.46,1.73m28.9-1.8l.02-9.26,1.06-1.18h0s0,.03,0,.03l1.15-.33h0s9.04-2.46,9.04-2.46l.33,12.71c-3.43.13-7.37.29-11.62.49m78.17-.69c-5.75-.04-13.17-.09-21.03-.12v-.23s-3.85-.06-3.85-.06l-.02.28c-15.3-.05-31.4-.02-39.32.25-.1,0-.22,0-.33.01l-.5-13.14,13.72-3.71-.5-1.31-.13.03-1.75-.85-11.44,3.16-.63-16.47.54-.54s11.42,1.92,19.75,2.38c8.33.46,13.66.64,13.66.64l4.16,2.47,2.77-.46.96-1.37,14.09,1.64,2.24,1.55,4.48.55-.9,9.59-.21,2.26-20.66-14.23-.92.15,18.42,13.42,2.28,2.65c-2.31.42-3.75,1.01-3.75,1.66,0,1.05,3.74,1.92,8.85,2.21v7.58Zm160.82-126.18h2.36l-2.36,5.78v-5.78Zm0,15.64l.05-.13h2.21l-2.27,6.06v-5.93Zm0,7.63h2.36l-2.36,5.95v-5.95Zm0,15.51h2.31l-2.31,5.94v-5.94Zm0,7.76h2.53l-2.53,5.74v-5.74Zm0,11.16v-3.4h2.29l-1.29,3.35-1.01.05Zm2.6-.13l-1.06.05,1.06-2.77v2.72Zm0-4.38h-2.48l2.48-5.62v5.62Zm0-7.76h-2.36l2.36-6.06v6.06Zm0-7.76h-2.42l2.42-5.97v5.97Zm0-7.76h-2.36l2.36-5.94v5.94Zm0-7.76h-2.3l2.3-6.16v6.16Zm0-7.76h-2.07l2.07-4.84v4.84Zm0-6.06l-2.59,6.06h0v-6.65h2.6v.59Zm0-1.7h-2.44l2.44-5.96v5.96Zm-2.6-29.92h2.49l-2.49,5.84v-5.84Zm2.6,6.65h-2.42l2.42-5.68v5.68Zm0-7.76h-2.6v-3.47h2.6v3.47Z"/><path class="cls-19" d="m330.27,417.41c.82,10.72,10.82,18.79,22.34,18.03,11.52-.76,20.2-10.06,19.38-20.78-.37-4.82-2.59-9.11-5.98-12.29-.13-.1-.26-.21-.35-.32-4.12-3.7-9.84-5.82-16-5.41-11.52.76-20.2,10.06-19.38,20.78"/><path class="cls-7" d="m330.27,417.41c.82,10.72,10.82,18.79,22.34,18.03,11.52-.76,20.2-10.06,19.38-20.78-.37-4.82-2.59-9.11-5.98-12.29-.13-.1-.26-.21-.35-.32-4.12-3.7-9.84-5.82-16-5.41-11.52.76-20.2,10.06-19.38,20.78Z"/><path class="cls-19" d="m346.67,410.11h9.05c.07,0,.14.04.16.11l2.8,8.01c.02.07,0,.14-.06.18l-7.32,4.95c-.06.04-.14.04-.2,0l-7.32-4.95c-.06-.04-.08-.11-.06-.18l2.8-8.01c.02-.07.09-.11.16-.11m8.93.32h-8.8l-2.72,7.79,7.12,4.81,7.12-4.81-2.72-7.79Z"/><path class="cls-3" d="m346.67,410.11h9.05c.07,0,.14.04.16.11l2.8,8.01c.02.07,0,.14-.06.18l-7.32,4.95c-.06.04-.14.04-.2,0l-7.32-4.95c-.06-.04-.08-.11-.06-.18l2.8-8.01c.02-.07.09-.11.16-.11Zm8.93.32h-8.8l-2.72,7.79,7.12,4.81,7.12-4.81-2.72-7.79Z"/><path class="cls-19" d="m358.53,418.11s.03,0,.05,0l7.32,2.22c.07.02.12.08.12.15v7.15c0,.05-.03.1-.07.13l-7.34,4.97s-.1.04-.15.02l-2.78-.84-4.54-1.38c-.07-.02-.12-.08-.12-.15v-7.17c0-.05.03-.1.07-.13l7.34-4.95s.06-.03.1-.03m7.15,2.5l-7.12-2.16-7.2,4.86v6.97l7.12,2.16,7.2-4.87v-6.96Z"/><path class="cls-3" d="m358.53,418.11s.03,0,.05,0l7.32,2.22c.07.02.12.08.12.15v7.15c0,.05-.03.1-.07.13l-7.34,4.97s-.1.04-.15.02l-2.78-.84-4.54-1.38c-.07-.02-.12-.08-.12-.15v-7.17c0-.05.03-.1.07-.13l7.34-4.95s.06-.03.1-.03Zm7.15,2.5l-7.12-2.16-7.2,4.86v6.97l7.12,2.16,7.2-4.87v-6.96Z"/><path class="cls-19" d="m360.26,404.3s.03,0,.05,0l7.31,2.21c.05.02.09.05.11.1l2.81,8.03s0,.1-.02.14l-4.53,5.79c-.04.06-.12.08-.19.06l-7.33-2.21c-.05-.02-.09-.05-.11-.1l-2.8-8.02s0-.1.02-.14l4.53-5.79s.08-.07.14-.07m7.18,2.5l-7.11-2.15-4.41,5.63,2.74,7.87,7.13,2.15,4.41-5.63-2.76-7.87Z"/><path class="cls-3" d="m360.26,404.3s.03,0,.05,0l7.31,2.21c.05.02.09.05.11.1l2.81,8.03s0,.1-.02.14l-4.53,5.79c-.04.06-.12.08-.19.06l-7.33-2.21c-.05-.02-.09-.05-.11-.1l-2.8-8.02s0-.1.02-.14l4.53-5.79s.08-.07.14-.07Zm7.18,2.5l-7.11-2.15-4.41,5.63,2.74,7.87,7.13,2.15,4.41-5.63-2.76-7.87Z"/><path class="cls-19" d="m355.74,398.5c.05,0,.11.02.14.07l4.52,5.8c.04.05.04.13,0,.19l-4.53,5.8s-.08.07-.14.07h-9.07c-.05,0-.11-.03-.14-.07l-4.52-5.8c-.04-.06-.04-.13,0-.19l4.52-5.79s.08-.06.14-.06h9.07Zm4.31,5.96l-4.4-5.64h-8.9s-4.4,5.64-4.4,5.64l4.4,5.64h8.89s4.4-5.64,4.4-5.64Z"/><path class="cls-3" d="m355.74,398.5c.05,0,.11.02.14.07l4.52,5.8c.04.05.04.13,0,.19l-4.53,5.8s-.08.07-.14.07h-9.07c-.05,0-.11-.03-.14-.07l-4.52-5.8c-.04-.06-.04-.13,0-.19l4.52-5.79s.08-.06.14-.06h9.07Zm4.31,5.96l-4.4-5.64h-8.9s-4.4,5.64-4.4,5.64l4.4,5.64h8.89s4.4-5.64,4.4-5.64Z"/><path class="cls-19" d="m342.24,404.43c.05,0,.1.02.14.06l4.48,5.74s.04.09.02.14l-2.78,7.93s-.06.08-.11.1l-7.25,2.18c-.07.02-.15,0-.19-.06l-4.47-5.73s-.04-.09-.02-.14l2.77-7.94s.06-.09.11-.1l7.25-2.18s.03,0,.05,0m4.29,5.92l-4.36-5.58-7.05,2.12-2.72,7.79,4.35,5.57,7.05-2.12,2.72-7.78Z"/><path class="cls-3" d="m342.24,404.43c.05,0,.1.02.14.06l4.48,5.74s.04.09.02.14l-2.78,7.93s-.06.08-.11.1l-7.25,2.18c-.07.02-.15,0-.19-.06l-4.47-5.73s-.04-.09-.02-.14l2.77-7.94s.06-.09.11-.1l7.25-2.18s.03,0,.05,0Zm4.29,5.92l-4.36-5.58-7.05,2.12-2.72,7.79,4.35,5.57,7.05-2.12,2.72-7.78Z"/><path class="cls-19" d="m343.87,418.12s.07,0,.1.03l7.33,4.96s.07.08.07.13v7.17c0,.07-.06.13-.13.15l-7.31,2.21c-.05.02-.11,0-.15-.02l-7.34-4.96s-.07-.08-.07-.13v-7.17c0-.07.06-.13.13-.15l7.33-2.21s.03,0,.05,0m7.16,5.2l-7.19-4.87-7.13,2.15v6.97s7.2,4.86,7.2,4.86l7.11-2.15v-6.97Z"/><path class="cls-3" d="m343.87,418.12s.07,0,.1.03l7.33,4.96s.07.08.07.13v7.17c0,.07-.06.13-.13.15l-7.31,2.21c-.05.02-.11,0-.15-.02l-7.34-4.96s-.07-.08-.07-.13v-7.17c0-.07.06-.13.13-.15l7.33-2.21s.03,0,.05,0Zm7.16,5.2l-7.19-4.87-7.13,2.15v6.97s7.2,4.86,7.2,4.86l7.11-2.15v-6.97Z"/><path class="cls-19" d="m333.88,426.7s.03,0,.05,0l2.65.8c.09.03.14.12.11.2-.03.08-.13.13-.21.1l-2.65-.8c-.09-.03-.14-.12-.11-.2.02-.07.09-.11.16-.11"/><path class="cls-3" d="m333.88,426.7s.03,0,.05,0l2.65.8c.09.03.14.12.11.2-.03.08-.13.13-.21.1l-2.65-.8c-.09-.03-.14-.12-.11-.2.02-.07.09-.11.16-.11Z"/><path class="cls-19" d="m332.24,414.51s.08.01.11.04c.07.06.08.16.02.22l-1.9,2.12c-.06.07-.17.08-.24.02-.07-.06-.08-.16-.02-.22l1.9-2.12s.08-.06.13-.06"/><path class="cls-3" d="m332.24,414.51s.08.01.11.04c.07.06.08.16.02.22l-1.9,2.12c-.06.07-.17.08-.24.02-.07-.06-.08-.16-.02-.22l1.9-2.12s.08-.06.13-.06Z"/><path class="cls-19" d="m334.82,403.86h0c.09,0,.17.07.17.16v2.64c0,.09-.08.16-.17.16s-.17-.07-.17-.16v-2.64c0-.09.08-.16.17-.16"/><path class="cls-3" d="m334.82,403.86h0c.09,0,.17.07.17.16v2.64c0,.09-.08.16-.17.16s-.17-.07-.17-.16v-2.64c0-.09.08-.16.17-.16Z"/><path class="cls-19" d="m343.94,397.69s.03,0,.05,0l2.71.82c.09.03.14.12.11.2-.03.08-.13.13-.22.1l-2.71-.82c-.09-.03-.14-.12-.11-.2.02-.07.09-.11.16-.11"/><path class="cls-3" d="m343.94,397.69s.03,0,.05,0l2.71.82c.09.03.14.12.11.2-.03.08-.13.13-.22.1l-2.71-.82c-.09-.03-.14-.12-.11-.2.02-.07.09-.11.16-.11Z"/><path class="cls-19" d="m358.46,397.69c.07,0,.14.04.16.11.03.08-.02.17-.11.2l-2.72.82-.06-.15-.05-.15h0s2.71-.82,2.71-.82c.02,0,.04,0,.05,0"/><path class="cls-3" d="m358.46,397.69c.07,0,.14.04.16.11.03.08-.02.17-.11.2l-2.72.82-.06-.15-.05-.15h0s2.71-.82,2.71-.82c.02,0,.04,0,.05,0Z"/><path class="cls-19" d="m367.57,403.87c.09,0,.17.07.17.16v2.63c0,.09-.07.16-.17.16s-.17-.07-.17-.16v-2.63c0-.09.07-.16.17-.16Z"/><path class="cls-3" d="m367.57,403.87c.09,0,.17.07.17.16v2.63c0,.09-.07.16-.17.16s-.17-.07-.17-.16v-2.63c0-.09.07-.16.17-.16Z"/><path class="cls-19" d="m370.38,414.54c.05,0,.1.02.13.06h0s1.65,2.12,1.65,2.12c.05.07.04.17-.04.22-.08.05-.18.04-.24-.03l-1.65-2.12c-.05-.07-.04-.17.03-.22.03-.02.07-.03.1-.03"/><path class="cls-3" d="m370.38,414.54c.05,0,.1.02.13.06h0s1.65,2.12,1.65,2.12c.05.07.04.17-.04.22-.08.05-.18.04-.24-.03l-1.65-2.12c-.05-.07-.04-.17.03-.22.03-.02.07-.03.1-.03Z"/><path class="cls-19" d="m368.52,426.67c.07,0,.14.04.16.11.03.08-.02.17-.11.2l-2.66.81c-.09.03-.19-.02-.22-.1-.03-.08.02-.17.11-.2l2.66-.81s.03,0,.05,0"/><path class="cls-3" d="m368.52,426.67c.07,0,.14.04.16.11.03.08-.02.17-.11.2l-2.66.81c-.09.03-.19-.02-.22-.1-.03-.08.02-.17.11-.2l2.66-.81s.03,0,.05,0Z"/><path class="cls-12" d="m325.62,581.9c56.34-3.99,107.03-26.24,146.69-60.56-1.39-.44-2.81-.91-4.26-1.48,0,0-17.36,10.66-41.83-.38,0,0-8.09,4.06-19.2,4.23-1.02.03-2.1.02-3.24-.06-.21-.01-.42-.03-.62-.05-.17-.01-.33-.02-.5-.04-4.61-.37-9.58-1.48-14.62-3.82-1.09.67-16.69,9.83-40.25.61,0,0-5.13,3.14-13.73,4.24-5.44,2.12-14.22,2.93-27.39-2.72,0,0-16.14,9.97-40.33.02,0,0-17.63,10.38-41.81-1.04,0,0-8.2,3.93-19.31,3.93-1.02.02-2.1-.02-3.23-.11-.21-.01-.42-.04-.62-.05-.17-.02-.33-.03-.5-.05-4.6-.44-9.54-1.63-14.52-4.05-1.11.66-16.94,9.57-40.26-.02,0,0-.82.48-2.36,1.13,48.55,41.78,112.97,65.16,181.91,60.27"/><path class="cls-5" d="m559.58,312.66c-9.83-138.62-130.17-243.02-268.79-233.2C152.17,89.29,47.77,209.63,57.6,348.25c4.42,62.36,31.21,117.78,71.96,159.01,1.57,1.3,3.06,2.71,4.26,4.21,49.57,47.83,118.45,75.24,192.56,69.98,138.62-9.83,243.03-130.17,233.2-268.79Z"/><path class="cls-17" d="m272.25,207.97c.05-.32.09-.65.14-.97-.83-.36-1.65-.92-2.5-1.07-7.22-1.27-14.43-2.57-21.65-3.82-9.97-1.92-19.93-3.87-29.92-5.59-3.2-.55-6.41-.95-9.62-1.32-.06-.11-.11-.22-.15-.33-2.99-7.54-7.53-10.37-13.18-10.05-.27.01-.54-.09-.77-.14-.06-1.4.28-5.03-.5-10.58-1.19-8.48-4.66-14.35-9.4-18.35-4.78-4.03-9.84-5.45-15.13-4.33-2.34-.3-4.74.07-7.19,1.1-19.06-.21-38.12-.33-57.19.04-3.72.07-7.44.19-11.16.33-.1.14-.2.28-.3.42-11.46.57-22.92,1.42-34.38,2.2-7.61.52-15.22,1.63-22.84,2.49-.82.09-1.63.36-2.46,1.14,17.3,3.04,34.7,4.07,52.11,4.92-.2.3-.41.6-.62.9,5.83.26,11.67.52,17.5.83.02.28.03.55.05.83-23.31,1.39-46.62,2.97-69.93,3.97-11.69.5,51.53,6.01,39.85,6.1-7.91.06-15.82.78-23.74,1.23-.63.04-1.27.27-1.9.42-.03.27-.05.54-.08.81.56.27,1.11.67,1.69.81,8.13,1.88,16.23,4.19,24.41,5.52-.59,1.1-1.18,2.2-1.75,3.32.35.07-4.51.14-4.23.2-.86.22-3.22.53-.91,1.01-.54.23,5.87.38,4.27.51-.43.85-10.31,1.71-10.73,2.57.81.11,11.16.23,12.14.36,7.83,1.01,15.66,1.89,23.5,2.76-2.32,2.88-3.95,6.91-4.35,11.52-.3,3.39.11,6.64,1.05,9.45-3.5,1.96-6.19,6.53-6.68,12.14-.65,7.49,2.85,14.09,7.93,15.3-.35,1.77-.54,3.59-.54,5.46,0,6.16,2.01,11.84,5.38,16.45-2.34,3.27-3.53,7.16-3.39,12.06.03,1.02-.56,2.67-1.14,3.14-3.18,2.56-5.64,5.9-6.82,10.44-.05,0-.11,0-.16,0-.43,1.9-.64,4-.58,6.34.14,5.81,1.78,9.94,4.28,12.98-3.49,4.66-5.59,10.44-5.59,16.74,0,2.58.36,5.08,1.01,7.45-.75,1.54-1.29,3.21-1.61,4.95-2.53,1.72-4.63,4.05-6.09,6.76-1.75,3.22-2.62,6.96-2.27,10.82.09,1.05.28,2.05.54,3.02.32,1.21.76,2.35,1.31,3.43.39.77.83,1.51,1.33,2.2.95,1.33-.38,3.5-.3,4.67.93,13.66,13.93,10.51,13.74,11.74h44.01c1.6-.4,30.14-.31,35.86-.31,27.89,0,36.26-16.42,36.26-38.35,0-.32-.02-.64-.03-.97,0-.32.03-.64.03-.97,0-9.33-4.1-17.9-10.95-24.68,6.3-6.63,10.02-14.85,10.02-23.75,0-6.76-2.15-13.13-5.95-18.7,3.16-5.19,4.93-11,4.93-17.14,0-6.84-2.2-13.28-6.08-18.9.06,0,.12,0,.18,0,1.64.19,3.25-.61,4.71-1.71,2.4-1.81,4.84-1.96,7.36-2.17,25.24-2.15,10.98-4.05,36.22-6.54,9.42-.93-7.63-4.68,1.77-6.29.79-.13,5.79-.31,6.57-.6,0-.28,1.07-.5,1.08-.78-.53-.22-3.16-.72-3.71-.78-10.68-1.15,1.91-.74-8.77-1.93-2.87-.32-4.24-.65-4.7-.98.26-.13.56-.26.56-.42-.1-.05-.3-.11-.54-.17,1.48-1.19,10.14-2.42-.04-3.66-5.34-1.73-10.24-3.27-14.25-4.38,15,.02,29.99.36,45-1.09"/><path class="cls-14" d="m184.58,362.26c-.45-9.57-6.72-14.81-6.72-14.81,1.36-1.29,4.2-9.27,1.31-15.11,3.63-15.86-4.64-29.23-9.57-32.11,0,0,3.74-4.93,7.82-10.36,3.26-4.57,4.69-11.11,4.69-17.59,0-14.45-9.79-26.16-21.86-26.16-.56,0-1.1.05-1.65.1-.95-.06-1.91-.03-2.89.12-.55.09-1.09.21-1.61.36-2.67-14.32-16.3-23.93-30.44-21.73-8.23,1.28-14.73,2.27-20.62,10.2-.85,1.5-2.49,7.02-2.49,7.02-9.52.23-16.6,5.49-17.96,15.92-10.65,2.95-12.18,23.51-1.76,28.94-6.34,8.61-3.57,19.99,4.53,28.09,0,0-14.99,7.5-13.99,19.6,1.36,16.48,7.99,21.24,7.99,21.24-10.7,8.84-5.42,21.62,1.02,27.36.1.09,93.12.03,93.12.03.94-.03,11.72-7.51,11.08-21.09"/><line class="cls-1" x1="190.27" y1="348.4" x2="185.54" y2="371.88"/><line class="cls-6" x1="184.92" y1="374.94" x2="178.13" y2="408.62"/><line class="cls-1" x1="177.51" y1="411.68" x2="172.78" y2="435.16"/><line class="cls-1" x1="118.36" y1="340.32" x2="113.62" y2="363.79"/><line class="cls-6" x1="113" y1="366.85" x2="106.21" y2="400.53"/><line class="cls-1" x1="105.59" y1="403.59" x2="100.86" y2="427.07"/><line class="cls-1" x1="127.67" y1="355.42" x2="123.06" y2="378.92"/><line class="cls-4" x1="122.46" y1="381.99" x2="115.81" y2="415.81"/><line class="cls-1" x1="115.21" y1="418.89" x2="110.6" y2="442.38"/><line class="cls-1" x1="147.57" y1="334.18" x2="142.84" y2="357.66"/><line class="cls-6" x1="142.22" y1="360.72" x2="135.43" y2="394.4"/><line class="cls-1" x1="134.81" y1="397.46" x2="130.08" y2="420.94"/><line class="cls-1" x1="160.18" y1="357.55" x2="155.45" y2="381.03"/><line class="cls-6" x1="154.83" y1="384.09" x2="148.04" y2="417.77"/><line class="cls-1" x1="147.42" y1="420.83" x2="142.69" y2="444.31"/><line class="cls-1" x1="177.47" y1="344.39" x2="172.73" y2="367.86"/><line class="cls-6" x1="172.11" y1="370.92" x2="165.32" y2="404.6"/><line class="cls-1" x1="164.7" y1="407.66" x2="159.97" y2="431.14"/><path class="cls-13" d="m275.15,308.59c-.07-.08-.13-.18-.18-.27-2.47-5.65-1.26-8.39.95-12.32,1.21-2.16,2.96-3.99,5.06-5.3l.41-.26-.39-.29c-3.6-2.64-4.68-7.55-2.5-11.42.28-.51.62-.98,1-1.42.26-.3.31-.73.11-1.07-.97-1.69-1.49-3.66-1.37-5.75.27-4.8,3.77-8.65,8.29-9.62.02,0,.03,0,.04-.01,1.27-.51,2.69-.74,4.16-.6.37.03.72.09,1.07.16,1.13-9.18,9.41-15.88,18.78-15.04,5.85.53,10.75,3.86,13.51,8.54.22.37.64.61,1.09.58.68-.05,1.37-.05,2.07,0,5.64.51,10.07,4.66,11.15,9.89.09,0,.18,0,.27,0,2.15.13,4.1.91,5.68,2.13,2.55,1.97,4.11,5.1,3.92,8.54-.12,2.17-.93,4.14-2.2,5.72-.27.34-.3.81-.08,1.18.34.55.61,1.13.83,1.73.55,1.52.71,3.19.35,4.87-.33,1.57-1.07,2.97-2.09,4.12-.38.43-.33,1.07.13,1.43,3.64,2.77,5.89,7.21,5.61,12.09-.22,3.89-2.01,7.32-4.71,9.73-.41.36-.44.96-.07,1.36,2.46,2.67,4.01,6.19,4.12,10.08.12,4.35-1.59,8.33-4.42,11.22-.33.34-.36.85-.08,1.23.36.49.68,1,.95,1.54.4.81-3.88,8.71-4.48,9.61-.19.28,1.51,1.48,1.16,1.49l-63.98-6.44c-.79.02-1.31-.77-.95-1.42l1.05-1.87c1.14-2.03,2.69-3.7,4.48-4.96.33-.23.51-.6.42-.98-.37-1.64-5.73-5.7-7.19-11.98-1.07-4.63,2.76-10.87-1.98-16.21"/><path class="cls-17" d="m257.54,346.86c-.44,1.11-.85,2.23-1.23,3.35-1.57-.66-3.5-1.12-5.58-1.15.49-1.44,1.01-2.87,1.59-4.31l-.08.04c6.05-15.52,15.53-27.77,28.42-36.74-5.21-.72-10.69.08-15.74,2.64-6.48,3.28-11.05,8.83-13.24,15.2.44.42.87.86,1.27,1.33-.43-.39-.88-.75-1.35-1.09-.14-.1-.28-.2-.43-.3-2.44-1.67-5.33-2.76-8.49-3.02-9.64-.78-18.1,6.4-18.88,16.04-.43,5.29,1.54,10.21,4.99,13.72-1-.78-1.9-1.66-2.71-2.63,4.16,6.2,10.86,9.92,10.86,9.92l88.38,1.23c.77,0,3.08-2.16,5.15-5.56-.18.25-.35.51-.54.75,2.23-3.71,3.32-8.16,2.82-12.8-1.22-11.28-11.36-19.44-22.65-18.22-1.84.2-3.59.64-5.24,1.28-.69.27-1.35.57-2,.9-3.02,1.56-5.58,3.84-7.47,6.6,1.63-3.19,4.07-5.91,7.08-7.89-.41-1.23-.92-2.45-1.52-3.65-2.88-5.69-7.52-9.91-12.92-12.34-14.05,8.49-24.22,20.71-30.49,36.69"/><path class="cls-13" d="m341.86,384.94c.08,0,.15,0,.24,0,2.6-.16,14.56,0,14.56,0,.14.02,10.18-.61,10.65-8.76.3-5.29-2.85-9.97-8.14-10.46-.08,0-.16-.01-.24-.02-2.15-.15-3.74-1.98-3.72-4.13.02-2.91-.92-6.6-4.87-9.7-2.82-2.21-6.8-2.94-9.97-2.52-1.78.23-3.51-.64-4.26-2.27-1.75-3.78-5.43-7.49-12.75-7.93-4.11-.25-9.14,1.84-11.48,4.86-.38.35-.72.75-1.03,1.17-1,1.37-2.76,1.97-4.38,1.46-1.35-.43-2.78-.66-4.27-.66-7.98,0-14.45,6.58-14.45,14.71,0,1.05.11,2.08.32,3.07-.07.22-.19.37-.49.44-3.37.87-9.57,3.73-9.77,10.42-.22,7.18,6.62,10.41,8.98,10.33h55.07Z"/><path class="cls-17" d="m261.56,380.41c1.28-2.13,1.9-4.67,1.61-7.33-.7-6.47-6.51-11.14-12.98-10.44-1.05.11-2.06.37-3,.73-.39.15-.77.33-1.14.52-1.73.9-3.2,2.2-4.28,3.78.93-1.83,2.33-3.39,4.06-4.52-.24-.71-.52-1.41-.87-2.09-3.83-7.57-13.08-10.6-20.65-6.77-3.71,1.88-6.33,5.06-7.59,8.71.26.24.5.49.73.76-.25-.22-.5-.43-.77-.63-.08-.06-.16-.11-.24-.17-1.4-.96-3.05-1.58-4.86-1.73-5.53-.45-10.37,3.67-10.82,9.19-.25,3.03.88,5.85,2.86,7.86-.57-.44-1.09-.95-1.55-1.51,2.38,3.55,6.22,5.69,6.22,5.69l50.64.7c.44,0,1.76-1.24,2.95-3.18-.1.14-.2.29-.31.43"/><path class="cls-12" d="m175.71,384.17c3.77-.29,23.59,0,23.59,0,.23.03,16.38-.98,17.13-14.09.49-8.51-4.59-16.03-13.08-16.82-2.23-.21-6.03-.08-7.82,1.1.59-1.7,5.35-14.18-6.37-23.36-6.29-4.93-16.14-5.27-21.16-2.51-1.61-7.39-7.05-17.03-22.23-17.94-6.61-.39-14.7,2.96-18.46,7.82-1.93,1.74-3.12,4.3-4.32,6.13-3.34-1.88-7.17-2.97-11.26-2.97-12.83,0-23.23,10.59-23.23,23.65,0,1.69.18,3.34.51,4.93-.11.35-.3.59-.79.72-5.42,1.39-15.38,6-15.71,16.76-.35,11.54,10.64,16.74,14.45,16.61l88.75-.02Z"/><path class="cls-18" d="m375.07,311.47c-.06-.78-.42-1.42-1.06-1.91-5.77-4.57-12.4-8.2-19.89-10.88l-.04-.08c-20.04-7.81-39.96-7.23-59.78,1.73-4.92,2.23-9.47,4.8-13.67,7.72,2.55.35,5.04,1.07,7.38,2.12,2.73-1.65,5.58-3.17,8.6-4.53,18.35-8.3,36.84-8.82,55.47-1.56l.12.05c6.78,2.45,12.87,5.8,18.27,10.04.64.49,1.34.67,2.09.53.81-.06,1.46-.42,1.95-1.09.45-.68.63-1.39.55-2.13"/><path class="cls-17" d="m252.23,344.79l.08-.04c-.58,1.44-1.1,2.87-1.59,4.31,2.08.03,4.01.48,5.58,1.15.39-1.12.79-2.24,1.23-3.35,6.27-15.98,16.44-28.2,30.49-36.69-2.34-1.05-4.83-1.77-7.38-2.12-12.89,8.97-22.37,21.22-28.42,36.74"/><path class="cls-14" d="m251.45,369.45c-.56.59-1.23.85-2.04.77-.84-.09-1.51-.42-1.98-.99-.46-.61-.66-1.33-.62-2.16.55-6.02,1.86-12.02,3.91-18.01-4.46-.07-9.61,1.78-13.37,7.63-10.28,15.99,5.71,26.92,10.02,27.09l78.82,1.77c1.51,0,11.5-17.57-4.22-26.63-11.19-6.45-20.4,1.28-20.4,1.28,0,0,.31-21.76-20.03-21.88-18.85-.12-21.38,15.29-21.38,15.29-.22-1.17-1.7-2.48-3.87-3.4-1.98,5.73-3.25,11.52-3.79,17.38-.13.8-.49,1.42-1.07,1.86"/><path class="cls-18" d="m246.81,367.07c-.05.83.16,1.55.62,2.16.48.57,1.14.89,1.98.99.81.08,1.48-.18,2.04-.77.59-.43.94-1.05,1.07-1.86.54-5.86,1.81-11.65,3.79-17.38-1.57-.66-3.5-1.12-5.58-1.15-2.05,5.99-3.36,11.99-3.91,18.01"/><path class="cls-11" d="m211.17,353.88c-.54-.7-.76-1.42-.66-2.17,1-9.94,3.44-19.83,7.33-29.67,10.7-27.45,29.35-47.2,55.97-59.24,28.66-12.97,49.49-14.02,79.68-2.2,9.83,3.64,18.62,8.46,26.38,14.47.57.51.9,1.18,1.01,2.01.17.8.02,1.55-.45,2.25-.63.64-1.3,1.01-2.02,1.12-.81.12-1.54-.09-2.19-.63-7.31-5.69-15.55-10.2-24.73-13.53l-.13-.05c-25.25-9.89-50.3-9.2-75.17,2.05-25.1,11.36-42.73,29.99-52.87,55.89-3.69,9.23-5.98,18.54-6.87,27.94-.15.87-.49,1.57-1.03,2.09-.68.52-1.43.79-2.25.81-.82-.12-1.48-.5-2-1.14"/><path class="cls-16" d="m396.33,238.48c-.06-.91-.33-1.58-.85-2.11-9.28-8.23-20.21-15.17-32.42-20.59-33.19-15.5-67.65-16.69-102.45-3.55-35.13,13.25-61.16,37.32-77.39,71.51-5.88,12.27-9.99,24.87-12.19,37.48-.15.71.01,1.39.49,2.11.44.63,1.02,1.02,1.76,1.2.39,0,.76-.04,1.12-.15.21-.06.41-.14.61-.23.17-.08.34-.17.51-.28.56-.49.93-1.16,1.15-2.04,2.02-12.03,5.93-24.09,11.59-35.75,9.2-19.3,21.65-35.23,37.21-47.65,7.16-5.74,15-10.73,23.52-14.96.09-.05.19-.09.28-.14.77-.38,1.55-.76,2.34-1.13.22-.11.44-.21.66-.31.68-.32,1.36-.62,2.04-.93.34-.15.69-.31,1.04-.46.58-.26,1.17-.51,1.76-.76.21-.09.42-.18.63-.27.15-.06.3-.12.45-.18,1.4-.58,2.81-1.14,4.24-1.68,0,0,0,0,0,0,0,0,.02,0,.03-.01,2.83-1.07,5.66-2.03,8.49-2.9.27-.08.55-.18.82-.26.52-.16,1.04-.3,1.56-.45.52-.15,1.05-.31,1.57-.45.35-.1.7-.18,1.06-.28.69-.18,1.38-.37,2.06-.54.29-.07.57-.13.85-.2.75-.18,1.5-.37,2.25-.53.34-.08.68-.14,1.02-.22.69-.15,1.38-.3,2.06-.44.58-.11,1.15-.22,1.73-.32.44-.08.88-.17,1.32-.25,24.89-4.32,49.48-.9,73.38,10.27l.16.07c11.58,5.06,22,11.67,30.94,19.64.61.59,1.24.81,2.01.74.16-.02.33-.05.49-.09.19-.06.37-.12.56-.21.33-.16.66-.38,1-.66.45-.62.62-1.29.52-2.03"/><path class="cls-13" d="m280.99,291.15c-3.6-2.64-4.68-7.55-2.5-11.42.28-.51.62-.98,1-1.42.26-.3.31-.73.11-1.07-.97-1.69-1.49-3.66-1.37-5.75.27-4.8,3.77-8.65,8.29-9.62.01,0,.03,0,.04-.01,1.27-.51,2.69-.74,4.16-.6.37.03.72.09,1.07.16,1.13-9.18,9.41-15.88,18.78-15.04,5.85.52,10.75,3.86,13.51,8.54.22.37.64.61,1.09.58.68-.05,1.37-.05,2.07,0,5.64.51,10.07,4.66,11.15,9.89.09,0,.18,0,.27,0,2.15.13,4.1.91,5.68,2.13,2.55,1.97,4.11,5.11,3.92,8.54-.12,2.17-.93,4.14-2.2,5.72-.27.34-.3.81-.08,1.18.34.55.61,1.12.83,1.73.55,1.52.71,3.19.35,4.87l-66.18,1.59Z"/><path class="cls-9" d="m322.47,353.35c8.78-4.63,17.84-5.41,27.18-2.32,3.42,1.02,6.48,2.5,9.19,4.47.59.36.93.89,1.03,1.59.16.77.04,1.47-.36,2.09-.42.54-.98.88-1.69,1.04-.73.1-1.39-.03-1.98-.38-2.34-1.68-4.94-2.94-7.81-3.77l-.06-.02c-7.97-2.6-15.7-1.93-23.19,2.02-7.59,4-12.67,10.1-15.26,18.28-1.02,2.92-1.57,5.85-1.66,8.82-.03.75-.34,1.38-.92,1.91-.53.5-1.15.75-1.84.74-.68-.05-1.27-.33-1.77-.82-.51-.59-.74-1.23-.68-1.92.16-3.44.82-6.85,1.99-10.22l-.04-.07c3.04-9.59,9-16.73,17.88-21.42"/><path class="cls-10" d="m275.21,378.29c-.57-.61-.81-1.33-.72-2.17.59-5.4,1.87-10.77,3.86-16.11l-.04-.09c5.81-14.91,15.97-25.65,30.49-32.22,14.28-6.46,28.71-6.85,43.29-1.17,5.34,2.13,10.11,4.79,14.32,7.98.6.53.94,1.19,1,1.99.11.82-.06,1.55-.5,2.2-.54.66-1.19,1.04-1.94,1.14-.83.06-1.56-.12-2.2-.57-3.81-2.89-8.12-5.27-12.94-7.15-13.01-5.07-25.9-4.74-38.67,1.01-12.98,5.91-22.09,15.53-27.33,28.86-1.86,4.9-3.02,9.76-3.48,14.58-.12.78-.48,1.46-1.08,2.05-.61.59-1.32.82-2.12.7-.82-.08-1.47-.43-1.94-1.05"/></g><path class="cls-19" d="m181.78,162.68c5.95,6.43,5.04,14.11.4,19.67-1.49,1.77-2.81,2.99-4.76,4.79l-6.11,5.65,13.25,14.33-5.79,5.36-33.62-36.35,11.9-11.02c1.95-1.8,3.27-3.02,5.15-4.37,6.37-4.53,13.63-4.5,19.57,1.93Zm-6.11,5.65c-3.56-3.85-7.27-3.74-10.23-1.87-1.09.72-2.41,1.84-3.88,3.2l-6.27,5.8,11.69,12.64,6.27-5.8c1.47-1.36,2.69-2.59,3.49-3.62,2.09-2.81,2.49-6.51-1.07-10.35Z"/><path class="cls-19" d="m213.51,183.79l-26.17-42.04,6.7-4.18,26.17,42.04-6.7,4.18Z"/><path class="cls-19" d="m258.37,126.99l.31.65-7.35,2.68-.38-.63c-3.57-5.8-8.86-8.38-15.87-5.83-8.63,3.14-11.39,12.55-7.39,23.54,4.2,11.53,12.33,16.66,20.56,13.67,7.01-2.55,9.36-8.07,8.36-14.8l-.11-.72,7.35-2.68.18.7c2.37,9.45-1.91,18.87-14.05,23.29-13.28,4.84-25.03-2.03-30.18-16.19-5.33-14.63.28-27.75,13.36-32.51,12.14-4.42,20.93.01,25.21,8.84Z"/><path class="cls-19" d="m317.98,121.17l.12.71-7.81.48-.19-.71c-1.78-6.58-6.13-10.55-13.58-10.09-9.17.57-14.47,8.8-13.74,20.48.77,12.25,7.12,19.48,15.86,18.94,7.45-.46,11.26-5.08,12.2-11.83l.1-.72,7.81-.48-.03.72c-.4,9.73-7.17,17.55-20.06,18.35-14.11.87-23.43-9.05-24.38-24.09-.98-15.54,8.11-26.53,22.01-27.39,12.89-.8,20.08,5.95,21.69,15.63Z"/><path class="cls-19" d="m378.13,141.8c-3.5,14.88-14.36,23.09-29.1,19.64-14.81-3.47-20.86-15.66-17.36-30.53,3.52-14.95,14.36-23.09,29.17-19.62,14.74,3.46,20.81,15.57,17.29,30.52Zm-8.24-1.93c2.83-12.01-1.06-20.52-10.43-22.72-9.43-2.21-16.72,3.67-19.55,15.69-2.81,11.94,1.06,20.52,10.5,22.73,9.36,2.2,16.66-3.76,19.48-15.7Z"/><path class="cls-19" d="m410.54,187.05l-29.96-16.55,23.89-43.37,6.91,3.82-20.74,37.65,23.05,12.73-3.15,5.72Z"/><path class="cls-19" d="m464.04,202.92c-10.55,11.06-24.06,12.66-35.02,2.21-11.01-10.5-10.06-24.07.48-35.14,10.6-11.12,24.06-12.66,35.07-2.16,10.96,10.45,10.06,23.97-.53,35.09Zm-6.13-5.84c8.52-8.93,9.46-18.25,2.5-24.88-7.01-6.69-16.27-5.3-24.78,3.64-8.47,8.88-9.46,18.25-2.45,24.93,6.96,6.64,16.26,5.2,24.73-3.69Z"/></g></g></svg>