<?xml version="1.0" encoding="UTF-8"?><svg xmlns="http://www.w3.org/2000/svg" xmlns:xlink="http://www.w3.org/1999/xlink" viewBox="0 0 619 730"><defs><style>.cls-1{clip-path:url(#clippath);}.cls-2,.cls-3,.cls-4{fill:none;}.cls-2,.cls-5,.cls-6,.cls-7,.cls-8,.cls-9,.cls-10,.cls-11,.cls-12,.cls-13,.cls-14{stroke-width:0px;}.cls-15{clip-path:url(#clippath-1);}.cls-16{clip-path:url(#clippath-4);}.cls-17{clip-path:url(#clippath-3);}.cls-18{clip-path:url(#clippath-2);}.cls-19{clip-path:url(#clippath-7);}.cls-20{clip-path:url(#clippath-8);}.cls-21{clip-path:url(#clippath-6);}.cls-22{clip-path:url(#clippath-5);}.cls-23{clip-path:url(#clippath-9);}.cls-24{clip-path:url(#clippath-13);}.cls-25{clip-path:url(#clippath-12);}.cls-26{clip-path:url(#clippath-10);}.cls-27{clip-path:url(#clippath-11);}.cls-3{stroke:#405c9f;stroke-width:2px;}.cls-3,.cls-4{stroke-miterlimit:10;}.cls-4{stroke:#ffc726;}.cls-28{opacity:.4;}.cls-29{opacity:.6;}.cls-30{opacity:.5;}.cls-31{opacity:.8;}.cls-32{opacity:.7;}.cls-5{fill-rule:evenodd;}.cls-5,.cls-13{fill:#ffc726;}.cls-6{fill:#6d88bc;}.cls-7{fill:#405c9f;}.cls-8{fill:#d3ddef;}.cls-9{fill:#a3b4d8;}.cls-10{fill:#fff;}.cls-11{fill:#ffc760;}.cls-12{fill:#ffd527;}.cls-14{fill:#00267f;}</style><clipPath id="clippath"><rect class="cls-2" x="0" y="19.41" width="618.87" height="710.59"/></clipPath><clipPath id="clippath-1"><rect class="cls-2" x="0" y="19.41" width="618.87" height="710.59"/></clipPath><clipPath id="clippath-2"><rect class="cls-2" x="0" y="19.41" width="618.87" height="710.59"/></clipPath><clipPath id="clippath-3"><rect class="cls-2" x="170.73" y="426.76" width="53.55" height="52.19"/></clipPath><clipPath id="clippath-4"><rect class="cls-2" x="171.92" y="437.24" width="41.72" height="40.69"/></clipPath><clipPath id="clippath-5"><rect class="cls-2" x="174.18" y="446.75" width="29.77" height="29.03"/></clipPath><clipPath id="clippath-6"><rect class="cls-2" x="392.81" y="435.37" width="15.9" height="14.46"/></clipPath><clipPath id="clippath-7"><rect class="cls-2" x="384.02" y="455.19" width="14.62" height="12.9"/></clipPath><clipPath id="clippath-8"><rect class="cls-2" x="441.09" y="402.69" width="17.24" height="16.32"/></clipPath><clipPath id="clippath-9"><rect class="cls-2" x="432.77" y="426.93" width="15.9" height="14.46"/></clipPath><clipPath id="clippath-10"><rect class="cls-2" x="422.71" y="448.23" width="15.82" height="13.3"/></clipPath><clipPath id="clippath-11"><rect class="cls-2" x="369.29" y="423.93" width="11.81" height="10.42"/></clipPath><clipPath id="clippath-12"><rect class="cls-2" x="351.59" y="451.36" width="12.2" height="10.28"/></clipPath><clipPath id="clippath-13"><rect class="cls-2" x="0" y="19.41" width="618.87" height="710.59"/></clipPath></defs><g id="Ebene_2"><rect class="cls-10" x="0" width="618.87" height="729.32"/></g><g id="Ebene_1"><g class="cls-1"><g class="cls-15"><g class="cls-18"><path class="cls-10" d="m57.64,346.73c9.86,139.07,130.6,243.82,269.67,233.96,139.07-9.86,243.82-130.6,233.96-269.67-9.86-139.07-130.6-243.82-269.67-233.96C152.53,86.92,47.78,207.66,57.64,346.73"/><path class="cls-7" d="m309.06,582.16c80.9,0,152.94-37.97,199.29-97.07-6.76,2.23-18.96,4.22-34.7-1.94,0,0-17.47,10.73-42.12-.38,0,0-8.15,4.09-19.33,4.26-1.03.03-2.11.02-3.26-.06-.21-.01-.42-.03-.63-.05-.17-.01-.33-.02-.5-.04-4.64-.37-9.65-1.49-14.73-3.85-1.1.68-16.8,9.9-40.53.62,0,0-5.16,3.16-13.82,4.27-5.48,2.13-14.32,2.95-27.58-2.74,0,0-16.25,10.04-40.61.02,0,0-17.75,10.45-42.1-1.04,0,0-8.25,3.96-19.44,3.95-1.03.02-2.11-.02-3.26-.11-.21-.01-.42-.04-.63-.06-.17-.02-.33-.03-.5-.05-4.63-.44-9.61-1.64-14.62-4.08-1.12.66-17.06,9.64-40.54-.02,0,0-17.28,10.16-41.13-.61,46.28,60.18,118.98,98.97,200.74,98.97"/><path class="cls-14" d="m563.43,310.78c-4.81-67.79-35.73-129.66-87.06-174.2-51.34-44.54-116.94-66.42-184.74-61.61-67.79,4.81-129.66,35.73-174.2,87.07-44.54,51.34-66.42,116.95-61.62,184.74,4.29,60.55,30.14,117.66,72.77,160.79l.15.14c1.68,1.38,2.98,2.66,3.98,3.92l.18.19c25.44,24.55,55.07,43.22,88.05,55.51,28.4,10.58,58.01,15.91,88.25,15.91,6.12,0,12.26-.22,18.43-.65,67.79-4.81,129.66-35.73,174.2-87.07,8.71-10.04,16.53-20.64,23.48-31.68l9.2,5.02-.62-24.92-21.27,12.99,9.04,4.93c-41.1,65.29-111.65,110.88-194.32,116.74-70.69,5.02-140.51-20.35-191.58-69.57-1.15-1.43-2.59-2.85-4.4-4.35-41.92-42.44-67.33-98.62-71.56-158.19-9.77-137.75,94.36-257.77,232.11-267.53,137.75-9.77,257.77,94.36,267.53,232.11,2.37,33.53-2.02,66.01-11.99,96.1l3.92,1.33c10.24-31.06,14.45-64.11,12.06-97.72"/><path class="cls-8" d="m492.08,181.64c-.51-.02-1.02-.32-1.54-.5.02-.3.04-.59.05-.89,6.63-.31,13.26-.58,19.89-.83-3.09-4.16-6.32-8.2-9.66-12.15-4.23-.14-8.46-.26-12.68-.33-21.98-.39-43.95-.25-65.92-.04-1.09.01-2.17.38-3.21,0-7.5-2.74-14.61-1.71-21.25,3.25-5.39,4.03-9.33,9.95-10.68,18.48-.88,5.59-.5,9.25-.56,10.66-.26.04-.57.15-.87.14-6.42-.32-11.58,2.53-14.98,10.12-.42.93-1.42,1.81-2.28,1.91-7.82.89-15.68,1.41-23.48,2.51-14.67,2.07-29.31,4.44-43.96,6.73-.97.15-1.89.71-2.84,1.07.05.33.11.65.16.98,17.06,1.46,34.1,1.11,51.15,1.09-4.56,1.12-10.12,2.67-16.2,4.41-16.75,1.81,11.4,3.61-5.36,5.27-12.14,1.2,2.17.79-9.97,1.95-.61.06-3.61.56-4.21.79,0,.29,1.22.5,1.23.79.89.3,6.58.47,7.47.61,10.69,1.61-8.69,5.4,2.01,6.33,28.69,2.5,12.48,4.42,41.17,6.59,2.86.22,5.63.37,8.36,2.19,1.66,1.11,3.5,1.91,5.36,1.72.07,0,.13,0,.2,0-4.4,5.66-6.91,12.15-6.91,19.04,0,6.18,2.01,12.04,5.61,17.26-4.31,5.61-6.76,12.03-6.76,18.84,0,8.97,4.24,17.25,11.39,23.93-7.79,6.83-12.45,15.46-12.45,24.86,0,.33.02.65.04.98-.01.32-.04.65-.04.98,0,22.09,9.5,38.63,41.21,38.63,6.5,0,38.94-.09,40.76.31h50.02c-.22-1.24,14.56,1.93,15.62-11.83.09-1.17-1.42-3.36-.34-4.7.56-.7,1.06-1.44,1.51-2.22.62-1.08,1.12-2.23,1.49-3.45.29-.98.51-1.99.61-3.04.39-3.88-.6-7.65-2.58-10.9-2.25-3.67-5.78-6.66-10.08-8.38,1.59-3.35,2.47-7.04,2.47-10.92,0-6.34-2.38-12.17-6.35-16.86,2.84-3.06,4.7-7.22,4.86-13.08.07-2.36-.18-4.47-.66-6.39-.06,0-.12,0-.18,0-1.34-4.58-4.14-7.94-7.76-10.52-.66-.47-1.32-2.13-1.29-3.16.16-4.94-1.19-8.86-3.85-12.15,3.82-4.64,6.11-10.36,6.11-16.56,0-1.88-.21-3.72-.61-5.5,5.78-1.22,9.76-7.87,9.01-15.41-.56-5.65-3.62-10.26-7.6-12.23,1.07-2.83,1.53-6.1,1.19-9.52-.46-4.64-2.31-8.71-4.95-11.61,8.91-.87,17.81-1.76,26.71-2.78,1.11-.13,2.12-.25,3.04-.36-.48-.86-.96-1.73-1.45-2.59-4.05-.29-6.62-.71-.99-1.73-4.14-7.15-8.63-14.08-13.44-20.76-6.92-.35-13.85-.7-20.77-1.03"/><path class="cls-9" d="m383.29,334.14c-.1-.12-.18-.25-.23-.39-3.29-8.02-1.68-11.92,1.26-17.51,1.61-3.07,3.94-5.67,6.73-7.53l.55-.37-.52-.41c-4.79-3.76-6.22-10.73-3.33-16.23.38-.72.83-1.39,1.33-2.02.35-.43.41-1.03.15-1.52-1.29-2.4-1.98-5.21-1.82-8.17.36-6.83,5.02-12.29,11.03-13.67.02,0,.04-.01.06-.02,1.69-.72,3.58-1.05,5.53-.86.49.05.96.12,1.43.23,1.51-13.05,12.51-22.57,24.98-21.37,7.78.75,14.3,5.49,17.97,12.13.29.53.85.87,1.45.82.9-.08,1.82-.08,2.76.01,7.51.72,13.4,6.62,14.83,14.06.12,0,.24,0,.36,0,2.86.18,5.45,1.29,7.55,3.02,3.39,2.8,5.47,7.26,5.21,12.14-.16,3.08-1.23,5.88-2.92,8.12-.37.48-.41,1.15-.1,1.68.45.78.82,1.6,1.11,2.45.73,2.16.94,4.53.47,6.92-.44,2.24-1.43,4.22-2.78,5.85-.51.62-.45,1.52.18,2.03,4.84,3.94,7.83,10.25,7.47,17.18-.29,5.53-2.67,10.4-6.27,13.82-.54.52-.58,1.37-.09,1.93,3.28,3.79,5.33,8.8,5.47,14.33.16,6.19-2.11,11.84-5.88,15.94-.44.48-.48,1.21-.1,1.75.48.69.9,1.42,1.26,2.18.54,1.15-2.51,2.46-3.31,3.74-.25.4-.64.69-1.11.7l-85.11,2.18c-1.05.03-1.75-1.09-1.26-2.02l1.39-2.66c1.52-2.89,3.58-5.26,5.97-7.05.43-.33.67-.86.56-1.39-.49-2.34-7.63-8.1-9.56-17.02-1.43-6.58,3.67-15.45-2.63-23.04"/><path class="cls-6" d="m481.02,401.49c10.63,1.45,20.16-5.86,21.29-16.32,1.13-10.46-6.58-20.1-17.21-21.55-3.44-.47-6.76,0-9.72,1.17.18-.98.28-1.98.28-3.02,0-8.05-5.81-14.59-12.99-14.59-3.68,0-6.99,1.73-9.36,4.49-2.81-8.2-10.26-14.34-19.1-14.79-4-.2-7.73.78-10.91,2.65-2.7-5.84-8.36-10.05-14.97-10.39-9.3-.47-16.91,6.89-17,16.45,0,.07,0,.13,0,.2,0,1.14.12,2.26.33,3.36-1.68,1.1-3.17,2.48-4.41,4.05-8.68.26-15.68,7.65-16.06,16.89-.11.41-.21.83-.27,1.26-.2,1.28-.2,2.55-.02,3.79-3.88,1.06-10.91,4.52-11.14,12.53-.25,8.64,7.59,13.48,10.3,13.37l3.95.44h107.01Z"/><path class="cls-9" d="m214.49,361.68c.05-2.07-.32-5.6-6.43-10.99.05-.07,2.99-2.47,3.05-2.53,2.44-2.21,4.11-5.41,4.43-9.1.39-4.63-1.43-8.91-4.53-11.65-.4-.35-.42-.96-.07-1.36.92-1.06,1.61-2.36,1.96-3.85.36-1.59.28-3.18-.15-4.64-.17-.58-.4-1.14-.67-1.66-.19-.36-.15-.8.11-1.12,1.16-1.46,1.93-3.3,2.1-5.36.28-3.26-.99-6.28-3.16-8.23-1.34-1.21-3.02-2.01-4.9-2.19-.08,0-.15,0-.23,0-.78-5.01-4.52-9.08-9.44-9.73-.61-.08-1.22-.1-1.81-.07-.4.02-.76-.22-.94-.58-2.26-4.52-6.45-7.84-11.54-8.51-8.17-1.08-15.62,5.03-16.9,13.72-.3-.08-.62-.14-.93-.19-1.28-.17-2.53,0-3.66.45-.01,0-.03,0-.04,0-3.99.79-7.17,4.33-7.56,8.89-.17,1.98.22,3.86,1.02,5.5.16.33.11.73-.13,1.01-.35.41-.66.85-.92,1.32-2.02,3.61-1.23,8.31,1.83,10.92l.33.29-.37.23c-1.87,1.18-3.46,2.87-4.59,4.88-2.05,3.67-3.2,6.24-1.21,11.67.03.09.08.19.15.27,3.97,5.22.43,11.03,1.22,15.46.52,2.93,1.88,5.38,3.16,7.31-1.09,1.23-1.81,2.97-1.87,4.92-.12,3.7,2.47,7.66,5.44,8.03.27.1.5.15.64.16l40.98.25s5.46-.06,5.58-.15c10.43-4.05,10.03-11.85,10.06-13.37"/><path class="cls-13" d="m183.94,287.07c1.27,2.25.47,5.1-1.77,6.36-2.25,1.27-5.1.47-6.36-1.77-1.27-2.25-.47-5.09,1.77-6.36,2.25-1.27,5.1-.47,6.36,1.77"/><path class="cls-13" d="m192.44,297.8c1.27,2.25.47,5.1-1.77,6.36-2.25,1.27-5.1.47-6.36-1.77-1.27-2.25-.47-5.09,1.77-6.36,2.25-1.27,5.1-.47,6.36,1.77"/><path class="cls-13" d="m182.47,312.19c1.01,1.8.38,4.08-1.42,5.1-1.8,1.02-4.08.38-5.1-1.42-1.02-1.8-.38-4.08,1.42-5.1,1.8-1.02,4.08-.38,5.1,1.42"/><path class="cls-13" d="m174.92,302.05c1.27,2.25.47,5.1-1.77,6.36-2.25,1.27-5.1.47-6.36-1.77-1.27-2.25-.47-5.09,1.77-6.36,2.25-1.27,5.1-.47,6.36,1.77"/><path class="cls-10" d="m124.39,426.67c.07.22.8,1.1.95,1.28.15.18,2.01,2.41,2.16,2.67.15.26,1.13,1.68,1.39,1.97.26.29,1.24,1.72,1.32,2.12.07.4.88,2.08.95,2.19.07.11.66,1.02.88,1.21.22.18.73.88.84,1.1.11.22.58.91.8,1.06.22.15.95.62,1.13.8.18.18.73.84.77,1.06.04.22.18.73.44.84.26.11.59.62.77.88.18.26.99,1.24,1.21,1.43,0,0,1.13.77,1.28.99.15.22.18.62.4.69.22.07.99.4,1.13.58.15.18.73.77,1.06.77s1.28.15,1.39.33c.11.18.62.47.84.47s2.23,0,2.45.15c.22.15,1.79,1.1,2.01,1.17.22.07.91.07,1.1.22s.55.51.77.58c.22.07.69.18.88.44.18.26.48.77.77.95.29.18.58.73.62.84.04.11.91.88,1.06,1.02.15.15,1.86,1.39,2.05,1.57.18.18,1.32,1.02,1.57,1.24.26.22,1.68,1.35,1.94,1.46.26.11,1.24.29,1.39.29s.88-.55,1.1-.55,1.21,0,1.64.22c.44.22,1.1.69,1.13.91.04.22.15.8.15,1.02s.18,1.28.29,1.5c.11.22.51.88.77.91.25.04,1.17.07,1.35.07s1.46.29,1.72.37c.26.07,1.17.22,1.28.51.11.29.15.73.48.95.33.22,1.46.73,1.61.95.15.22.58.91.73,1.13.15.22,1.31.95,1.57,1.17.26.22.77.69.95.91.18.22.84.59,1.06.62.22.04,1.64-.11,1.94-.22.29-.11.51-.91,1.43-1.28.91-.37,1.46-.48,1.68-.4s.91.48.95.66c.04.18.26.8.44,1.02.18.22,1.5,1.68,1.64,1.83,0,0,.71.66.84.83.14.17,1.17,1.1,1.27,1.2s.1.14.27,0c.17-.14.72-.07.96-.21.24-.14-.03.17-.1.34-.07.17-.14.41-.24.55-.1.14-.24.38-.31.51-.07.14-.31.51-.14.58.17.07.31.14.41.04s.38-.14.48-.14.17.38.07.41c-.1.03-.27.17-.27.34s-.27.86-.07.96c.21.1.31.03.41.21.1.17.27.45.55.51.28.07.72-.03.72-.03,0,0,.21.17.38.31.17.14.31.41.51.55.21.14.45.45.48.62.04.17.34.86.51.96.17.1.34.07.55.07s.65-.07.82-.07,1.3.24,1.44.24,1.17.07,1.17.07c0,0,.65.07.93,0,.27-.07.31-.14.48-.17,0,0,.58-.79.82-1.13.24-.34.41-.34.41-.34,0,0,.27-.07.38,0,.1.07.38.14.31.34-.07.21-.03.34,0,.65.04.31.31.31.31.31,0,0,0,.28.04.48.03.21.1.38.14.55.03.17.48.1.72.1s.65-.1.79-.14c.14-.04.38-.31.38-.31,0,0,.17.31.24.51.07.21.17.38.27.55.1.17.1.48.1.62s-.1.58,0,.86c0,0,.48.96.55,1.06.07.1.14.62.14.62,0,0,.27.34.48.41.21.07.58.1.69.03.1-.07.62-.1.76.1.14.21.41.45.41.58s.14.76.07.86-.1.62-.1.79.24.58.48.79c.24.21.58.76.62.96.04.21-.14,1.24-.14,1.24l-.55.99s-.41,1.13-.41,1.44-.07,1.2-.14,1.44c-.07.24-.31,1.03-.38,1.13-.07.1-.72.86-.82.93s-.55.58-.55.79v1.06c0,.1.07.58-.17.62-.24.03-.86.28-.86.38s-.03.55,0,.75c.03.21.21.27.14.51-.07.24-.41.62-.45.72-.03.1-.72,1.03-.75,1.13-.03.1-.62,1.13-.62,1.27s-.03,1.3-.14,1.48c-.1.17-.89,1.34-.99,1.51-.1.17-.76,1.37-.86,1.41-.1.03-.55,0-.62.1s-.41.79-.51,1c-.1.21-1.3,1.2-1.48,1.41-.17.21-.93.89-.96,1.03-.03.14-.31.58-.41.62-.1.03-.48.27-.55.41-.07.14-.48,1-.62,1.13-.14.14-.55.55-.62.65s-.69.93-.72,1.03c-.03.1-.45.96-.51,1.1-.07.14-.31.82-.48,1.17-.17.34-.38.82-.48.93-.1.1-.24.48-.41.69-.17.21-.34.55-.45.62-.1.07-.34.21-.55.21s-.75.17-.93.24c-.17.07-.55.72-.65.82-.1.1-1.1,2.03-1.24,2.16-.14.14-.65,1.24-.86,1.48-.21.24-1.82,2.06-1.89,2.16-.07.1-1.58,1.79-1.72,1.92-.14.14-1.51,1.58-1.72,1.72-.21.14-.76.69-.96.76-.21.07-1.54.65-1.68.69-.14.03-1.3.55-1.48.72-.17.17-2.02,1.65-2.13,1.68-.1.03-2.51,2.2-2.71,2.3-.21.1-1.68.79-1.82.89-.14.1-2.16,2.16-2.3,2.26-.14.1-1.68,1.37-1.82,1.51-.14.14-1.54.72-1.72.86-.17.14-.93.17-1.13.14-.21-.03-1.13-.14-1.27-.14s-1,.34-1.2.48c-.21.14-1.37,1.41-1.51,1.65-.14.24-1.3,2.02-1.37,2.13-.07.1-.96,1.58-1.13,1.85-.17.27-.86,1.34-.86,1.34-.23.18-.23.92-.28,1.19-.04.27-.41.6-.78.64-.37.05-.27,0-.23-.23.04-.23-.5-.18-.87-.18s-.92.46-1.19.6c-.28.14-1.92.87-2.33,1.01-.41.14-1.42.82-1.83,1.1-.41.27-1.56,1.1-1.88,1.14-.32.05-2.01.28-2.56.28s-2.75.78-3.07.78-1.28-.32-1.65-.5c-.37-.18-1.46-.41-1.74-.64-.27-.23-1.69-1.6-1.83-1.74-.14-.14.05-.96.18-1.65.14-.69-.6-1.6-.92-1.92-.32-.32-.55-.73-.69-1.01-.14-.27-.28-1.1-.46-1.56-.18-.46-1.19-.6-1.51-.6s-.32-.27-.41-.5c-.09-.23-.18-.5-.41-.82-.23-.32-.78-.64-1.01-.73-.23-.09-3.07-.69-3.48-.78-.41-.09-1.74-.5-2.15-.59-.41-.09-2.2,0-2.75.04-.55.05-2.7.46-3.2.6-.5.14-2.33-.05-2.65-.09-.32-.05-.5-.64-.69-.92-.18-.27-1.65-.27-1.92-.32-.27-.05-1.83-.37-2.2-.46-.37-.09-.73-.32-.78-.59-.05-.27-.46-.37-.64-.37s-1.69-.18-1.88-.18-.64-.23-.78-.5c-.14-.28-1.37-.55-1.69-.73,0,0-1.28-.18-1.56-.27-.28-.09-1.6-1.19-1.88-1.37-.28-.18-.69,0-1.05.09-.37.09-1.97,0-2.24.05-.27.04-1.6,0-1.88-.05-.27-.04-2.29-.91-2.52-1.05-.23-.14-1.65-.18-1.97-.23-.32-.05-1.97-1.05-2.38-1.19-.41-.14-1.51-.27-1.74-.23-.23.05-.82-.18-.96-.37-.14-.18.05-.69.18-.92.14-.23.73-.23.96-.46.23-.23.69-1.51.73-1.83.04-.32,0-2.06,0-2.52s-.41-1.88-.64-2.29c-.23-.41-1.51-1.24-1.92-1.46-.41-.23-1.28-.92-1.46-1.05-.18-.14-.23-.27-.18-.41.04-.14-.5-.14-.73-.14h-.78c-.18,0-.46-.27-.69-.46-.23-.18-1.1-.18-1.33-.18s-1.51-.69-1.74-.78c-.23-.09-.64-.32-.78-.55-.14-.23-1.69-1.05-1.92-1.19-.23-.14.5-.32.5-.32l-.87-4.12,1.28-.69,1.05,1.6.37-.14.23-.46s-.46-.73-.69-1.1c-.23-.37-.46-1.24-.46-1.24l-1.88.64-.28-.41-.18-.69,2.06-.78s-.04-1.33-.04-1.65-.28-1.05-.46-1.78c-.18-.73-1.33-2.11-1.51-2.29s-1.37-1.24-1.46-1.37c-.09-.14-.23-.5-.23-.69s-.5-1.24-.6-1.46c-.09-.23-.23-1.69-.23-2.01s-1.05-1.46-1.24-1.74c-.18-.27.18-2.06.18-2.33s-.5-.87-.64-1.1c-.14-.23-.23-2.01-.23-2.33s-.6-.92-.73-1.24c-.14-.32.14-1.92.14-2.38s.41-3.52.46-3.84c.05-.32.41-1.88.41-2.24s-.28-1.79-.32-2.11c-.05-.32.09-1.78.23-2.43.14-.64,0-1.83-.14-2.2-.14-.37-.32-.82-.37-1.1-.05-.28.18-1.1.28-1.28.09-.18.32-1.1.27-1.51-.05-.41-.78-1.46-1.1-1.74-.32-.27-.37-.92-.37-1.24s0-.46.14-.69.14-.69.18-1.14c.05-.46.14-1.33.28-1.88.14-.55.32-1.74.46-2.2.14-.46-.92-1.37-1.1-1.65-.18-.27-.69-1.65-.69-2.01s-.64-1.33-.87-1.78c-.23-.46-.05-1.42,0-1.74.05-.32.92-1.83,1.1-2.15.18-.32.18-1.42.23-1.69.05-.27.09-2.15.09-2.38s-.41-1.56-.55-1.83c-.14-.27-.23-1.37-.28-1.6-.05-.23-.14-.73-.23-1.1-.09-.37-.32-1.01-.32-1.01,0,0-.46-.6-.46-.82s.37-.32.55-.32.28-.27.37-.73c.09-.46-.23-1.55-.32-1.88-.09-.32-.37-.92-.64-1.1-.28-.18-.14-.37-.14-.37,0,0,.37-.46.55-.73s.05-1.01.05-1.42v-1.01s.09-1.47.09-1.79-.82-1.6-.92-1.97c-.09-.37-.32-1.19-.32-1.42s-.5-1.01-.69-1.19c-.18-.18.37-.37.69-.6s.27-1.23.27-1.46-.5-.78-.73-.92c-.23-.14.41-.69.64-.87.23-.18,0-1.01-.09-1.23-.09-.23-.28-1.37-.18-1.74.09-.37,0-.87.04-1.33.05-.46.23-1.97.32-2.29.09-.32.41-1.65.46-2.15.05-.5-.04-1.97-.04-2.2s-.32-1.05-.64-1.42c-.32-.37-.6-1.74-.6-1.97s-.6-1.19-.78-1.6c-.18-.41-.41-2.52-.5-2.79-.09-.27-.09-1.42-.14-1.69-.05-.27-.87-1.01-1.1-1.33-.23-.32-.5-1.6-.5-2.01s.23-2.38.27-2.7c.05-.32.41-1.19.41-1.69s-.09-1.92-.23-2.24c-.14-.32-.27-2.52-.37-2.93-.09-.41-.14-2.79-.14-3.02s.18-2.06.18-2.24,1.1-1.65,1.37-1.88c.28-.23.64-1.05.69-1.24.05-.18.41-.55.6-.69.18-.14.59-1.01.73-1.24.14-.23,2.11-2.06,2.38-2.29.27-.23.46-1.05.46-1.23s.73-1.69.87-1.92c.14-.23.82-1.51.96-1.69.14-.18.82-.32,1.19-.37.37-.05.69-.78.73-1.01.05-.23.73-.27,1.14-.23.41.05.96-.18,1.28-.41.32-.23,1.33-1.42,1.51-1.6s1.83-.46,2.29-.46,1.1-.05,1.24-.09c.14-.05.5-.46.73-.69.23-.23.64-.14,1.05.18.41.32.92.05,1.28,0,.37-.04,1.19-.5,1.28-.64.09-.14.96-.14,1.33-.14s.55.41,1.01.78c0,0,.52.27.82.38.29.11,1.1.58,1.31.73.22.15,1.43.91,1.72,1.24.29.33.51.51.69.55.18.04.58.22.84.48.26.26.84.84,1.02.77.18-.07.62-.26.8-.22.18.04.55.4.51.66-.04.26-.11.77-.04.88.07.11,1.06.66,1.24.88.18.22.73.99.84,1.17.11.18.88,1.06,1.13,1.24.26.18,1.28,1.06,1.46,1.28.18.22,1.17.91,1.24,1.06.07.15.77.77.88.99,0,0,.62.66.8.88.18.22.84.58,1.06.73.22.15.55.51.84.58.29.07,1.68.22,1.94.26.26.04.84.37,1.02.59.18.22,1.28,1.24,1.28,1.61s-.04,1.13-.26,1.21c-.22.07-.55.48-.58.58-.04.11-.04.37.22.4.26.04,1.31.29,1.39.44.07.15.07.58.04.73-.04.15-.04.37.07.51.11.15.44.66.4.84-.04.18-.55.4-.73.4s-1.17-.18-1.28.04c-.11.22-.22.69-.04.84.18.15.91.66,1.13.73.22.07,1.46.48,1.57.66.11.18.26.73.26,1.06s.22.66.22.66c0,0,0,.62-.07.88-.07.26.26.8.4,1.02.15.22.77.95.88,1.13.11.18.69,1.06.91,1.28.22.22.95,1.1.95,1.5s.18,1.94.07,2.45c-.11.51.07,1.94.15,2.16.07.22.88,2.23,1.13,2.52.26.29,1.24,2.48,1.35,2.7.11.22.69,1.02.91,1.21.22.18.88,1.1,1.06,1.5.18.4.95,1.75,1.02,2.05.07.29.8,2.05.88,2.23.06.15.79,1.54,1.19,2.29,0,0,.25.83-.02,1.11-.28.27-.76.41-.89.62-.14.21-.69.69-.21.76.48.07,1.24-.14,1.44-.14s.89.21,1.17.48c.27.27.97.99.97.99"/><path class="cls-3" d="m124.39,426.67c.07.22.8,1.1.95,1.28.15.18,2.01,2.41,2.16,2.67.15.26,1.13,1.68,1.39,1.97.26.29,1.24,1.72,1.32,2.12.07.4.88,2.08.95,2.19.07.11.66,1.02.88,1.21.22.18.73.88.84,1.1.11.22.58.91.8,1.06.22.15.95.62,1.13.8.18.18.73.84.77,1.06.04.22.18.73.44.84.26.11.59.62.77.88.18.26.99,1.24,1.21,1.43,0,0,1.13.77,1.28.99.15.22.18.62.4.69.22.07.99.4,1.13.58.15.18.73.77,1.06.77s1.28.15,1.39.33c.11.18.62.47.84.47s2.23,0,2.45.15c.22.15,1.79,1.1,2.01,1.17.22.07.91.07,1.1.22s.55.51.77.58c.22.07.69.18.88.44.18.26.48.77.77.95.29.18.58.73.62.84.04.11.91.88,1.06,1.02.15.15,1.86,1.39,2.05,1.57.18.18,1.32,1.02,1.57,1.24.26.22,1.68,1.35,1.94,1.46.26.11,1.24.29,1.39.29s.88-.55,1.1-.55,1.21,0,1.64.22c.44.22,1.1.69,1.13.91.04.22.15.8.15,1.02s.18,1.28.29,1.5c.11.22.51.88.77.91.25.04,1.17.07,1.35.07s1.46.29,1.72.37c.26.07,1.17.22,1.28.51.11.29.15.73.48.95.33.22,1.46.73,1.61.95.15.22.58.91.73,1.13.15.22,1.31.95,1.57,1.17.26.22.77.69.95.91.18.22.84.59,1.06.62.22.04,1.64-.11,1.94-.22.29-.11.51-.91,1.43-1.28.91-.37,1.46-.48,1.68-.4s.91.48.95.66c.04.18.26.8.44,1.02.18.22,1.5,1.68,1.64,1.83,0,0,.71.66.84.83.14.17,1.17,1.1,1.27,1.2s.1.14.27,0c.17-.14.72-.07.96-.21.24-.14-.03.17-.1.34-.07.17-.14.41-.24.55-.1.14-.24.38-.31.51-.07.14-.31.51-.14.58.17.07.31.14.41.04s.38-.14.48-.14.17.38.07.41c-.1.03-.27.17-.27.34s-.27.86-.07.96c.21.1.31.03.41.21.1.17.27.45.55.51.28.07.72-.03.72-.03,0,0,.21.17.38.31.17.14.31.41.51.55.21.14.45.45.48.62.04.17.34.86.51.96.17.1.34.07.55.07s.65-.07.82-.07,1.3.24,1.44.24,1.17.07,1.17.07c0,0,.65.07.93,0,.27-.07.31-.14.48-.17,0,0,.58-.79.82-1.13.24-.34.41-.34.41-.34,0,0,.27-.07.38,0,.1.07.38.14.31.34-.07.21-.03.34,0,.65.04.31.31.31.31.31,0,0,0,.28.04.48.03.21.1.38.14.55.03.17.48.1.72.1s.65-.1.79-.14c.14-.04.38-.31.38-.31,0,0,.17.31.24.51.07.21.17.38.27.55.1.17.1.48.1.62s-.1.58,0,.86c0,0,.48.96.55,1.06.07.1.14.62.14.62,0,0,.27.34.48.41.21.07.58.1.69.03.1-.07.62-.1.76.1.14.21.41.45.41.58s.14.76.07.86-.1.62-.1.79.24.58.48.79c.24.21.58.76.62.96.04.21-.14,1.24-.14,1.24l-.55.99s-.41,1.13-.41,1.44-.07,1.2-.14,1.44c-.07.24-.31,1.03-.38,1.13-.07.1-.72.86-.82.93s-.55.58-.55.79v1.06c0,.1.07.58-.17.62-.24.03-.86.28-.86.38s-.03.55,0,.75c.03.21.21.27.14.51-.07.24-.41.62-.45.72-.03.1-.72,1.03-.75,1.13-.03.1-.62,1.13-.62,1.27s-.03,1.3-.14,1.48c-.1.17-.89,1.34-.99,1.51-.1.17-.76,1.37-.86,1.41-.1.03-.55,0-.62.1s-.41.79-.51,1c-.1.21-1.3,1.2-1.48,1.41-.17.21-.93.89-.96,1.03-.03.14-.31.58-.41.62-.1.03-.48.27-.55.41-.07.14-.48,1-.62,1.13-.14.14-.55.55-.62.65s-.69.93-.72,1.03c-.03.1-.45.96-.51,1.1-.07.14-.31.82-.48,1.17-.17.34-.38.82-.48.93-.1.1-.24.48-.41.69-.17.21-.34.55-.45.62-.1.07-.34.21-.55.21s-.75.17-.93.24c-.17.07-.55.72-.65.82-.1.1-1.1,2.03-1.24,2.16-.14.14-.65,1.24-.86,1.48-.21.24-1.82,2.06-1.89,2.16-.07.1-1.58,1.79-1.72,1.92-.14.14-1.51,1.58-1.72,1.72-.21.14-.76.69-.96.76-.21.07-1.54.65-1.68.69-.14.03-1.3.55-1.48.72-.17.17-2.02,1.65-2.13,1.68-.1.03-2.51,2.2-2.71,2.3-.21.1-1.68.79-1.82.89-.14.1-2.16,2.16-2.3,2.26-.14.1-1.68,1.37-1.82,1.51-.14.14-1.54.72-1.72.86-.17.14-.93.17-1.13.14-.21-.03-1.13-.14-1.27-.14s-1,.34-1.2.48c-.21.14-1.37,1.41-1.51,1.65-.14.24-1.3,2.02-1.37,2.13-.07.1-.96,1.58-1.13,1.85-.17.27-.86,1.34-.86,1.34-.23.18-.23.92-.28,1.19-.04.27-.41.6-.78.64-.37.05-.27,0-.23-.23.04-.23-.5-.18-.87-.18s-.92.46-1.19.6c-.28.14-1.92.87-2.33,1.01-.41.14-1.42.82-1.83,1.1-.41.27-1.56,1.1-1.88,1.14-.32.05-2.01.28-2.56.28s-2.75.78-3.07.78-1.28-.32-1.65-.5c-.37-.18-1.46-.41-1.74-.64-.27-.23-1.69-1.6-1.83-1.74-.14-.14.05-.96.18-1.65.14-.69-.6-1.6-.92-1.92-.32-.32-.55-.73-.69-1.01-.14-.27-.28-1.1-.46-1.56-.18-.46-1.19-.6-1.51-.6s-.32-.27-.41-.5c-.09-.23-.18-.5-.41-.82-.23-.32-.78-.64-1.01-.73-.23-.09-3.07-.69-3.48-.78-.41-.09-1.74-.5-2.15-.59-.41-.09-2.2,0-2.75.04-.55.05-2.7.46-3.2.6-.5.14-2.33-.05-2.65-.09-.32-.05-.5-.64-.69-.92-.18-.27-1.65-.27-1.92-.32-.27-.05-1.83-.37-2.2-.46-.37-.09-.73-.32-.78-.59-.05-.27-.46-.37-.64-.37s-1.69-.18-1.88-.18-.64-.23-.78-.5c-.14-.28-1.37-.55-1.69-.73,0,0-1.28-.18-1.56-.27-.28-.09-1.6-1.19-1.88-1.37-.28-.18-.69,0-1.05.09-.37.09-1.97,0-2.24.05-.27.04-1.6,0-1.88-.05-.27-.04-2.29-.91-2.52-1.05-.23-.14-1.65-.18-1.97-.23-.32-.05-1.97-1.05-2.38-1.19-.41-.14-1.51-.27-1.74-.23-.23.05-.82-.18-.96-.37-.14-.18.05-.69.18-.92.14-.23.73-.23.96-.46.23-.23.69-1.51.73-1.83.04-.32,0-2.06,0-2.52s-.41-1.88-.64-2.29c-.23-.41-1.51-1.24-1.92-1.46-.41-.23-1.28-.92-1.46-1.05-.18-.14-.23-.27-.18-.41.04-.14-.5-.14-.73-.14h-.78c-.18,0-.46-.27-.69-.46-.23-.18-1.1-.18-1.33-.18s-1.51-.69-1.74-.78c-.23-.09-.64-.32-.78-.55-.14-.23-1.69-1.05-1.92-1.19-.23-.14.5-.32.5-.32l-.87-4.12,1.28-.69,1.05,1.6.37-.14.23-.46s-.46-.73-.69-1.1c-.23-.37-.46-1.24-.46-1.24l-1.88.64-.28-.41-.18-.69,2.06-.78s-.04-1.33-.04-1.65-.28-1.05-.46-1.78c-.18-.73-1.33-2.11-1.51-2.29s-1.37-1.24-1.46-1.37c-.09-.14-.23-.5-.23-.69s-.5-1.24-.6-1.46c-.09-.23-.23-1.69-.23-2.01s-1.05-1.46-1.24-1.74c-.18-.27.18-2.06.18-2.33s-.5-.87-.64-1.1c-.14-.23-.23-2.01-.23-2.33s-.6-.92-.73-1.24c-.14-.32.14-1.92.14-2.38s.41-3.52.46-3.84c.05-.32.41-1.88.41-2.24s-.28-1.79-.32-2.11c-.05-.32.09-1.78.23-2.43.14-.64,0-1.83-.14-2.2-.14-.37-.32-.82-.37-1.1-.05-.28.18-1.1.28-1.28.09-.18.32-1.1.27-1.51-.05-.41-.78-1.46-1.1-1.74-.32-.27-.37-.92-.37-1.24s0-.46.14-.69.14-.69.18-1.14c.05-.46.14-1.33.28-1.88.14-.55.32-1.74.46-2.2.14-.46-.92-1.37-1.1-1.65-.18-.27-.69-1.65-.69-2.01s-.64-1.33-.87-1.78c-.23-.46-.05-1.42,0-1.74.05-.32.92-1.83,1.1-2.15.18-.32.18-1.42.23-1.69.05-.27.09-2.15.09-2.38s-.41-1.56-.55-1.83c-.14-.27-.23-1.37-.28-1.6-.05-.23-.14-.73-.23-1.1-.09-.37-.32-1.01-.32-1.01,0,0-.46-.6-.46-.82s.37-.32.55-.32.28-.27.37-.73c.09-.46-.23-1.55-.32-1.88-.09-.32-.37-.92-.64-1.1-.28-.18-.14-.37-.14-.37,0,0,.37-.46.55-.73s.05-1.01.05-1.42v-1.01s.09-1.47.09-1.79-.82-1.6-.92-1.97c-.09-.37-.32-1.19-.32-1.42s-.5-1.01-.69-1.19c-.18-.18.37-.37.69-.6s.27-1.23.27-1.46-.5-.78-.73-.92c-.23-.14.41-.69.64-.87.23-.18,0-1.01-.09-1.23-.09-.23-.28-1.37-.18-1.74.09-.37,0-.87.04-1.33.05-.46.23-1.97.32-2.29.09-.32.41-1.65.46-2.15.05-.5-.04-1.97-.04-2.2s-.32-1.05-.64-1.42c-.32-.37-.6-1.74-.6-1.97s-.6-1.19-.78-1.6c-.18-.41-.41-2.52-.5-2.79-.09-.27-.09-1.42-.14-1.69-.05-.27-.87-1.01-1.1-1.33-.23-.32-.5-1.6-.5-2.01s.23-2.38.27-2.7c.05-.32.41-1.19.41-1.69s-.09-1.92-.23-2.24c-.14-.32-.27-2.52-.37-2.93-.09-.41-.14-2.79-.14-3.02s.18-2.06.18-2.24,1.1-1.65,1.37-1.88c.28-.23.64-1.05.69-1.24.05-.18.41-.55.6-.69.18-.14.59-1.01.73-1.24.14-.23,2.11-2.06,2.38-2.29.27-.23.46-1.05.46-1.23s.73-1.69.87-1.92c.14-.23.82-1.51.96-1.69.14-.18.82-.32,1.19-.37.37-.05.69-.78.73-1.01.05-.23.73-.27,1.14-.23.41.05.96-.18,1.28-.41.32-.23,1.33-1.42,1.51-1.6s1.83-.46,2.29-.46,1.1-.05,1.24-.09c.14-.05.5-.46.73-.69.23-.23.64-.14,1.05.18.41.32.92.05,1.28,0,.37-.04,1.19-.5,1.28-.64.09-.14.96-.14,1.33-.14s.55.41,1.01.78c0,0,.52.27.82.38.29.11,1.1.58,1.31.73.22.15,1.43.91,1.72,1.24.29.33.51.51.69.55.18.04.58.22.84.48.26.26.84.84,1.02.77.18-.07.62-.26.8-.22.18.04.55.4.51.66-.04.26-.11.77-.04.88.07.11,1.06.66,1.24.88.18.22.73.99.84,1.17.11.18.88,1.06,1.13,1.24.26.18,1.28,1.06,1.46,1.28.18.22,1.17.91,1.24,1.06.07.15.77.77.88.99,0,0,.62.66.8.88.18.22.84.58,1.06.73.22.15.55.51.84.58.29.07,1.68.22,1.94.26.26.04.84.37,1.02.59.18.22,1.28,1.24,1.28,1.61s-.04,1.13-.26,1.21c-.22.07-.55.48-.58.58-.04.11-.04.37.22.4.26.04,1.31.29,1.39.44.07.15.07.58.04.73-.04.15-.04.37.07.51.11.15.44.66.4.84-.04.18-.55.4-.73.4s-1.17-.18-1.28.04c-.11.22-.22.69-.04.84.18.15.91.66,1.13.73.22.07,1.46.48,1.57.66.11.18.26.73.26,1.06s.22.66.22.66c0,0,0,.62-.07.88-.07.26.26.8.4,1.02.15.22.77.95.88,1.13.11.18.69,1.06.91,1.28.22.22.95,1.1.95,1.5s.18,1.94.07,2.45c-.11.51.07,1.94.15,2.16.07.22.88,2.23,1.13,2.52.26.29,1.24,2.48,1.35,2.7.11.22.69,1.02.91,1.21.22.18.88,1.1,1.06,1.5.18.4.95,1.75,1.02,2.05.07.29.8,2.05.88,2.23.06.15.79,1.54,1.19,2.29,0,0,.25.83-.02,1.11-.28.27-.76.41-.89.62-.14.21-.69.69-.21.76.48.07,1.24-.14,1.44-.14s.89.21,1.17.48c.27.27.97.99.97.99Z"/><g class="cls-28"><g class="cls-17"><path class="cls-5" d="m170.92,429.4c.19-.31.43-.5.72-.58,3.82-1.2,7.8-1.88,11.96-2.02,11.58-.45,21.36,3.19,29.34,10.93,7.9,7.67,11.68,17.17,11.32,28.5-.05,4.13-.68,8.07-1.88,11.83-.12.29-.32.51-.61.68-.28.19-.57.25-.89.19-.32-.13-.55-.31-.68-.55-.15-.28-.17-.57-.05-.89,1.14-3.54,1.73-7.24,1.75-11.08v-.05c.34-10.7-3.22-19.66-10.67-26.89-7.52-7.3-16.75-10.74-27.69-10.34-3.91.12-7.66.76-11.26,1.91-.34.08-.65.07-.91-.04-.28-.16-.48-.39-.6-.69-.06-.31,0-.61.16-.9"/></g></g><g class="cls-29"><g class="cls-16"><path class="cls-5" d="m173.39,441.08c-.33.08-.61.05-.86-.1-.3-.11-.49-.32-.57-.64-.08-.33-.04-.63.11-.9.17-.27.42-.46.74-.58,2.95-.96,6.04-1.48,9.29-1.57l-.03-.03c8.96-.35,16.55,2.49,22.75,8.5,6.13,5.95,9.06,13.3,8.8,22.06l-.03.03c0,3.23-.49,6.3-1.46,9.2-.1.32-.29.56-.59.71-.27.15-.57.2-.89.14-.32-.07-.55-.26-.68-.55-.15-.26-.18-.55-.08-.87.89-2.71,1.34-5.53,1.35-8.46v-.05c.24-8.14-2.47-14.97-8.15-20.48-5.75-5.58-12.78-8.21-21.1-7.9-2.98.1-5.85.6-8.61,1.49"/></g></g><g class="cls-31"><g class="cls-22"><path class="cls-5" d="m174.35,448.56c.15-.3.39-.51.72-.61,2.1-.64,4.28-1.03,6.54-1.15l.03-.03c6.35-.25,11.71,1.76,16.1,6.01,4.32,4.19,6.38,9.4,6.2,15.63-.09,2.29-.45,4.45-1.08,6.5-.12.3-.32.53-.61.68-.29.17-.59.22-.89.17-.32-.09-.55-.27-.68-.53-.13-.29-.16-.59-.08-.89.57-1.85.89-3.8.95-5.86.17-5.56-1.68-10.21-5.52-13.96-3.94-3.8-8.75-5.6-14.43-5.4-2.08.1-4.05.45-5.92,1.05-.31.08-.61.06-.91-.07-.3-.13-.48-.35-.54-.66-.08-.31-.04-.6.13-.88"/></g></g><path class="cls-5" d="m190.86,460.4c3.08,2.99,4.54,6.69,4.37,11.11-.01,1.6-.27,3.12-.78,4.56-.08.3-.27.53-.56.68-.31.19-.62.24-.95.17-.28-.09-.5-.28-.65-.55-.13-.29-.16-.59-.08-.89.43-1.25.65-2.54.65-3.87v-.03c.13-3.77-1.12-6.92-3.75-9.47-2.66-2.59-5.91-3.79-9.75-3.63-1.38.02-2.71.24-4,.66-.33.1-.64.07-.94-.1-.28-.15-.46-.37-.55-.66-.06-.3-.02-.59.13-.88.19-.31.44-.5.74-.58,1.5-.46,3.05-.71,4.64-.73l.03-.03c4.5-.19,8.31,1.22,11.43,4.25"/><path class="cls-14" d="m179.69,472.86c-.56-.58-1.5-.57-2.12.02l2.03,2.11c.6-.61.65-1.55.09-2.13"/><path class="cls-14" d="m172.28,483.14c1.84,1.37,3.92,2.08,5.8,2.04,1.52-.03,2.92-.53,3.96-1.55,1.15-1.12-.45-4.12-2.89-7.01l-2.92-3.03c-2.22-2.02-4.51-3.51-5.94-3.49-.37,0-.69.12-.93.35-2.72,2.64-2.08,7.74,1.42,11.38.24.26.5.49.76.72"/><path class="cls-14" d="m343.23,454.25l-20.11-5.59s-.03,0-.05,0c-.02,0-.03-.01-.04-.01-1.24-.28-2.3-1.07-2.97-2.21-.69-1.17-.9-2.58-.59-3.96.64-2.81,3.28-4.61,5.88-4.02,2.6.59,4.2,3.36,3.56,6.17-.24,1.08.43,2.15,1.51,2.39,1.08.25,2.15-.43,2.39-1.51,1.13-4.96-1.82-9.87-6.57-10.96-4.76-1.08-9.54,2.07-10.67,7.03-.54,2.38-.17,4.83,1.05,6.89,1.22,2.06,3.14,3.48,5.41,4.03,0,0,.02,0,.03,0l20.11,5.59c.18.05.36.07.54.07.88,0,1.68-.58,1.93-1.47.29-1.06-.33-2.17-1.39-2.46"/><path class="cls-14" d="m316.13,465.44l-20.01-4.56h0c-4.75-1.08-9.54,2.07-10.67,7.03-1.13,4.96,1.82,9.87,6.57,10.95.63.14,1.27.21,1.9.21,1.7,0,3.36-.51,4.84-1.49,1.99-1.33,3.39-3.37,3.93-5.75.25-1.08-.43-2.15-1.51-2.39-1.08-.25-2.15.43-2.39,1.51-.31,1.38-1.11,2.56-2.25,3.31-1.1.74-2.39.99-3.63.7-2.6-.59-4.2-3.36-3.56-6.17.64-2.81,3.27-4.61,5.88-4.02l20.01,4.56c.15.04.3.05.45.05.91,0,1.74-.63,1.95-1.55.24-1.08-.43-2.15-1.51-2.4"/><path class="cls-14" d="m325.24,458.5l-31.63-6.88h0c-4.81-1.1-7.77-6.17-6.6-11.3,1.17-5.14,6.03-8.43,10.84-7.33,2.31.53,4.27,1.98,5.52,4.09,1.27,2.14,1.65,4.71,1.08,7.22-.24,1.08.43,2.15,1.51,2.39,1.07.24,2.15-.43,2.39-1.51.8-3.51.25-7.11-1.54-10.14-1.81-3.07-4.68-5.18-8.07-5.95-6.96-1.59-13.97,3.06-15.63,10.35-1.66,7.29,2.65,14.51,9.61,16.09h0s0,0,.01,0l31.64,6.88c.14.03.29.05.43.05.92,0,1.75-.64,1.95-1.57.23-1.08-.45-2.15-1.53-2.38"/><path class="cls-14" d="m407.64,414.72c-8.01,9.84-17.33,18.43-27.74,25.65l-4.14-5.65-7.47,16.92,18.39-1.99-4.37-5.98c10.69-7.43,20.26-16.25,28.5-26.37.71-.88.58-2.16-.3-2.87-.88-.71-2.16-.58-2.87.29"/><path class="cls-14" d="m270.74,454.03c-11.82-3.65-23.01-8.86-33.31-15.47l4.4-5.72-18.33-2.43,7.06,17.09,4.38-5.69c10.72,6.91,22.33,12.33,34.61,16.12.17.05.35.08.52.09.9.03,1.75-.54,2.03-1.44.33-1.08-.27-2.22-1.35-2.55"/><path class="cls-14" d="m193.63,391.22l6.21-2.94-15.21-10.53-1.51,18.43,6.81-3.22c5.69,10.42,12.75,20.04,21.08,28.68.41.43.97.64,1.52.62.49-.01.98-.2,1.37-.57.81-.78.83-2.07.05-2.89-8.02-8.32-14.83-17.57-20.33-27.59"/><path class="cls-14" d="m203.46,242.38c-8.64,10.35-15.69,21.82-20.97,34.19-.44,1.04.04,2.24,1.08,2.68.28.12.58.17.87.16.77-.02,1.49-.49,1.81-1.24,5.16-12.09,12.06-23.29,20.53-33.4l5.7,4.12,1.89-18.4-16.88,7.57,5.98,4.32Z"/><path class="cls-14" d="m269.53,195.56c-4.32,1.39-8.62,2.97-12.81,4.76-8.49,3.61-16.64,8.07-24.22,13.25-.93.63-1.17,1.91-.54,2.84.41.6,1.08.91,1.76.89.37-.01.75-.13,1.08-.35,7.36-5.03,15.28-9.35,23.52-12.86,4.01-1.71,8.12-3.23,12.26-4.56l1.76,6.69,13.13-13.03-17.85-4.86,1.91,7.24Z"/><path class="cls-14" d="m350.13,196.44c-14.08-4.27-28.7-6.3-43.48-6.04-1.13.02-2.03.95-2.01,2.08.02,1.13.96,2.07,2.08,2.01,14.29-.24,28.4,1.71,42,5.8l-2.41,6.6,18.22-3.18-11.87-14.19-2.53,6.93Z"/><path class="cls-14" d="m443.76,307.79c-2.08-12.95-5.94-25.37-11.55-37.04-.49-1.02-1.71-1.45-2.72-.96-1.02.49-1.45,1.71-.96,2.72,5.37,11.17,9.1,23.07,11.13,35.47l-7.61.38,10.04,15.54,8.43-16.46-6.76.34Z"/><path class="cls-13" d="m440.69,368.02c-2.73.69-5.46.21-7.66-1.12-2.21-1.33-3.89-3.52-4.53-6.25-.64-2.73-.11-5.47,1.25-7.71,1.37-2.24,3.58-3.97,6.3-4.66,2.73-.69,5.45-.21,7.66,1.12,2.21,1.33,3.89,3.52,4.53,6.24.64,2.73.12,5.47-1.25,7.71-1.37,2.24-3.58,3.97-6.3,4.66"/><path class="cls-11" d="m429.35,400.09c-2.35.41-4.77-.06-6.7-1.22-1.93-1.16-3.52-3.05-4.19-5.3-.68-2.27-.76-4.66.62-6.99,1.27-2.13,3.33-3.73,5.85-4.37,2.52-.64,5.07-.21,7.16,1.04,2.1,1.24,3.69,3.27,4.31,5.78.62,2.51.17,5.07-1.1,7.2-1.35,2.27-3.56,3.45-5.95,3.86"/><path class="cls-12" d="m414.97,424.61c-1.96.13-4.09-.33-5.75-1.32-1.66-.99-3.16-2.58-3.86-4.35-.72-1.82-1.4-3.85,0-6.26,1.17-2.02,3.09-3.5,5.4-4.09,2.31-.59,4.68-.2,6.67.95,1.99,1.15,3.48,3.02,4.09,5.32.6,2.29.23,4.66-.95,6.68-1.33,2.29-3.53,2.93-5.59,3.07"/><g class="cls-29"><g class="cls-21"><path class="cls-13" d="m402.39,449.78c-1.55-.13-3.41-.61-4.79-1.42-1.39-.81-2.8-2.12-3.52-3.41-.77-1.38-2.04-3.04-.64-5.53,1.08-1.91,2.84-3.26,4.94-3.8,2.1-.54,4.3-.2,6.17.86,1.88,1.07,3.28,2.78,3.86,4.85.58,2.08.28,4.26-.8,6.17-1.31,2.32-3.47,2.42-5.23,2.27"/></g></g><g class="cls-30"><g class="cls-19"><path class="cls-13" d="m392.82,467.73c-1.13-.36-2.72-.88-3.83-1.52-1.11-.64-2.48-1.66-3.18-2.46-.85-.95-2.68-2.23-1.27-4.81.99-1.8,2.6-3.03,4.49-3.52,1.89-.49,3.91-.2,5.67.78,1.77.98,3.07,2.53,3.64,4.39.57,1.86.35,3.86-.64,5.66-1.29,2.35-3.4,1.95-4.88,1.48"/></g></g><path class="cls-13" d="m462.92,386.32c-2.35.41-4.77-.06-6.7-1.22-1.93-1.16-3.52-3.05-4.19-5.3-.68-2.27-.76-4.66.62-6.99,1.27-2.13,3.33-3.73,5.85-4.37,2.52-.64,5.07-.21,7.16,1.04,2.1,1.24,3.69,3.27,4.31,5.78.62,2.51.17,5.07-1.1,7.2-1.35,2.27-3.56,3.45-5.95,3.86"/><g class="cls-31"><g class="cls-20"><path class="cls-13" d="m451.51,418.99c-1.96.13-4.09-.33-5.75-1.32-1.66-.99-3.16-2.58-3.86-4.35-.72-1.82-1.4-3.85,0-6.26,1.17-2.02,3.09-3.5,5.4-4.09,2.31-.59,4.68-.2,6.67.95,1.99,1.15,3.48,3.02,4.09,5.32.6,2.29.23,4.66-.95,6.68-1.33,2.29-3.53,2.93-5.59,3.07"/></g></g><g class="cls-32"><g class="cls-23"><path class="cls-13" d="m442.34,441.34c-1.55-.13-3.41-.61-4.79-1.42-1.39-.81-2.8-2.12-3.52-3.41-.77-1.38-2.04-3.04-.64-5.53,1.08-1.91,2.84-3.26,4.94-3.8,2.1-.54,4.3-.2,6.17.86,1.88,1.07,3.28,2.78,3.86,4.85.58,2.08.28,4.26-.8,6.17-1.31,2.32-3.47,2.42-5.23,2.27"/></g></g><line class="cls-13" x1="424.8" y1="463.78" x2="413.64" y2="478.04"/><line class="cls-4" x1="424.8" y1="463.78" x2="413.64" y2="478.04"/><line class="cls-13" x1="421.25" y1="456.77" x2="406.27" y2="459.52"/><line class="cls-4" x1="421.25" y1="456.77" x2="406.27" y2="459.52"/><line class="cls-13" x1="424.06" y1="447.08" x2="415.11" y2="436.33"/><line class="cls-4" x1="424.06" y1="447.08" x2="415.11" y2="436.33"/><line class="cls-13" x1="430.12" y1="446.23" x2="429.38" y2="433.75"/><line class="cls-4" x1="430.12" y1="446.23" x2="429.38" y2="433.75"/><line class="cls-13" x1="433.55" y1="464.93" x2="436.18" y2="479.84"/><line class="cls-4" x1="433.55" y1="464.93" x2="436.18" y2="479.84"/><line class="cls-13" x1="440.06" y1="448.45" x2="454.75" y2="436.3"/><line class="cls-4" x1="440.06" y1="448.45" x2="454.75" y2="436.3"/><line class="cls-13" x1="440.65" y1="456.15" x2="458.53" y2="452.56"/><line class="cls-4" x1="440.65" y1="456.15" x2="458.53" y2="452.56"/><line class="cls-13" x1="439.82" y1="462.49" x2="452.13" y2="474.82"/><line class="cls-4" x1="439.82" y1="462.49" x2="452.13" y2="474.82"/><g class="cls-30"><g class="cls-26"><path class="cls-4" d="m432.78,461c-1.16-.22-2.81-.56-3.98-1.06-1.18-.5-2.65-1.36-3.45-2.07-.95-.85-2.92-1.9-1.82-4.63.77-1.9,2.22-3.31,4.05-4.02,1.82-.71,3.86-.65,5.72.11,1.87.76,3.35,2.15,4.13,3.94.78,1.78.79,3.79.02,5.69-1.39,3.44-8.09,1.38-4.67,2.04Z"/></g></g><path class="cls-13" d="m413.84,364.23c-2.35.41-4.77-.06-6.7-1.22-1.93-1.16-3.52-3.05-4.19-5.3-.68-2.27-.76-4.66.62-6.99,1.27-2.13,3.33-3.73,5.85-4.37,2.52-.64,5.07-.21,7.16,1.04,2.1,1.24,3.69,3.27,4.31,5.78.62,2.51.17,5.07-1.1,7.2-1.35,2.27-3.56,3.45-5.95,3.86"/><path class="cls-13" d="m403.35,390.56c-1.96.13-4.09-.33-5.75-1.32-1.66-.99-3.16-2.58-3.86-4.35-.72-1.82-1.4-3.85,0-6.26,1.17-2.02,3.09-3.5,5.4-4.09,2.31-.59,4.68-.2,6.67.95,1.99,1.15,3.48,3.02,4.09,5.32.6,2.29.23,4.66-.95,6.68-1.33,2.29-3.53,2.93-5.59,3.07"/><path class="cls-12" d="m387.78,419.47c-1.55-.13-3.41-.61-4.79-1.42-1.39-.81-2.8-2.12-3.52-3.41-.77-1.38-2.04-3.04-.64-5.53,1.08-1.91,2.84-3.26,4.94-3.8,2.1-.54,4.3-.2,6.17.86,1.88,1.07,3.28,2.78,3.86,4.85.58,2.08.28,4.26-.8,6.17-1.31,2.32-3.47,2.42-5.23,2.27"/><g class="cls-30"><g class="cls-27"><path class="cls-13" d="m376.4,434.06c-.91-.29-2.2-.71-3.09-1.22-.9-.52-2-1.34-2.57-1.99-.68-.77-2.16-1.8-1.02-3.88.8-1.46,2.1-2.45,3.62-2.84,1.53-.4,3.16-.16,4.58.63,1.43.79,2.48,2.04,2.94,3.55.46,1.5.28,3.11-.52,4.57-1.04,1.9-2.74,1.57-3.94,1.19"/></g></g><line class="cls-13" x1="362.53" y1="449.65" x2="366.72" y2="440.58"/><line class="cls-4" x1="362.53" y1="449.65" x2="366.72" y2="440.58"/><line class="cls-13" x1="366.78" y1="456.49" x2="380.06" y2="456.41"/><line class="cls-4" x1="366.78" y1="456.49" x2="380.06" y2="456.41"/><line class="cls-13" x1="364.57" y1="463.5" x2="371.49" y2="474.44"/><line class="cls-4" x1="364.57" y1="463.5" x2="371.49" y2="474.44"/><line class="cls-13" x1="355.82" y1="463.08" x2="355.26" y2="475.24"/><line class="cls-4" x1="355.82" y1="463.08" x2="355.26" y2="475.24"/><line class="cls-13" x1="357.05" y1="448.64" x2="357.26" y2="436.81"/><line class="cls-4" x1="357.05" y1="448.64" x2="357.26" y2="436.81"/><line class="cls-13" x1="350.78" y1="460.28" x2="338.43" y2="467.84"/><line class="cls-4" x1="350.78" y1="460.28" x2="338.43" y2="467.84"/><line class="cls-13" x1="349.19" y1="451.54" x2="335.56" y2="447.52"/><line class="cls-4" x1="349.19" y1="451.54" x2="335.56" y2="447.52"/><line class="cls-13" x1="351.95" y1="449.22" x2="344.35" y2="437.93"/><line class="cls-4" x1="351.95" y1="449.22" x2="344.35" y2="437.93"/><g class="cls-30"><g class="cls-25"><path class="cls-4" d="m359.11,460.55c-.63-.39-1.76-.82-2.47-1.15-.72-.33-1.89-.83-2.45-1.07-.83-.36-2.83-.96-1.83-3.25.63-1.45,1.76-2.45,3.13-2.92,1.36-.47,2.9-.38,4.32.25,1.42.63,2.51,1.7,3.07,3.03.56,1.32.55,2.83-.08,4.28-.89,2.04-2.66,1.48-3.69.85Z"/></g></g></g><path class="cls-14" d="m211.74,140.59l-6.96,4.35c-3.5-4.52-8.1-5.64-12.98-2.59-3.97,2.48-5.94,6.26-3.47,10.23,2.55,4.09,6.24,4.43,13.72,1.87,10.62-3.66,17.49-2.43,21.87,4.6,4.76,7.64.87,16.52-7.31,21.63-9.65,6.02-18.68,5.29-24.82-2.67l6.96-4.35c4.34,4.51,9.71,4.97,14.66,1.88,4.4-2.75,6.39-7.3,4-11.15-2.74-4.4-6.71-5.06-14.54-2.38-9.18,3.1-16.36,3.42-20.93-3.91-4.64-7.46-.84-16.2,7.04-21.12,9.35-5.83,17.35-3.19,22.78,3.61Z"/><path class="cls-14" d="m267.8,123.05l.28.67-7.51,2.29-.35-.65c-3.27-6-8.44-8.87-15.6-6.69-8.82,2.69-12.08,11.96-8.64,23.19,3.6,11.77,11.48,17.35,19.89,14.79,7.16-2.18,9.8-7.58,9.15-14.38l-.07-.73,7.51-2.29.14.71c1.88,9.59-2.91,18.8-15.3,22.58-13.57,4.14-24.98-3.38-29.4-17.83-4.57-14.94,1.74-27.78,15.1-31.86,12.4-3.78,20.98,1.13,24.81,10.2Z"/><path class="cls-14" d="m330.09,129.14c.14,15.34-8.48,25.94-23.67,26.09-15.26.15-24.07-10.27-24.21-25.61-.14-15.41,8.48-25.94,23.75-26.09,15.19-.15,24,10.2,24.14,25.61Zm-8.5.08c-.11-12.38-5.94-19.74-15.59-19.65-9.72.1-15.41,7.57-15.3,19.96.11,12.31,5.94,19.74,15.66,19.65,9.65-.1,15.34-7.64,15.23-19.96Z"/><path class="cls-14" d="m374.5,166.02l-8.41-2.29c-.4-3.47-.21-6.62.67-12.06.76-5.24-.25-8.95-4.55-10.42-1.16-.39-2.34-.71-3.52-1.04l-7.43-2.02-5.45,20.01-7.64-2.08,13.06-47.94,16.54,4.5c2.57.7,4.31,1.17,6.52,2.07,6.7,2.8,10.91,7.9,8.68,16.1-1.7,6.25-6.53,8.89-12.02,9.04,3.8,3.05,4.47,7.71,3.59,12.84-1.09,6.2-1.26,10.1-.03,13.27Zm-13.64-31.55c1.95.53,3.13.85,4.35,1.03,4.28.72,8.05-.79,9.43-5.86,1.38-5.07-.62-7.86-4.57-9.53-1.19-.55-2.43-.96-4.37-1.49l-8.48-2.31-4.35,15.98,7.99,2.18Z"/><path class="cls-14" d="m410.83,186.53l-29.89-16.92,24.43-43.26,29.26,16.57-3.08,5.46-22.37-12.66-7.58,13.42,20.62,11.67-3.08,5.45-20.62-11.67-7.58,13.42,23,13.02-3.12,5.52Z"/><g class="cls-24"><path class="cls-14" d="m198.09,688.24h-11.02c-1.64-4.11-2.46-8.03-3.19-14.97-.82-6.67-3.28-10.87-9.01-11.23-1.55-.09-3.1-.09-4.64-.09h-9.74v26.29h-10.02v-63h21.67c3.37,0,5.65,0,8.65.37,9.1,1.19,15.93,6.03,15.93,16.8,0,8.22-5.01,13.06-11.65,15.07,5.64,2.47,8.01,7.94,8.65,14.52.73,7.94,1.82,12.78,4.37,16.25m-27.13-34.06c2.55,0,4.1,0,5.64-.18,5.46-.55,9.56-3.65,9.56-10.32s-3.37-9.4-8.74-10.13c-1.64-.28-3.28-.37-5.83-.37h-11.11v21h10.47Z"/><path class="cls-14" d="m267.2,645.95l.09.88h-9.92l-.18-.88c-1.73-8.16-6.92-13.34-16.39-13.34-11.65,0-19.03,9.65-19.03,23.96,0,15,7.47,24.3,18.57,24.3,9.47,0,14.66-5.35,16.39-13.51l.18-.88h9.92l-.09.88c-1.27,11.85-10.47,20.88-26.86,20.88-17.94,0-28.95-12.81-28.95-31.24s12.38-31.76,30.05-31.76c16.39,0,24.95,8.78,26.22,20.71"/><polygon class="cls-14" points="329.83 688.24 286.4 688.24 286.4 625.24 328.92 625.24 328.92 633.19 296.42 633.19 296.42 652.72 326.37 652.72 326.37 660.67 296.42 660.67 296.42 680.21 329.83 680.21 329.83 688.24"/><path class="cls-14" d="m134.29,656.91c0-18.98-12.38-31.67-30.05-31.67-16.39,0-24.95,8.75-26.22,20.64l-.09.88h9.92l.18-.88c1.73-8.14,6.92-13.3,16.39-13.3,11.65,0,19.03,9.62,19.03,23.88,0,14.96-7.46,24.23-18.57,24.23l-66.2.02-10.07,7.52h76.43c17.76-.16,29.24-13.07,29.24-31.33"/><path class="cls-14" d="m390.01,643.67h-10.38c-.73-6.93-4.92-11.06-12.2-11.06-5.92,0-10.56,2.63-10.56,8.34s3.73,8.6,13.48,10.79c13.84,3.07,20.39,8.77,20.39,18.87,0,10.97-10.11,17.64-22.31,17.64-14.39,0-23.58-6.58-24.86-18.78h10.38c1.64,7.46,7.1,11.41,14.48,11.41,6.56,0,11.75-3.42,11.75-8.95,0-6.32-3.83-9.56-14.02-11.85-11.93-2.72-19.85-7.02-19.85-17.55s9.92-17.28,21.67-17.28c13.93,0,20.76,7.9,22.03,18.42"/><polygon class="cls-14" points="434.71 633.19 434.71 688.24 424.79 688.24 424.79 633.19 402.84 633.19 402.84 625.24 456.65 625.24 456.65 633.19 434.71 633.19"/><path class="cls-14" d="m519.47,688.24h-11.02c-1.64-4.11-2.46-8.03-3.19-14.97-.82-6.67-3.28-10.87-9.01-11.23-1.55-.09-3.1-.09-4.64-.09h-9.74v26.29h-10.02v-63h21.67c3.37,0,5.65,0,8.65.37,9.11,1.19,15.93,6.03,15.93,16.8,0,8.22-5.01,13.06-11.65,15.07,5.64,2.47,8.01,7.94,8.65,14.52.73,7.94,1.82,12.78,4.37,16.25m-27.13-34.06c2.55,0,4.1,0,5.64-.18,5.46-.55,9.56-3.65,9.56-10.32s-3.37-9.4-8.74-10.13c-1.64-.28-3.28-.37-5.83-.37h-11.11v21h10.47Z"/><path class="cls-14" d="m547.42,667.42l-6.83,20.82h-10.65l22.58-63h12.93l21.94,63h-10.83l-6.83-20.82h-22.31Zm19.67-7.94l-8.29-25.93-8.74,25.93h17.03Z"/></g></g></g></g></svg>