<?xml version="1.0" encoding="UTF-8"?><svg xmlns="http://www.w3.org/2000/svg" xmlns:xlink="http://www.w3.org/1999/xlink" viewBox="0 0 619 730"><defs><style>.cls-1{stroke-linecap:round;stroke-width:3.7px;}.cls-1,.cls-2,.cls-3,.cls-4{fill:none;}.cls-1,.cls-3{stroke:#00267f;}.cls-1,.cls-3,.cls-4{stroke-miterlimit:10;}.cls-5{clip-path:url(#clippath);}.cls-2,.cls-6,.cls-7,.cls-8,.cls-9,.cls-10,.cls-11,.cls-12,.cls-13{stroke-width:0px;}.cls-14{mask:url(#mask);}.cls-15{filter:url(#luminosity-invert);}.cls-16{clip-path:url(#clippath-1);}.cls-17{clip-path:url(#clippath-4);}.cls-18{clip-path:url(#clippath-3);}.cls-19{clip-path:url(#clippath-2);}.cls-3{stroke-width:4px;}.cls-20{isolation:isolate;}.cls-4{stroke:#6d88bc;stroke-width:.93px;}.cls-7{fill:#6d88bc;}.cls-8{fill:#d3ddef;}.cls-9{fill:#a3b4d8;}.cls-10{fill:#fff;}.cls-11{fill:#e4ebf7;}.cls-12{fill:#ffc726;}.cls-13{fill:#00267f;}</style><clipPath id="clippath"><rect class="cls-2" x="-34.54" y="-14.22" width="679.41" height="780"/></clipPath><clipPath id="clippath-1"><rect class="cls-2" x="-34.54" y="-14.22" width="679.41" height="780"/></clipPath><clipPath id="clippath-2"><rect class="cls-2" x="-34.54" y="-14.22" width="679.41" height="780"/></clipPath><clipPath id="clippath-3"><rect class="cls-2" x="-34.54" y="-14.22" width="679.41" height="780"/></clipPath><filter id="luminosity-invert" x="117.9" y="236.9" width="390.49" height="388.9" color-interpolation-filters="sRGB" filterUnits="userSpaceOnUse"><feColorMatrix result="cm" values="-1 0 0 0 1 0 -1 0 0 1 0 0 -1 0 1 0 0 0 1 0"/></filter><mask id="mask" x="117.9" y="236.9" width="390.49" height="388.9" maskUnits="userSpaceOnUse"><g class="cls-15"><g class="cls-20"><path class="cls-6" d="m508.39,431.35c0,107.39-87.41,194.45-195.24,194.45s-195.25-87.06-195.25-194.45,87.42-194.45,195.25-194.45,195.24,87.06,195.24,194.45"/></g></g></mask><clipPath id="clippath-4"><rect class="cls-2" x="233.83" y="520.61" width="101.2" height="5.64"/></clipPath></defs><g id="Ebene_2"><rect class="cls-10" x="0" width="618.87" height="729.32"/></g><g id="Ebene_1"><g class="cls-5"><g class="cls-16"><g class="cls-19"><path class="cls-13" d="m198.17,687.14h-11.02c-1.64-4.11-2.46-8.03-3.19-14.97-.82-6.67-3.28-10.87-9.01-11.23-1.55-.09-3.1-.09-4.64-.09h-9.74v26.29h-10.02v-63h21.67c3.37,0,5.65,0,8.65.37,9.1,1.19,15.93,6.03,15.93,16.8,0,8.22-5.01,13.06-11.65,15.07,5.64,2.47,8.01,7.94,8.65,14.52.73,7.94,1.82,12.78,4.37,16.25m-27.13-34.06c2.55,0,4.1,0,5.64-.18,5.46-.55,9.56-3.65,9.56-10.32s-3.37-9.4-8.74-10.13c-1.64-.27-3.28-.37-5.83-.37h-11.11v21h10.47Z"/><path class="cls-13" d="m267.28,644.84l.09.88h-9.92l-.18-.88c-1.73-8.16-6.92-13.34-16.39-13.34-11.65,0-19.03,9.65-19.03,23.96,0,15,7.47,24.3,18.57,24.3,9.47,0,14.66-5.35,16.39-13.51l.18-.88h9.92l-.09.88c-1.27,11.85-10.47,20.88-26.86,20.88-17.94,0-28.95-12.81-28.95-31.24s12.38-31.76,30.05-31.76c16.39,0,24.95,8.77,26.22,20.71"/><polygon class="cls-13" points="329.91 687.14 286.48 687.14 286.48 624.14 329 624.14 329 632.08 296.5 632.08 296.5 651.62 326.45 651.62 326.45 659.56 296.5 659.56 296.5 679.1 329.91 679.1 329.91 687.14"/><path class="cls-13" d="m134.37,655.8c0-18.98-12.38-31.67-30.05-31.67-16.39,0-24.95,8.75-26.22,20.64l-.09.88h9.92l.18-.88c1.73-8.14,6.92-13.3,16.39-13.3,11.65,0,19.03,9.62,19.03,23.88,0,14.96-7.46,24.23-18.57,24.23l-66.2.02-10.07,7.52h76.43c17.76-.16,29.24-13.07,29.24-31.33"/><path class="cls-13" d="m390.09,642.56h-10.38c-.73-6.93-4.92-11.05-12.2-11.05-5.92,0-10.56,2.63-10.56,8.34s3.73,8.6,13.48,10.79c13.84,3.07,20.39,8.77,20.39,18.87,0,10.97-10.11,17.64-22.31,17.64-14.39,0-23.58-6.58-24.86-18.78h10.38c1.64,7.46,7.1,11.41,14.48,11.41,6.55,0,11.74-3.42,11.74-8.95,0-6.32-3.83-9.57-14.02-11.85-11.93-2.72-19.85-7.02-19.85-17.55s9.92-17.28,21.67-17.28c13.93,0,20.76,7.9,22.03,18.42"/><polygon class="cls-13" points="434.79 632.08 434.79 687.14 424.87 687.14 424.87 632.08 402.93 632.08 402.93 624.14 456.74 624.14 456.74 632.08 434.79 632.08"/><path class="cls-13" d="m519.55,687.14h-11.02c-1.64-4.11-2.46-8.03-3.19-14.97-.82-6.67-3.28-10.87-9.01-11.23-1.55-.09-3.1-.09-4.64-.09h-9.74v26.29h-10.02v-63h21.67c3.37,0,5.65,0,8.65.37,9.11,1.19,15.93,6.03,15.93,16.8,0,8.22-5.01,13.06-11.65,15.07,5.65,2.47,8.01,7.94,8.65,14.52.73,7.94,1.82,12.78,4.37,16.25m-27.13-34.06c2.55,0,4.1,0,5.64-.18,5.46-.55,9.56-3.65,9.56-10.32s-3.37-9.4-8.74-10.13c-1.64-.27-3.28-.37-5.83-.37h-11.11v21h10.47Z"/><path class="cls-13" d="m547.5,666.32l-6.83,20.82h-10.65l22.58-63h12.93l21.94,63h-10.83l-6.83-20.82h-22.31Zm19.67-7.94l-8.29-25.93-8.74,25.93h17.03Z"/></g><g class="cls-18"><path class="cls-10" d="m558.05,308.73c-9.86-139.07-130.6-243.82-269.67-233.96C149.3,84.63,44.55,205.37,54.41,344.44c4.44,62.56,31.32,118.17,72.2,159.53,1.58,1.3,3.07,2.71,4.27,4.22,49.73,47.98,118.84,75.48,193.2,70.21,139.07-9.86,243.82-130.6,233.96-269.67"/><rect class="cls-12" x="416.86" y="273.93" width="5" height="234.11"/><rect class="cls-12" x="367.36" y="292.73" width="6" height="215.31"/><rect class="cls-12" x="305.86" y="311.81" width="7" height="196.24" transform="translate(-4.16 3.17) rotate(-.58)"/><rect class="cls-12" x="233.36" y="327.82" width="8" height="180.23"/><path class="cls-13" d="m345.46,477.76l-.28-.07h-.5v1.08h-1.68v1.71h-.23v1.07h.65v2.3h-4.39s-.09-3.47-.09-3.47h0s-.01-.01-.01-.01l-.54-.51h0l-.93-.88h-.01l-2.59-2.44h-.81l3.34,2.62-5.09-4-.21-.5-.27-.62-2.44.04h.02s-.17-.58-.17-.58l-.16-.61-.02-.19-.79-9.64.99-.34-.33-5.56-.95-.11v-2.06h-.71v1.98l-.72-.1v-1.89l-.66-.02v1.85l-.71-.08v-1.81h-.58v1.74l-1.08-.12-.37,6.47.67.2-.57,8-1.44-.04.13-.65h0,0l.8-.41-.03-.41.04-.11-.6-.8-10.61.45-.06-7.76c.68-.08,1.21-.75,1.21-1.57,0-.88-.6-1.59-1.33-1.59s-1.33.71-1.33,1.59c0,.83.53,1.5,1.21,1.57h-.04s.07,7.77.07,7.77h-.07s.03.65.03.65l-.11-1.05-1.83-.72.08-1.66h.12s.21-1.02.21-1.02l-1.47.1v-9.57h.2v.63h.27v-3.76h-.27v.42h-.2v-1.19h.2v.29h.27v-.25h.17v-.72h-.17v-.33h-.27v.29h-.2v-5.1h.2v.57h.27v-2.35h-.27v.24h-.2v-1.7h-.46v-.54h-.36v-11.47c.13-.05.22-.18.22-.34,0-.2-.15-.37-.33-.37s-.33.16-.33.37c0,.14.07.26.18.33v11.49h-.43v.54h-.66v3.78h-.17v.46h.17v.09s.1,0,.14,0c.05,0,.1,0,.15,0v-.09h.93v.51s.09.09.13.13v-1.34h.53l-.47,1.4s.05.06.07.1l.4-1.19v1.42h-.26c.05.09.09.19.12.29h.1l-.05.18c.02.07.03.15.04.22l.05-.16v1.48h-.36c-.09.13-.18.24-.3.34v5.54h-.93v-5.77c-.05,0-.1,0-.15,0-.05,0-.1,0-.14,0v5.77h-.17v.46h.17v.54s.1,0,.14,0c.05,0,.1,0,.15.01v-.54h.93v1.85c.05.07.1.14.13.22v-.05h.48l-.48,1.51v-.06c-.04.08-.08.15-.13.22v5.28l-.93.06v-4.03c-.05,0-.1,0-.15,0-.05,0-.1,0-.14,0v4.05l-1.25.08-1.6.41-4.4-.6-.89.6.68.2-.09,1.15-2.03,1.08.02.02h-.02l-1.14,1.85h.99s.48,2.82.48,2.82v1.2s-2.95-.03-2.95-.03l-3.58,2.65h-.07s-.08,1.76-.08,1.76v-.72s-.97.01-.97.01c.01-.03.03-.05.03-.09,0-.12-.09-.21-.19-.21h-.94c-.11,0-.19.09-.19.21,0,.04.02.07.04.1l-2.42.03s.05-.08.05-.14c0-.12-.09-.21-.19-.21h-.94c-.11,0-.19.09-.19.21,0,.06.03.12.07.15l-1.89.03-4.89,3.3-.53.4-.11,3.71c-.07,0-.26-2.23-.54-2.24l-.09-2c.96-.09,1.64-.31,1.64-.56,0-.2-.43-.39-1.09-.49l-.17-4.37-.35-.4.04-.57.03-.35h0v-.03s-.85,0-.85,0v1.24l-2.89-.5s-2.48-.5-4.62-.69c-.39-.03-.8-.06-1.19-.09-.57-.05-1.14-.09-1.69-.12-.17-.01-.34-.02-.51-.03-1.26-.08-2.38-.13-3.17-.13h-.01s0,0,0,0c-.02,0-.09-.09-.19-.2-.01-.02-.03-.04-.04-.05l-.21-6.89.41-.33-.02-1.21s-.07.03-.1.05c.04-.03.09-.05.11-.09-.12-.31-.83-.34-.99.03.04.04.08.06.13.09-.04-.02-.08-.04-.13-.07l.03,1.24.29.27.14,6.71s-.08-.02-.13-.03c-.16-.05-.32-.07-.45-.03-.08,0-.12.03-.11.07,0,.01-.02.02-.03.03-.06.26-.2.79-.2.79,0,0,0,0-.01,0h0s-.64-.05-.64-.05c-.3-.02-.6-.05-.69-.05h-.01c-.19,0-.07.5-.07.5l2.35.13.08,3.91c-.08-.14-.21-.23-.21-.31v-.83c0-.23-.44-.29-.42,0,.01.3.03.52.07.72.03.16.11.33.26.47.15.14.17.25.15.33l-.23.08c-.18-.14-.27-.21-.24-.15.03.06.07.13.11.2l-8.82,3.11h0,0s.04.25.04.25l.2.26h0c-.04.06-.06.08-.1.14v.6s0,.17,0,.17c-.07,0-.13.01-.2.02v-.06s-.94.13-.94.13v.06c-1.04.15-1.93.31-2.56.49-.38.11-.34.33-.1.7.02.04,1.42,1.92,1.42,1.92h.02c1.17,1.53,2.43,1.55,5.07,5.79,2.26,3.63,1.4,9.67,1.44,10.71-.02.06,21.69,2.24,44.32,2.51,10.43.13,22.52.8,29.59.67,4.96-.09,10.69-.33,13.99-.5,16.14-.83,29.06-.95,29.06-.95,0,0,4.03-.64,6.01-.74,1.73-.09,8.28.02,10.14-1.33.98-.72,1.03-12.06,1.03-12.06,0,0-.04,0-.11,0l-1.24-.59s-.05-.49-.37-.76c-.23-.19-.93-.2-.75-.15l-.05.15-.17-.03,1.83-1.72-.2-.31-1.31-1.02-.68.56.58.7-1.88,1.49h0,0l-1.9-2.29.83-.8h.54l.43-.52-.14-.47-1.35-.78-1.25.91-3.78-10.26-.46.24.88-.46v-.52l-4.89-2.41-1.02.51,4.7,2.42.03.61-.03-.61-4.7-2.42.11.46.98.92,2.75,9.22h-1.34l-.13-.33-.17-.15-.58-.03h0s-.48.51-.48.51l-12.48.35v-.18l-.19-.2h-1.79l-.2,1.44v1.01h-.14s-.14,1.01-.14,1.01l.13-1.01h-.77s-3.59-2.24-3.59-2.24h-2.16s-.04-.41-.04-.41l.04-1.12c-.04-.29-.22-.41-.5-.43-.37-.03-1.02.57-.34.66h.35s-.05,1.31-.05,1.31h-2.04s0-2.29,0-2.29h.72v-1.07h-.21v-1.71h-1.75v-1.08h-.49l-.24.02-3.37.05Zm-37.26-32.3h.2v.34h-.2v-.34Zm0,7.93h.2v.63h-.2v-.63Zm0,1.92h.2v.45h-.2v-.45Zm-.96-8.53h-.93v-3.45h.93v3.45Zm-46.71,18.97c.18.07.4.06.57,0-.22.1-.39.09-.57,0m-7.79,18.32l-.06-.63c-.08-.16-.15-.27-.22-.35l5.86-2.03.02,2.55c-1.78.11-3.78.26-5.6.45m5.89-.47v-2.41s.22-.31.22-.31h0s0,0,0,0l.24-.09h0s1.84-.64,1.84-.64l.07,3.31c-.7.03-1.5.07-2.37.13m15.94-.18c-1.17-.01-2.69-.02-4.29-.03v-.06s-.78-.02-.78-.02v.07c-3.12-.01-6.41,0-8.02.07-.02,0-.05,0-.07,0l-.1-3.42,2.8-.97-.1-.34h-.03s-.36-.21-.36-.21l-2.33.82-.13-4.29.11-.14s2.33.5,4.03.62c1.7.12,2.79.17,2.79.17l.85.64.57-.12.2-.36,2.87.43.46.4.91.14-.18,2.5-.04.59-4.21-3.7-.19.04,3.76,3.49.46.69c-.47.11-.77.26-.77.43,0,.27.76.5,1.81.58v1.98Zm32.8-32.85h.48l-.48,1.5v-1.5Zm0,4.07v-.03h.46l-.46,1.58v-1.55Zm0,1.99h.48l-.48,1.55v-1.55Zm0,4.04h.47l-.47,1.55v-1.55Zm0,2.02h.51l-.51,1.49v-1.49Zm0,2.91v-.89h.47l-.26.87h-.2Zm.53-.03h-.22s.22-.71.22-.71v.71Zm0-1.14h-.51l.51-1.46v1.46Zm0-2.02h-.48l.48-1.58v1.58Zm0-2.02h-.49l.49-1.55v1.55Zm0-2.02h-.48l.48-1.55v1.55Zm0-2.02h-.47l.47-1.6v1.6Zm0-2.02h-.42l.42-1.26v1.26Zm0-1.58l-.53,1.58h0v-1.73h.53v.15Zm0-.44h-.5l.5-1.55v1.55Zm-.53-7.79h.51l-.51,1.52v-1.52Zm.53,1.73h-.49l.49-1.48v1.48Zm0-2.02h-.53v-.9h.53v.9Zm20.71,13.41v.9l-.7-.08-.04-.92.73.1Zm-3.5-.41l.84.1.02.97-.86-.1v-.98Zm-1.35-.19l.82.12-.04.99-.79-.08v-1.03Zm0,2.69v-1.25l.84.1.02,1.17-.86-.02Zm1.35.06l-.02-1.19.86.1.04,1.11-.88-.02Zm1.38.04v-1.1s.69.08.69.08l.04,1.01h-.73Zm.74-1.41l-.77-.08-.02-.96.83.1-.04.93Zm.7.44l.66.04.02.93h-.74s.07-.98.07-.98Zm15.68,21.61h-.54v-.29h.54v.29Zm0-.36h-.54v-.26h.54v.26Zm0-.33h-.54v-.29h.54v.29Zm0-.36h-.54v-.26h.54v.26Zm0-.33h-.54v-.27h.54v.27Zm.16,1.37h-.1v-.29h.1v.29Zm0-.36h-.1v-.26h.1v.26Zm0-.33h-.1v-.29h.1v.29Zm0-.36h-.1v-.26h.1v.26Zm0-.33h-.1v-.27h.1v.27Zm.7,1.37h-.63v-.29h.63v.29Zm0-.36h-.63v-.26h.63v.26Zm0-.33h-.63v-.29h.63v.29Zm0-.36h-.63v-.26h.63v.26Zm0-.33h-.63v-.27h.63v.27Zm.21,1.37h-.14v-.29h.14v.29Zm0-.36h-.14v-.26h.14v.26Zm0-.33h-.14v-.29h.14v.29Zm0-.36h-.14v-.26h.14v.26Zm0-.33h-.14v-.27h.14v.27Zm5.91-.27h.64v.27h-.64v-.27Zm0,.34h.64v.26h-.64v-.26Zm0,.33h.64v.29h-.64v-.29Zm0,.36h.64v.26h-.64v-.26Zm-.9.62h-.13v-.29h.13v.29Zm0-.36h-.13v-.26h.13v.26Zm0-.33h-.13v-.29h.13v.29Zm0-.36h-.13v-.26h.13v.26Zm0-.33h-.13v-.27h.13v.27Zm.7,1.37h-.63v-.29h.63v.29Zm0-.36h-.63v-.26h.63v.26Zm0-.33h-.63v-.29h.63v.29Zm0-.36h-.63v-.26h.63v.26Zm0-.33h-.63v-.27h.63v.27Zm.14,1.37h-.07v-.29h.07v.29Zm0-.36h-.07v-.26h.07v.26Zm0-.33h-.07v-.29h.07v.29Zm0-.36h-.07v-.26h.07v.26Zm0-.33h-.07v-.27h.07v.27Zm.07,1.08l.92-1.43-.28,1.73h-.64v-.29Zm25.16,4.23l-.26,1.6-14.43.05.09-1.61,15.32-.04h-.72Zm1.77-.44l-1.3.02h0s1.3-.02,1.3-.02Zm.29,2.03l.04-.94.28.94h-.32Zm2.18,0l-3.35-10.51.74.38.95.21-.56-.12-.24-.05,3.58,10.1h-1.12Z"/><path class="cls-13" d="m304.57,462.31c1.01,0,1.84-.8,1.84-1.79s-.82-1.78-1.84-1.78-1.84.8-1.84,1.78.82,1.79,1.84,1.79m0-3.26c.84,0,1.51.66,1.51,1.47s-.68,1.47-1.51,1.47-1.51-.66-1.51-1.47.68-1.47,1.51-1.47"/><path class="cls-13" d="m304.57,461.68c.66,0,1.19-.52,1.19-1.16s-.53-1.16-1.19-1.16-1.19.52-1.19,1.16.53,1.16,1.19,1.16m0-1.6c.25,0,.46.2.46.45s-.2.45-.46.45-.46-.2-.46-.45.2-.45.46-.45"/><path class="cls-13" d="m305.65,450.4c.81,0,1.47-.64,1.47-1.43s-.66-1.43-1.47-1.43-1.48.64-1.48,1.43.66,1.43,1.48,1.43m0-2.62c.67,0,1.22.53,1.22,1.18s-.54,1.18-1.22,1.18-1.22-.53-1.22-1.18.54-1.18,1.22-1.18"/><path class="cls-13" d="m305.65,449.9c.53,0,.96-.42.96-.93s-.43-.93-.96-.93-.96.42-.96.93.43.93.96.93m0-1.29c.2,0,.37.16.37.36s-.17.36-.37.36-.37-.16-.37-.36.17-.36.37-.36"/><rect class="cls-13" x="290.9" y="484" width="5.47" height="3.3"/><rect class="cls-13" x="290.9" y="484" width="5.47" height="3.3"/><path class="cls-13" d="m289.88,476.31c.17,2.94-1.95,5.46-4.73,5.64-2.78.18-5.17-2.06-5.34-4.99-.17-2.94,1.95-5.46,4.73-5.64,2.78-.18,5.17,2.06,5.34,4.99"/><path class="cls-7" d="m400.47,502.24h-14.73s-16.8,5.67-40.53-3.61c0,0-5.16,3.16-13.82,4.27-5.48,2.13-14.32,2.95-27.58-2.73,0,0-16.25,10.04-40.61.02,0,0-17.75,10.45-42.1-1.04,0,0-8.25,3.96-19.44,3.95-1.03.02-2.12-.02-3.26-.11-.21-.01-.42-.04-.63-.06-.17-.02-.33-.03-.5-.05-4.63-.44-9.61-1.64-14.62-4.08-1.12.66-17.06,9.63-40.54-.02,0,0-7.02,4.12-18.27,4.34.51.52,1,1.05,1.51,1.56,1.58,1.3,3.07,2.71,4.27,4.22,49.73,47.98,118.84,75.48,193.2,70.21,64.92-4.6,122.35-33.37,164.14-76.87-5.85,0-20.65,0-20.65,0h-65.85Z"/><g class="cls-14"><g class="cls-17"><path class="cls-8" d="m335.03,524.65c-7.05,2.97-15.04,1.28-21.94-1.3-.02,0,.93-.07.93-.07-8.44,3.54-17.75,3.69-26.54,1.65-1.99-.42-4.07-1.09-6.01-1.64l.82-.06c-6.44,2.7-13.31,3.33-20.15,2.62-.73-.11-2.44-.37-3.18-.47-3.48-.67-7.01-1.77-10.35-2.96h.76c-2.54.97-5.06,1.56-7.71,1.96-2.6.39-5.23.51-7.83.39v-.18c2.59-.15,5.15-.54,7.64-1.17,2.58-.66,5.2-1.57,7.52-2.81l.38.2c7.31,4.12,16.12,5.75,24.34,3.85,2.8-.63,5.68-1.68,8.01-3.29,1.38.6,2.74,1.26,4.15,1.8.61.21,2.27.76,2.87.96,2.9.78,5.97,1.28,8.97,1.35,5.26.05,10.86-.98,15.24-3.94l.37-.27.57.2c6.47,3.03,14.01,5.26,21.05,2.94l.09.24"/></g></g><path class="cls-8" d="m195.22,543.07c4.66-1.06,9.03-2.94,12.98-5.59,2.95,1.86,6.29,3.22,9.7,4.2,9.1,2.46,20.38,1.74,28.35-3.55,0,0,.72-.61.72-.61l.84.59c3.95,2.74,8.67,4.41,13.44,5.05v.51c-5.14.14-10.28-.81-14.95-3.03,0,0,1.59-.04,1.54-.02-12.85,5.45-27.2,4.12-40.22-.06,0,0,1.29-.02,1.28-.02-4.35,1.72-9,2.66-13.64,2.78l-.03-.23"/><path class="cls-3" d="m555.98,309.42c-9.86-139.07-130.6-243.82-269.67-233.96C147.24,85.32,42.49,206.06,52.35,345.13c4.44,62.56,31.32,118.17,72.2,159.53,1.58,1.3,3.07,2.71,4.27,4.22,49.73,47.98,118.84,75.48,193.2,70.21,139.07-9.86,243.82-130.6,233.96-269.67Z"/><path class="cls-8" d="m491.97,270.51c.38-7.99,5.61-12.36,5.61-12.36-1.14-1.07-3.5-7.74-1.09-12.61-3.03-13.24,3.88-24.39,7.99-26.8,0,0-3.12-4.11-6.52-8.65-2.72-3.81-3.92-9.27-3.92-14.68,0-12.06,8.17-21.83,18.24-21.83.46,0,.92.04,1.37.08.79-.05,1.6-.03,2.41.1.46.07.91.17,1.35.3,2.23-11.95,13.6-19.98,25.4-18.14,6.87,1.07,12.29,1.89,17.21,8.51.71,1.25,2.08,5.86,2.08,5.86,7.94.19,13.85,4.58,14.98,13.28,8.89,2.46,10.16,19.62,1.46,24.16,5.3,7.18,2.98,16.68-3.78,23.45,0,0,12.51,6.26,11.68,16.36-1.14,13.76-6.67,17.73-6.67,17.73,8.93,7.37,4.53,18.04-.85,22.83-.08.07-77.72.03-77.72.03-.79-.03-9.79-6.27-9.25-17.6"/><path class="cls-9" d="m566.89,315.6c2.85-.24,17.87,0,17.87,0,.17.03,12.41-.83,12.97-11.97.37-7.23-3.48-13.62-9.91-14.29-1.69-.18-4.57-.07-5.92.94.45-1.44,4.05-12.04-4.83-19.85-4.76-4.19-12.23-4.47-16.03-2.13-1.22-6.28-5.34-14.47-16.84-15.24-5.01-.34-11.14,2.51-13.99,6.64-1.46,1.48-2.37,3.65-3.27,5.21-2.53-1.6-5.43-2.52-8.53-2.52-9.72,0-17.6,9-17.6,20.09,0,1.44.14,2.84.39,4.19-.08.29-.23.5-.6.61-4.11,1.18-11.65,5.09-11.9,14.24-.27,9.8,8.06,14.22,10.95,14.11l67.24-.02Z"/><path class="cls-11" d="m459.02,80.12c-8.09-.38-16.18-1.03-24.25-1.02-11.94.01-72.14-2.41-84.08-2.8-7.44-.25-8.62-.57-7.29-.94.73-.12,1.36-.23,1.82-.35,5.17-.8,16.12-1.74.9-2.49-.4-.02-1.89-.29-2.29-.45,0-.15-6.22-.28-11.86-.4,25.71-1.14,60.1-2.24,80.14-5.85,0,0,0,0,0,0,2.82-.37,5.46-.77,7.9-1.21-.85-.77-1.68-1.03-2.52-1.11-7.78-.8-85.8-1.58-93.57-2.02-17.03-.98-34.08-2.12-51.1-2.34-17.08-.21-34.15.63-51.23.98-.84.02-1.68-.2-2.5-.55-3.95-1.7-7.75-1.75-11.4-.18-.38-.02-.77-.03-1.15-.03-.86,0-1.72.05-2.56.16-.72.06-1.42.2-2.13.38-11.36,2.62-19.93,14.59-19.93,28.97,0,.93.04,1.85.11,2.75-3.36.88-6.13,3.57-8.14,8.68-.44.15-.87.34-1.29.54-9.14.44-18.28,1.2-27.41,1.89-5.68.43-37.65,1.16-43.33,1.92-.61.08-1.22.33-1.84,1.06,1.78.42,3.71.8,5.77,1.15,0,0,0,0,0,0,14.63,3.43,14.74,4.47,33.52,5.56-4.12.12-8.67.24-8.66.38-.29.15-1.38.41-1.67.43-11.12.71-3.12,1.6.66,2.37.33.11.8.22,1.33.33.98.35.12.66-5.32.9-11.27.48-26.14,2.67-36.4,2.66-5.9,0-11.81.61-17.71.97,0,0-4.51,1.58-.1,2.98l85.78,12.98c.04.07.07.14.11.21.56,4.31,3.01,8.14,6.63,10.86-.38,1.26-.6,2.66-.6,4.15,0,2.51.61,4.8,1.62,6.53.83,2.93,2.11,5.72,3.79,8.29-.68,2.27-.98,4.74-.8,7.3.29,4.19,1.8,7.9,4.07,10.69-.72,1.26-1.28,2.63-1.68,4.08-.73,2.64-.88,5.51-.31,8.39.66,3.34,2.2,6.18,4.27,8.31-5.83,4.81-9.42,13.11-8.79,22.16.51,7.3,3.65,13.57,8.21,17.61-3.98,4.82-6.44,11.45-6.44,18.77,0,2.78.36,5.45,1.02,7.97-1.89,3.43-3.1,7.94-3.23,12.96-.13,4.85,2.07,9.34,4.55,12.93h0c-5.61,4.15-9.5,13.07-9.5,23.39l33.18,1.94c0-.17.01-.34.02-.51h59.36c-.13-1.72,3.28-3.4,2.81-4.98-.38-1.29-.88-2.51-1.47-3.62,2.67-3.65,4.55-8.64,5.25-14.29,1.13,2.94,2.96,4.9,5.31,6.23l32.56.1c3.93-2.63,6.35-7.16,6.35-14.49,0-10.88-5.32-20.27-13.01-24.64,3.38-3.78,6.4-8.52,6.23-13.62-.38-10.96-7.06-19.67-15.31-20.51,1.15-2.22,1.83-4.82,1.83-7.63,0-4.87-2.02-9.17-5.1-11.79.75-.69,1.68-1.04,2.82-.99.41.02.82-.34,1.21-.61,4.22-2.95,7.32-7.63,7.5-15.75.05-2.2-.14-4.16-.52-5.94-.05,0-.09,0-.14,0-1.05-4.25-3.23-7.37-6.04-9.74-.51-.43-1.03-1.98-1.01-2.93.12-4.65-.95-8.31-3.07-11.38-1.66-2.41-3.8-3.96-6.08-4.67.25-.35.49-.72.7-1.12,1.33-2.5,1.87-5.99,1.25-9.5-.15-.87-.38-1.68-.64-2.43,0-.01,0-.03-.01-.04.02.01.04.02.06.04.6.46,1.27.69,1.97.6,1.47-.19,2.6-1.72,2.97-3.71,0,0,0,0,.01,0,1.03.46,2.12.65,3.23.52.03,0,.07,0,.1,0,4.89-.64,8.35-7.16,7.73-14.56-.28-3.33-1.34-6.27-2.87-8.43.99.48,2.06.74,3.2.74,4.74,0,8.59-4.61,8.59-10.29,0-1.57-.3-3.04-.82-4.37,5.03-2.91,8.42-7.02,9.12-11.64l151.81-13.68c6.03-1.48-.14-3.14-.14-3.14"/><path class="cls-8" d="m198.32,305.14c.43-9.35,6.31-14.46,6.31-14.46-1.28-1.26-3.94-9.05-1.23-14.75-3.4-15.49,4.36-28.54,8.98-31.36,0,0-3.51-4.81-7.34-10.12-3.06-4.46-4.41-10.85-4.41-17.18,0-14.11,9.18-25.55,20.51-25.55.52,0,1.03.05,1.54.1.89-.06,1.8-.03,2.71.12.52.08,1.02.2,1.52.35,2.51-13.99,15.29-23.37,28.57-21.22,7.73,1.25,13.82,2.21,19.35,9.96.8,1.47,2.34,6.86,2.34,6.86,8.93.22,15.57,5.36,16.85,15.54,9.99,2.88,11.43,22.95,1.65,28.26,5.95,8.41,3.35,19.52-4.25,27.43,0,0,14.07,7.33,13.13,19.14-1.28,16.1-7.49,20.74-7.49,20.74,10.05,8.63,5.09,21.11-.96,26.71-.09.08-87.38.03-87.38.03-.88-.03-11-7.33-10.4-20.59"/><path class="cls-13" d="m211.13,431.61c-2.75-2.83-6.7-4.39-11.12-4.4-1.53,0-9.39.32-13.53,6.93-3.94,6.28-2.22,14.65,1.8,18.25l.12.11c.84.72,2.1.62,2.82-.22.72-.84.62-2.1-.22-2.82l-.08-.07c-2.75-2.46-3.81-8.73-1.05-13.13,3.02-4.82,8.97-5.06,10.14-5.06,3.38,0,6.24,1.11,8.26,3.19,2.49,2.56,3.41,6.45,2.6,10.95-.94,5.24-4.6,8.34-6.13,9.43-.13.09-.24.2-.34.32-11.58,7.7-43.61,26.17-92.52,32.62-1.1.15-1.88,1.16-1.74,2.26.14,1.09,1.13,1.86,2.22,1.74.01,0,.03,0,.04,0,49.86-6.57,82.57-25.49,94.31-33.32.19-.12.34-.28.47-.45,1.99-1.45,6.44-5.33,7.62-11.89,1.04-5.81-.26-10.94-3.67-14.45"/><path class="cls-1" d="m229.94,463.76s-.03-.05-.05-.08c-1.49-2.42-.98-6.93,1.92-9.48,3.21-2.82,7.5-1.61,8.02-1.45.64.19,3.54,1.06,5.04,3.94,1.87,3.57,0,7.26-.38,8.02-1.8,3.56-4.97,5.64-5.8,6.3,0,0-19.03,11.46-44.94,17.89"/><path class="cls-8" d="m435.75,280.82l-31.21-17.31c-.09-.05-.27.07-.32.16h.23c-.19.37-.14.43-.08.71l30.98,17.45c.1.06.22,0,.26-.1l.23-.7c.03-.08,0-.17-.08-.21"/><path class="cls-8" d="m429.98,280.4c.7-.44,1.25-.71,3.08-1.16,0,0,0,0,0,0l.14-.62h.05c.14-.27.6-.41,1.14-.36h0c.1-.04.48-.19.74-.51.3-.37.51-.64.8-.83.27-.17,3.99-1.37,4.74-1.61.09-.03.18-.03.26,0l.46.12c.13.03.16.21.05.29-1.73,1.14-4.58,2.77-5,2.78-.24,0-.48-.04-.66-.07-.16-.03-.33.02-.45.13,0,0,0,0,0,.01.32.19.51.43.52.67h.02s-.14.62-.14.62h-.04c-.15.34-.78.5-1.47.35-.44-.1-.8-.3-1-.54,0,0,0,0,0,0-.2.18-1.17.99-2.57,1.65-1.39.66-2.64.94-2.92,1-.04,0-.08,0-.12,0l-.48-.09c-.06-.01-.07-.09-.02-.12.51-.3,2.25-1.34,2.85-1.71"/><path class="cls-8" d="m402.27,264.64c.59-.42,1.06-.69,2.63-1.16,0,0,0,0,0,0l.11-.57h.04c.12-.25.51-.4.98-.37h0c.09-.04.41-.19.63-.49.25-.35.43-.61.68-.79.23-.16,3.41-1.39,4.05-1.64.07-.03.15-.03.23-.02l.4.09c.12.03.14.19.05.26-1.47,1.1-3.9,2.68-4.26,2.71-.2.01-.42-.01-.57-.04-.14-.02-.28.03-.38.14,0,0,0,0,0,0,.27.16.45.37.46.58h.01s-.11.57-.11.57h-.04c-.12.32-.66.49-1.26.37-.38-.07-.69-.24-.87-.45,0,0,0,0,0,0-.17.17-.99.94-2.18,1.6-1.19.65-2.25.95-2.49,1.02-.03,0-.07.01-.1,0l-.42-.07s-.06-.07-.02-.1c.44-.29,1.92-1.3,2.42-1.66"/><path class="cls-8" d="m404.77,263.5s.03.01.05.02c0,0,0-.02,0-.02l.08-.34c.07-.29.35-.47.64-.41l1.33.3c.29.07.47.35.41.64l-.08.35c-.07.29-.35.47-.64.41l.33.35s-.4-.05-.54.31c-.22.55.22.65.22.65l-.15.43.35.13-.16.48-.57-.13-1.12-.55-.29.08c-.05.24-.29.38-.52.33-.23-.05-.38-.29-.33-.52l.49-2.17c.05-.24.29-.38.52-.33"/><path class="cls-8" d="m432.6,280.8l.46.11s-.2-.1-.17-.69c.02-.52-.13-.45.21-1.29l.08-.34c.07-.29.35-.47.64-.41l.65.15c.08.01.16.03.24.05l.75.17c.29.07.47.35.41.64l-.11.5c-.06.25-.27.41-.51.42l-.07.3,1.08.52s.06.45-.22.49c-.28.04-.87,2.41-.87,2.41,0,0-.16.23-.95-.38,0,0,.5-.76-.12-.9l-1.37-.91-.39-.42.26-.43Z"/><path class="cls-8" d="m427.58,266.77l-23.14,11.48c-.28.14-.4.48-.26.77.14.29.5.41.78.26l22.98-11.77c.23-.12.29-.42.14-.62-.12-.15-.33-.2-.5-.12"/><path class="cls-8" d="m436.7,270.45l-6.49-3.69-1.46-.48.05-.37-.58-.28s-.36-.27-.68-.31c-.32-.04-.46-.69-1.66-1.53,0,0-6.17-2.5-6.25-2.63-.07-.13-.42.1-.42.1,0,0,5.69,3.79,6.18,3.82.49.03,1.66.37,1.66.37l1.77,1.12.47.08.84.35,1.97,1.4,2.38,1.3,1.8.85.42-.1Z"/><path class="cls-8" d="m416.62,282.77l-7.12-4.89-1.64-.69.1-.42-.64-.38s-.39-.35-.76-.42c-.37-.07-.47-.84-1.76-1.92,0,0-6.87-3.48-6.94-3.64-.07-.16-.49.08-.49.08,0,0,6.19,4.93,6.75,5.01.56.08,1.88.59,1.88.59l1.93,1.46.54.14.93.49,2.13,1.8,2.62,1.72,1.99,1.15.49-.08Z"/><path class="cls-8" d="m426.96,267.95c.25-.13.21-.44.1-.56-.14-.14-.33-.24-.72,0l.13-.4.34-.22s-.39-.3-.5-.44l.27-.8s.63-.78,2.26.58l-.14.48-.16.17.25.15-.33.75-.33.12-.4,1.25s-.31.32-.52-.11c-.21-.43-.39.07-.39.07l-.66.1-.12-.22.11-.46.8-.46Z"/><path class="cls-8" d="m404.52,278.11s.02-.01.03-.02l.75-.65c-.14-.05-.26-.16-.3-.3l-.04-.13c-.04-.12-.03-.24.03-.35l.22-.44c.07-.13.19-.23.34-.26,1.46-.24,2.19.53,2.46.92.08.12.1.28.05.42l-.14.38c-.05.14-.16.24-.3.29l-.18.06s-.07.02-.1.02l-.04.07s-.01.02-.01.03c-.01.07-.08.36-.3.53-.02.01-.03.03-.04.05l-.1.36s-.06.04-.09.08l-1.17.72c-.85.21-1.25,1.47-1.58,1.51-.3.03-.16-.02-.14-.07.07-.29.38-1.31.29-2.11-.1-.87.28-1.07.36-1.1"/><path class="cls-8" d="m410.15,270.86l.13-1.48c.03-.33.34-.58.69-.55s.61.33.58.66l-.13,1.48s.04.05.04.07l-.05.52,2.18-.04.18-1.47s.36-4.01,5.79-4.06c0,0,4.61.2,4.62,4.93l2.28-.11.06-.74s.02-.04.05-.06l.13-1.48c.03-.33.34-.58.69-.55.35.03.61.33.58.66l-.13,1.48s.04.05.04.07l-.07.79s-.02.04-.05.06l-.02.19h0c-.04.34-.37.93-.72.9-.13-.01-.24-.11-.33-.23l-.62-.28-1.02.07-.82.19-.2,1.37-.13.08c-.2.12-.29.49-.19.71l.17.22-.05.37s-.84,1.1-.94,1.57c-.1.47-.96,2.36-.96,2.36,0,0-.33.77-1.24.21-.91-.56-.67-.27-.67-.27l-.67-.27-1.39.04-.8.67s-.66.79-1.01-.04l-.17-1.43c0-.08-.05-.16-.11-.22l-.11-.06c-.46-.25-.91-.53-1.22-.95l-.19-.25.18-.19c.15-.16.24-.36.15-.57-.1-.26-.37-.4-.64-.36l-.2.08-.25-.81-.07-1.6-.73-.22-1.61.18-.02-.02c-.13.28-.37.55-.6.53-.35-.03-.57-.67-.55-1.02h0l.02-.19s-.04-.05-.04-.07l.07-.79s.02-.05.05-.06"/><path class="cls-9" d="m391.57,298.59l-39.93-22.14c-.11-.06-.35.09-.41.2h.29c-.24.48-.17.55-.11.91l39.64,22.33c.13.07.29,0,.33-.13l.3-.89c.04-.11-.01-.22-.11-.27"/><path class="cls-9" d="m384.19,298.05c.89-.56,1.6-.91,3.95-1.48,0,0,0,0,0,0l.18-.79h.06c.19-.34.77-.53,1.46-.46,0,0,0,0,0,0,.13-.05.62-.24.95-.64.38-.47.65-.83,1.03-1.07.34-.21,5.1-1.75,6.06-2.06.11-.04.23-.04.34-.01l.59.15c.17.04.21.27.06.37-2.21,1.46-5.87,3.54-6.39,3.55-.3,0-.62-.04-.85-.09-.21-.04-.42.02-.57.17,0,0,0,.01,0,.01.4.24.66.55.67.85h.02s-.18.8-.18.8h-.05c-.19.44-1,.64-1.88.44-.56-.13-1.02-.39-1.28-.68,0,0,0,0-.01,0-.26.23-1.5,1.26-3.29,2.12-1.78.85-3.37,1.21-3.73,1.28-.05,0-.1,0-.15,0l-.62-.12c-.07-.01-.09-.11-.03-.15.65-.39,2.88-1.71,3.64-2.19"/><path class="cls-9" d="m348.74,277.9c.76-.54,1.36-.89,3.37-1.49,0,0,0,0,0,0l.14-.72h.06c.15-.32.65-.51,1.25-.48h0c.11-.05.53-.24.81-.62.32-.44.55-.77.87-1.01.29-.21,4.36-1.78,5.18-2.1.09-.04.19-.04.29-.02l.51.11c.15.03.19.24.06.33-1.88,1.41-4.99,3.43-5.44,3.46-.26.02-.53-.02-.73-.05-.18-.03-.36.04-.49.18,0,0,0,0,0,.01.35.2.58.48.59.75h.02s-.14.73-.14.73h-.05c-.15.41-.85.62-1.61.48-.48-.1-.88-.31-1.11-.58,0,0,0,0,0,0-.22.22-1.27,1.2-2.8,2.05-1.52.84-2.88,1.22-3.19,1.3-.04.01-.09.01-.13,0l-.53-.08c-.06,0-.08-.1-.02-.13.56-.38,2.45-1.66,3.1-2.12"/><path class="cls-9" d="m351.94,276.43s.04.01.06.02c0-.01,0-.02,0-.03l.1-.44c.09-.37.45-.6.83-.52l1.7.38c.37.08.6.45.52.83l-.1.44c-.08.37-.45.6-.82.52l.42.45s-.51-.07-.69.4c-.29.7.28.83.28.83l-.19.55.45.17-.21.61-.73-.17-1.44-.71-.37.11c-.07.3-.37.49-.67.42-.3-.07-.49-.37-.42-.67l.63-2.78c.07-.3.37-.49.67-.42"/><path class="cls-9" d="m387.54,298.57l.59.14s-.25-.13-.22-.88c.03-.66-.17-.58.27-1.65l.1-.44c.08-.37.45-.61.83-.52l.83.19c.1.02.21.04.31.07l.96.22c.37.08.61.45.52.83l-.14.64c-.07.31-.35.53-.65.54l-.09.39,1.38.66s.08.57-.28.63c-.36.06-1.12,3.08-1.12,3.08,0,0-.21.3-1.21-.48,0,0,.64-.97-.16-1.15l-1.75-1.16-.51-.53.33-.55Z"/><path class="cls-9" d="m381.12,280.62l-29.61,14.69c-.36.18-.51.62-.33.98.18.37.63.52,1,.33l29.41-15.07c.29-.15.38-.53.17-.79-.15-.2-.42-.26-.65-.15"/><path class="cls-9" d="m392.79,285.32l-8.31-4.72-1.87-.61.07-.47-.74-.36s-.46-.35-.88-.39c-.41-.05-.59-.88-2.12-1.95,0,0-7.9-3.2-7.99-3.36-.09-.17-.53.13-.53.13,0,0,7.28,4.85,7.9,4.89s2.12.47,2.12.47l2.27,1.43.61.1,1.07.45,2.52,1.79,3.05,1.66,2.3,1.09.53-.13Z"/><path class="cls-9" d="m367.1,301.08l-9.11-6.25-2.1-.89.12-.54-.82-.48s-.5-.44-.97-.54c-.47-.1-.6-1.07-2.25-2.46,0,0-8.79-4.45-8.88-4.66-.09-.2-.62.1-.62.1,0,0,7.92,6.3,8.63,6.41.72.11,2.4.75,2.4.75l2.48,1.87.69.18,1.19.62,2.73,2.3,3.35,2.21,2.54,1.48.62-.1Z"/><path class="cls-9" d="m380.33,282.13c.32-.17.27-.56.13-.71-.18-.18-.42-.3-.92,0l.16-.51.43-.28s-.5-.38-.64-.56l.34-1.03s.8-.99,2.89.74l-.18.61-.21.22.32.19-.42.96-.42.16-.51,1.6s-.4.4-.66-.14c-.27-.55-.5.09-.5.09l-.84.14-.15-.28.14-.6,1.03-.59Z"/><path class="cls-9" d="m351.62,295.13s.03-.01.04-.02l.96-.83c-.18-.06-.33-.2-.39-.39l-.05-.17c-.05-.15-.04-.31.03-.45l.28-.57c.08-.17.24-.3.43-.33,1.87-.31,2.81.67,3.15,1.18.11.16.13.36.07.54l-.17.48c-.06.18-.21.31-.38.37l-.24.08s-.09.02-.13.02l-.05.08s-.01.03-.02.04c-.02.09-.1.46-.38.68-.02.02-.04.04-.05.07l-.13.46c-.01.05-.08.05-.11.1l-1.49.92c-1.08.27-1.6,1.88-2.02,1.93-.38.04-.2-.03-.18-.09.09-.37.49-1.67.37-2.7-.12-1.11.36-1.37.46-1.41"/><path class="cls-9" d="m358.8,285.93l.15-1.9c.03-.43.43-.75.88-.71.45.04.78.41.75.84l-.15,1.9s.06.06.05.09l-.05.66,2.79-.08.22-1.89s.42-5.14,7.37-5.25c0,0,5.9.21,5.95,6.27l2.92-.16.08-.95s.03-.06.07-.08l.15-1.9c.04-.43.43-.75.88-.71.45.04.78.41.75.84l-.15,1.9s.06.06.05.09l-.08,1.01h0s-.03.06-.07.08l-.02.25h0c-.04.44-.47,1.2-.91,1.16-.16-.01-.3-.13-.42-.3l-.8-.36-1.3.1-1.04.26-.24,1.75-.17.1c-.26.16-.37.63-.23.9l.22.28-.07.47s-1.07,1.41-1.18,2.01-1.2,3.03-1.2,3.03c0,0-.42.99-1.59.28-1.17-.71-.86-.34-.86-.34l-.86-.34-1.77.06-1.02.87s-.83,1.02-1.29-.04l-.23-1.83c-.01-.11-.07-.21-.15-.28l-.14-.07c-.59-.31-1.17-.67-1.57-1.2l-.25-.31.22-.25c.19-.21.3-.47.19-.73-.13-.33-.48-.51-.82-.45l-.25.11-.32-1.03-.11-2.05-.93-.28-2.06.24-.03-.02c-.17.36-.46.71-.77.68-.45-.04-.74-.85-.71-1.29h0l.02-.25s-.05-.06-.05-.09h0l.08-1.01s.03-.06.07-.08"/><path class="cls-7" d="m340.14,319.37l-58.69-32.55c-.17-.09-.52.13-.6.3h.43c-.36.7-.26.81-.16,1.34l58.26,32.82c.19.1.42.01.49-.19l.43-1.32c.05-.15-.01-.32-.16-.4"/><path class="cls-4" d="m340.14,319.37l-58.69-32.55c-.17-.09-.52.13-.6.3h.43c-.36.7-.26.81-.16,1.34l58.26,32.82c.19.1.42.01.49-.19l.43-1.32c.05-.15-.01-.32-.16-.4Z"/><path class="cls-7" d="m329.29,318.58c1.31-.83,2.35-1.34,5.8-2.17,0,0,0,0,.01,0l.26-1.16.09.02c.27-.52,1.13-.8,2.15-.7,0,0,0,0,0,0,.2-.07.91-.36,1.39-.95.57-.69.96-1.21,1.51-1.57.5-.32,7.5-2.57,8.9-3.03.16-.05.33-.06.5-.01l.87.22c.25.06.31.4.09.54-3.25,2.15-8.62,5.2-9.4,5.22-.45.01-.91-.07-1.24-.14-.3-.07-.62.03-.84.25,0,0,0,.01,0,.02.59.35.97.81.98,1.25h.03s-.26,1.17-.26,1.17l-.08-.02c-.28.66-1.46.96-2.76.67-.82-.19-1.5-.57-1.88-1.01,0,0-.01,0-.01,0-.38.33-2.2,1.86-4.83,3.11-2.62,1.25-4.96,1.77-5.48,1.88-.07.02-.15.02-.22,0l-.91-.17c-.11-.02-.13-.16-.04-.22.96-.57,4.24-2.51,5.35-3.22"/><path class="cls-4" d="m329.29,318.58c1.31-.83,2.35-1.34,5.8-2.17,0,0,0,0,.01,0l.26-1.16.09.02c.27-.52,1.13-.8,2.15-.7,0,0,0,0,0,0,.2-.07.91-.36,1.39-.95.57-.69.96-1.21,1.51-1.57.5-.32,7.5-2.57,8.9-3.03.16-.05.33-.06.5-.01l.87.22c.25.06.31.4.09.54-3.25,2.15-8.62,5.2-9.4,5.22-.45.01-.91-.07-1.24-.14-.3-.07-.62.03-.84.25,0,0,0,.01,0,.02.59.35.97.81.98,1.25h.03s-.26,1.17-.26,1.17l-.08-.02c-.28.66-1.46.96-2.76.67-.82-.19-1.5-.57-1.88-1.01,0,0-.01,0-.01,0-.38.33-2.2,1.86-4.83,3.11-2.62,1.25-4.96,1.77-5.48,1.88-.07.02-.15.02-.22,0l-.91-.17c-.11-.02-.13-.16-.04-.22.96-.57,4.24-2.51,5.35-3.22Z"/><path class="cls-7" d="m277.19,288.96c1.11-.8,2-1.3,4.95-2.19,0,0,0,0,0,0l.21-1.06.08.02c.23-.48.96-.77,1.84-.71,0,0,0,0,0,0,.17-.07.78-.36,1.18-.91.48-.65.8-1.14,1.28-1.48.43-.3,6.41-2.62,7.61-3.08.14-.05.29-.06.43-.03l.75.17c.22.05.27.35.09.49-2.76,2.07-7.33,5.05-8,5.09-.38.03-.78-.03-1.07-.08-.26-.05-.53.05-.72.26,0,0,0,.01,0,.02.52.3.85.7.87,1.1h.03s-.21,1.07-.21,1.07h-.07c-.23.6-1.24.92-2.37.7-.71-.14-1.3-.46-1.63-.84,0,0,0,0-.01,0-.32.32-1.86,1.77-4.11,3.01-2.23,1.23-4.24,1.79-4.69,1.91-.06.02-.13.02-.19,0l-.78-.12c-.09-.01-.12-.14-.04-.2.82-.55,3.6-2.44,4.55-3.12"/><path class="cls-4" d="m277.19,288.96c1.11-.8,2-1.3,4.95-2.19,0,0,0,0,0,0l.21-1.06.08.02c.23-.48.96-.77,1.84-.71,0,0,0,0,0,0,.17-.07.78-.36,1.18-.91.48-.65.8-1.14,1.28-1.48.43-.3,6.41-2.62,7.61-3.08.14-.05.29-.06.43-.03l.75.17c.22.05.27.35.09.49-2.76,2.07-7.33,5.05-8,5.09-.38.03-.78-.03-1.07-.08-.26-.05-.53.05-.72.26,0,0,0,.01,0,.02.52.3.85.7.87,1.1h.03s-.21,1.07-.21,1.07h-.07c-.23.6-1.24.92-2.37.7-.71-.14-1.3-.46-1.63-.84,0,0,0,0-.01,0-.32.32-1.86,1.77-4.11,3.01-2.23,1.23-4.24,1.79-4.69,1.91-.06.02-.13.02-.19,0l-.78-.12c-.09-.01-.12-.14-.04-.2.82-.55,3.6-2.44,4.55-3.12Z"/><path class="cls-7" d="m281.89,286.8s.06.02.09.03c0-.01,0-.03,0-.04l.15-.65c.12-.55.67-.89,1.21-.77l2.49.57c.55.12.89.67.77,1.21l-.15.65c-.12.55-.67.89-1.21.77l.61.67s-.74-.1-1.02.59c-.42,1.03.41,1.22.41,1.22l-.29.8.66.25-.31.9-1.07-.24-2.12-1.04-.55.16c-.1.44-.54.72-.98.62-.44-.1-.72-.54-.62-.98l.92-4.08c.1-.44.54-.72.98-.62"/><path class="cls-4" d="m281.89,286.8s.06.02.09.03c0-.01,0-.03,0-.04l.15-.65c.12-.55.67-.89,1.21-.77l2.49.57c.55.12.89.67.77,1.21l-.15.65c-.12.55-.67.89-1.21.77l.61.67s-.74-.1-1.02.59c-.42,1.03.41,1.22.41,1.22l-.29.8.66.25-.31.9-1.07-.24-2.12-1.04-.55.16c-.1.44-.54.72-.98.62-.44-.1-.72-.54-.62-.98l.92-4.08c.1-.44.54-.72.98-.62Z"/><path class="cls-7" d="m334.23,319.34l.88.2s-.37-.19-.32-1.3c.04-.98-.25-.85.4-2.43l.15-.65c.12-.55.67-.89,1.21-.76l1.23.28c.15.02.3.06.46.1l1.41.32c.55.12.89.67.77,1.21l-.21.94c-.1.46-.51.77-.96.79l-.13.57,2.03.97s.12.84-.41.93c-.53.08-1.64,4.53-1.64,4.53,0,0-.3.44-1.78-.71,0,0,.93-1.42-.23-1.69l-2.58-1.71-.74-.78.49-.81Z"/><path class="cls-4" d="m334.23,319.34l.88.2s-.37-.19-.32-1.3c.04-.98-.25-.85.4-2.43l.15-.65c.12-.55.67-.89,1.21-.76l1.23.28c.15.02.3.06.46.1l1.41.32c.55.12.89.67.77,1.21l-.21.94c-.1.46-.51.77-.96.79l-.13.57,2.03.97s.12.84-.41.93c-.53.08-1.64,4.53-1.64,4.53,0,0-.3.44-1.78-.71,0,0,.93-1.42-.23-1.69l-2.58-1.71-.74-.78.49-.81Z"/><path class="cls-7" d="m324.79,292.95l-43.52,21.6c-.53.26-.75.91-.48,1.44.27.54.93.76,1.47.48l43.22-22.14c.43-.22.55-.78.26-1.16-.22-.29-.62-.38-.95-.22"/><path class="cls-4" d="m324.79,292.95l-43.52,21.6c-.53.26-.75.91-.48,1.44.27.54.93.76,1.47.48l43.22-22.14c.43-.22.55-.78.26-1.16-.22-.29-.62-.38-.95-.22Z"/><path class="cls-7" d="m341.93,299.87l-12.21-6.94-2.75-.9.1-.7-1.09-.52s-.68-.51-1.29-.58c-.6-.07-.87-1.29-3.11-2.87,0,0-11.61-4.7-11.75-4.95-.14-.25-.78.19-.78.19,0,0,10.7,7.13,11.62,7.19.92.06,3.12.69,3.12.69l3.33,2.1.89.15,1.57.66,3.7,2.62,4.48,2.43,3.38,1.6.78-.19Z"/><path class="cls-4" d="m341.93,299.87l-12.21-6.94-2.75-.9.1-.7-1.09-.52s-.68-.51-1.29-.58c-.6-.07-.87-1.29-3.11-2.87,0,0-11.61-4.7-11.75-4.95-.14-.25-.78.19-.78.19,0,0,10.7,7.13,11.62,7.19.92.06,3.12.69,3.12.69l3.33,2.1.89.15,1.57.66,3.7,2.62,4.48,2.43,3.38,1.6.78-.19Z"/><path class="cls-7" d="m304.17,323.04l-13.39-9.19-3.08-1.3.18-.79-1.21-.71s-.74-.65-1.42-.79c-.69-.14-.88-1.57-3.31-3.61,0,0-12.92-6.55-13.06-6.84s-.92.14-.92.14c0,0,11.64,9.26,12.69,9.42,1.05.16,3.53,1.1,3.53,1.1l3.64,2.75,1.01.26,1.75.91,4.01,3.39,4.93,3.24,3.74,2.17.92-.14Z"/><path class="cls-4" d="m304.17,323.04l-13.39-9.19-3.08-1.3.18-.79-1.21-.71s-.74-.65-1.42-.79c-.69-.14-.88-1.57-3.31-3.61,0,0-12.92-6.55-13.06-6.84s-.92.14-.92.14c0,0,11.64,9.26,12.69,9.42,1.05.16,3.53,1.1,3.53,1.1l3.64,2.75,1.01.26,1.75.91,4.01,3.39,4.93,3.24,3.74,2.17.92-.14Z"/><path class="cls-7" d="m323.62,295.17c.47-.25.4-.83.19-1.05-.26-.27-.62-.45-1.36,0l.24-.75.64-.41s-.74-.56-.94-.82l.51-1.51s1.18-1.46,4.25,1.09l-.26.89-.3.33.47.27-.61,1.41-.62.24-.75,2.34s-.58.59-.98-.21c-.39-.8-.73.14-.73.14l-1.23.2-.23-.41.2-.88,1.51-.87Z"/><path class="cls-4" d="m323.62,295.17c.47-.25.4-.83.19-1.05-.26-.27-.62-.45-1.36,0l.24-.75.64-.41s-.74-.56-.94-.82l.51-1.51s1.18-1.46,4.25,1.09l-.26.89-.3.33.47.27-.61,1.41-.62.24-.75,2.34s-.58.59-.98-.21c-.39-.8-.73.14-.73.14l-1.23.2-.23-.41.2-.88,1.51-.87Z"/><path class="cls-7" d="m281.43,314.28s.04-.02.05-.03l1.41-1.22c-.27-.09-.48-.3-.57-.57l-.08-.25c-.07-.22-.05-.45.05-.65l.41-.83c.12-.25.36-.43.64-.48,2.75-.46,4.13.99,4.64,1.73.16.23.2.53.1.79l-.25.71c-.09.26-.3.46-.56.54l-.35.11c-.06.02-.13.03-.2.04l-.07.12s-.02.04-.02.06c-.02.13-.15.67-.56,1-.03.03-.06.06-.07.1l-.19.68c-.02.07-.12.08-.16.14l-2.2,1.35c-1.59.4-2.36,2.77-2.97,2.84-.56.06-.29-.04-.27-.13.14-.54.71-2.46.55-3.97-.18-1.64.53-2.01.68-2.07"/><path class="cls-4" d="m281.43,314.28s.04-.02.05-.03l1.41-1.22c-.27-.09-.48-.3-.57-.57l-.08-.25c-.07-.22-.05-.45.05-.65l.41-.83c.12-.25.36-.43.64-.48,2.75-.46,4.13.99,4.64,1.73.16.23.2.53.1.79l-.25.71c-.09.26-.3.46-.56.54l-.35.11c-.06.02-.13.03-.2.04l-.07.12s-.02.04-.02.06c-.02.13-.15.67-.56,1-.03.03-.06.06-.07.1l-.19.68c-.02.07-.12.08-.16.14l-2.2,1.35c-1.59.4-2.36,2.77-2.97,2.84-.56.06-.29-.04-.27-.13.14-.54.71-2.46.55-3.97-.18-1.64.53-2.01.68-2.07Z"/><path class="cls-7" d="m291.99,300.73l.23-2.79c.05-.63.63-1.1,1.29-1.04.66.05,1.15.61,1.1,1.24l-.23,2.79c.05.04.08.09.08.13l-.08.98,4.1-.11.33-2.77s.63-7.55,10.84-7.7c0,0,8.67.32,8.74,9.23l4.29-.23.12-1.39s.04-.08.1-.12l.23-2.79c.05-.63.63-1.1,1.29-1.04.66.05,1.15.61,1.1,1.24l-.23,2.79c.05.04.08.09.08.13l-.12,1.48h0s-.04.08-.1.12l-.03.37h0c-.06.64-.69,1.76-1.34,1.71-.24-.02-.45-.19-.61-.44l-1.17-.52-1.91.14-1.53.37-.36,2.57-.24.15c-.38.23-.54.93-.35,1.33l.33.41-.1.69s-1.57,2.07-1.75,2.96c-.17.89-1.77,4.45-1.77,4.45,0,0-.62,1.45-2.33.41-1.71-1.04-1.26-.5-1.26-.5l-1.26-.5-2.61.08-1.51,1.27s-1.22,1.5-1.89-.06l-.33-2.68c-.02-.16-.1-.3-.21-.41l-.21-.11c-.87-.46-1.72-.99-2.31-1.77l-.36-.46.33-.37c.28-.31.44-.69.29-1.07-.2-.48-.7-.76-1.21-.66l-.37.15-.47-1.52-.15-3.01-1.37-.41-3.03.35-.04-.03c-.25.53-.68,1.04-1.13,1-.65-.06-1.09-1.26-1.04-1.9h0l.03-.36c-.05-.04-.08-.09-.08-.13h0s.12-1.48.12-1.48c0-.05.04-.08.1-.12"/><path class="cls-4" d="m291.99,300.73l.23-2.79c.05-.63.63-1.1,1.29-1.04.66.05,1.15.61,1.1,1.24l-.23,2.79c.05.04.08.09.08.13l-.08.98,4.1-.11.33-2.77s.63-7.55,10.84-7.7c0,0,8.67.32,8.74,9.23l4.29-.23.12-1.39s.04-.08.1-.12l.23-2.79c.05-.63.63-1.1,1.29-1.04.66.05,1.15.61,1.1,1.24l-.23,2.79c.05.04.08.09.08.13l-.12,1.48h0s-.04.08-.1.12l-.03.37h0c-.06.64-.69,1.76-1.34,1.71-.24-.02-.45-.19-.61-.44l-1.17-.52-1.91.14-1.53.37-.36,2.57-.24.15c-.38.23-.54.93-.35,1.33l.33.41-.1.69s-1.57,2.07-1.75,2.96c-.17.89-1.77,4.45-1.77,4.45,0,0-.62,1.45-2.33.41-1.71-1.04-1.26-.5-1.26-.5l-1.26-.5-2.61.08-1.51,1.27s-1.22,1.5-1.89-.06l-.33-2.68c-.02-.16-.1-.3-.21-.41l-.21-.11c-.87-.46-1.72-.99-2.31-1.77l-.36-.46.33-.37c.28-.31.44-.69.29-1.07-.2-.48-.7-.76-1.21-.66l-.37.15-.47-1.52-.15-3.01-1.37-.41-3.03.35-.04-.03c-.25.53-.68,1.04-1.13,1-.65-.06-1.09-1.26-1.04-1.9h0l.03-.36c-.05-.04-.08-.09-.08-.13h0s.12-1.48.12-1.48c0-.05.04-.08.1-.12Z"/><path class="cls-9" d="m304.16,344.6l-137.3-68.19c-.39-.2-1.18.32-1.37.7l.99-.04c-.77,1.6-.53,1.81-.26,2.99l136.32,68.82c.43.22.97,0,1.1-.46l.9-2.95c.1-.35-.06-.72-.39-.88"/><path class="cls-13" d="m279.4,344.88c2.82-2.06,5.07-3.38,12.79-5.88.01,0,.02-.01.02-.02l.35-2.57.22.03c.51-1.19,2.42-1.95,4.76-1.95,0,0,0,0,.01,0,.43-.19,2-.96,2.98-2.34,1.14-1.61,1.92-2.82,3.12-3.7,1.07-.79,16.59-7.09,19.71-8.35.36-.15.75-.19,1.13-.13l2.04.3c.59.09.79.8.33,1.16-6.96,5.32-18.59,13.02-20.36,13.21-1.02.11-2.1.04-2.87-.04-.71-.08-1.41.19-1.86.72-.01.01,0,.03,0,.04,1.43.64,2.39,1.56,2.52,2.52h.07s-.35,2.59-.35,2.59l-.18-.02c-.49,1.49-3.14,2.38-6.17,2.01-1.92-.24-3.56-.93-4.52-1.8-.01-.01-.02-.01-.04,0-.8.8-4.62,4.46-10.38,7.72-5.72,3.24-10.95,4.84-12.13,5.18-.16.05-.33.06-.5.05l-2.11-.19c-.25-.02-.34-.33-.14-.46,2.08-1.43,9.14-6.31,11.53-8.05"/><path class="cls-13" d="m190.08,267.92c-2.65,1.57-4.73,2.53-11.61,4,0,0-.02,0-.02.02l-.6,2.28-.18-.05c-.58,1.02-2.3,1.52-4.3,1.28,0,0,0,0,0,0-.39.13-1.82.66-2.82,1.81-1.16,1.34-1.98,2.35-3.1,3.02-1.01.6-15,4.71-17.81,5.53-.32.1-.66.1-.98,0l-1.7-.48c-.5-.14-.58-.81-.14-1.08,6.57-4.09,17.4-9.85,18.94-9.85.88,0,1.79.18,2.45.33.6.14,1.22-.03,1.67-.46.01-.01,0-.03,0-.04-1.15-.72-1.86-1.65-1.85-2.53h-.05s.6-2.31.6-2.31l.15.04c.59-1.3,2.96-1.83,5.5-1.18,1.61.41,2.92,1.2,3.64,2.09,0,.01.02.01.03,0,.78-.64,4.47-3.56,9.77-5.91,5.26-2.34,9.92-3.25,10.96-3.44.14-.02.29-.02.43,0l1.78.38c.21.04.25.33.06.43-1.94,1.08-8.55,4.76-10.8,6.09"/><path class="cls-13" d="m168.49,276.11c.07.02.14.04.21.07,0-.03,0-.06,0-.09l.31-1.41c.26-1.19,1.49-1.95,2.75-1.69l5.76,1.18c1.26.26,2.07,1.43,1.81,2.62l-.31,1.42c-.26,1.19-1.49,1.95-2.75,1.69l1.44,1.44s-1.71-.19-2.31,1.3c-.91,2.25.99,2.64.99,2.64l-.62,1.76,1.52.53-.66,1.97-2.47-.51-4.9-2.22-1.25.35c-.21.97-1.21,1.58-2.23,1.37-1.02-.21-1.68-1.16-1.47-2.13l1.93-8.91c.21-.97,1.21-1.58,2.23-1.37"/><path class="cls-13" d="m290.19,344.98l2.02.41s-.85-.4-.79-2.82c.05-2.13-.6-1.84.8-5.3l.31-1.41c.26-1.19,1.49-1.95,2.75-1.69l2.82.58c.35.05.7.12,1.05.22l3.26.67c1.26.26,2.07,1.43,1.81,2.62l-.44,2.05c-.22,1.01-1.13,1.7-2.17,1.73l-.27,1.24,4.7,2.07s.3,1.84-.91,2.03c-1.21.2-3.55,9.91-3.55,9.91,0,0-.68.97-4.12-1.51,0,0,2.08-3.12-.61-3.67l-6-3.67-1.74-1.69,1.09-1.77Z"/><path class="cls-9" d="m276.23,284.12l-107.31,55.29c-1.31.67-1.82,2.28-1.15,3.59.69,1.34,2.35,1.86,3.68,1.15l106.55-56.64c1.06-.56,1.35-1.96.59-2.89-.57-.71-1.56-.92-2.37-.5"/><path class="cls-13" d="m315.16,293.97l-24.23-13.3-5.44-1.68.17-1.38-2.17-1s-1.36-.98-2.55-1.1c-1.19-.12-1.76-2.51-6.21-5.55,0,0-22.99-8.9-23.26-9.38-.28-.48-1.53.4-1.53.4,0,0,21.27,13.72,23.08,13.8,1.81.08,6.16,1.27,6.16,1.27l6.62,4.04,1.75.27,3.12,1.25,7.37,5.05,8.9,4.66,6.69,3.04,1.53-.4Z"/><path class="cls-13" d="m226.13,359.64l-33.62-22.34-7.7-3.12.42-1.98-3.03-1.72s-1.86-1.59-3.57-1.91c-1.71-.32-2.25-3.87-8.36-8.85,0,0-32.35-15.78-32.7-16.51-.34-.73-2.28.39-2.28.39,0,0,29.26,22.58,31.88,22.92,2.62.35,8.81,2.61,8.81,2.61l9.14,6.69,2.52.62,4.38,2.21,10.1,8.26,12.37,7.87,9.37,5.25,2.28-.39Z"/><path class="cls-13" d="m278.06,287.34c1.17-.65.96-2.07.43-2.61-.65-.66-1.56-1.08-3.37.06l.56-1.87,1.57-1.05s-1.85-1.36-2.36-2.01l1.2-3.78s2.88-3.67,10.6,2.54l-.61,2.23-.74.83,1.19.67-1.48,3.53-1.54.61-1.76,5.85s-1.43,1.49-2.43-.49c-1-1.98-1.81.36-1.81.36l-3.05.54-.58-1.01.47-2.18,3.71-2.22Z"/><path class="cls-13" d="m169.3,338.75s.09-.05.13-.09l3.47-3.08c-.68-.21-1.21-.73-1.44-1.4l-.21-.62c-.18-.54-.14-1.12.1-1.63l.99-2.09c.3-.63.88-1.09,1.57-1.22,6.83-1.25,10.29,2.31,11.58,4.13.41.57.51,1.3.28,1.97l-.6,1.77c-.22.65-.73,1.16-1.38,1.37l-.85.29c-.16.05-.32.08-.49.1l-.18.31s-.05.1-.06.16c-.06.33-.34,1.67-1.36,2.5-.08.07-.14.15-.17.25l-.46,1.68c-.05.19-.29.2-.39.36l-5.41,3.43c-3.94,1.05-5.75,6.97-7.26,7.16-1.39.18-.73-.1-.68-.31.32-1.35,1.68-6.13,1.21-9.87-.51-4.07,1.25-5.02,1.61-5.17"/><path class="cls-13" d="m275.63,304.33l-.78-6.33c-.18-1.43-1.57-2.43-3.11-2.24-1.54.19-2.65,1.5-2.47,2.93l.78,6.33c-.12.1-.19.21-.17.31l.27,2.22-9.64.16-1.01-6.28s-2.1-17.11-26.07-16.46c0,0-20.32,1.58-19.72,21.85l-10.08-.1-.39-3.15c-.01-.1-.1-.19-.24-.26l-.78-6.33c-.18-1.43-1.57-2.43-3.11-2.24s-2.65,1.5-2.47,2.93l.78,6.33c-.12.11-.19.21-.17.31l.41,3.35h0c.02.1.1.19.24.26l.1.83h0c.2,1.46,1.76,3.94,3.29,3.75.56-.07,1.03-.48,1.41-1.05l2.7-1.31,4.5.13,3.62.7,1.07,5.81.58.31c.92.48,1.35,2.06.92,2.99l-.73.96.29,1.56s3.86,4.56,4.34,6.55c.48,2,4.52,9.96,4.52,9.96,0,0,1.58,3.24,5.51.7,3.93-2.54,2.91-1.27,2.91-1.27l2.91-1.27,6.12-.07,3.64,2.75s3,3.29,4.44-.32l.54-6.14c.03-.36.2-.7.47-.96l.48-.27c2.01-1.12,3.94-2.42,5.27-4.26l.81-1.09-.81-.8c-.67-.68-1.09-1.52-.76-2.41.42-1.11,1.58-1.79,2.78-1.63l.88.31.99-3.49.1-6.87,3.17-1.07,7.13.5.09-.08c.63,1.18,1.69,2.29,2.73,2.16,1.53-.19,2.45-2.97,2.29-4.43h0s-.1-.83-.1-.83c.12-.1.18-.21.17-.31h0l-.41-3.35c-.01-.1-.1-.19-.24-.26"/></g><path class="cls-13" d="m174.03,161.53l-5.97,5.63c-4.32-3.74-9.05-3.94-13.24.02-3.41,3.21-4.6,7.3-1.39,10.71,3.31,3.51,6.99,3.11,13.83-.87,9.69-5.67,16.67-5.82,22.35.2,6.17,6.55,4.11,16.01-2.91,22.63-8.28,7.8-17.27,8.86-24.87,2.27l5.97-5.63c5.14,3.56,10.51,2.96,14.75-1.04,3.77-3.56,4.83-8.42,1.72-11.72-3.56-3.77-7.58-3.64-14.74.53-8.39,4.85-15.37,6.58-21.3.29-6.03-6.39-4.02-15.71,2.74-22.08,8.02-7.56,16.39-6.55,23.05-.95Z"/><path class="cls-13" d="m203.32,134.08l21.07,37.96-6.86,3.82-21.08-37.96-15.16,8.44-3.04-5.48,37.18-20.7,3.04,5.48-15.16,8.44Z"/><path class="cls-13" d="m282.65,152.55l-8.44,2.15c-2.06-2.82-3.45-5.66-5.37-10.82-1.93-4.93-4.63-7.66-9.1-6.82-1.2.23-2.39.54-3.58.84l-7.47,1.9,5.14,20.09-7.67,1.96-12.3-48.14,16.61-4.23c2.58-.66,4.33-1.1,6.7-1.41,7.21-.87,13.39,1.49,15.49,9.73,1.6,6.28-1.29,10.95-5.99,13.79,4.81.78,7.69,4.5,9.46,9.4,2.11,5.93,3.89,9.41,6.52,11.56Zm-27.44-20.72c1.95-.5,3.14-.8,4.29-1.24,4.08-1.49,6.61-4.66,5.31-9.75s-4.42-6.53-8.68-6.04c-1.31.11-2.58.36-4.54.86l-8.51,2.17,4.1,16.04,8.03-2.04Z"/><path class="cls-13" d="m292.22,152.93l-2.78-49.61,7.91-.43,2.78,49.61-7.91.43Z"/><path class="cls-13" d="m342.43,156.15l-15.37-43.88c-.67,5.65-1.6,11.99-2.4,17.04l-3.71,23.47-7.83-1.22,7.76-49.08,11.03,1.73,15.54,44.2c.73-5.57,1.7-12.12,2.5-17.17l3.73-23.61,7.68,1.2-7.69,49.08-11.24-1.76Z"/><path class="cls-13" d="m405.6,179.96l-6.13,2.85c-2.94-4.97-4.65-6.54-7.11-7.75-1.81-.89-3-1.23-5-1.74-1.58-.37-3.13-.97-4.81-1.8-13.7-6.73-16.89-20.01-10.14-33.78,6.78-13.83,19.2-19.37,32.9-12.64,13.64,6.7,16.86,19.92,10.07,33.75-3.39,6.92-9.02,11.69-15.87,12.9,2.65,1.95,4.48,4.61,6.08,8.2Zm-20.39-13.87c8.66,4.26,17.13.07,22.55-10.98,5.45-11.12,3.55-20.32-5.11-24.58-8.73-4.29-17.16-.17-22.61,10.95-5.42,11.05-3.55,20.32,5.18,24.61Z"/><path class="cls-13" d="m459.77,183.07l-6.12-5.47c3.36-4.63,3.14-9.36-1.15-13.2-3.49-3.12-7.67-3.96-10.79-.46-3.21,3.6-2.5,7.23,2.04,13.71,6.48,9.17,7.23,16.12,1.71,22.3-6,6.71-15.6,5.47-22.79-.96-8.48-7.58-10.31-16.46-4.39-24.59l6.12,5.47c-3.11,5.43-2.05,10.72,2.3,14.61,3.87,3.46,8.79,4.1,11.82.71,3.45-3.87,2.97-7.87-1.79-14.64-5.54-7.95-7.87-14.76-2.11-21.2,5.85-6.55,15.3-5.35,22.23.84,8.21,7.34,7.92,15.78,2.92,22.89Z"/></g></g></g></svg>